<?xml version="1.0" encoding="utf-8"?>
<!-- Generator: Adobe Illustrator 16.0.0, SVG Export Plug-In . SVG Version: 6.00 Build 0)  -->
<!DOCTYPE svg PUBLIC "-//W3C//DTD SVG 1.1//EN" "http://www.w3.org/Graphics/SVG/1.1/DTD/svg11.dtd">
<svg version="1.1" id="Layer_1" xmlns="http://www.w3.org/2000/svg" xmlns:xlink="http://www.w3.org/1999/xlink" x="0px" y="0px"
	 width="170.079px" height="170.079px" viewBox="0 0 170.079 170.079" enable-background="new 0 0 170.079 170.079"
	 xml:space="preserve">
<g>
	<path fill-rule="evenodd" clip-rule="evenodd" fill="#B25726" d="M138.735,104.254c0,1.76,0.001,3.52,0.001,5.278
		c-2.819,1.725-5.854,2.887-9.087,3.561c-2.439,0.508-4.772,1.417-7.009,2.445c-2.723,1.252-5.551,1.809-8.472,2.129
		c-0.239,0.026-0.498,0.033-0.7,0.147c-3.089,1.759-6.628,1.597-9.951,2.355c-5.681,1.297-11.461,2.124-17.23,2.69
		c-6.912,0.679-13.845,2.033-20.85,0.821c-0.472-0.082-0.976-0.083-1.432,0.049c-5.096,1.479-10.146-0.106-15.179-0.436
		c-2.86-0.188-5.716-0.145-8.568-0.309c-1.218-0.07-2.392-0.182-3.378-0.995c-0.457-0.708-0.42-1.476-0.276-2.256
		c0.958-3.083,1.084-2.857,4.196-2.763c3.255,0.1,6.356,1.659,9.675,0.872c0.457-0.107,0.924,0.206,1.372,0.376
		c0.674,0.258,1.467,0.759,2.055,0.543c3.7-1.364,7.16,1.141,10.706,0.634c6.678-0.954,13.502-0.203,20.122-2.03
		c2.046-0.564,4.374-0.427,6.555-0.615c3.52-0.304,6.76-1.931,10.302-1.795c1.193,0.046,1.845-0.668,2.499-1.461
		c2.429-0.761,4.956-0.031,7.394-0.511c1.366-0.574,0.423-2.174,1.309-2.958c0.075-0.027,0.212-0.086,0.218-0.074
		c1.553,2.839,3.719,1.608,5.657,0.717c3.659-1.683,7.669-2.167,11.416-3.559c2.318-0.86,4.385-2.322,6.858-2.783
		C137.538,104.216,138.111,103.736,138.735,104.254z"/>
	<path fill-rule="evenodd" clip-rule="evenodd" fill="#A24B24" d="M37.07,119.607c0,0.8,0,1.601,0,2.4
		c1.109,1.251,0.514,2.779,0.686,4.183c0.082,0.982-0.076,1.965,0,2.947c0.012,0.953-0.067,1.905-0.012,2.857
		c0.024,0.562-0.058,1.115-0.192,1.859c1.927-1.477,3.945-0.529,5.795-0.247c5.325,0.812,10.764-0.008,15.981,0.908
		c5.97,1.047,11.76-0.482,17.663-0.161c4.242,0.229,8.563-0.8,12.855-1.153c7.577-0.625,15.082-1.769,22.47-3.455
		c5.581-1.274,11.185-2.56,16.622-4.438c2.639-0.911,5.353-1.609,7.996-2.521c0.619-0.214,1.247-0.319,1.803,0.185
		c0,1.439,0,2.88,0,4.319c-0.65,0.766-1.546,1.132-2.457,1.43c-10.024,3.287-20.116,6.268-30.683,7.344
		c-2.349,0.239-4.535,1.399-6.979,1.539c-4.68,0.266-9.338,0.866-14.021,1.125c-15.688,0.027-31.376,0.054-47.064,0.08
		c-0.396,0.001-0.8,0.012-1.056-0.382c-1.139-3.266-0.428-6.647-0.616-9.973c-0.077-1.354,0.066-2.713,0.002-4.069
		c-0.047-3.392-0.022-6.781,0.042-10.171c-0.054-1.008-0.025-2.011,0.166-3.006c0.078-0.279,0.217-0.525,0.411-0.74
		c0.285-0.136,0.541-0.095,0.77,0.124c0.669,1.015,0.376,2.177,0.506,3.274c0.02,0.973-0.021,1.943-0.09,2.913
		C37.22,117.67,37.477,118.709,37.07,119.607z"/>
	<path fill-rule="evenodd" clip-rule="evenodd" fill="#A44D24" d="M138.735,122.972c-3.164,0.955-6.393,1.742-9.476,2.911
		c-3.575,1.355-7.436,1.677-10.94,2.979c-4.225,1.569-8.658,1.721-12.909,2.897c-4.205,1.163-8.563,1.333-12.878,1.777
		c-3.155,0.324-6.301,0.915-9.458,0.982c-2.635,0.056-5.163,1.006-7.875,0.513c-2.92-0.531-5.877,0.194-8.785,0.562
		c-1.3,0.165-2.458,0.1-3.728-0.071c-3.81-0.514-7.653-0.769-11.502-0.545c-2.492,0.145-4.898-0.664-7.34-0.644
		c-2.213,0.02-4.482-1.581-6.775,0.423c0-1.089,0-1.88,0-2.672c0.693-2.421,0.896-2.55,3.312-1.879
		c3.605,1.003,7.296,0.297,10.944,0.566c10.02,0.739,20.095,0.787,30.081-0.007c8.302-0.66,16.725-1.104,24.793-3.658
		c1.51-0.479,3.173-0.386,4.646-1.081c2.836,0.261,5.443-0.677,8.104-1.461c2.48-0.73,5.039-1.09,7.514-1.984
		c3.249-1.174,6.641-1.969,9.831-3.353c0.789-0.342,1.601-0.817,2.443-0.097C138.735,120.412,138.735,121.691,138.735,122.972z"/>
	<path fill-rule="evenodd" clip-rule="evenodd" fill="#AE5426" d="M37.07,126.327c0-1.44-0.001-2.88-0.001-4.319
		c6.126,0.401,12.256,0.688,18.378,1.241c2.578,0.233,5.372,1.508,8.062-0.149c0.639-0.394,1.755-0.243,2.588-0.056
		c3.299,0.743,6.606-0.122,9.854,0.117c3.489,0.257,6.701-1.088,10.201-0.887c3.16,0.182,6.378-1.153,9.604-1.457
		c3.646-0.343,7.128-1.562,10.706-1.9c2.48-0.235,4.621-1.476,6.844-1.672c1.941-0.172,3.643-1.34,5.753-0.947
		c1.55,0.287,2.895-1.302,4.446-1.877c3.205-1.188,6.464-2.156,9.766-2.929c1.928-0.45,3.23-2.502,5.464-1.96
		c0,1.12-0.001,2.24-0.001,3.36c-0.568,0.825-1.388,1.317-2.301,1.649c-11.125,4.046-22.462,7.195-34.134,9.371
		c-8.675,1.616-17.406,2.296-26.134,3.199c-6.047,0.626-12.106,0.503-18.185,0.056c-5.966-0.438-11.968-0.407-17.895-1.364
		C38.986,125.626,38.127,126.467,37.07,126.327z"/>
	<path fill-rule="evenodd" clip-rule="evenodd" fill="#AC5125" d="M37.07,126.327c0.84-1.294,1.887-1.689,3.449-1.195
		c3.604,1.141,7.417,0.868,11.106,1.072c8.625,0.477,17.282,1.222,25.928,0.123c8.164-1.036,16.351-1.704,24.501-3.096
		c8.72-1.49,17.11-4.047,25.606-6.229c3.744-0.961,7.435-2.591,11.074-4.11c0,1.279,0.001,2.56,0.001,3.84
		c-0.806,0.838-1.861,1.197-2.925,1.563c-6.246,2.151-12.523,4.267-18.938,5.786c-9.24,2.188-18.566,4.022-28.06,4.859
		c-4.931,0.435-9.869,0.785-14.792,1.297c-1.601,0.166-3.185,0.15-4.78-0.067c-2.864-0.389-5.706-0.328-8.588,0.091
		c-3.495,0.508-7-0.299-10.497-0.467c-4.36-0.21-8.704-0.78-13.085-0.589C37.07,128.246,37.07,127.286,37.07,126.327z"/>
	<path fill-rule="evenodd" clip-rule="evenodd" fill="#FECF30" d="M79.781,31.377c17.343-0.026,34.687-0.036,52.03-0.107
		c1.461-0.006,1.76,0.582,1.687,1.847c-0.063,1.112,0.043,2.234,0.074,3.352c-0.659,0.852-1.605,0.794-2.531,0.803
		c-3.329,0.071-6.66,0.102-9.991,0.005c-3.506,0.091-7.012,0.072-10.518,0.034c-3.354-0.024-6.706,0.079-10.059,0.001
		c-2.146-0.092-4.295,0.128-6.441-0.021c-17.515,0.144-35.028,0.036-52.542,0.055c-1.417,0.001-2.896,0.258-4.203-0.597
		c-0.449-0.94,0.356-1.036,0.884-1.193c1.001-0.298,2.052-0.208,3.085-0.208c10.743-0.005,21.486-0.042,32.229,0.026
		c2.535,0.016,4.813-0.032,5.501-3.126C79.07,31.868,79.488,31.646,79.781,31.377z"/>
	<path fill-rule="evenodd" clip-rule="evenodd" fill="#FBCF31" d="M79.781,31.377c-1.561,5.612-0.388,4.678-6.256,4.705
		c-11.309,0.053-22.618,0.01-33.926,0.026c-0.854,0.001-1.762-0.238-2.549,0.337c-0.071,0.086-0.142,0.173-0.212,0.26
		c-0.228,0.02-0.442-0.026-0.644-0.135c-1.601-1.644-3.728-2.831-4.524-5.179C47.706,31.387,63.743,31.382,79.781,31.377z"/>
	<path fill-rule="evenodd" clip-rule="evenodd" fill="#A85025" d="M37.07,129.206c1.058-1.439,2.61-1.048,3.962-0.894
		c4.226,0.482,8.51,0.411,12.694,0.997c4.386,0.614,8.683-0.477,12.98-0.053c9.086,0.895,18.04-0.515,26.959-1.604
		c10.053-1.227,20.074-2.952,29.761-6.159c5.072-1.68,10.204-3.181,15.31-4.762c0,0.319-0.001,0.64-0.001,0.959
		c-0.869,1.18-2.251,1.471-3.501,1.929c-6.864,2.517-13.89,4.494-21,6.19c-1.085,0.26-2.228,0.013-3.256,0.521
		c-1.51,1.824-3.841,1.02-5.743,1.719c-3.742,1.375-7.775,1.591-11.786,1.933c-3.452,0.295-6.912,1.058-10.395,1.396
		c-2.51,0.243-5.045,0.219-7.56,0.432c-4.657,0.393-9.319-0.69-13.93-0.129c-4.387,0.535-8.632-0.23-12.946-0.458
		c-3.244-0.17-6.517,0.548-9.694-0.792c-1.447-0.61-1.102,1.237-1.855,1.654C37.069,131.126,37.07,130.166,37.07,129.206z"/>
	<path fill-rule="evenodd" clip-rule="evenodd" fill="#DC7327" d="M131.133,36.595c0.812-0.042,1.626-0.083,2.439-0.125
		c1.699,0.396,3.565-0.674,5.166,0.588c-0.168,0.173-0.507,0.264-0.552,0.436c-1.67,6.503-6.318,10.879-10.977,15.194
		c-2.1,1.945-3.809,4.27-6.268,5.885c-2.473,1.624-4.872,3.335-7.591,4.536c-1.449-0.639-1.342-2.28-2.152-3.332
		c-0.11-0.335-0.141-0.679-0.11-1.028c0.157-1.932,1.66-2.86,3.02-3.775c6.521-4.385,11.635-10.064,15.676-16.756
		C130.155,37.604,130.443,36.938,131.133,36.595z"/>
	<path fill-rule="evenodd" clip-rule="evenodd" fill="#D36D28" d="M138.735,51.949c0,3.036,0,6.072,0,9.107
		c-2.822,4.133-7.104,6.489-11.061,9.295c-3.604,2.558-7.861,3.786-11.519,6.216c-2.139,1.421-2.866,0.921-3.511-1.73
		c-0.11-0.182-0.221-0.364-0.343-0.539c-0.135-0.163-0.264-0.332-0.399-0.495c-0.29-0.323-0.633-0.61-0.766-1.05
		c-0.199-1.089,0.506-1.604,1.317-2.018c3.757-1.917,7.371-4.076,11.013-6.199c5.169-3.012,9.412-7.03,13.396-11.391
		C137.39,52.573,137.736,51.765,138.735,51.949z"/>
	<path fill-rule="evenodd" clip-rule="evenodd" fill="#D97027" d="M113.365,63.004c0.052-0.524,0.329-0.785,0.826-1.025
		c3.948-1.909,7.527-4.302,10.487-7.619c2.509-2.812,5.83-4.847,7.869-8.128c1.768-2.847,4.997-4.869,4.827-8.825
		c-0.03-0.706,0.902-0.191,1.363-0.348c-0.001,3.525-0.001,7.049-0.002,10.573c-1.499,3.357-4.36,5.628-6.866,8.081
		c-4.49,4.396-9.84,7.76-14.992,11.339c-0.596,0.413-1.285,0.602-1.971,0.819c-1.664,0.527-2.404-0.104-2.388-1.789
		C112.611,65.003,112.587,63.893,113.365,63.004z"/>
	<path fill-rule="evenodd" clip-rule="evenodd" fill="#C76528" d="M138.736,72.108c0,2.076,0,4.152,0,6.228
		c-1.766,2.606-4.868,3.187-7.311,4.759c-4.707,3.028-9.977,4.943-15.114,7.106c-1.161,0.489-2.256,0.933-3.209-0.334
		c-0.178-0.337-0.271-0.698-0.314-1.074c-0.088-1.123,0.045-2.268-0.354-3.358c-0.175-1.009-0.29-2.016,0.143-2.993
		c0.284-0.403,0.781-0.516,0.917-0.064c0.671,2.227,2.115,1.366,3.384,0.866c6.518-2.569,12.62-5.932,18.469-9.77
		C136.382,72.792,137.287,71.77,138.736,72.108z"/>
	<path fill-rule="evenodd" clip-rule="evenodd" fill="#BF5F28" d="M138.735,85.055c0,2.081,0,4.16,0,6.24
		c-0.51,0.718-1.061,1.403-1.892,1.768c-6.838,2.995-13.633,6.104-20.838,8.157c-0.894,0.255-1.82,0.651-2.777,0.157
		c-0.508-0.653-0.578-1.469-0.835-2.217c-0.158-2.057-0.396-4.116,0.162-6.153c0.136-0.255,0.35-0.392,0.639-0.41
		c0.544,0.238,0.653,0.752,0.794,1.244c0.261,1.125,1.026,0.991,1.866,0.776c5.045-1.292,9.752-3.472,14.437-5.655
		c2.44-1.138,4.944-2.234,7.136-3.874C137.807,84.803,138.29,84.649,138.735,85.055z"/>
	<path fill-rule="evenodd" clip-rule="evenodd" fill="#CF6928" d="M112.879,74.021c1.28,3.312,1.33,3.379,4.584,1.033
		c1.314-0.948,2.872-1.236,4.198-1.985c5.823-3.29,11.782-6.431,16.204-11.685c0.174-0.207,0.575-0.223,0.87-0.328
		c0,2.24,0,4.479,0,6.719c-5.614,4.258-11.528,8.038-17.925,11.014c-1.594,0.741-3.16,1.549-4.791,2.208
		c-2.392,0.966-2.919,0.66-3.273-1.871c-0.078-0.559-0.255-1.089-0.357-1.641C112.284,76.293,111.974,75.07,112.879,74.021z"/>
	<path fill-rule="evenodd" clip-rule="evenodd" fill="#D76E27" d="M112.969,66.338c0.375,0.516,0.011,1.544,1.521,1.08
		c2.967-0.914,4.979-3.155,7.477-4.691c6.501-3.995,11.701-9.483,16.77-15.096c0,1.439-0.001,2.879-0.001,4.318
		c-2.849,3.283-5.893,6.354-9.256,9.131c-3.445,2.844-7.317,4.987-11.17,7.153c-1.99,1.119-3.838,2.532-6.053,3.246
		c-0.744,0.24-0.828,0.887-0.801,1.559c-1.962,1.241-4.077,0.586-6.141,0.502c-0.742-0.952-0.521-3.583,0.372-4.356
		c1.324-0.211,2.746,0.094,3.94-0.772C110.9,67.979,111.772,66.896,112.969,66.338z"/>
	<path fill-rule="evenodd" clip-rule="evenodd" fill="#BB5D28" d="M113.378,101.372c7.704-2.08,14.975-5.295,22.29-8.412
		c1.104-0.471,1.818-1.552,3.067-1.665c0.001,1.759,0.001,3.52,0.001,5.278c-2.492,2.614-6.04,3.166-9.135,4.554
		c-4.146,1.857-8.506,3.213-12.918,4.349c-1.122,0.288-2.441,1.246-3.341,0.123C112.355,104.367,112.429,102.776,113.378,101.372z"
		/>
	<path fill-rule="evenodd" clip-rule="evenodd" fill="#CD6828" d="M112.928,77.856c0.056,0.057,0.145,0.104,0.163,0.171
		c0.894,3.358,0.841,3.242,4.181,1.752c6.523-2.909,12.693-6.4,18.474-10.592c0.898-0.652,1.871-1.202,2.99-1.413
		c0,1.444,0,2.888,0.001,4.332c-4.914,3.026-9.764,6.159-14.95,8.724c-2.98,1.474-6.053,2.703-9.168,3.847
		c-0.827,0.304-1.194,0.171-1.235-0.731c-0.028-0.617,0.15-1.298-0.455-1.77C111.933,80.737,111.933,79.297,112.928,77.856z"/>
	<path fill-rule="evenodd" clip-rule="evenodd" fill="#9C4722" d="M138.735,129.701c0,1.122,0.001,2.242,0.001,3.363
		c-1.055,1.538-2.864,1.593-4.387,2.086c-4.814,1.562-9.705,2.865-14.73,3.579c-5.594,0-11.188,0-16.782,0
		c0.696-1.552,2.219-1.56,3.559-1.874c1.924-0.452,3.893-0.8,5.82-1.102c2.457-0.386,4.715-1.315,7.1-1.856
		c5.262-1.191,10.515-2.442,15.68-4.028C136.211,129.495,137.468,129.272,138.735,129.701z"/>
	<path fill-rule="evenodd" clip-rule="evenodd" fill="#B75B27" d="M113.378,101.372c0.129,1.334-0.611,3.094,0.347,3.903
		c1.062,0.897,2.428-0.537,3.688-0.827c4.984-1.15,9.691-3.016,14.415-4.951c2.311-0.947,4.457-2.318,6.909-2.924
		c0,1.285-0.001,2.569-0.001,3.854c-0.479,1.158-1.561,1.567-2.584,1.977c-6.432,2.572-12.849,5.188-19.584,6.909
		c-1.823,0.466-3.332,0.3-4.165-1.659c-0.011-2.745-0.854-5.543,0.531-8.195C113.593,99.978,113.312,100.715,113.378,101.372z"/>
	<path fill-rule="evenodd" clip-rule="evenodd" fill="#9F4A23" d="M138.735,129.701c-5.303,1.052-10.455,2.715-15.713,3.963
		c-2.602,0.617-5.354,0.892-7.879,2.319c-1.275,0.721-3.344,0.824-5.004,1.03c-2.535,0.314-4.98,0.644-7.303,1.716
		c-6.081,0-12.161,0-18.242-0.001c1.936-0.292,3.912-0.424,5.797-0.91c3.804-0.982,7.783-0.372,11.559-1.405
		c6.347-1.739,12.975-2.045,19.311-3.856c5.401-1.543,10.849-2.925,16.087-4.992c0.432-0.17,0.924-0.186,1.388-0.273
		C138.735,128.095,138.735,128.898,138.735,129.701z"/>
	<path fill-rule="evenodd" clip-rule="evenodd" fill="#C46328" d="M113.379,94.173c0-0.479-0.001-0.959-0.001-1.438
		c-0.715-0.961-0.838-1.921,0-2.881c2.31,1.213,3.876-0.863,5.633-1.524c3.648-1.373,7.262-2.888,10.651-4.994
		c2.908-1.807,6.027-3.37,9.074-5c-0.001,1.285-0.001,2.569-0.001,3.853c-1.289,2.106-3.517,3.018-5.552,4.007
		c-4.513,2.197-8.976,4.56-13.873,5.862c-1.109,0.296-1.867,1.259-2.946,1.573C115.396,93.912,114.476,94.567,113.379,94.173z"/>
	<path fill-rule="evenodd" clip-rule="evenodd" fill="#B55927" d="M112.939,108.094c1.199,1.092,2.399,0.9,3.928,0.499
		c4.587-1.203,8.995-2.901,13.439-4.49c2.88-1.029,5.624-2.438,8.429-3.676c0,1.276,0,2.552,0,3.827
		c-5.575,2.106-10.947,4.772-16.899,5.837c-1.604,0.287-3.092,1.193-4.645,1.782c-3.183,1.206-3.19,1.194-4.251-1.858
		C112.332,109.375,112.333,108.734,112.939,108.094z"/>
	<path fill-rule="evenodd" clip-rule="evenodd" fill="#C26128" d="M113.379,94.173c5.137-2.167,10.265-4.356,15.413-6.493
		c3.523-1.463,6.724-3.491,9.943-5.491c0,0.955,0,1.911,0,2.867c-5.799,3.799-12.237,6.256-18.569,8.959
		c-1.696,0.724-3.53,0.734-5.2,1.52C114.03,95.976,113.272,95.378,113.379,94.173z"/>
	<path fill-rule="evenodd" clip-rule="evenodd" fill="#7B3D1A" d="M36.609,110.485c-0.015,0.164-0.029,0.327-0.044,0.491
		c-1.605,1.867-2.709,2.071-5.18,0.956c0-3.52,0-7.039,0-10.558c1.136-0.909,2.548-1.256,3.835-1.854
		c0.655-0.304,1.396-0.472,1.808,0.45C37.201,103.488,37.835,107.024,36.609,110.485z"/>
	<path fill-rule="evenodd" clip-rule="evenodd" fill="#A14C24" d="M31.668,31.392c1.67,1.704,3.34,3.408,5.009,5.112
		c1.011,2.333,0.614,4.725,0.294,7.114c-1.792,1.958-3.156,2.231-5.586,1.12C31.44,40.288,30.875,35.826,31.668,31.392z"/>
	<path fill-rule="evenodd" clip-rule="evenodd" fill="#984521" d="M119.619,138.729c0.122-0.867,0.781-0.791,1.426-0.895
		c5.052-0.813,9.959-2.187,14.774-3.905c0.953-0.341,1.943-0.58,2.917-0.865c0.302,5.746,0.302,5.757-5.473,5.743
		C128.716,138.797,124.167,138.757,119.619,138.729z"/>
	<path fill-rule="evenodd" clip-rule="evenodd" fill="#753A19" d="M36.566,113.859c0.002,3.519,0.005,7.038,0.008,10.558
		c-1.583,2.611-2.626,2.996-5.19,1.915c0-3.521,0-7.04,0.001-10.56C33.31,115.669,34.997,114.924,36.566,113.859z"/>
	<path fill-rule="evenodd" clip-rule="evenodd" fill="#6D3717" d="M31.384,126.332c2.12,0.419,3.762-0.458,5.19-1.915
		c-0.034,4.67-0.067,9.34-0.1,14.01c-1.375-1.274-2.74-2.56-4.127-3.82c-0.854-0.777-1.148-1.687-1.068-2.852
		C31.403,129.953,31.357,128.14,31.384,126.332z"/>
	<path fill-rule="evenodd" clip-rule="evenodd" fill="#954621" d="M31.385,67.295c0-3.039,0-6.079,0-9.118
		c1.745-1.519,3.648-1.32,5.612-0.519c0.377,2.691,0.466,5.379-0.062,8.064C34.968,68.162,33.934,68.454,31.385,67.295z"/>
	<path fill-rule="evenodd" clip-rule="evenodd" fill="#9A4823" d="M36.548,57.221c-1.495,1.54-3.591-0.168-5.163,0.956
		c0-2.879,0-5.759,0-8.639c1.59-0.119,3.251,0.25,4.657-0.97c0.438-0.38,0.835,0.167,1.029,0.646
		C37.117,51.899,37.912,54.631,36.548,57.221z"/>
	<path fill-rule="evenodd" clip-rule="evenodd" fill="#8E4420" d="M31.386,78.815c0-2.72-0.001-5.439-0.001-8.159
		c1.893,0.113,3.615-1.417,5.586-0.579c0.439,2.196,0.419,4.391,0.005,6.587C35.671,78.828,33.803,79.538,31.386,78.815z"/>
	<path fill-rule="evenodd" clip-rule="evenodd" fill="#A85025" d="M110.979,126.331c2.221-1.537,4.931-1.771,7.404-2.232
		c4.709-0.877,9.087-2.69,13.634-4.002c2.281-0.658,4.482-1.595,6.719-2.405c0,0.48,0,0.961,0.001,1.44
		c-3.154,1.181-6.311,2.495-9.521,3.337c-2.757,0.723-5.292,2.232-8.333,2.231c-2.054-0.002-4.06,1.147-6.104,1.722
		C113.388,126.812,112.236,126.823,110.979,126.331z"/>
	<path fill-rule="evenodd" clip-rule="evenodd" fill="#82401D" d="M31.385,95.134c0-1.919,0-3.839,0-5.759
		c1.413-0.759,3.234-0.917,3.386-3.243c0.051-0.783,1.387-0.713,2.115,0.047c0.625,1.484,0.259,3.044,0.369,4.568
		c-0.061,1.145,0.145,2.32-0.402,3.408C35.272,95.825,33.488,96.374,31.385,95.134z"/>
	<path fill-rule="evenodd" clip-rule="evenodd" fill="#8A411E" d="M31.386,78.815c1.796-0.444,3.741-0.489,5.172-1.917
		c1.158,2.384,0.899,4.805,0.194,7.24c-1.796,0.957-3.587,1.062-5.368-0.044C31.384,82.333,31.385,80.574,31.386,78.815z"/>
	<path fill-rule="evenodd" clip-rule="evenodd" fill="#81401C" d="M31.385,95.134c1.806,0.12,3.572,0.022,5.175-0.959
		c1.026,1.761,1.024,3.521,0.001,5.282c-1.708,0.685-3.152,2.084-5.176,1.918C31.385,99.294,31.385,97.214,31.385,95.134z"/>
	<path fill-rule="evenodd" clip-rule="evenodd" fill="#9D4A23" d="M36.546,48.58c-1.476,1.634-3.095,2.497-5.16,0.958
		c0-1.6,0-3.2,0-4.8c1.794,0.035,3.608,0.178,5.185-0.959c1.009,1.102,0.594,2.433,0.595,3.698
		C37.089,47.917,36.925,48.309,36.546,48.58z"/>
	<path fill-rule="evenodd" clip-rule="evenodd" fill="#89421E" d="M31.384,84.093c1.728,0,3.456,0,5.184,0
		c0.583,0.642,0.583,1.283-0.003,1.922c-0.533,0.145-1.647-0.295-1.496,0.543c0.639,3.531-1.825,2.721-3.683,2.815
		C31.385,87.614,31.385,85.854,31.384,84.093z"/>
	<path fill-rule="evenodd" clip-rule="evenodd" fill="#763B19" d="M36.566,113.859c-1.128,2.26-2.864,2.873-5.181,1.913
		c0-1.28,0-2.561,0-3.84c1.778-0.043,3.629,0.314,5.18-0.956C36.565,111.938,36.565,112.898,36.566,113.859z"/>
	<path fill-rule="evenodd" clip-rule="evenodd" fill="#914520" d="M36.554,69.697c-1.534,1.338-3.218,1.869-5.169,0.959
		c0-1.12,0-2.24,0-3.361c1.883,0.096,3.75,0.137,5.167-1.437C37.507,67.138,37.506,68.417,36.554,69.697z"/>
	<path fill-rule="evenodd" clip-rule="evenodd" fill="#B35927" d="M37.07,119.607c0-0.96,0-1.919,0-2.879
		c0.561-1.984,2.482-2.079,3.7-1.759c3.783,0.994,7.598-0.137,11.4,0.682c5.107,1.1,10.38,0.72,15.562,0.431
		c3.172-0.178,6.288,0.596,9.488,0.01c2.406-0.44,4.918-0.794,7.38-0.595c1.786,0.145,0.934-1.828,2.037-2.075
		c2.369-0.514,4.771-0.146,7.154-0.261c1.022-0.05,2.096,0.133,2.949-0.651c0.384-0.393,0.703-1.515,1.289-0.876
		c1.924,2.095,1.937,0.06,2.451-0.989c0.207-0.421,0.399-0.881,1.024-0.624c0.712,0.793,0.232,1.936,0.824,2.759
		c0.393,0.498,1.131,0.562,1.451,1.147c0.599,1.174,0.853,1.995-1.077,1.596c-1.347-0.279-3.06-0.076-4.039,0.398
		c-2.998,1.451-6.446,0.461-9.31,2.12c-0.253,0.146-0.634,0.158-0.938,0.116c-4.188-0.583-8.147,0.749-12.197,1.367
		c-1.391,0.212-2.899,0.199-4.267-0.105c-2.668-0.593-5.08,0.833-7.672,0.693c-1.822-0.1-3.649,0.168-5.239-1.168
		c-0.69-0.581-1.694-0.456-2.459,0.144c-0.853,0.668-1.833,0.679-2.743,0.419c-4.145-1.183-8.442-1.145-12.666-1.691
		c-0.149-0.02-0.37,0.144-0.459,0.081C38.494,116.345,37.669,117.731,37.07,119.607z"/>
	<path fill-rule="evenodd" clip-rule="evenodd" fill="#F9B732" d="M103.78,113.927c-0.674-0.168-1.488,0.145-1.998-0.585
		c0.102-2.162-0.899-4.276-0.289-6.463c2.604-2.213,5.879-2.957,9.004-3.981c1.02-0.334,1.854,0.254,1.896,1.504
		c0.028,0.869,0.002,1.744,0.25,2.593c-0.146,2.262,0.347,4.547-0.262,6.789C109.514,113.831,106.647,113.878,103.78,113.927z"/>
	<path fill-rule="evenodd" clip-rule="evenodd" fill="#E09A2A" d="M112.381,113.783c0.008-2.38,0.016-4.76,0.024-7.14
		c-0.441-3.269-0.945-6.534-0.729-9.852c0.069-0.595,0.061-1.193,0.064-1.791c0.053-2.969-0.044-5.938-0.055-8.906
		c0.239-3.655-0.148-7.317,0.119-10.974c0.058-0.295,0.166-0.571,0.317-0.831c0.107-0.104,0.216-0.206,0.325-0.307
		c0.143,0.018,0.286,0.03,0.431,0.038c0.016,1.278,0.032,2.557,0.048,3.835c0.001,1.44,0.001,2.88,0.001,4.321
		c-0.001,1.124-0.001,2.249-0.002,3.373c0.428,1.103,0.104,2.25,0.205,3.373c-0.093,1.27,0.205,2.56-0.195,3.812
		c-0.001,2.241-0.002,4.481-0.002,6.723c0.002,2.879,0.004,5.758,0.006,8.636c0,0.641,0,1.28,0.001,1.921
		C112.613,111.25,113.453,112.658,112.381,113.783z"/>
	<path fill-rule="evenodd" clip-rule="evenodd" fill="#B75A27" d="M86.525,113.839c0.154,1.733-0.291,2.281-2.344,2.321
		c-3.179,0.061-6.449,0.11-9.566,1.04c-1.761,0.525-3.186-0.841-5.05-0.596c-3.523,0.464-7.166,1.084-10.705-0.212
		c-0.211-0.077-0.55-0.133-0.693-0.022c-2.534,1.961-4.948,0.081-7.366-0.299c-1.281-0.202-2.562-0.508-3.768-0.145
		c-1.633,0.493-3.112,0.243-4.684-0.186c-1.872-0.51-3.716-0.389-5.279,0.987c0-0.96,0-1.921,0-2.881
		c0.521-3.046,0.589-3.274,3.762-3.04c4.413,0.325,8.845,0.692,13.103,2.074c3.275,0.429,6.541,0.567,9.786-0.213
		c6.363,0.109,12.669-1.091,19.039-0.861c0.899,0.032,1.683-0.484,2.565-0.535C86.515,111.759,86.829,112.654,86.525,113.839z"/>
	<path fill-rule="evenodd" clip-rule="evenodd" fill="#BB5D28" d="M53.456,113.817c-0.743-1.931-2.395-0.769-3.61-1.016
		c-3.021-0.615-6.036-1.235-9.144-1.399c-1.996-0.105-3.341,0.255-3.633,2.445c-0.003-1.117-0.007-2.235-0.01-3.353
		c-0.423-0.766-0.191-1.575-0.161-2.372c0.563-1.93,2.288-1.787,3.721-1.942c1.911-0.207,3.796,0.245,5.688,0.568
		c2.192,0.375,4.393,0.822,6.648,0.645c0.828-0.065,1.629,0.009,1.861,1.048C54.847,110.354,54.463,112.165,53.456,113.817z"/>
	<path fill-rule="evenodd" clip-rule="evenodd" fill="#AC5125" d="M37.071,108.087c-0.004,0.803-0.008,1.605-0.012,2.408
		c-0.15-0.002-0.3-0.006-0.451-0.01c-0.015-3.677-0.031-7.353-0.047-11.028c0-1.761-0.001-3.521-0.001-5.282
		c0.017-1.124,0.033-2.249,0.05-3.373c0.285-0.135,0.518-0.074,0.703,0.182c0.376,0.615,0.375,1.311,0.43,1.995
		c0.063,1.651-0.069,3.304,0.013,4.956c0.062,0.699-0.064,1.398,0.016,2.098c-0.026,1.562-0.088,3.125-0.003,4.689
		C37.867,105.912,37.51,107.008,37.071,108.087z"/>
	<path fill-rule="evenodd" clip-rule="evenodd" fill="#E47825" d="M110.493,36.593c3.521,0.001,7.043,0.002,10.564,0.003
		c0.739,1.595-0.202,2.812-1.061,3.905c-5.882,7.479-13.114,13.419-21.88,17.03c-4.451,1.833-8.979,3.739-13.753,4.813
		c-1.071,0.241-1.844,0.215-2.521-0.649c-0.705-0.478-0.774-1.29-1.063-1.984c-0.528-0.52-1.221-0.461-1.819-0.366
		c-3.009,0.477-6.036,0.452-9.065,0.451c-0.518,0-0.933,0.173-1.191,0.643c-0.694,1.098,0.456,2.936-1.42,3.55
		c-0.47-1.223-0.084-2.434-0.089-3.649c0.14-0.014-0.097,0.023-0.105,0.145c-0.275,4.149-0.271,4.147-4.466,3.995
		c-5.078-0.185-10.149-0.399-15.171-1.3c-2.218-0.398-4.196-1.461-6.353-2.026c-2.416-0.632-2.547-0.63-2.902,1.788
		c-0.204,1.388-0.204,1.388-1.327,1.779c-0.088-2.815-0.016-5.63-0.039-8.441c0.213-0.938,0.223-1.893,0.246-2.852
		c0.055-2.335,0.553-2.73,2.769-1.935c4.824,1.733,9.73,3.081,14.813,3.838c11.361,1.692,22.382,0.522,33.205-3.341
		c7.446-2.658,13.945-6.641,19.391-12.37C108.27,38.55,108.817,36.96,110.493,36.593z"/>
	<path fill-rule="evenodd" clip-rule="evenodd" fill="#E97B24" d="M110.493,36.593c-3.033,4.157-6.733,7.554-11.035,10.416
		c-6.198,4.124-13.006,6.712-20.194,8.207c-5.617,1.167-11.34,1.874-17.133,1.533c-6.287-0.372-12.47-1.244-18.444-3.329
		c-1.424-0.497-2.99-0.708-4.283-1.425c-1.828-1.014-1.825-0.028-1.874,1.295c-0.031,0.841,0.328,1.781-0.465,2.487
		c-0.514-1.88-0.095-3.798-0.234-5.689c0.416-1.646,0.173-3.336,0.312-5.005c0.131-1.583,0.907-2.004,2.231-1.331
		c2.42,1.23,5.133,1.844,7.368,3.44c1.307,0.933,2.913,0.839,4.317,1.157c5.786,1.31,11.656,2.133,17.653,1.396
		c2.754-0.339,5.508-0.855,8.308-0.767c0.736,0.023,1.438-0.111,2.065-0.503c1.583-0.988,3.369-1.437,5.122-1.984
		c2.056-0.642,3.922-1.713,5.863-2.594c3.193-1.451,5.512-3.859,8.097-5.999c0.689-0.571,1.436-0.976,2.247-1.302
		C103.772,36.595,107.133,36.594,110.493,36.593z"/>
	<path fill-rule="evenodd" clip-rule="evenodd" fill="#ED7E23" d="M37.049,36.445c5.256,0.039,10.513,0.103,15.769,0.112
		c13.785,0.024,27.57,0.025,41.355,0.035c-0.886,1.977-2.614,3.156-4.34,4.194c-6.676,4.014-13.955,6.235-21.736,6.476
		c-4.204,0.13-8.416,0.233-12.632-0.561c-5.477-1.032-10.607-2.81-15.336-5.735c-1.088-0.673-1.967-1.259-2.094,0.752
		c-0.033,0.52-0.154,1.524-1.197,0.773c0.124-1.973-0.291-3.962,0.225-5.917L37.049,36.445z"/>
	<path fill-rule="evenodd" clip-rule="evenodd" fill="#E17526" d="M82.139,61.604c1.809,0.96,3.512-0.165,5.027-0.648
		c3.272-1.045,6.431-2.454,9.723-3.529c2.515-0.821,4.803-2.36,7.164-3.629c6.106-3.284,10.731-8.271,15.293-13.333
		c1.01-1.121,1.351-2.487,1.712-3.868c3.358,0,6.717-0.001,10.075-0.001c-2.677,5.641-6.573,10.31-11.167,14.502
		c-2.292,2.091-4.84,3.806-7.271,5.689c-0.676,0.523-0.946,1.168-1.238,1.87c-0.951,0.458-1.787-0.191-2.681-0.277
		c-0.879-0.089-1.758-0.104-2.637-0.02c-0.809,0.073-1.323,0.594-1.794,1.184c-1.822,1.541-1.53,3.947-2.409,5.872
		c-1.504-1.726-3.089-0.956-4.745-0.23c-3.419,1.498-7.125,2.076-10.658,3.211c-0.995,0.32-1.858,0.079-2.692-0.458
		c-0.693-0.374-0.875-1.086-1.158-1.734C82.4,64.684,81.089,63.281,82.139,61.604z"/>
	<path fill-rule="evenodd" clip-rule="evenodd" fill="#EB7B23" d="M37.077,42.814c0.884-0.96,0.317-2.136,0.468-3.206
		c0.121-0.857,0.35-1.186,1.191-0.552c7.042,5.31,15.107,7.358,23.796,7.631c5.769,0.182,11.462-0.153,16.936-2.017
		c4.749-1.617,9.703-2.963,13.127-7.108c0.373-0.451,1.046-0.654,1.579-0.972c2.08,0.001,4.159,0.002,6.239,0.003
		c-1.449,1.345-2.992,2.604-4.319,4.062c-1.222,1.342-2.642,2.118-4.224,3.003c-3.465,1.939-7.214,2.968-10.75,4.56
		c-4.902,2.206-10.043,1.532-15.055,2.248c-2.188,0.312-4.426-0.179-6.649,0.415c-1.542,0.412-2.733-1.284-4.224-1.299
		c-2.485-0.025-4.777-1.47-7.364-0.868c-0.425,0.099-1.052-0.872-1.645-1.256c-2.323-1.504-5.186-1.838-7.478-3.479
		c-0.771-0.551-0.824,0.217-1.005,0.936c-0.384,1.531,0.37,3.203-0.639,4.621c-0.415-0.654-0.157-1.383-0.23-2.075
		C36.969,45.915,36.537,44.339,37.077,42.814z"/>
	<path fill-rule="evenodd" clip-rule="evenodd" fill="#E17526" d="M37.077,42.814c-0.007,1.606-0.014,3.211-0.021,4.817
		c-0.167,0.208-0.314,0.195-0.441-0.04c-0.014-1.271-0.029-2.542-0.043-3.814c0.035-2.425,0.071-4.85,0.107-7.275
		c0.13,0.016,0.259,0.041,0.387,0.072C37.069,38.655,37.073,40.735,37.077,42.814z"/>
	<path fill-rule="evenodd" clip-rule="evenodd" fill="#FDC82F" d="M101.812,65.354c0.054-2.385-0.017-4.818,2.451-6.257
		c0.484-0.758,1.338-0.841,2.077-1.131c0.692-0.035,1.385-0.035,2.078,0c1.045,0.448,2.292,0.501,3.026,1.554
		c1.086,0.915,1.274,2.326,1.922,3.484c-0.134,1.111-0.266,2.223-0.398,3.334c-0.451,1.424-1.634,1.97-2.9,2.414
		c-1.719,0.734-3.535,0.364-5.309,0.471c-1.827-0.269-2.75-1.461-3.2-3.137C101.557,65.812,101.642,65.568,101.812,65.354z"/>
	<path fill-rule="evenodd" clip-rule="evenodd" fill="#C16D29" d="M111.444,59.52c-0.972-0.434-1.944-0.867-2.917-1.3
		c0.055-0.291,0.352-0.332,0.519-0.506c0.804,0.314,1.607,0.629,2.411,0.943C111.453,58.944,111.448,59.232,111.444,59.52z"/>
	<path fill-rule="evenodd" clip-rule="evenodd" fill="#B35526" d="M104.738,73.037c2.239,0,4.479,0,6.718,0.001
		c0.4,0.032,0.774,0.113,0.961,0.532c-3.216,1.243-6.532,0.48-9.811,0.49c-0.299-0.087-0.558-0.242-0.777-0.461
		C102.493,71.834,103.617,72.444,104.738,73.037z"/>
	<path fill-rule="evenodd" clip-rule="evenodd" fill="#D59A29" d="M102.34,73.553c3.359,0.005,6.718,0.011,10.077,0.017
		c-0.002,0.139,0.008,0.277,0.031,0.414l-0.071,0.081c-2.976,1.218-6.066,0.415-9.105,0.523c-0.278-0.052-0.536-0.158-0.773-0.311
		C102.245,74.08,102.193,73.838,102.34,73.553z"/>
	<path fill-rule="evenodd" clip-rule="evenodd" fill="#C26128" d="M112.936,92.735c0-1.279,0-2.559,0-3.839
		c0.146-0.22,0.294-0.221,0.442-0.003c0,0.32,0,0.64,0,0.96c0,0.96,0,1.92,0,2.881C113.23,92.733,113.083,92.734,112.936,92.735z"/>
	<path fill-rule="evenodd" clip-rule="evenodd" fill="#C46328" d="M113.378,88.894c-0.147,0-0.296,0.001-0.443,0.003
		c-0.002-1.115-0.006-2.23-0.009-3.346C113.802,86.567,113.198,87.783,113.378,88.894z"/>
	<path fill-rule="evenodd" clip-rule="evenodd" fill="#D97027" d="M104.738,73.037c-0.953,0.187-2.036-0.378-2.872,0.494
		c-4.172,1.104-8.115,3.059-12.482,3.424c-1.058,0.088-2.267,0.284-2.746-1.177c-0.061-0.184-0.118,0.404-0.41,0.254
		c-1.124-0.901-1.212-2.125-1.073-3.419c0.42-1.103,1.464-1.184,2.374-1.292c2.951-0.351,5.666-1.563,8.529-2.228
		c2.219-0.515,4.298-1.358,5.78-3.229c0.547,1.16,1.182,2.249,2.362,2.892c0.359,0.562,1.57-0.295,1.537,0.922
		c-0.078,0.009-0.158,0.014-0.235,0.029c-0.077,0.016-0.152,0.043-0.229,0.066c1.819,0.831,0.384,1.462-0.11,2.187
		C104.952,72.271,104.876,72.675,104.738,73.037z"/>
	<path fill-rule="evenodd" clip-rule="evenodd" fill="#F7CD3B" d="M105.737,69.678c-0.512-0.308-1.024-0.615-1.537-0.922
		c1.955-0.001,3.91-0.003,5.866-0.004C108.855,70.143,107.223,69.567,105.737,69.678z"/>
	<path fill-rule="evenodd" clip-rule="evenodd" fill="#BF5F28" d="M36.614,47.592c0.147,0.016,0.294,0.029,0.441,0.039
		c0.002,0.636,0.004,1.271,0.007,1.905c0.001,2.08,0.001,4.16,0.002,6.24c0.001,3.039,0.002,6.078,0.004,9.116
		c1.179,1.449,0.43,3.184,0.709,4.766c0.098,1.908-0.14,3.816-0.006,5.725c0.111,1.312-0.1,2.625,0.011,3.937
		c0.075,2.465-0.095,4.928-0.046,7.393c-0.006,0.855-0.009,1.712-0.026,2.568c-0.051,0.584-0.168,1.14-0.653,1.54
		c-0.149-0.004-0.298-0.011-0.447-0.021c-0.015-1.596-0.03-3.19-0.045-4.786c0.001-0.641,0.002-1.282,0.003-1.922
		c-0.003-2.399-0.006-4.798-0.01-7.196c-0.001-2.4-0.002-4.8-0.003-7.201c0-1.279,0-2.559-0.001-3.838
		c-0.001-2.879-0.003-5.759-0.004-8.638c-0.001-2.881-0.001-5.761-0.002-8.641C36.568,48.251,36.591,47.921,36.614,47.592z"/>
	<path fill-rule="evenodd" clip-rule="evenodd" fill="#F8B930" d="M86.525,113.839c-0.333-0.794-0.666-1.588-1-2.382
		c-0.684-0.531-0.951-1.191-0.635-2.034c3.428-1.763,7.015-2.691,10.898-2.043c0.72,0.343,0.921,1.041,1.171,1.708
		c0.484,1.075,0.208,2.276,0.558,3.376c0.102,1.467-0.896,1.405-1.9,1.398C92.586,113.842,89.556,113.845,86.525,113.839z"/>
	<path fill-rule="evenodd" clip-rule="evenodd" fill="#B75A27" d="M97.518,112.464c-0.709-0.996-0.996-2.12-1.004-3.328
		c2.248-0.783,3.753-2.429,5.031-4.337c0.338,0.47,0.387,0.981,0.238,1.526c-0.478,1.192,0.179,2.51-0.409,3.688
		c-0.645,0.441-0.379,1.151-0.523,1.743c-0.224,0.914-0.858,1.678-1.673,1.861c-1.153,0.259-1.055-0.858-1.221-1.593
		c-0.011-0.047-0.09-0.078-0.137-0.117C97.72,112.094,97.618,112.278,97.518,112.464z"/>
	<path fill-rule="evenodd" clip-rule="evenodd" fill="#BB5E28" d="M101.374,110.014c0.003-1.282,0.006-2.565,0.009-3.849
		c0.162-0.163,0.342-0.187,0.539-0.068c0.126,0.191,0.117,0.375-0.026,0.553c-0.037,2.231-0.074,4.463-0.112,6.693
		C100.992,112.313,101.545,111.119,101.374,110.014z"/>
	<path fill-rule="evenodd" clip-rule="evenodd" fill="#F9BB2E" d="M101.896,106.649c-0.043-0.151-0.076-0.305-0.1-0.461
		c-0.273-1.616-0.876-3.204-0.438-4.884c0.36-2.446,1.822-3.647,4.246-3.911c1.526-0.166,2.582-1.471,4.037-1.887
		c1.218-0.348,2.344-0.601,2.766,1.062c0,3.358-0.001,6.717-0.002,10.075c-1.069-0.845,0.266-2.657-1.004-3.142
		c-1.503-0.572-2.779,0.794-4.183,1.223C105.416,105.274,103.668,106,101.896,106.649z"/>
	<path fill-rule="evenodd" clip-rule="evenodd" fill="#FAC42F" d="M112.404,74.491c0.001,3.839,0.003,7.678,0.004,11.517
		c-1.303-0.168-0.946-1.248-1.063-2.019c-0.177-1.166,0.182-2.38-0.346-3.818c-2.52,2.361-5.013,4.536-7.264,6.959
		c-0.992,1.068-0.612,2.588-0.9,3.892c-0.14,0.633-0.205,2.29-1.461,0.6c-0.4-5.273-0.136-10.549-0.142-15.821
		c-0.001-0.76-0.002-1.667,1.093-1.849l0.03,0.114c2.492,0.428,5.006,0.073,7.506,0.204C110.71,74.313,111.59,74.05,112.404,74.491z
		"/>
	<path fill-rule="evenodd" clip-rule="evenodd" fill="#FAC32F" d="M101.907,92.253c0.097-0.125,0.294-0.267,0.276-0.372
		c-0.823-4.83,2.949-6.961,5.687-9.693c0.335-0.334,0.777-0.565,1.1-0.91c0.782-0.839,1.441-2.525,2.553-2.046
		c1.03,0.444,0.237,2.178,0.417,3.326s-0.437,2.403,0.469,3.451c-0.001,3.039-0.003,6.077-0.004,9.115
		c-1.64-0.508-0.982-1.907-1.044-2.935c-0.164-2.75-0.143-2.729-2.562-1.393c-1.812,1.001-3.617,1.969-5.171,3.372
		c-0.552,0.498-1.269,1.088-2.065,0.244C101.247,93.622,101.207,92.878,101.907,92.253z"/>
	<path fill-rule="evenodd" clip-rule="evenodd" fill="#F7BF2E" d="M101.907,94.65c2.499-1.764,5.013-3.507,7.484-5.307
		c0.581-0.423,1.157-0.51,1.79-0.38c0.867,0.178,0.682,0.919,0.761,1.53c0.198,1.539-0.476,3.165,0.462,4.629
		c0.001,0.481,0.003,0.964,0.003,1.445c-1.467-1.774-2.901-0.468-4.109,0.252c-1.021,0.609-1.9,1.313-3.158,1.288
		c-1.894-0.039-2.618,1.314-3.227,2.784C100.813,98.812,100.821,96.731,101.907,94.65z"/>
	<path fill-rule="evenodd" clip-rule="evenodd" fill="#FECE32" d="M112.404,74.491c-3.346-0.236-6.733,0.518-10.049-0.426
		c3.341,0,6.682,0,10.021,0C112.405,74.206,112.414,74.347,112.404,74.491z"/>
	<path fill-rule="evenodd" clip-rule="evenodd" fill="#B95D28" d="M85.131,109.511c0.132,0.648,0.264,1.297,0.396,1.946
		c-1.764,1.881-4.033,0.772-6.063,0.969c-4.244,0.411-8.504,0.648-12.759,0.94c-0.951,0.065-1.907,0.057-2.764-0.476
		c-0.916-1.585,0.107-2.964,0.466-4.416c0.247-0.476,0.564-0.875,1.114-1.017c1.884,0.81,3.798,0.745,5.788,0.377
		c4.194-0.775,8.524-0.334,12.701-1.348C85.197,107.192,85.593,108.193,85.131,109.511z"/>
	<path fill-rule="evenodd" clip-rule="evenodd" fill="#F9B831" d="M64.832,108.553c-0.297,1.446-0.595,2.893-0.892,4.338
		c-0.438,0.993-1.306,0.982-2.2,0.973c-2.761-0.028-5.523-0.032-8.284-0.046c-0.277-1.829,0.885-3.402,0.921-5.176
		c0.427-0.502-0.122-1.443,0.778-1.735C58.483,106.844,61.896,106.295,64.832,108.553z"/>
	<path fill-rule="evenodd" clip-rule="evenodd" fill="#BF5F28" d="M55.249,107.061c-0.291,0.526-0.582,1.054-0.872,1.581
		c-0.075-0.302-0.116-0.761-0.496-0.696c-4.175,0.705-8.118-1.023-12.211-1.131c-1.665-0.045-3.29,0.038-4.599,1.272
		c0-1.12,0-2.24,0-3.359c0.639-3.867,0.606-3.495,4.687-3.134c3.849,0.341,7.639,1.384,11.549,1.091
		c1.012-0.076,2.096-0.144,2.774,0.911C56.437,104.902,56.208,106.069,55.249,107.061z"/>
	<path fill-rule="evenodd" clip-rule="evenodd" fill="#C76528" d="M37.069,98.01c-0.001-1.759-0.001-3.519-0.002-5.278
		c0.208-1.836,1.081-2.281,2.932-1.869c5.55,1.236,11.253,1.367,16.883,2.039c0.831,0.099,1.837-0.138,2.213,0.996
		c0.15,0.533,0.125,1.066,0.01,1.6c-0.634,1.195-0.283,2.897-1.844,3.623c-5.794-0.481-11.597-0.914-17.326-1.955
		C38.748,96.949,38.088,97.967,37.069,98.01z"/>
	<path fill-rule="evenodd" clip-rule="evenodd" fill="#CD6828" d="M58.676,94.199c-1.613-0.961-3.447-0.772-5.201-0.979
		c-4.547-0.536-9.142-0.819-13.626-1.677c-1.605-0.308-2.239-0.139-2.782,1.188c-0.003-0.637-0.007-1.272-0.01-1.909
		c0.006-0.484,0.011-0.97,0.017-1.455c0.046-1.943,0.97-2.548,2.884-2.156c5.989,1.228,12.053,1.922,18.154,2.314
		c0.771,0.05,1.642,0.018,1.945,1.016c0.148,0.528,0.124,1.058,0.012,1.588C59.692,92.876,59.919,94.034,58.676,94.199z"/>
	<path fill-rule="evenodd" clip-rule="evenodd" fill="#C46328" d="M37.069,98.01c0.509-1.313,1.045-1.893,2.83-1.545
		c5.399,1.051,10.894,1.565,16.395,1.872c0.559,0.031,0.919,0.039,0.948,0.676c0.399,0.427,0.392,0.893,0.132,1.383
		c-0.188,0.179-0.409,0.295-0.657,0.358c-0.896,0.51-1.786,1.077-2.887,0.864c-3.828-0.738-7.78-0.315-11.581-1.201
		c-1.723-0.401-3.492,0.047-5.181-0.486C37.069,99.29,37.069,98.65,37.069,98.01z"/>
	<path fill-rule="evenodd" clip-rule="evenodd" fill="#C26128" d="M37.069,99.931c2.594-1.265,5.203-0.172,7.722,0.183
		c3.219,0.452,6.511-0.017,9.688,0.943c0.647,0.195,1.523-0.367,2.293-0.579c0.519,1.357,0.608,2.592-0.967,3.344
		c-0.183-0.146-0.39-0.442-0.545-0.418c-4.174,0.679-8.202-1.237-12.361-0.69c-1.185,0.156-2.056-0.701-3.151-0.921
		c-1.776-0.355-2.503,0.015-2.237,1.899c0.045,0.318-0.283,0.689-0.439,1.036C37.07,103.129,37.07,101.529,37.069,99.931z"/>
	<path fill-rule="evenodd" clip-rule="evenodd" fill="#E17526" d="M37.071,69.69c0-1.599-0.001-3.199-0.002-4.798
		c0.893-0.956,0.408-2.129,0.453-3.198c0.067-1.583,0.692-2.192,2.266-1.708c3.363,1.034,6.59,2.558,10.148,2.897
		c3.656,0.349,7.312,0.843,10.974,0.901c1.167,0.019,2.342,0.137,3.499,0.198c1.845,0.097,2.725-0.453,2.424-2.398
		c-0.07-0.453-0.01-0.926,0.491-1.403c0,1.265,0,2.529,0,3.793c1.168,1.823-0.039,3.367-0.583,4.989
		c-0.13,0.207-0.304,0.373-0.509,0.502c-1.76,2.124-3.984,2.306-6.423,1.495c-0.604-0.201-1.208-0.608-1.825-0.472
		c-3.75,0.824-7.234-0.582-10.784-1.288c-2.178-0.433-4.413-0.624-6.53-1.326c-1.346-0.446-2.333-0.374-2.733,1.221
		C37.839,69.487,37.572,69.804,37.071,69.69z"/>
	<path fill-rule="evenodd" clip-rule="evenodd" fill="#FBCF30" d="M66.33,69.201c0.044-1.796,1.27-3.368,0.993-5.225
		c0.867-1.363,0.194-2.89,0.456-4.316c4.472-0.188,8.944-0.91,13.415,0.01c0.315,0.645,0.631,1.289,0.946,1.934
		c-0.114,1.667,1.004,3.062,1.028,4.697c-1.969,2.677-4.625,4.188-7.889,4.667c-0.96-0.148-0.715,1.067-1.394,1.243
		c-2.165-1.624-4.537-2.623-7.303-2.504C66.332,69.716,66.246,69.455,66.33,69.201z"/>
	<path fill-rule="evenodd" clip-rule="evenodd" fill="#B86D29" d="M81.193,59.669c-4.472-0.003-8.943-0.007-13.415-0.01
		c0.501-0.748,1.279-0.505,1.968-0.53c2.78-0.102,5.562,0.15,8.347-0.382C79.077,58.559,80.575,58.02,81.193,59.669z"/>
	<path fill-rule="evenodd" clip-rule="evenodd" fill="#FECE30" d="M75.05,70.654c3.207-0.517,5.514-2.71,8.117-4.353
		c0.292,0.515,0.583,1.03,0.875,1.545c1.095,1.41,1.388,3.063,1.449,4.785c0.143,1.17,0.386,2.311,0.988,3.344
		c0.358,0.393,0.475,0.848,0.354,1.364c-3.083,1.425-6.202,2.719-9.716,2.462C75.719,76.913,74.536,73.975,75.05,70.654z"/>
	<path fill-rule="evenodd" clip-rule="evenodd" fill="#DD7326" d="M85.491,72.632c-0.784-1.503-1.321-3.083-1.449-4.786
		c2.422,0.647,4.419-0.965,6.674-1.287c2.735-0.391,5.343-1.436,7.835-2.618c1.815-0.861,2.927-0.805,3.261,1.414
		c0.008,0.169,0.017,0.339,0.025,0.509c-0.134,1.718-1.213,2.459-2.758,2.931c-4.15,1.27-8.251,2.704-12.573,3.325
		C86.151,72.171,85.829,72.456,85.491,72.632z"/>
	<path fill-rule="evenodd" clip-rule="evenodd" fill="#B15526" d="M109.046,57.713c-0.173,0.168-0.346,0.337-0.518,0.506
		c-0.765,0.001-1.529,0.003-2.294,0.004c-0.521,0.2-0.604-0.051-0.505-0.491C106.835,57.726,107.94,57.719,109.046,57.713z"/>
	<path fill-rule="evenodd" clip-rule="evenodd" fill="#BD6828" d="M105.729,57.732c0.169,0.164,0.336,0.327,0.505,0.491
		c-0.657,0.292-1.314,0.583-1.972,0.875C104.302,58.158,105.091,58.025,105.729,57.732z"/>
	<path fill-rule="evenodd" clip-rule="evenodd" fill="#D66F27" d="M86.508,77.366c-0.01-0.464-0.019-0.927-0.028-1.391
		c1.326,0.296,2.603,0.381,4.014,0.23c2.747-0.294,5.129-1.617,7.74-2.256c1.231-0.302,2.369-0.694,3.633-0.418
		c0.158,0.001,0.316,0.009,0.474,0.022c-0.006,0.133-0.01,0.266-0.015,0.398c-0.597,0.469-0.482,1.141-0.48,1.767
		c0.016,5.512,0.04,11.023,0.062,16.535c0,0.799,0,1.599,0,2.397c0.002,2.08,0.004,4.161,0.005,6.242
		c-0.038,1.765-0.076,3.53-0.115,5.296c-0.139-0.011-0.276-0.018-0.414-0.022c-0.001-0.479-0.002-0.956-0.002-1.435
		c-0.997-1.099-0.531-2.468-0.692-3.721c-0.034-1.118,0.083-2.237,0.01-3.356c-0.024-0.691,0.055-1.383-0.012-2.075
		c-0.04-0.97,0.085-1.94-0.011-2.91c-0.036-1.264,0.038-2.526,0.002-3.79c-0.062-1.268,0.03-2.534,0-3.801
		c-0.061-2.027,0.044-4.053,0.042-6.076c-0.084-0.685,0.242-1.402-0.244-2.292c-3.447,1.178-7.089,1.772-10.588,2.905
		c-1.091,0.353-1.992,0.42-2.71-0.613C86.438,78.669,86.824,77.875,86.508,77.366z"/>
	<path fill-rule="evenodd" clip-rule="evenodd" fill="#DC7227" d="M37.071,69.69c1.097-3.014,1.048-2.723,4.66-2.116
		c4.269,0.717,8.463,1.728,12.693,2.596c1.523,0.312,3.006-1.002,4.433-0.285c1.623,0.815,3.075,0.951,4.896,0.6
		c1.087-0.21,1.465-0.484,1.759-1.338c0.01-0.028,0.156-0.037,0.222-0.012c0.068,0.026,0.116,0.105,0.173,0.161
		c0.705,2.586-0.233,4.767-1.682,6.824c-2.344,0.893-4.797,0.451-7.111,0.169c-5.448-0.662-10.999-0.825-16.292-2.372
		c-1.96-0.573-2.54,0.962-3.751,1.533C37.071,73.53,37.071,71.61,37.071,69.69z"/>
	<path fill-rule="evenodd" clip-rule="evenodd" fill="#D87027" d="M37.071,75.45c1.111-2.974,1.077-2.836,4.485-1.979
		c2.774,0.698,5.627,1.173,8.475,1.464c4.636,0.475,9.295,0.718,13.945,1.059c0.412,0.392,0.404,0.885,0.341,1.393
		c-0.395,1.279-0.36,2.756-1.648,3.634c-2.616,1.491-5.489,1.06-8.177,0.671c-5.023-0.728-10.188-0.588-15.061-2.29
		c-0.779-0.272-1.585,0.154-2.36-0.113C37.072,78.009,37.071,76.729,37.071,75.45z"/>
	<path fill-rule="evenodd" clip-rule="evenodd" fill="#D26C28" d="M37.072,79.289c0.62-0.646,1.197-1.132,2.266-0.787
		c6.769,2.19,13.793,2.478,20.825,2.749c0.879,0.034,1.56-0.487,2.385-0.44c0.877,1.125,0.16,2.214-0.07,3.316
		c-0.627,1.161-0.168,2.933-1.929,3.463c-2.633-1.181-5.477-0.579-8.201-0.801c-3.892-0.316-7.689-1.089-11.508-1.732
		c-1.641-0.276-2.751-0.495-3.021,1.539c-0.044,0.329-0.388,0.463-0.746,0.371C37.073,84.407,37.072,81.848,37.072,79.289z"/>
	<path fill-rule="evenodd" clip-rule="evenodd" fill="#D06A28" d="M37.073,86.967c0.207-3.041,1.515-3.247,4.367-2.524
		c4.455,1.13,9.127,1.408,13.712,2.009c0.856,0.111,1.716,0.029,2.591-0.183c1.186-0.287,2.376-0.239,2.869,1.24
		c0.546,1.367,0.594,2.589-0.97,3.345c-0.779-1.373-2.342-0.856-3.274-0.855c-5.735,0.009-11.288-1.256-16.875-2.173
		c-1.743-0.285-1.915,0.567-2.42,1.542C37.073,88.567,37.073,87.767,37.073,86.967z"/>
	<path fill-rule="evenodd" clip-rule="evenodd" fill="#F9BC2D" d="M85.131,109.511c-0.352-0.949-0.704-1.899-1.056-2.85
		c-0.718-0.534-0.905-1.259-0.761-2.104c0.494-1.906,2.037-2.246,3.656-2.349c2.207-0.141,4.366-0.51,6.503-1.053
		c0.26-0.038,0.512,0,0.753,0.104c1.146,1.431,1.11,3.287,1.76,4.899c0.078,0.517,0.068,1.015-0.348,1.411
		C92.026,107.628,88.582,108.588,85.131,109.511z"/>
	<path fill-rule="evenodd" clip-rule="evenodd" fill="#BB5E28" d="M95.638,107.569c-0.016-0.444-0.031-0.89-0.047-1.335
		c-0.519-1.603,0.805-2.017,1.758-2.209c1.779-0.358,3.05-1.038,3.417-2.941c0.044-0.223,0.376-0.224,0.614-0.192
		c0,1.28,0,2.56,0.001,3.84c-0.105,0.117-0.276,0.221-0.306,0.354c-0.809,3.604-0.806,3.604-4.561,4.05
		C96.222,108.614,95.93,108.092,95.638,107.569z"/>
	<path fill-rule="evenodd" clip-rule="evenodd" fill="#BF5F28" d="M83.679,104.706c0.132,0.651,0.264,1.303,0.396,1.955
		c-2.695,1.736-5.79,1.147-8.711,1.362c-1.991,0.147-3.978,0.339-5.896,0.766c-1.704,0.379-2.938-0.032-4.082-1.178
		c-0.927-1.587,0.102-2.967,0.462-4.42c0.246-0.472,0.561-0.869,1.111-1.003c3.549,1.017,7.157,0.228,10.734,0.277
		c1.619,0.022,3.273-0.39,4.886-0.765C83.849,102.372,83.874,103.499,83.679,104.706z"/>
	<path fill-rule="evenodd" clip-rule="evenodd" fill="#F9BC2D" d="M66.321,103.286c-0.312,1.442-0.624,2.884-0.936,4.325
		c-0.184,0.314-0.368,0.628-0.553,0.941c-3.085-1.195-6.392-0.971-9.583-1.491c0.185-1.081,0.37-2.161,0.555-3.241
		c0.596-1.035,0.856-2.168,0.968-3.344c0.137-0.043,0.276-0.079,0.417-0.108C60.309,101.106,63.676,101.066,66.321,103.286z"/>
	<path fill-rule="evenodd" clip-rule="evenodd" fill="#FBC330" d="M58.676,94.199c0.308-0.659,0.615-1.318,0.922-1.978
		c0.624-0.694,1.373-0.999,2.314-0.796c0.468,0.101,0.985,0.051,1.417,0.224c5.762,2.302,11.786,1.596,17.74,1.512
		c3.284-0.046,6.488-0.809,9.663-1.639c0.279,0.003,0.527,0.092,0.748,0.262c0.945,1.566,1.391,3.253,1.23,5.088
		c-0.262,0.912-1,1.151-1.815,1.301c-6.665,1.229-13.321,1.811-20.143,1.176c-3.359-0.312-6.534-1.077-9.731-1.906
		c-0.95-0.246-2.297-0.387-2.402-1.886C58.639,95.104,58.658,94.652,58.676,94.199z"/>
	<path fill-rule="evenodd" clip-rule="evenodd" fill="#F8C02E" d="M58.621,95.557c3.602,1.849,7.407,2.737,11.468,3.024
		c2.539,0.179,5.07,0.33,7.614,0.401c4.643,0.132,9.139-1.016,13.712-1.484c0.588-0.06,0.782-0.466,0.867-0.972
		c0.229-0.104,0.442-0.084,0.639,0.082c0.376,0.476,0.543,1.047,0.733,1.608c0.165,1.029,0.838,2.05,0.072,3.1
		c-1.862,1.545-4.165,1.281-6.33,1.466c-1.561,0.133-3.004,0.259-3.717,1.924c-0.35-0.946-0.7-1.893-1.051-2.839
		c-0.292-0.273-0.57-0.557-0.765-0.912c-0.121-0.162-0.235-0.327-0.358-0.49c-0.167-0.141-0.348-0.244-0.56-0.302
		c-4.159-0.085-8.31-0.119-12.453,0.029c-0.193,0.082-0.368,0.199-0.513,0.353c-0.108,0.173-0.224,0.344-0.33,0.519
		c-0.234,0.448-0.402,0.94-0.817,1.273c-0.17,0.316-0.34,0.633-0.51,0.949c-2.921-1.355-6.327-1.195-9.131-2.918
		c0.017-0.452,0.034-0.904,0.052-1.355C57.701,97.86,58.161,96.709,58.621,95.557z"/>
	<path fill-rule="evenodd" clip-rule="evenodd" fill="#FCC62F" d="M90.84,91.73c-3.099,1.881-6.651,2.062-10.05,2.082
		c-2.498,0.014-4.976,0.153-7.449,0.347c-2.95,0.229-5.635-0.755-8.388-1.48c-1.761-0.464-3.517-0.925-5.355-0.457
		c0.014-0.457,0.029-0.912,0.043-1.369c0.596-1.035,0.857-2.168,0.969-3.345c0.462-1.148,0.923-2.298,1.385-3.447
		c3.127,0.064,6.221,0.261,8.872,2.226c0.374,1.152-0.193,2.2-0.366,3.288c-0.035,0.19-0.048,0.386-0.029,0.579
		c0.094,0.174,0.221,0.313,0.398,0.408c2.753,0.149,5.498,0.181,8.231-0.033c0.383-0.283,0.266-0.662,0.188-1.035
		c-0.22-0.761-0.483-1.514-0.264-2.322c0.414-1.646,1.801-2.001,3.147-2.099c2.19-0.16,4.216-0.808,6.224-1.604
		c1.649,0.607,1.194,2.363,1.906,3.485C90.573,88.535,91.766,90.016,90.84,91.73z"/>
	<path fill-rule="evenodd" clip-rule="evenodd" fill="#FECE30" d="M63.938,77.373c0.013-0.46,0.025-0.92,0.038-1.379
		c1.024-2.124,1.572-4.384,1.931-6.699c0.14-0.039,0.281-0.07,0.424-0.094c0.602,0.505,0.468-1.036,1.556-0.391
		c1.321,0.783,2.952,1.468,4.683,1.396c1.314-0.056,0.675,1.46,1.423,1.889c0.954,2.536-0.472,4.775-0.884,7.142
		c-0.192,0.499-0.481,0.915-0.986,1.144C69.381,79.417,66.421,79.042,63.938,77.373z"/>
	<path fill-rule="evenodd" clip-rule="evenodd" fill="#D87027" d="M72.585,79.296c0.469-2.4,0.938-4.801,1.407-7.202
		c0.027-0.525,0.056-1.05,0.082-1.575c0.017-0.327,0.162-0.654,0.494-0.552c0.21,0.065,0.324,0.447,0.48,0.686
		c0.787,3.038,1.572,6.075,2.358,9.112c0.146,0.235,0.151,0.474,0.015,0.716C74.861,82.281,73.25,81.886,72.585,79.296z"/>
	<path fill-rule="evenodd" clip-rule="evenodd" fill="#FCCB30" d="M77.336,80.27c0.024-0.168,0.047-0.336,0.071-0.504
		c2.56-1.047,5.501-0.911,7.872-2.506c0.526-0.353,0.782,0.636,1.228,0.107c0.297,0.51,0.593,1.021,0.889,1.531
		c0.543,1.072,1.124,2.127,1.397,3.313c0.087,0.516,0.027,0.994-0.363,1.385c-1.26,1.621-3.104,1.754-4.929,1.938
		c-1.6,0.161-3.321,0.059-4.133,1.917c-1.208-0.755-1.439-2.003-1.652-3.262C77.778,82.866,76.662,81.653,77.336,80.27z"/>
	<path fill-rule="evenodd" clip-rule="evenodd" fill="#D06A28" d="M88.43,83.595c-0.016-0.458-0.032-0.917-0.049-1.376
		c-0.147-0.242,0.001-0.584,0.155-0.516c3.498,1.541,6.636-0.865,9.987-0.892c1.588-0.012,1.445-2.167,2.853-2.473
		c0,2.24,0,4.479,0,6.718c-2.951,2.273-6.458,2.654-9.994,2.915c-0.704,0.052-1.029-0.647-1.567-0.938
		C89.354,85.886,88.892,84.741,88.43,83.595z"/>
	<path fill-rule="evenodd" clip-rule="evenodd" fill="#D36D28" d="M101.376,78.338c-0.666,2.564-2.391,3.58-4.944,3.373
		c-1.985-0.161-3.608,1.224-5.652,1.221c-1.034-0.001-1.612-0.464-2.398-0.712c-0.688-1.001-0.922-2.137-0.984-3.323
		c1.601,1.426,2.974-0.276,4.387-0.493c3.159-0.486,6.221-1.608,9.39-2.49C101.633,76.629,101.267,77.512,101.376,78.338z"/>
	<path fill-rule="evenodd" clip-rule="evenodd" fill="#CD6828" d="M89.814,87.032c2.006,0.857,3.932,0.234,5.859-0.32
		c1.901-0.548,3.802-1.104,5.702-1.656c0,1.28,0.001,2.56,0.001,3.84c-0.599,1.16-1.805,1.237-2.851,1.542
		c-2.379,0.692-4.814,1.119-7.275,1.401c-0.14-0.028-0.276-0.064-0.411-0.107C90.498,90.165,90.156,88.599,89.814,87.032z"/>
	<path fill-rule="evenodd" clip-rule="evenodd" fill="#C86528" d="M91.251,91.839c1.199-1.572,3.103-0.979,4.652-1.397
		c1.83-0.494,3.647-1.036,5.474-1.546c0,1.279,0.001,2.559,0.001,3.839c-0.344,0.472-0.331,1.38-1.205,1.234
		c-3.002-0.5-5.062,1.558-7.469,2.676c-0.143-0.033-0.284-0.073-0.423-0.118C91.938,94.964,91.594,93.401,91.251,91.839z"/>
	<path fill-rule="evenodd" clip-rule="evenodd" fill="#BF5F28" d="M101.38,100.892c-0.525,0.385-0.531,0.96-0.47,1.504
		c0.165,1.476-0.503,1.901-1.916,1.896c-1.421-0.005-2.828,0.321-3.403,1.943c-0.879-1.48-1.128-3.153-1.452-4.803
		c-0.124-1.24,0.91-1.4,1.663-1.51c2.092-0.305,3.945-1.06,5.576-2.388C101.379,98.653,101.379,99.772,101.38,100.892z"/>
	<path fill-rule="evenodd" clip-rule="evenodd" fill="#C56428" d="M92.704,96.645c1.69-2.157,3.924-3.391,6.642-3.31
		c0.87,0.026,1.48,0.059,2.032-0.601c0,0.96,0,1.92-0.001,2.88c-0.336,1.502-1.598,1.826-2.812,2.179
		c-1.776,0.516-3.591,0.514-5.413,0.308C92.703,97.706,92.721,97.17,92.704,96.645z"/>
	<path fill-rule="evenodd" clip-rule="evenodd" fill="#C26128" d="M93.151,98.101c0.805-0.955,1.899-0.505,2.87-0.551
		c1.998-0.094,3.832-0.564,5.356-1.936c0,0.641,0,1.28,0,1.92c-0.571,2.617-2.861,2.437-4.735,2.826
		c-0.938,0.195-1.869,0.235-2.504,1.071c-0.138-0.039-0.275-0.077-0.414-0.114C93.534,100.245,93.343,99.172,93.151,98.101z"/>
	<path fill-rule="evenodd" clip-rule="evenodd" fill="#FCCB30" d="M63.938,77.373c2.768,0.773,5.746,0.952,8.104,2.878
		c1.089,1.667-0.21,3.153-0.352,4.729c-0.212,0.614-0.446,1.214-1.096,1.511c-2.225-1.171-4.714-1.369-7.11-1.899
		c-0.53-0.117-1.117,0.007-1.487-0.532c0.183-1.083,0.367-2.168,0.55-3.251C63.011,79.665,63.474,78.519,63.938,77.373z"/>
	<path fill-rule="evenodd" clip-rule="evenodd" fill="#C26128" d="M66.832,102.337c-0.004-0.53-0.044-1.072,0.442-1.453
		c0.575-0.496,1.264-0.641,1.997-0.647c3.657-0.035,7.313-0.033,10.971-0.001c0.735,0.007,1.419,0.165,2.005,0.636
		c0.337,0.251,0.404,0.606,0.381,0.996c-2.707,1.579-5.715,1.59-8.653,1.327c-1.455-0.13-2.924-0.133-4.185,0.255
		C68.269,103.917,67.58,103.332,66.832,102.337z"/>
	<path fill-rule="evenodd" clip-rule="evenodd" fill="#C05928" d="M82.247,100.871c-4.991,0.004-9.982,0.008-14.973,0.013
		c-0.008-0.152,0.005-0.303,0.04-0.451c0.592-0.531,1.324-0.491,2.041-0.492c3.593-0.011,7.186-0.011,10.778,0
		c0.717,0.001,1.448-0.037,2.048,0.479C82.221,100.567,82.242,100.718,82.247,100.871z"/>
	<path fill-rule="evenodd" clip-rule="evenodd" fill="#FEDB3E" d="M67.303,99.944c0.608-0.749,1.458-0.474,2.215-0.479
		c3.482-0.026,6.965-0.025,10.447,0c0.757,0.006,1.606-0.269,2.216,0.479C77.221,100.307,72.262,100.306,67.303,99.944z"/>
	<path fill-rule="evenodd" clip-rule="evenodd" fill="#DB9E34" d="M67.303,99.944c4.959,0,9.918,0,14.877-0.001
		c0.003,0.159,0.003,0.317,0,0.476c-4.956,0.004-9.912,0.009-14.867,0.014C67.31,100.27,67.307,100.107,67.303,99.944z"/>
	<path fill-rule="evenodd" clip-rule="evenodd" fill="#D16A28" d="M70.594,86.491c0.185-0.479,0.369-0.958,0.553-1.436
		c0.931-0.207,1.818,0.194,2.744,0.224c1.645,0.054,3.118-0.149,4.428-1.175c-0.064,1.245,0.787,2.203,1.047,3.347
		c0.171,0.799,0.342,1.599,0.513,2.397c-0.111,0.104-0.222,0.206-0.332,0.311c-3.257,0.431-6.516,0.899-9.728-0.274
		C70.078,88.754,70.336,87.623,70.594,86.491z"/>
	<path fill-rule="evenodd" clip-rule="evenodd" fill="#D1942B" d="M69.702,90.809c0.016-0.173,0.031-0.347,0.047-0.52
		c2.453-0.41,4.926-0.068,7.386-0.196c0.86-0.045,1.754,0.231,2.579-0.229c0,0,0.165-0.015,0.166-0.015
		c0.126,0.306,0.252,0.612,0.378,0.919C76.74,91.243,73.222,91.179,69.702,90.809z"/>
	<path fill-rule="evenodd" clip-rule="evenodd" fill="#FFCE31" d="M69.702,90.809c3.519-0.013,7.037-0.026,10.555-0.041
		C76.742,91.666,73.223,91.584,69.702,90.809z"/>
	<path fill-rule="evenodd" clip-rule="evenodd" fill="#B15326" d="M79.713,89.863c-3.284,1.024-6.645,0.244-9.965,0.426
		c-0.024-0.144-0.001-0.278,0.071-0.404C73.118,89.878,76.415,89.87,79.713,89.863z"/>
	<path fill-rule="evenodd" clip-rule="evenodd" fill="#D36D28" d="M78.319,84.104c-0.488,1.768-1.548,2.27-3.318,1.72
		c-1.242-0.386-2.842,0.921-3.854-0.769c0.298-1.601,0.597-3.203,0.895-4.804c0.181-0.319,0.362-0.637,0.543-0.956
		c1.167,2.356,2.915,1.883,4.751,0.974C77.639,81.555,78.337,82.738,78.319,84.104z"/>
</g>
</svg>
