<?xml version="1.0" encoding="utf-8"?>
<!-- Generator: Adobe Illustrator 26.3.1, SVG Export Plug-In . SVG Version: 6.00 Build 0)  -->
<svg version="1.1" id="Capa_1" xmlns="http://www.w3.org/2000/svg" xmlns:xlink="http://www.w3.org/1999/xlink" x="0px" y="0px"
	 viewBox="0 0 123.48 122.66" style="enable-background:new 0 0 123.48 122.66;" xml:space="preserve">
<style type="text/css">
	.st0{fill:#020203;}
</style>
<g id="_x32_9_x2C__Tools_x2C__Graphic_x2C__Edit_Tools">
	<g>
		<g>
			<path class="st0" d="M83.66,74.58V46.92c0-3.13-2.52-5.65-5.65-5.65H40.76c-3.13,0-5.65,2.52-5.65,5.65v27.66
				c-3.23,9.19-3.13,8.78-3.13,8.88c0,0,0,0,0,0.1c0,0,0,0,0,0.1l0,0c0,0,0,0,0,0.1v0.1c1.72,2.93,4.74,4.74,8.18,4.74h38.36
				c3.33,0,6.46-1.82,8.18-4.74l0,0l0,0c0,0,0,0,0-0.1l0,0c0,0,0-0.1,0-0.2C86.79,83.36,86.89,83.86,83.66,74.58z M36.32,71.55
				h46.03v2.52H36.32V71.55z M40.76,42.48h37.24c2.42,0,4.44,2.02,4.44,4.44v23.32H36.32V46.92C36.32,44.5,38.34,42.48,40.76,42.48z
				 M36.12,75.28h46.43l2.73,7.57c-6.66,0-44.31,0-51.88,0L36.12,75.28z M64.08,87.3H55.2v-3.13h8.88V87.3z M33.7,84.17h20.29v3.13
				H40.16C37.63,87.3,35.21,86.08,33.7,84.17z M78.51,87.3H65.29v-3.13h19.68C83.46,86.08,81.03,87.3,78.51,87.3z"/>
			<path class="st0" d="M41.97,77.2h-1.31c-0.3,0-0.61,0.3-0.61,0.61c0,0.3,0.3,0.61,0.61,0.61h1.31c0.3,0,0.61-0.3,0.61-0.61
				C42.58,77.5,42.38,77.2,41.97,77.2z"/>
			<path class="st0" d="M47.02,77.2h-1.31c-0.3,0-0.61,0.3-0.61,0.61c0,0.3,0.3,0.61,0.61,0.61h1.31c0.3,0,0.61-0.3,0.61-0.61
				C47.62,77.5,47.42,77.2,47.02,77.2z"/>
			<path class="st0" d="M50.85,78.51h1.31c0.3,0,0.61-0.3,0.61-0.61c0-0.3-0.3-0.61-0.61-0.61h-1.31c-0.3,0-0.61,0.3-0.61,0.61
				C50.15,78.21,50.45,78.51,50.85,78.51z"/>
			<path class="st0" d="M55.9,78.51h1.31c0.3,0,0.61-0.3,0.61-0.61c0-0.3-0.3-0.61-0.61-0.61H55.9c-0.3,0-0.61,0.3-0.61,0.61
				C55.2,78.21,55.5,78.51,55.9,78.51z"/>
			<path class="st0" d="M60.95,78.51h1.31c0.3,0,0.61-0.3,0.61-0.61c0-0.3-0.3-0.61-0.61-0.61h-1.31c-0.3,0-0.61,0.3-0.61,0.61
				C60.24,78.21,60.54,78.51,60.95,78.51z"/>
			<path class="st0" d="M65.99,78.51h1.31c0.3,0,0.61-0.3,0.61-0.61c0-0.3-0.3-0.61-0.61-0.61h-1.31c-0.3,0-0.61,0.3-0.61,0.61
				C65.29,78.21,65.59,78.51,65.99,78.51z"/>
			<path class="st0" d="M71.04,78.51h1.31c0.3,0,0.61-0.3,0.61-0.61c0-0.3-0.3-0.61-0.61-0.61h-1.31c-0.3,0-0.61,0.3-0.61,0.61
				C70.33,78.21,70.64,78.51,71.04,78.51z"/>
			<path class="st0" d="M76.09,78.51h1.31c0.3,0,0.61-0.3,0.61-0.61c0-0.3-0.3-0.61-0.61-0.61h-1.31c-0.3,0-0.61,0.3-0.61,0.61
				C75.38,78.21,75.68,78.51,76.09,78.51z"/>
			<path class="st0" d="M41.97,79.73h-1.31c-0.3,0-0.61,0.3-0.61,0.61s0.3,0.61,0.61,0.61h1.31c0.3,0,0.61-0.3,0.61-0.61
				S42.38,79.73,41.97,79.73z"/>
			<path class="st0" d="M47.02,79.73h-1.31c-0.3,0-0.61,0.3-0.61,0.61s0.3,0.61,0.61,0.61h1.31c0.3,0,0.61-0.3,0.61-0.61
				S47.42,79.73,47.02,79.73z"/>
			<path class="st0" d="M62.76,80.33c0-0.3-0.3-0.61-0.61-0.61h-11.3c-0.3,0-0.61,0.3-0.61,0.61s0.3,0.61,0.61,0.61h11.41
				C62.56,81.04,62.76,80.73,62.76,80.33z"/>
			<path class="st0" d="M65.99,81.04h1.31c0.3,0,0.61-0.3,0.61-0.61c0-0.3-0.3-0.61-0.61-0.61h-1.31c-0.3,0-0.61,0.3-0.61,0.61
				C65.29,80.73,65.59,81.04,65.99,81.04z"/>
			<path class="st0" d="M71.04,81.04h1.31c0.3,0,0.61-0.3,0.61-0.61c0-0.3-0.3-0.61-0.61-0.61h-1.31c-0.3,0-0.61,0.3-0.61,0.61
				C70.33,80.73,70.64,81.04,71.04,81.04z"/>
			<path class="st0" d="M76.09,81.04h1.31c0.3,0,0.61-0.3,0.61-0.61c0-0.3-0.3-0.61-0.61-0.61h-1.31c-0.3,0-0.61,0.3-0.61,0.61
				C75.38,80.73,75.68,81.04,76.09,81.04z"/>
			<path class="st0" d="M83.66,36.83c1.72,0,3.13-1.41,3.13-3.13c0-1.72-1.41-3.13-3.13-3.13c-1.72,0-3.13,1.41-3.13,3.13
				C80.53,35.42,81.84,36.83,83.66,36.83z M83.66,31.78c1.01,0,1.92,0.81,1.92,1.92c0,1.11-0.81,1.92-1.92,1.92
				c-1.11,0-1.92-0.81-1.92-1.92C81.74,32.59,82.55,31.78,83.66,31.78z"/>
			<path class="st0" d="M36.32,39.35c2.42,0,4.44-2.02,4.44-4.44c0-2.42-2.02-4.44-4.44-4.44c-2.42,0-4.44,2.02-4.44,4.44
				C31.88,37.33,33.9,39.35,36.32,39.35z M36.32,31.78c1.72,0,3.13,1.41,3.13,3.13c0,1.72-1.41,3.13-3.13,3.13
				c-1.72,0-3.13-1.41-3.13-3.13C33.19,33.19,34.6,31.78,36.32,31.78z"/>
			<path class="st0" d="M75.68,35.01c0.5,0,0.91,0.41,0.91,0.91c0,0.5-0.41,0.91-0.91,0.91c-0.5,0-0.91-0.41-0.91-0.91
				C74.78,35.42,75.18,35.01,75.68,35.01z"/>
			<circle class="st0" cx="61.25" cy="33.4" r="0.91"/>
			<path class="st0" d="M49.24,36.22c0.5,0,0.91,0.41,0.91,0.91c0,0.5-0.41,0.91-0.91,0.91c-0.5,0-0.91-0.41-0.91-0.91
				C48.33,36.63,48.74,36.22,49.24,36.22z"/>
			<path class="st0" d="M87.09,58.33c0.5,0,0.91,0.41,0.91,0.91c0,0.5-0.41,0.91-0.91,0.91c-0.5,0-0.91-0.41-0.91-0.91
				C86.18,58.73,86.59,58.33,87.09,58.33z"/>
			<path class="st0" d="M31.58,50.15c0.5,0,0.91,0.41,0.91,0.91c0,0.5-0.41,0.91-0.91,0.91c-0.5,0-0.91-0.41-0.91-0.91
				C30.67,50.56,31.07,50.15,31.58,50.15z"/>
			<path class="st0" d="M48.13,66.5h23.82c1.61,0,2.83-1.31,2.83-2.83c0-1.51-1.31-2.83-2.83-2.83h-1.51l0.3-2.83
				c0.71-0.71,1.21-1.72,1.11-2.83c0-1.92-2.52-5.55-3.63-7.27c-0.2-0.2-0.4-0.3-0.71-0.3c-0.3,0.1-0.4,0.3-0.4,0.61
				c0,1.21-0.91,2.62-1.82,3.94c-0.81,1.21-1.51,2.22-1.51,3.13c0,1.11,0.5,2.12,1.21,2.83l0.4,2.73h-2.83V48.23
				c0-0.3-0.3-0.61-0.61-0.61h-4.44c-0.3,0-0.61,0.3-0.61,0.61v12.62H55.4v-6.36c0-0.1,0-0.2,0-0.2l-2.72-6.36
				c-0.1-0.2-0.3-0.4-0.61-0.4c-0.3,0-0.5,0.2-0.61,0.4c-2.83,6.66-2.62,6.36-2.72,6.46v0.1v6.26h-0.71c-1.61,0-2.83,1.31-2.83,2.83
				C45.2,65.09,46.51,66.5,48.13,66.5z M66.3,52.78c0.61-0.91,1.31-1.92,1.72-2.93c1.11,1.72,2.52,4.14,2.52,5.35l0,0
				c0,1.51-1.21,2.83-2.73,2.83c-1.61,0-2.83-1.21-2.83-2.73C65.09,54.69,65.69,53.68,66.3,52.78z M66.4,58.93
				c0.91,0.4,2.02,0.3,2.93,0l-0.2,1.92H66.7L66.4,58.93z M58.12,48.84h3.13v1.92h-1.31c-0.3,0-0.61,0.3-0.61,0.61
				c0,0.3,0.3,0.61,0.61,0.61h1.31v2.52h-1.31c-0.3,0-0.61,0.3-0.61,0.61c0,0.3,0.3,0.61,0.61,0.61h1.31v2.52h-1.31
				c-0.3,0-0.61,0.3-0.61,0.61s0.3,0.61,0.61,0.61h1.31v1.31h-3.13V48.84z M54.08,55.1v5.65h-1.41V55.1H54.08z M52.07,49.85
				l1.72,4.04h-3.43L52.07,49.85z M50.05,55.1h1.41v5.65h-1.41V55.1z M48.13,62.06c7.07,0,16.75,0,23.82,0
				c0.91,0,1.61,0.71,1.61,1.61c0,0.91-0.71,1.61-1.61,1.61H48.13c-0.91,0-1.62-0.71-1.62-1.61C46.51,62.77,47.22,62.06,48.13,62.06
				z"/>
			<path class="st0" d="M71.85,55.1L71.85,55.1L71.85,55.1z"/>
		</g>
	</g>
</g>
</svg>
