<?xml version="1.0" encoding="utf-8"?>
<!-- Generator: Adobe Illustrator 16.0.0, SVG Export Plug-In . SVG Version: 6.00 Build 0)  -->
<!DOCTYPE svg PUBLIC "-//W3C//DTD SVG 1.1//EN" "http://www.w3.org/Graphics/SVG/1.1/DTD/svg11.dtd">
<svg version="1.1" id="Layer_1" xmlns="http://www.w3.org/2000/svg" xmlns:xlink="http://www.w3.org/1999/xlink" x="0px" y="0px"
	 width="170.079px" height="170.079px" viewBox="0 0 170.079 170.079" enable-background="new 0 0 170.079 170.079"
	 xml:space="preserve">
<g>
	<path fill-rule="evenodd" clip-rule="evenodd" fill="#F68A47" d="M125.495,31.395c2.492,0,4.985,0,7.479,0
		c0.007,0.071,0.013,0.142,0.02,0.211c0.069,0.096,0.112,0.201,0.117,0.32c0.008,0.114,0.01,0.229,0.011,0.344
		c-0.004,0.143,0.004,0.287,0.003,0.431c-0.007,0.147,0.007,0.294,0.003,0.442c-0.007,0.153,0.006,0.306,0.001,0.459
		c-0.011,0.259,0.014,0.517,0.003,0.776c-0.004,0.498-0.004,0.995,0.008,1.492c0.007,0.231,0.011,0.465-0.154,0.658
		c-0.175,0.123-0.377,0.11-0.573,0.11c-2.232,0.003-4.464,0.004-6.696,0c-0.18,0-0.362,0.007-0.523-0.092
		c-0.213-0.201-0.186-0.459-0.154-0.71c0.158-1.29,0.304-2.581,0.292-3.884C125.328,31.752,125.347,31.553,125.495,31.395z"/>
	<path fill-rule="evenodd" clip-rule="evenodd" fill="#F8A459" d="M36.798,31.394c0.145-0.005,0.289-0.017,0.433-0.017
		c9.543,0,19.087,0,28.63,0c0.144,0,0.287,0.011,0.432,0.017c0.227,0.287,0.166,0.624,0.129,0.938
		c-0.181,1.546-0.82,2.901-1.771,4.12c-0.057,0.073-0.134,0.119-0.223,0.149c-0.214,0.053-0.432,0.039-0.647,0.039
		c-8.039,0.001-16.077,0.001-24.116,0c-0.216,0-0.434,0.011-0.647-0.029c-0.337-0.111-0.473-0.427-0.67-0.675
		c-0.885-1.107-1.432-2.364-1.64-3.768C36.668,31.901,36.597,31.632,36.798,31.394z"/>
	<path fill-rule="evenodd" clip-rule="evenodd" fill="#F7A057" d="M64.558,36.488c0.121-0.567,0.585-0.932,0.84-1.428
		c0.596-1.158,0.949-2.357,0.895-3.666c3.687,0,7.373,0,11.06,0c0.298,0.543,0.172,1.129,0.12,1.688
		c-0.098,1.043-0.365,2.052-0.785,3.017c-0.087,0.199-0.165,0.402-0.391,0.492c-0.229,0.067-0.465,0.048-0.698,0.048
		c-3.405,0.001-6.81,0.003-10.215-0.002C65.103,36.636,64.801,36.711,64.558,36.488z"/>
	<path fill-rule="evenodd" clip-rule="evenodd" fill="#F89A52" d="M84.941,31.394c3.072,0,6.145,0,9.218,0
		c0.146,0.159,0.16,0.358,0.159,0.558c-0.004,1.398-0.221,2.768-0.547,4.122c-0.046,0.193-0.119,0.38-0.307,0.492
		c-0.187,0.086-0.387,0.073-0.584,0.073c-2.715,0.002-5.431,0.002-8.146,0c-0.198,0-0.397,0.015-0.585-0.065
		c-0.22-0.137-0.174-0.352-0.117-0.533c0.447-1.401,0.629-2.849,0.763-4.305C84.808,31.607,84.854,31.492,84.941,31.394z"/>
	<path fill-rule="evenodd" clip-rule="evenodd" fill="#F89D55" d="M84.941,31.394c-0.026,1.742-0.37,3.431-0.867,5.092
		c-0.188,0.193-0.434,0.151-0.663,0.151c-2.123,0.005-4.248,0.005-6.372,0c-0.229,0-0.475,0.042-0.663-0.15
		c0.697-1.626,1.092-3.311,0.976-5.093C79.882,31.394,82.411,31.394,84.941,31.394z"/>
	<path fill-rule="evenodd" clip-rule="evenodd" fill="#F7944E" d="M100.23,31.395c2.422,0,4.843,0,7.265,0
		c0.319,0.574,0.17,1.198,0.148,1.792c-0.036,0.949-0.178,1.894-0.355,2.829c-0.037,0.193-0.078,0.39-0.242,0.528
		c-0.18,0.109-0.383,0.094-0.579,0.094c-2.02,0.003-4.038,0.003-6.058,0c-0.197,0-0.398,0.016-0.58-0.087
		c-0.241-0.221-0.168-0.496-0.117-0.755c0.243-1.235,0.389-2.479,0.354-3.74C100.06,31.824,100.057,31.585,100.23,31.395z"/>
	<path fill-rule="evenodd" clip-rule="evenodd" fill="#F7924C" d="M107.061,36.485c0.265-1.687,0.524-3.374,0.435-5.091
		c2.313,0,4.627,0,6.939,0c0.324,0.632,0.169,1.309,0.146,1.959c-0.032,0.879-0.164,1.756-0.326,2.624
		c-0.04,0.212-0.088,0.426-0.272,0.573c-0.163,0.095-0.346,0.088-0.525,0.088c-1.93,0.004-3.858,0.004-5.785,0
		C107.459,36.637,107.232,36.667,107.061,36.485z"/>
	<path fill-rule="evenodd" clip-rule="evenodd" fill="#F6974F" d="M100.23,31.395c0.038,1.587-0.035,3.164-0.422,4.714
		c-0.03,0.119-0.009,0.251-0.013,0.377c-0.187,0.193-0.433,0.151-0.661,0.152c-1.655,0.005-3.311,0.005-4.965,0
		c-0.229,0-0.475,0.042-0.662-0.151c0.427-1.67,0.694-3.361,0.651-5.092C96.183,31.395,98.206,31.395,100.23,31.395z"/>
	<path fill-rule="evenodd" clip-rule="evenodd" fill="#F78F4A" d="M114,36.485c0.313-1.683,0.505-3.375,0.435-5.091
		c1.916,0,3.831,0,5.747,0c0.333,0.612,0.172,1.274,0.148,1.906c-0.033,0.934-0.154,1.866-0.304,2.792
		c-0.025,0.16-0.048,0.322-0.174,0.443c-0.194,0.126-0.413,0.103-0.626,0.103c-1.523,0.004-3.046,0.005-4.566,0
		C114.432,36.637,114.187,36.678,114,36.485z"/>
	<path fill-rule="evenodd" clip-rule="evenodd" fill="#F68C49" d="M119.856,36.485c0.097-0.923,0.221-1.845,0.283-2.771
		c0.052-0.771,0.031-1.546,0.042-2.319c1.77,0,3.542,0,5.313,0c0.082,1.709-0.199,3.395-0.325,5.091
		c-0.171,0.18-0.396,0.152-0.607,0.152c-1.367,0.005-2.733,0.005-4.099,0C120.252,36.637,120.025,36.666,119.856,36.485z"/>
	<path fill-rule="evenodd" clip-rule="evenodd" fill="#F8A158" d="M36.798,31.394c0.039,1.804,0.745,3.346,1.861,4.725
		c0.09,0.113,0.203,0.208,0.199,0.369c-0.366,0.269-0.787,0.119-1.184,0.146c-0.3,0.021-0.602,0.02-0.902-0.016
		c-0.322-0.063-0.523-0.305-0.74-0.521c-1.279-1.275-2.555-2.554-3.833-3.829c-0.126-0.125-0.231-0.276-0.454-0.389
		c0.008,3.295-0.008,6.557,0.011,9.819c0.021,2.237,0.025,4.473-0.001,6.709c0.03,2.203,0.011,4.407,0.01,6.61
		c0,0.126-0.009,0.253-0.047,0.375c-0.021,0.071-0.057,0.133-0.107,0.187c-0.077,0.024-0.139,0.003-0.188-0.061
		c-0.133-0.232-0.113-0.489-0.113-0.741c-0.003-6.682-0.002-13.365-0.002-20.047c0-0.362,0.031-0.722,0.021-1.083
		c-0.027-0.298,0.004-0.596,0.003-0.894c-0.014-0.159,0.009-0.318,0.009-0.477c0.006-0.131,0.057-0.245,0.133-0.348
		c0-0.107,0.002-0.215,0.002-0.324c0.008-0.067,0.016-0.135,0.023-0.203C33.266,31.401,35.032,31.397,36.798,31.394z"/>
	<path fill-rule="evenodd" clip-rule="evenodd" fill="#EC7544" d="M36.692,36.486c0.723,0.001,1.445,0.001,2.166,0.001
		c8.566,0,17.133,0,25.699,0c3.939,0,7.879,0,11.818,0c2.566,0,5.133-0.001,7.698-0.001c3.144,0,6.289,0,9.434,0
		c2.096,0,4.192,0,6.288,0c2.423,0,4.844,0,7.265,0c2.313,0,4.628,0,6.939,0c1.952,0,3.904,0,5.856,0c1.771,0,3.542,0,5.313,0
		c2.599-0.001,5.199-0.001,7.798-0.002c0.015,0.026,0.023,0.054,0.025,0.085c-0.167,0.215-0.41,0.194-0.639,0.197
		c-0.624,0.006-1.249,0.021-1.874-0.005c-2.312,0.019-4.626,0.019-6.938,0.003c-3.577,0.013-7.155,0.019-10.732,0
		c-5.188,0.019-10.375,0.005-15.562,0.009c-0.233,0-0.469,0.01-0.701-0.018c-19.631,0.042-39.262,0.007-58.892,0.018
		c-0.235,0-0.471,0.01-0.703-0.029c-0.071-0.016-0.139-0.041-0.203-0.076C36.679,36.625,36.659,36.564,36.692,36.486z"/>
	<path fill-rule="evenodd" clip-rule="evenodd" fill="#C92D3A" d="M130.48,36.603c0.838-0.011,1.675-0.022,2.513-0.035
		c1.869,0.012,3.736,0.025,5.605,0.037c0.001,0.468,0.002,0.935,0.005,1.403c-0.263,0.537-0.726,0.896-1.153,1.278
		c-2.195,1.966-4.526,3.763-6.964,5.418c-2.362,1.604-4.813,3.063-7.343,4.388c-4.81,2.517-9.784,4.645-14.93,6.38
		c-4.592,1.549-9.255,2.825-13.988,3.853c-0.089,0.02-0.178,0.03-0.27,0.031c-0.38-0.023-0.759-0.033-1.138-0.033
		c-9.2,0.001-18.401,0-27.603,0.001c-0.289,0-0.578,0.002-0.867,0.027c-0.246,0.021-0.358,0.134-0.334,0.381
		c-0.093,2.033-0.019,4.066-0.041,6.098c-0.011,0.954,0.013,1.906-0.008,2.861c0.01,2.159,0.018,4.318,0.002,6.479
		c-0.002,0.866,0.012,1.732,0,2.6c-0.029,0.407,0.023,0.817-0.008,1.225c0.005,0.68,0.021,1.359-0.003,2.037
		c0.013,0.471,0.017,0.941-0.001,1.412c0.012,0.305,0.016,0.607-0.001,0.91c0.022,0.822,0.022,1.643,0.003,2.461
		c0.018,0.653,0.02,1.309,0,1.961c0.021,0.867,0.018,1.734,0.004,2.6c0.01,1.082,0.023,2.16-0.004,3.24
		c0.02,0.836,0.023,1.666,0,2.502c0.018,0.867,0.025,1.734-0.001,2.602c0.022,0.557,0.015,1.115,0.009,1.672
		c-0.001,0.213,0.006,0.434-0.155,0.611c-0.367-0.07-0.28-0.383-0.284-0.605c-0.018-0.918-0.028-1.836,0.002-2.752
		c-0.022-1.482-0.025-2.963,0-4.445c-0.023-1.627-0.025-3.254-0.001-4.877c-0.022-1.592-0.024-3.184,0-4.776
		c-0.023-1.986-0.026-3.975,0-5.959c-0.022-1.987-0.026-3.972,0-5.958c-0.021-1.544-0.026-3.089,0.002-4.632
		c-0.019-1.047,0.001-2.093-0.011-3.14c-0.006-0.575-0.051-0.588-0.611-0.643c-1.604-0.157-3.211-0.048-4.814-0.114
		c-2.357-0.096-4.717-0.213-7.071-0.397c-3.636-0.282-7.256-0.689-10.862-1.226c-0.928-0.139-1.855-0.276-2.779-0.439
		c-0.231-0.042-0.467-0.079-0.636-0.269c-0.081-0.127-0.094-0.271-0.094-0.415c-0.005-1.586-0.013-3.171,0.003-4.756
		c0-0.091,0.018-0.179,0.048-0.264c0.202-0.324,0.505-0.215,0.78-0.164c2.396,0.449,4.804,0.839,7.221,1.156
		c2.256,0.296,4.516,0.551,6.783,0.725c3.076,0.235,6.154,0.404,9.241,0.451c1.226,0.019,2.457,0.136,3.679,0.061
		c2.377-0.145,4.758-0.131,7.136-0.28c5.033-0.316,10.032-0.874,15-1.729c5.293-0.913,10.505-2.157,15.623-3.801
		c4.876-1.566,9.635-3.421,14.203-5.734c4.576-2.315,8.885-5.05,12.832-8.338C129.628,37.326,130.019,36.923,130.48,36.603z"/>
	<path fill-rule="evenodd" clip-rule="evenodd" fill="#C52C39" d="M94.15,59.275c0.809-0.362,1.689-0.443,2.537-0.647
		c3.429-0.822,6.825-1.756,10.176-2.856c3.457-1.136,6.857-2.414,10.188-3.884c2.147-0.949,4.256-1.98,6.325-3.079
		c3.868-2.054,7.554-4.398,10.989-7.129c1.465-1.166,2.877-2.388,4.238-3.671c0.012,0.073,0.024,0.145,0.037,0.216
		c0.109,0.134,0.124,0.294,0.123,0.457c-0.006,1.343,0.03,2.686-0.018,4.027c-0.062,0.311-0.307,0.476-0.533,0.653
		c-3.169,2.498-6.558,4.664-10.068,6.643c-6.414,3.615-13.219,6.305-20.213,8.543c-0.688,0.22-1.39,0.395-2.042,0.709
		c-1.08,0.104-2.162,0.023-3.241,0.049c-0.235,0.005-0.47-0.003-0.696,0.075c-0.234,0.081-0.354,0.236-0.33,0.489
		c0.005,0.062,0,0.122-0.008,0.183c-0.113,0.382,0.06,0.803-0.155,1.171c-0.913,0.347-1.875,0.518-2.82,0.747
		c-1.07,0.261-2.151,0.477-3.229,0.707c-0.637,0.136-0.718,0.089-0.919-0.556c-0.047-0.101-0.084-0.205-0.083-0.318
		c0.026-0.217,0.092-0.438-0.021-0.651c-0.055-0.111-0.1-0.226-0.086-0.353c0.005-0.183,0.141-0.364-0.001-0.547
		c-0.095-0.054-0.107-0.141-0.104-0.237C94.299,59.762,93.99,59.533,94.15,59.275z"/>
	<path fill-rule="evenodd" clip-rule="evenodd" fill="#911A1E" d="M36.692,36.486c0.002,0.033,0.006,0.065,0.012,0.096
		c0.076,0.104,0.129,0.217,0.127,0.347c-0.006,1.375,0.073,2.752-0.039,4.126c-1.094,1.012-3.611,1.601-5.207,0.525
		c0-3.332,0-6.664,0-10.151C33.345,33.172,35.02,34.83,36.692,36.486z"/>
	<path fill-rule="evenodd" clip-rule="evenodd" fill="#871C1F" d="M31.583,55.46c0-2.35,0.001-4.699,0.001-7.048
		c0.151-0.124,0.325-0.13,0.511-0.117c1.366,0.098,2.73,0.143,4.084-0.148c0.189-0.041,0.393-0.089,0.562,0.072
		c0.118,0.178,0.101,0.38,0.102,0.577c0.003,1.948,0,3.896,0.003,5.843c0,0.238-0.03,0.465-0.113,0.688
		c-0.136,0.229-0.368,0.261-0.602,0.297c-1.284,0.2-2.576,0.102-3.864,0.104C32.009,55.728,31.77,55.653,31.583,55.46z"/>
	<path fill-rule="evenodd" clip-rule="evenodd" fill="#8D1B1E" d="M36.685,48.198c-1.56,0.396-3.137,0.427-4.725,0.225
		c-0.123-0.016-0.25-0.009-0.376-0.012c0.001-2.277,0.001-4.554,0.001-6.83c0.619,0.094,1.191,0.396,1.822,0.432
		c0.995,0.055,1.909-0.251,2.787-0.679c0.16-0.078,0.291-0.214,0.489-0.185c0.2,0.185,0.157,0.432,0.158,0.66
		c0.005,1.909,0.005,3.819,0,5.729C36.841,47.767,36.884,48.013,36.685,48.198z"/>
	<path fill-rule="evenodd" clip-rule="evenodd" fill="#831B1F" d="M31.583,55.46c1.705,0.185,3.408,0.204,5.103-0.106
		c0.116,0.295,0.048,0.604,0.055,0.906c0.032,1.529-0.052,3.06,0.046,4.59c0.066,0.388,0.13,0.777-0.075,1.148
		c-0.429,0.217-0.901,0.225-1.36,0.24c-1.055,0.036-2.111,0.015-3.167,0.009c-0.214-0.001-0.434,0.004-0.606-0.159
		c-0.081-1.82-0.018-3.64-0.033-5.459c-0.002-0.358-0.045-0.72,0.034-1.077C31.563,55.52,31.565,55.489,31.583,55.46z"/>
	<path fill-rule="evenodd" clip-rule="evenodd" fill="#871C1F" d="M31.578,55.551c0.011,2.175,0.021,4.352,0.031,6.526
		c0.14,0.163,0.157,0.36,0.157,0.561c0,2.231,0.023,4.464-0.011,6.697c0.024,2.422,0.027,4.842,0,7.264
		c0.024,1.989,0.026,3.979,0,5.969c0.024,2.709,0.027,5.418,0,8.127c0.024,2.746,0.027,5.492,0,8.236
		c0.023,1.775,0.025,3.549,0,5.324c0.024,2.637,0.026,5.275,0,7.914c0.025,3.936,0.028,7.873,0,11.809
		c0.023,2.631,0.028,5.26-0.001,7.889c-0.045,0.479,0.154,0.986-0.166,1.436c-0.147-0.273-0.068-0.566-0.068-0.848
		c-0.003-25.637-0.002-51.276-0.002-76.913C31.537,55.554,31.558,55.558,31.578,55.551z"/>
	<path fill-rule="evenodd" clip-rule="evenodd" fill="#D8303C" d="M96.543,36.606c5.422,0,10.841,0,16.263-0.002
		c0.034,0.299-0.201,0.401-0.395,0.524c-2.396,1.523-4.887,2.87-7.461,4.073c-2.92,1.363-5.908,2.541-8.971,3.535
		c-5.688,1.844-11.496,3.152-17.422,3.937c-2.613,0.346-5.231,0.636-7.864,0.787c-1.749,0.1-3.495,0.201-5.247,0.206
		c-0.863,0.002-1.728,0.147-2.596,0.097c-2.449-0.143-4.903-0.138-7.354-0.297c-5.148-0.336-10.238-1.044-15.29-2.063
		c-0.956-0.192-1.903-0.43-2.855-0.646c-0.238-0.053-0.513-0.082-0.604-0.382c-0.001-2.258-0.003-4.515,0-6.771
		c0.272-0.37,0.602-0.13,0.879-0.047c1.42,0.425,2.85,0.811,4.29,1.163c3.675,0.896,7.401,1.475,11.156,1.919
		c4.46,0.529,8.935,0.604,13.413,0.502c2.343-0.053,4.685-0.262,7.017-0.538c4.132-0.49,8.228-1.18,12.249-2.253
		C89.438,39.362,93.062,38.184,96.543,36.606z"/>
	<path fill-rule="evenodd" clip-rule="evenodd" fill="#D32F3B" d="M36.8,46.461c2.686,0.65,5.391,1.195,8.119,1.641
		c2.018,0.33,4.039,0.616,6.069,0.829c1.46,0.153,2.929,0.285,4.398,0.369c1.942,0.111,3.892,0.093,5.824,0.234
		c2.278,0.167,4.536-0.093,6.804-0.062c1.646,0.022,3.301-0.146,4.943-0.313c2.031-0.206,4.059-0.442,6.084-0.722
		c3.183-0.441,6.338-1.016,9.461-1.762c4.662-1.114,9.233-2.527,13.655-4.385c3.595-1.51,7.052-3.293,10.347-5.384
		c0.115-0.074,0.201-0.2,0.301-0.301c3.578,0,7.155,0,10.735-0.001c0.03,0.354-0.251,0.5-0.469,0.671
		c-2.309,1.807-4.757,3.406-7.31,4.845c-4.402,2.482-9.001,4.522-13.771,6.184c-6.745,2.351-13.669,3.931-20.732,4.939
		c-2.914,0.416-5.838,0.74-8.772,0.94c-1.888,0.128-3.781,0.206-5.675,0.269c-1.715,0.057-3.43,0.108-5.143,0.068
		c-2.343-0.056-4.685-0.146-7.026-0.288c-4.239-0.259-8.447-0.762-12.638-1.436c-1.533-0.247-3.061-0.537-4.579-0.86
		c-0.254-0.053-0.556-0.043-0.679-0.358c-0.002-1.53-0.002-3.059,0.002-4.589C36.749,46.814,36.702,46.629,36.8,46.461z"/>
	<path fill-rule="evenodd" clip-rule="evenodd" fill="#CE2F3A" d="M36.8,51.667c1.85,0.346,3.697,0.716,5.553,1.031
		c1.395,0.235,2.801,0.411,4.203,0.594c1.458,0.19,2.916,0.373,4.377,0.525c1.018,0.107,2.039,0.179,3.061,0.232
		c1.941,0.099,3.885,0.167,5.825,0.254c1.969,0.089,3.935,0.101,5.896,0.049c1.688-0.045,3.385-0.058,5.068-0.201
		c1.965-0.168,3.933-0.301,5.896-0.506c2.551-0.267,5.091-0.61,7.619-1.018c2.337-0.378,4.656-0.862,6.965-1.394
		c3.228-0.743,6.414-1.63,9.554-2.681c3.093-1.035,6.121-2.234,9.084-3.608c3.671-1.703,7.216-3.624,10.538-5.936
		c1.073-0.747,2.211-1.418,3.103-2.405c2.312,0,4.626,0,6.939,0c-0.39,0.726-1.103,1.125-1.705,1.619
		c-1.862,1.531-3.812,2.949-5.851,4.238c-1.673,1.06-3.389,2.047-5.136,2.983c-4.172,2.234-8.525,4.036-12.99,5.588
		c-4.335,1.509-8.742,2.744-13.231,3.702c-2.387,0.508-4.781,0.957-7.187,1.352c-1.731,0.285-3.481,0.463-5.224,0.678
		c-2.029,0.25-4.062,0.444-6.105,0.56c-1.219,0.07-2.44,0.13-3.657,0.222c-1.353,0.101-2.708-0.018-4.05,0.108
		c-1.156,0.109-2.31,0.128-3.455,0.065c-1.424-0.079-2.848-0.038-4.268-0.096c-1.812-0.074-3.627-0.162-5.432-0.329
		c-2.264-0.208-4.529-0.423-6.787-0.724c-2.754-0.368-5.5-0.768-8.226-1.312c-0.122-0.024-0.251-0.009-0.378-0.012
		C36.711,54.052,36.711,52.859,36.8,51.667z"/>
	<path fill-rule="evenodd" clip-rule="evenodd" fill="#DE333E" d="M96.543,36.606c-0.176,0.396-0.589,0.458-0.918,0.593
		c-3.967,1.639-8.045,2.94-12.228,3.896c-2.289,0.523-4.6,0.942-6.93,1.268c-1.615,0.226-3.232,0.42-4.852,0.61
		c-0.924,0.108-1.859,0.166-2.79,0.223c-3.154,0.191-6.314,0.167-9.47,0.101c-1.918-0.04-3.836-0.219-5.744-0.428
		c-4.479-0.489-8.919-1.219-13.279-2.377c-1.18-0.314-2.355-0.646-3.533-0.97c-0.091-0.972-0.082-1.944-0.003-2.917
		c7.782-0.003,15.563-0.006,23.346-0.007c11.899-0.002,23.799-0.002,35.697-0.002C96.075,36.597,96.31,36.604,96.543,36.606z"/>
	<path fill-rule="evenodd" clip-rule="evenodd" fill="#C22A35" d="M36.797,36.606c0.001,0.972,0.001,1.945,0.003,2.917
		c0,2.313,0,4.626,0,6.939c0,1.735,0,3.47,0,5.205c0,1.193,0,2.386,0,3.578c0,1.843,0,3.687,0,5.529
		c0.027,0.025,0.039,0.05,0.035,0.079c-0.005,0.029-0.01,0.043-0.018,0.043c-0.045,0.028-0.085,0.022-0.121-0.016
		c-0.004-1.843-0.006-3.684-0.011-5.526c-0.001-2.385-0.001-4.771-0.001-7.156c0-2.35-0.001-4.699-0.001-7.049
		c0.007-1.522,0.013-3.044,0.021-4.567C36.735,36.589,36.767,36.596,36.797,36.606z"/>
	<path fill-rule="evenodd" clip-rule="evenodd" fill="#B92A36" d="M63.687,71.618c0,1.988,0,3.976,0,5.964
		c-0.174,0.159-0.394,0.166-0.611,0.167c-1.879,0.003-3.76,0.071-5.635-0.017c-2.578-0.123-5.154-0.218-7.73-0.391
		c-4.125-0.279-8.238-0.678-12.341-1.201c-0.212-0.026-0.437-0.019-0.612-0.179c-0.112-0.156-0.108-0.339-0.109-0.519
		c-0.004-1.709-0.003-3.419,0-5.127c0-0.18-0.007-0.362,0.096-0.524c0.238-0.232,0.535-0.19,0.818-0.148
		c2.375,0.349,4.76,0.632,7.148,0.874c2.027,0.205,4.061,0.356,6.092,0.513c2.699,0.207,5.403,0.251,8.104,0.399
		c1.334,0.073,2.672,0.01,4.008,0.02C63.181,71.453,63.462,71.419,63.687,71.618z"/>
	<path fill-rule="evenodd" clip-rule="evenodd" fill="#B32835" d="M36.8,75.955c1.188,0.014,2.35,0.274,3.529,0.371
		c1.232,0.101,2.458,0.266,3.688,0.386c1.534,0.148,3.07,0.283,4.606,0.417c0.625,0.055,1.258,0.083,1.883,0.104
		c1.097,0.036,2.197,0.084,3.289,0.156c3.297,0.215,6.594,0.184,9.891,0.193c0,1.988,0,3.975,0.002,5.963
		c-0.508,0.299-1.059,0.174-1.585,0.123c-0.794-0.072-1.579-0.062-2.373,0.006c-1.097,0.088-2.194-0.072-3.294-0.094
		c-1.854-0.033-3.707-0.129-5.559-0.242c-2.142-0.129-4.279-0.303-6.418-0.463c-2.303-0.174-4.595-0.443-6.889-0.686
		c-0.305-0.033-0.619-0.033-0.841-0.299c-0.097-0.184-0.083-0.383-0.084-0.58c-0.002-1.566-0.004-3.13,0.001-4.695
		C36.648,76.387,36.606,76.143,36.8,75.955z"/>
	<path fill-rule="evenodd" clip-rule="evenodd" fill="#F37138" d="M63.783,101.001c0.009-0.76,0.017-1.518,0.026-2.275
		c0.258-0.164,0.494-0.01,0.721,0.07c3.045,1.098,6.159,1.945,9.329,2.594c0.177,0.037,0.362,0.059,0.448,0.256
		c0.064,0.191,0.053,0.393,0.053,0.59c0,3.311,0,6.621,0,9.934c0,0.215,0.011,0.43-0.051,0.643c-0.16,0.438-0.522,0.504-0.921,0.508
		c-1.046,0.006-2.093,0.002-3.14,0.004c-1.84,0-3.681,0.002-5.521-0.004c-0.379-0.002-0.771,0.012-1.006-0.381
		c-0.103-0.24-0.076-0.494-0.076-0.746c-0.002-3.473-0.003-6.945,0.002-10.418C63.647,101.515,63.584,101.229,63.783,101.001z"/>
	<path fill-rule="evenodd" clip-rule="evenodd" fill="#A72332" d="M63.688,88.317c0.001,1.627,0.001,3.254,0.001,4.877
		c-0.21,0.188-0.47,0.172-0.72,0.172c-1.825,0.002-3.652,0.068-5.473-0.016c-2.973-0.131-5.949-0.203-8.921-0.389
		c-3.711-0.232-7.415-0.527-11.114-0.895c-0.269-0.027-0.549-0.018-0.73-0.275c-0.089-0.168-0.084-0.35-0.084-0.529
		c-0.004-1.26-0.003-2.518,0-3.777c0-0.197-0.014-0.4,0.104-0.578c0.193-0.18,0.432-0.166,0.666-0.137
		c2.383,0.279,4.773,0.502,7.166,0.686c1.906,0.146,3.816,0.256,5.724,0.377c2.161,0.137,4.325,0.178,6.486,0.283
		c2.001,0.096,4.009,0.018,6.013,0.029C63.108,88.147,63.427,88.093,63.688,88.317z"/>
	<path fill-rule="evenodd" clip-rule="evenodd" fill="#AC2433" d="M63.688,88.317c-1.426,0-2.853-0.031-4.276,0.006
		c-1.931,0.047-3.853-0.117-5.78-0.139c-1.396-0.016-2.797-0.137-4.195-0.207c-2.041-0.1-4.081-0.25-6.117-0.432
		c-2.014-0.18-4.023-0.424-6.034-0.635c-0.161-0.018-0.324-0.004-0.487-0.004c-0.087-0.074-0.119-0.176-0.137-0.283
		c-0.033-1.383-0.01-2.768-0.013-4.153c0-0.195-0.015-0.4,0.151-0.553c1.669,0.205,3.339,0.395,5.014,0.551
		c2.405,0.221,4.811,0.428,7.223,0.566c1.309,0.076,2.619,0.139,3.926,0.225c0.691,0.045,1.395,0.061,2.089,0.123
		c0.532,0.045,1.095,0.047,1.645,0.057c0.718,0.016,1.435-0.062,2.152,0.096c0.534,0.115,1.069-0.08,1.607-0.102
		c1.081-0.049,2.151,0.189,3.233,0.111C63.688,85.135,63.688,86.726,63.688,88.317z"/>
	<path fill-rule="evenodd" clip-rule="evenodd" fill="#BF2A38" d="M63.687,71.618c-0.162,0-0.324-0.004-0.486,0.001
		c-2.487,0.076-4.973-0.074-7.457-0.124c-1.919-0.038-3.838-0.171-5.752-0.321c-2.34-0.183-4.678-0.388-7.009-0.658
		c-1.829-0.212-3.665-0.398-5.481-0.727c-0.227-0.041-0.467-0.012-0.701-0.014c-0.152-0.137-0.149-0.322-0.15-0.501
		c-0.006-1.315-0.008-2.63,0-3.944c0.001-0.145,0.01-0.288,0.092-0.416c0.261-0.249,0.574-0.172,0.873-0.125
		c3.515,0.561,7.048,0.988,10.592,1.312c1.725,0.157,3.454,0.272,5.185,0.37c3.226,0.183,6.453,0.301,9.685,0.318
		c0.218,0.001,0.438,0.007,0.611,0.167C63.687,68.51,63.687,70.065,63.687,71.618z"/>
	<path fill-rule="evenodd" clip-rule="evenodd" fill="#A12230" d="M36.798,91.786c0.475,0.213,0.992,0.137,1.486,0.195
		c1.387,0.166,2.787,0.215,4.178,0.352c2.055,0.207,4.113,0.326,6.173,0.443c1.489,0.084,2.979,0.131,4.467,0.219
		c3.528,0.201,7.058,0.205,10.588,0.199c0.001,1.484,0.001,2.965,0.001,4.445c-0.144,0.131-0.32,0.168-0.504,0.166
		c-1.08-0.014-2.164,0.076-3.244-0.066c-0.304-0.041-0.611-0.043-0.918-0.031c-2.237,0.066-4.475-0.041-6.706-0.137
		c-2.808-0.123-5.616-0.264-8.419-0.492c-2.176-0.176-4.352-0.334-6.521-0.559c-0.214-0.023-0.437-0.012-0.616-0.166
		c-0.212-1.496-0.147-2.99-0.032-4.488C36.731,91.837,36.774,91.813,36.798,91.786z"/>
	<path fill-rule="evenodd" clip-rule="evenodd" fill="#C52C39" d="M63.687,66.957c-0.107,0-0.216-0.005-0.325,0
		c-2.255,0.081-4.507-0.106-6.76-0.128c-1.886-0.018-3.769-0.173-5.65-0.315c-1.966-0.149-3.933-0.312-5.892-0.547
		c-2.561-0.307-5.125-0.596-7.666-1.057c-0.193-0.035-0.396-0.01-0.596-0.013c-0.118-0.104-0.14-0.247-0.145-0.39
		c-0.039-1.21,0.001-2.418,0.145-3.62c0-0.037,0.002-0.075,0.002-0.112c2.088,0.324,4.17,0.695,6.265,0.958
		c1.794,0.225,3.594,0.419,5.397,0.576c1.967,0.171,3.935,0.307,5.903,0.438c2.338,0.155,4.675,0.211,7.016,0.195
		c0.667-0.005,1.321,0.177,1.991,0.114c0.329-0.03,0.318,0.208,0.318,0.434C63.688,64.644,63.688,65.8,63.687,66.957z"/>
	<path fill-rule="evenodd" clip-rule="evenodd" fill="#9D212F" d="M36.8,96.339c1.572,0.096,3.141,0.242,4.706,0.42
		c0.517,0.057,1.038,0.055,1.558,0.104c1.355,0.129,2.723,0.146,4.082,0.242c2.474,0.172,4.949,0.254,7.426,0.35
		c1.278,0.051,2.554,0.043,3.829,0.076c1.764,0.047,3.524,0.168,5.29,0.109c0,0.951,0,1.898,0.005,2.848
		c0.001,0.174-0.054,0.361,0.088,0.514c0.006,3.975,0.013,7.951,0.019,11.93c0.051,0.096,0.074,0.188-0.064,0.234
		c-0.34-0.297-0.168-0.691-0.206-1.045c-0.025-1.283-0.024-2.566-0.003-3.848c-0.02-1.045-0.022-2.09,0-3.137
		c-0.027-1.029,0-2.057-0.013-3.084c-0.009-0.598-0.058-0.652-0.653-0.658c-1.064-0.008-2.129-0.025-3.192,0.004
		c-2.202,0.057-4.401-0.066-6.597-0.145c-3.043-0.107-6.084-0.264-9.123-0.488c-2.049-0.15-4.095-0.33-6.144-0.482
		c-0.354-0.027-0.726-0.025-1.043-0.238c-0.116-0.154-0.114-0.336-0.115-0.516c-0.005-0.879-0.006-1.758,0-2.637
		C36.65,96.698,36.634,96.493,36.8,96.339z"/>
	<path fill-rule="evenodd" clip-rule="evenodd" fill="#F69751" d="M63.804,68.692c-0.004-2.822-0.009-5.644-0.015-8.468
		c0-0.183,0.022-0.357,0.116-0.517c0.068-0.208,0.246-0.267,0.429-0.271c0.937-0.019,1.876-0.086,2.811,0.037
		c0.3,0.136,0.194,0.398,0.167,0.614c-0.221,1.661-0.163,3.306,0.273,4.929c0.523,1.948,1.508,3.651,2.775,5.204
		c1.08,1.323,2.352,2.431,3.781,3.357c0.078,0.051,0.135,0.119,0.17,0.206c0.092,1.382,0.053,2.765,0.023,4.146
		c-0.104,0.354-0.352,0.23-0.568,0.155c-0.43-0.146-0.802-0.411-1.193-0.636c-3.189-1.812-5.875-4.179-7.898-7.261
		C64.357,69.706,64.079,69.199,63.804,68.692z"/>
	<path fill-rule="evenodd" clip-rule="evenodd" fill="#F48745" d="M63.807,85.821c0-0.83,0-1.662,0-2.492
		c0.31-0.152,0.517,0.086,0.732,0.217c2.759,1.682,5.683,3.002,8.755,3.997c3.416,1.104,6.916,1.785,10.485,2.16
		c2.452,0.26,4.906,0.17,7.359,0.189c0.415,0.004,0.822-0.109,1.24-0.107c0.615,0.002,0.615-0.01,0.649-0.639
		c-0.017-0.352-0.011-0.705-0.003-1.057c-0.015-0.461-0.015-0.92,0-1.379c-0.011-0.266-0.012-0.53,0-0.793
		c-0.017-0.5-0.015-0.998-0.001-1.5c0.015-0.371-0.098-0.76,0.15-1.098c0.272,0.031,0.252,0.26,0.27,0.438
		c0.034,0.332,0.021,0.666,0.007,0.998c0.022,1.504,0.025,3.008,0,4.51c0.021,0.566,0.011,1.135,0.006,1.699
		c-0.002,0.23-0.001,0.467-0.187,0.645c-0.295,0.227-0.62,0.352-1,0.352c-3.105-0.002-6.211,0.002-9.316-0.006
		c-0.126,0-0.252-0.012-0.375-0.041c-0.797-0.393-1.682-0.373-2.531-0.51c-4.337-0.693-8.521-1.902-12.543-3.674
		c-1.124-0.494-2.23-1.025-3.296-1.639C64.067,86.01,63.919,85.944,63.807,85.821z"/>
	<path fill-rule="evenodd" clip-rule="evenodd" fill="#F7904C" d="M93.18,84.413c0,0.506,0,1.012,0,1.516
		c-0.275,0.211-0.61,0.225-0.929,0.244c-2.124,0.127-4.244,0.167-6.375,0.043c-2.75-0.158-5.447-0.598-8.109-1.275
		c-4.85-1.236-9.304-3.303-13.248-6.415c-0.267-0.209-0.564-0.394-0.713-0.724c0-0.867,0-1.736,0-2.603
		c0.277-0.088,0.443,0.105,0.604,0.265c2.711,2.709,5.942,4.607,9.438,6.102c0.164,0.072,0.344,0.119,0.439,0.295
		c0.078,0.158,0.054,0.34,0.104,0.502c0.113,0.277,0.363,0.256,0.59,0.26c0.605,0.012,1.211,0,1.815,0.006
		c0.196,0.002,0.392,0.008,0.575,0.096c0.283,0.246,0.643,0.322,0.989,0.408c2.575,0.65,5.183,1.074,7.839,1.248
		c2.078,0.135,4.141,0.074,6.208-0.115C92.673,84.239,92.95,84.215,93.18,84.413z"/>
	<path fill-rule="evenodd" clip-rule="evenodd" fill="#F7924D" d="M74.2,81.811c-1.652-0.588-3.203-1.391-4.705-2.283
		c-1.908-1.132-3.689-2.438-5.244-4.033c-0.121-0.125-0.296-0.199-0.445-0.296c-0.001-2.168-0.001-4.338-0.002-6.506
		c0.275,0.141,0.404,0.414,0.533,0.661c0.594,1.138,1.368,2.155,2.215,3.103c1.785,1.997,3.853,3.654,6.207,4.947
		c0.471,0.26,0.93,0.544,1.441,0.721c0.156,0.133,0.154,0.317,0.156,0.498c0.008,0.896,0.008,1.795,0,2.691
		C74.354,81.493,74.355,81.678,74.2,81.811z"/>
	<path fill-rule="evenodd" clip-rule="evenodd" fill="#F68C4A" d="M93.18,86.688c0,0.471,0,0.939,0,1.41
		c-0.479,0.271-1.021,0.201-1.528,0.236c-1.006,0.066-2.024,0.141-3.023,0.102c-1.239-0.045-2.483-0.055-3.726-0.15
		c-2.435-0.193-4.837-0.568-7.21-1.127c-4.57-1.079-8.87-2.807-12.81-5.387c-0.362-0.234-0.753-0.428-1.077-0.721
		c0-0.686,0-1.371,0-2.058c0.289-0.087,0.486,0.102,0.68,0.251c3.124,2.373,6.588,4.084,10.298,5.32
		c2.784,0.928,5.635,1.547,8.551,1.879c2.083,0.238,4.169,0.344,6.264,0.314c0.975-0.014,1.942-0.115,2.913-0.186
		C92.746,86.556,92.98,86.513,93.18,86.688z"/>
	<path fill-rule="evenodd" clip-rule="evenodd" fill="#F68C49" d="M63.806,81.051c0.232-0.016,0.414,0.096,0.596,0.221
		c3.977,2.711,8.348,4.523,13.006,5.663c2.038,0.498,4.104,0.85,6.194,1.07c1.274,0.139,2.554,0.111,3.818,0.23
		c1.394,0.135,2.766-0.113,4.148-0.045c0.529,0.023,1.07-0.119,1.611-0.092c0,0.361,0,0.723,0,1.086
		c-0.479,0.27-1.025,0.219-1.53,0.232c-1.083,0.027-2.158,0.172-3.244,0.143c-3.565-0.096-7.094-0.482-10.576-1.266
		c-3.719-0.836-7.293-2.081-10.683-3.833c-1.152-0.596-2.296-1.215-3.34-2C63.807,81.991,63.807,81.52,63.806,81.051z"/>
	<path fill-rule="evenodd" clip-rule="evenodd" fill="#F27E3F" d="M63.809,93.63c0-1.084,0-2.168-0.001-3.252
		c0.29-0.109,0.53,0.053,0.77,0.158c1.764,0.783,3.545,1.52,5.38,2.117c1.218,0.396,2.443,0.76,3.687,1.066
		c0.236,0.059,0.512,0.059,0.658,0.318c0.095,0.912,0.09,1.824,0.005,2.738c-0.171,0.281-0.419,0.135-0.632,0.096
		c-1.121-0.211-2.219-0.521-3.304-0.861c-2.104-0.656-4.2-1.344-6.238-2.191C64.016,93.771,63.901,93.72,63.809,93.63z"/>
	<path fill-rule="evenodd" clip-rule="evenodd" fill="#F48242" d="M74.196,93.954c-0.934-0.109-1.82-0.418-2.717-0.672
		c-2.448-0.697-4.799-1.648-7.121-2.68c-0.182-0.08-0.367-0.15-0.551-0.225c0-0.867,0-1.736,0-2.604
		c0.311-0.211,0.555,0.016,0.797,0.139c2.141,1.082,4.361,1.973,6.631,2.742c0.801,0.273,1.608,0.527,2.43,0.734
		c0.332,0.084,0.603,0.227,0.754,0.549c0.308,0.152,0.639,0.102,0.96,0.102c5.438,0.004,10.878,0.004,16.316,0.006
		c0.318,0,0.656-0.064,0.94,0.16c-0.004,0.26-0.218,0.248-0.382,0.277c-0.25,0.041-0.504,0.021-0.757,0.021
		c-5.375,0-10.751,0-16.127,0.002c-0.27,0-0.54-0.02-0.805,0.043c-0.252,0.115-0.191,0.344-0.211,0.551
		C74.329,93.39,74.446,93.708,74.196,93.954z"/>
	<path fill-rule="evenodd" clip-rule="evenodd" fill="#F48543" d="M74.206,91.894c-0.021-0.23-0.205-0.271-0.381-0.318
		c-3.283-0.863-6.426-2.104-9.459-3.625c-0.176-0.088-0.348-0.195-0.559-0.176c0-0.65-0.001-1.303-0.001-1.954
		c0.41-0.002,0.688,0.287,1.02,0.457c3.093,1.614,6.327,2.862,9.692,3.776c2.374,0.645,4.774,1.146,7.221,1.428
		c0.238,0.027,0.561,0.002,0.709,0.305c-0.168,0.174-0.391,0.17-0.604,0.172c-2.424,0.012-4.848-0.004-7.272,0.01
		C74.446,91.968,74.321,91.956,74.206,91.894z"/>
	<path fill-rule="evenodd" clip-rule="evenodd" fill="#F2773B" d="M74.194,101.544c-1.33-0.117-2.605-0.5-3.892-0.82
		c-2.2-0.545-4.351-1.262-6.493-1.998c0-0.867,0-1.734,0-2.602c0.24-0.16,0.453-0.016,0.663,0.068
		c2.977,1.18,6.053,2.021,9.167,2.734c0.24,0.057,0.512,0.057,0.66,0.312c0.117,0.658,0.047,1.318,0.046,1.975
		C74.346,101.343,74.304,101.46,74.194,101.544z"/>
	<path fill-rule="evenodd" clip-rule="evenodd" fill="#F37A3C" d="M74.194,99.157c-1.408-0.197-2.767-0.615-4.139-0.973
		c-2.126-0.551-4.188-1.303-6.246-2.061c-0.001-0.832-0.001-1.664-0.001-2.494c0.817,0.086,1.519,0.52,2.272,0.789
		c2.567,0.908,5.145,1.783,7.812,2.357c0.104,0.021,0.201,0.068,0.303,0.105C74.462,97.64,74.462,98.399,74.194,99.157z"/>
	<path fill-rule="evenodd" clip-rule="evenodd" fill="#F78F4B" d="M93.18,86.688c-1.955,0.166-3.913,0.289-5.874,0.211
		c-1.844-0.072-3.68-0.238-5.51-0.504c-1.776-0.256-3.539-0.604-5.25-1.1c-1.788-0.516-3.553-1.152-5.266-1.906
		c-2.447-1.082-4.746-2.408-6.875-4.031c-0.186-0.142-0.4-0.244-0.6-0.364c0-0.397,0-0.795,0-1.192
		c1.253,0.965,2.519,1.913,3.862,2.752c1.933,1.205,3.979,2.176,6.107,2.979c2.243,0.846,4.55,1.465,6.904,1.896
		c1.692,0.311,3.397,0.512,5.118,0.633c1.516,0.107,3.026,0.076,4.539,0.072c0.947-0.002,1.896-0.131,2.843-0.205
		C93.18,86.182,93.18,86.435,93.18,86.688z"/>
	<path fill-rule="evenodd" clip-rule="evenodd" fill="#F68A48" d="M63.807,82.461c0.742,0.16,1.296,0.684,1.925,1.047
		c2.771,1.613,5.717,2.789,8.77,3.745c2.285,0.713,4.62,1.189,6.975,1.572c1.127,0.182,2.271,0.297,3.42,0.375
		c1.506,0.104,3.011,0.238,4.521,0.193c1.256-0.039,2.51-0.139,3.764-0.209c0.004,0.756,0,0.707-0.749,0.77
		c-1.547,0.131-3.095,0.082-4.643,0.098c-3.373,0.033-6.688-0.434-9.975-1.133c-4.037-0.855-7.883-2.244-11.525-4.186
		c-0.838-0.447-1.655-0.936-2.481-1.404C63.807,83.04,63.807,82.75,63.807,82.461z"/>
	<path fill-rule="evenodd" clip-rule="evenodd" fill="#791A20" d="M67.267,59.599c-0.966-0.005-1.934-0.01-2.901-0.018
		c-0.166,0-0.32,0.034-0.46,0.124c-0.235-0.37,0.035-0.476,0.308-0.545c0.152-0.039,0.322-0.012,0.485-0.012
		c9.518,0,19.035,0,28.552-0.003c0.308,0,0.611,0.005,0.9,0.129c0,0.258,0.362,0.45,0.132,0.747
		c-0.658-0.32-1.364-0.266-2.064-0.264c-4.468,0-8.937,0-13.404,0c-0.199,0-0.396,0-0.595-0.015
		c-1.914,0.023-3.827,0.027-5.743-0.001c-1.531,0.034-3.062,0.011-4.594,0.014C67.666,59.756,67.448,59.751,67.267,59.599z"/>
	<path fill-rule="evenodd" clip-rule="evenodd" fill="#F8A158" d="M78.22,59.601c3.048-0.006,6.096-0.014,9.145-0.019
		c1.983-0.001,3.968,0.001,5.952,0c0.391,0,0.767,0.025,0.966,0.44c-0.013,0.089,0.018,0.159,0.086,0.215
		c0.108,0.169,0.056,0.35,0.036,0.528c0.025,0.11,0.05,0.22,0.075,0.33c0.102,0.211,0.057,0.429,0.033,0.645
		c-0.011,0.086-0.017,0.17,0.061,0.232c0.145,0.298,0.003,0.665,0.225,0.944c0.053,0.203,0.043,0.41,0.052,0.616
		c0.009,0.14,0.026,0.278,0.062,0.416c0.05,0.218,0.033,0.441,0.048,0.664c0.015,0.108,0.034,0.214,0.06,0.321
		c0.043,0.189,0.037,0.382,0.046,0.574c0.007,0.136,0.03,0.271,0.063,0.403c0.045,0.194,0.036,0.393,0.05,0.59
		c0.001,0.147,0.039,0.291,0.075,0.434c0.043,0.287,0.054,0.576,0.037,0.866c-0.033,0.867-0.195,1.059-0.997,1.061
		c-3.716,0.01-7.431,0.008-11.146,0.001c-0.144,0-0.288-0.009-0.429-0.043c-1.297-0.783-2.584-1.568-3.536-2.801
		c-0.9-1.166-1.458-2.462-1.513-3.924C77.637,61.238,77.712,60.358,78.22,59.601z"/>
	<path fill-rule="evenodd" clip-rule="evenodd" fill="#C32C39" d="M138.606,42.886c0,1.156,0,2.312-0.002,3.468
		c-0.487,0.52-1.11,0.86-1.688,1.253c-2.601,1.767-5.306,3.354-8.082,4.83c-5.178,2.75-10.558,5.014-16.103,6.902
		c-0.358,0.123-0.717,0.271-1.104,0.103c-0.311-0.115-0.633-0.124-0.957-0.124c-1.311,0-2.622,0.003-3.934-0.004
		c-0.262-0.001-0.545,0.048-0.76-0.176c0.414-0.391,0.974-0.445,1.477-0.6c3.703-1.142,7.341-2.456,10.916-3.953
		c2.53-1.059,5.027-2.189,7.453-3.468c4.179-2.204,8.178-4.695,11.942-7.557C138.051,43.343,138.325,43.111,138.606,42.886z"/>
	<path fill-rule="evenodd" clip-rule="evenodd" fill="#F89D54" d="M101.524,60.009c-0.003-0.037-0.008-0.073-0.012-0.11
		c0.044-0.345,0.311-0.448,0.582-0.454c1.477-0.033,2.951-0.103,4.425,0.033c0.278,0.133,0.268,0.413,0.31,0.651
		c0.499,2.851-0.203,5.445-1.758,7.825c-0.782,1.196-1.719,2.276-2.886,3.126c-0.218,0.157-0.463,0.483-0.763,0.083
		c-0.057-0.195-0.044-0.394-0.044-0.591c-0.002-2.899-0.014-5.796,0.009-8.694C101.394,61.257,101.468,60.633,101.524,60.009z"/>
	<path fill-rule="evenodd" clip-rule="evenodd" fill="#C12C38" d="M94.688,62.944c-0.176-0.308-0.066-0.648-0.115-0.971
		c0.307,0.672,0.302,0.649,1.128,0.479c1.751-0.362,3.496-0.751,5.227-1.203c0.153-0.041,0.32-0.028,0.48-0.04
		c0.138,0.308,0.061,0.632,0.063,0.947c0.01,1.164,0.003,2.326,0.004,3.488c-0.04,0.274-0.268,0.316-0.476,0.364
		c-1.705,0.401-3.422,0.746-5.143,1.068c-0.27,0.051-0.575,0.14-0.732-0.22c-0.099-0.1-0.09-0.222-0.071-0.346
		c0.029-0.216,0.08-0.432-0.037-0.64c-0.104-0.096-0.087-0.216-0.071-0.336c0.026-0.216,0.083-0.433-0.04-0.639
		c-0.078-0.063-0.079-0.146-0.06-0.234c0-0.248,0.094-0.503-0.052-0.742c-0.107-0.096-0.082-0.217-0.068-0.337
		C94.758,63.367,94.812,63.151,94.688,62.944z"/>
	<path fill-rule="evenodd" clip-rule="evenodd" fill="#791A20" d="M106.628,59.601c-1.452-0.005-2.904-0.014-4.356-0.014
		c-0.29,0-0.578,0.031-0.759,0.312c-0.068-0.526,0.13-0.743,0.731-0.748c1.244-0.011,2.488-0.009,3.732-0.012
		c1.659,0.003,3.319,0.012,4.979,0.005c0.317-0.002,0.607,0.049,0.874,0.223c0.11,0.194,0.389,0.396-0.02,0.573
		c-0.647-0.302-1.339-0.177-2.015-0.197c-0.854,0.027-1.707,0.011-2.56,0.01C107.021,59.752,106.806,59.748,106.628,59.601z"/>
	<path fill-rule="evenodd" clip-rule="evenodd" fill="#E57A49" d="M101.408,65.765c0-1.519,0-3.038,0-4.556
		c0.078-0.396-0.109-0.818,0.116-1.2c0.003,3.761,0.005,7.521,0.01,11.283c0.156,0.175,0.169,0.392,0.169,0.608
		c0,0.881,0.02,1.761-0.011,2.642c0.022,1.373,0.024,2.747,0,4.121c0.025,1.729,0.023,3.456,0.002,5.185
		c0.017,0.865,0.02,1.729-0.004,2.592c0.013,0.572,0.02,1.143-0.003,1.715c-0.005,0.232,0.029,0.475-0.12,0.684
		c-0.061,0.051-0.12,0.051-0.182,0c-0.168-0.246-0.113-0.527-0.12-0.797c-0.031-1.535-0.021-3.069-0.007-4.604
		c-0.015-1.41-0.023-2.818,0.003-4.226c-0.022-1.444-0.025-2.891,0-4.336c-0.022-1.483-0.025-2.966,0.001-4.448
		c-0.034-1.369-0.012-2.735-0.012-4.103C101.251,66.124,101.275,65.929,101.408,65.765z"/>
	<path fill-rule="evenodd" clip-rule="evenodd" fill="#AB2E32" d="M94.404,60.765c-0.012-0.176-0.023-0.352-0.036-0.528
		C94.588,60.399,94.487,60.582,94.404,60.765z"/>
	<path fill-rule="evenodd" clip-rule="evenodd" fill="#AB2F32" d="M94.513,61.74c-0.011-0.214-0.022-0.43-0.033-0.645
		C94.658,61.301,94.63,61.519,94.513,61.74z"/>
	<path fill-rule="evenodd" clip-rule="evenodd" fill="#751224" d="M138.604,119.87c0,1.408,0,2.818,0,4.229
		c-0.166,0.189-0.396,0.238-0.628,0.285c-6.965,1.482-13.969,2.756-21.011,3.809c-4.896,0.732-9.807,1.361-14.728,1.895
		c-3.303,0.357-6.612,0.65-9.925,0.92c-2.968,0.236-5.939,0.443-8.912,0.605c-1.98,0.107-3.965,0.193-5.949,0.262
		c-2.887,0.1-5.776,0.125-8.661,0.229c-3.397,0.121-6.793,0.102-10.187,0.053c-2.869-0.039-5.74-0.08-8.607-0.203
		c-3.011-0.129-6.021-0.26-9.029-0.439c-1.099-0.062-2.197-0.143-3.296-0.213c-0.321-0.021-0.652-0.039-0.921-0.262
		c-0.107-0.16-0.103-0.342-0.104-0.52c-0.004-0.982-0.003-1.967,0-2.951c0.001-0.178-0.007-0.359,0.094-0.52
		c0.154-0.172,0.357-0.137,0.557-0.125c2.179,0.111,4.355,0.283,6.537,0.385c2.65,0.125,5.299,0.242,7.95,0.338
		c1.554,0.055,3.108,0.002,4.656,0.09c3.683,0.205,7.369,0.096,11.052,0.08c3.049-0.01,6.1-0.107,9.148-0.219
		c2.253-0.08,4.508-0.176,6.758-0.322c2.882-0.186,5.762-0.375,8.641-0.607c4.446-0.355,8.884-0.797,13.313-1.324
		c7.178-0.854,14.321-1.93,21.43-3.246c3.714-0.688,7.411-1.451,11.097-2.27C138.123,119.772,138.373,119.679,138.604,119.87z"/>
	<path fill-rule="evenodd" clip-rule="evenodd" fill="#7B1527" d="M138.604,119.87c-1.105,0.23-2.214,0.449-3.316,0.693
		c-3.59,0.787-7.198,1.488-10.819,2.119c-2.771,0.486-5.542,0.963-8.321,1.391c-2.177,0.338-4.366,0.6-6.55,0.895
		c-1.578,0.213-3.156,0.441-4.739,0.631c-1.458,0.172-2.924,0.301-4.385,0.453c-1.694,0.174-3.385,0.363-5.079,0.527
		c-1.019,0.098-2.04,0.15-3.061,0.23c-1.717,0.135-3.432,0.279-5.147,0.418c-0.591,0.049-1.188,0.074-1.775,0.094
		c-0.953,0.031-1.903,0.109-2.854,0.152c-2.804,0.133-5.605,0.281-8.413,0.338c-0.714,0.016-1.436,0.057-2.154,0.082
		c-4.582,0.15-9.166,0.143-13.749,0.086c-1.855-0.023-3.713-0.025-5.567-0.102c-1.904-0.08-3.812-0.125-5.717-0.215
		c-2.062-0.1-4.125-0.223-6.189-0.322c-1.324-0.064-2.645-0.207-3.969-0.314c-0.173-0.166-0.139-0.383-0.151-0.59
		c-0.001-0.873-0.003-1.75,0.001-2.627c0.001-0.229-0.031-0.467,0.1-0.678c0.188-0.186,0.43-0.189,0.66-0.168
		c1.852,0.174,3.711,0.234,5.562,0.383c0.792,0.062,1.588,0.105,2.379,0.129c2.235,0.074,4.472,0.176,6.707,0.26
		c5.146,0.195,10.291,0.238,15.437,0.18c2.905-0.035,5.812-0.098,8.714-0.219c2.236-0.092,4.473-0.18,6.704-0.326
		c3.673-0.242,7.346-0.494,11.013-0.826c6.441-0.582,12.86-1.348,19.259-2.291c5.577-0.824,11.125-1.812,16.65-2.932
		c2.656-0.537,5.3-1.131,7.944-1.723c0.278-0.062,0.563-0.178,0.828,0.043C138.604,117.05,138.604,118.46,138.604,119.87z"/>
	<path fill-rule="evenodd" clip-rule="evenodd" fill="#6E0F21" d="M36.798,126.485c0,0.178,0,0.361,0,0.541c0,1.336,0,2.674,0,4.012
		c0.174,0.193,0.165,0.432,0.168,0.666c0.006,0.559,0.004,1.121,0.001,1.682c-0.001,0.322,0.112,0.496,0.466,0.52
		c1.838,0.117,3.675,0.225,5.513,0.338c1.927,0.119,3.858,0.148,5.786,0.291c1.133,0.082,2.272,0.074,3.408,0.107
		c5.869,0.18,11.742,0.18,17.611,0.109c2.49-0.029,4.982-0.088,7.469-0.213c3.154-0.156,6.309-0.293,9.461-0.498
		c3.531-0.23,7.061-0.486,10.583-0.807c4.875-0.443,9.739-0.994,14.594-1.631c8.692-1.141,17.328-2.623,25.915-4.393
		c0.274-0.059,0.563-0.178,0.832,0.033c0,1.301,0,2.604,0,3.902c-0.194,0.223-0.47,0.254-0.734,0.307
		c-5.916,1.188-11.861,2.223-17.829,3.117c-5.252,0.789-10.521,1.451-15.802,2.018c-2.89,0.311-5.785,0.57-8.682,0.814
		c-2.734,0.229-5.469,0.438-8.206,0.605c-1.87,0.115-3.739,0.279-5.384,0.25c0.547-0.037,1.327-0.012,2.106-0.012
		c8.962-0.006,17.923,0,26.885-0.006c0.054,0,0.107,0.006,0.161,0.01c4.395-0.027,8.787-0.012,13.18-0.018
		c0.18,0,0.361-0.01,0.541,0.01c3.697-0.014,7.396-0.008,11.094-0.01c0.271,0,0.542-0.004,0.812,0.006
		c0.198,0.008,0.399,0.012,0.561,0.156c0.001,0.266-0.216,0.25-0.378,0.283c-0.196,0.037-0.397,0.021-0.596,0.021
		c-32.874,0-65.747,0-98.621-0.004c-0.37,0-0.771,0.078-1.069-0.248c-0.108-0.176-0.125-0.377-0.125-0.574
		c0-1.982-0.024-3.967,0.011-5.949c-0.028-1.619-0.011-3.236-0.011-4.855c0-0.18,0.01-0.359,0.102-0.523
		C36.663,126.472,36.722,126.452,36.798,126.485z"/>
	<path fill-rule="evenodd" clip-rule="evenodd" fill="#7F1627" d="M138.604,115.642c-0.972,0.078-1.901,0.367-2.848,0.576
		c-3.101,0.68-6.206,1.338-9.325,1.936c-2.466,0.475-4.936,0.922-7.408,1.354c-1.923,0.34-3.858,0.613-5.79,0.902
		c-1.95,0.291-3.897,0.586-5.852,0.846c-1.333,0.18-2.673,0.301-4.008,0.461c-1.406,0.166-2.808,0.355-4.215,0.514
		c-0.874,0.1-1.751,0.16-2.627,0.244c-1.41,0.135-2.817,0.285-4.228,0.412c-1.038,0.094-2.077,0.162-3.115,0.236
		c-2.023,0.145-4.047,0.293-6.071,0.426c-0.699,0.045-1.404,0.072-2.1,0.088c-1.262,0.031-2.521,0.107-3.78,0.16
		c-2.701,0.107-5.405,0.113-8.104,0.219c-3.774,0.146-7.547,0.088-11.317,0.049c-1.584-0.016-3.174,0.004-4.758-0.082
		c-1.904-0.102-3.812-0.141-5.717-0.227c-1.975-0.088-3.949-0.215-5.923-0.314c-1.542-0.08-3.081-0.211-4.622-0.318
		c-0.054-0.051-0.107-0.109-0.111-0.18c-0.033-1.09-0.134-2.18,0.053-3.268c0.17-0.188,0.389-0.15,0.605-0.137
		c2.609,0.191,5.221,0.367,7.833,0.502c2.794,0.143,5.588,0.238,8.382,0.342c1.663,0.062,3.322,0.033,4.983,0.082
		c1.624,0.047,3.245,0.127,4.872,0.111c2.707-0.029,5.416-0.098,8.123-0.139c2.831-0.045,5.665-0.15,8.492-0.316
		c4.322-0.256,8.644-0.549,12.958-0.932c8.931-0.787,17.809-1.965,26.638-3.506c5.946-1.035,11.856-2.24,17.726-3.656
		c0.405-0.098,0.82-0.336,1.253-0.072C138.604,113.183,138.604,114.411,138.604,115.642z"/>
	<path fill-rule="evenodd" clip-rule="evenodd" fill="#831929" d="M138.604,111.954c-1.373,0.188-2.695,0.604-4.044,0.902
		c-3.816,0.85-7.646,1.633-11.486,2.367c-2.8,0.533-5.61,0.996-8.418,1.471c-2.084,0.354-4.185,0.607-6.277,0.9
		c-1.791,0.252-3.581,0.514-5.376,0.74c-1.423,0.176-2.852,0.301-4.277,0.451c-1.657,0.176-3.312,0.375-4.971,0.529
		c-1.483,0.137-2.97,0.221-4.455,0.338c-1.771,0.139-3.539,0.289-5.309,0.424c-0.609,0.047-1.224,0.07-1.83,0.088
		c-1.025,0.029-2.049,0.119-3.073,0.152c-2.212,0.074-4.424,0.17-6.638,0.232c-0.987,0.029-1.979,0.084-2.967,0.068
		c-2.363-0.033-4.721,0.201-7.084,0.117c-2.65-0.092-5.302-0.072-7.951-0.127c-2.031-0.041-4.062-0.154-6.096-0.209
		c-2.029-0.057-4.057-0.197-6.082-0.318c-1.541-0.092-3.079-0.213-4.618-0.32c-0.287-0.02-0.56-0.156-0.854-0.107
		c-0.287-0.443-0.094-0.941-0.152-1.41c0.045-0.441-0.104-0.902,0.125-1.324c0.238-0.178,0.518-0.164,0.783-0.141
		c1.781,0.148,3.564,0.262,5.347,0.383c1.495,0.102,2.991,0.176,4.486,0.258c2.667,0.146,5.34,0.166,8.007,0.316
		c0.252,0.016,0.505,0.012,0.758,0.012c3.955-0.004,7.908,0,11.863,0.012c2.06,0.006,4.117-0.086,6.174-0.146
		c2.938-0.084,5.879-0.23,8.814-0.424c8.348-0.549,16.669-1.355,24.953-2.531c0.465-0.066,0.913-0.195,1.378-0.248
		c1.821-0.033,3.621-0.207,5.338-0.879c0.312-0.121,0.667-0.189,0.822-0.549c0.081-0.158,0.101-0.338,0.199-0.486
		c0.041-0.047,0.092-0.08,0.148-0.102c2.559-0.453,5.114-0.92,7.666-1.42c3.223-0.633,6.432-1.33,9.633-2.068
		c1.602-0.369,3.196-0.764,4.788-1.166c0.22-0.055,0.447-0.172,0.676-0.014C138.604,109.136,138.604,110.544,138.604,111.954z"/>
	<path fill-rule="evenodd" clip-rule="evenodd" fill="#721023" d="M138.604,127.243c-1.407,0.27-2.816,0.539-4.225,0.814
		c-2.85,0.559-5.7,1.121-8.568,1.578c-1.841,0.295-3.67,0.654-5.512,0.941c-1.858,0.289-3.726,0.525-5.589,0.789
		c-1.454,0.203-2.907,0.424-4.363,0.615c-1.314,0.172-2.635,0.312-3.952,0.467c-1.512,0.174-3.023,0.357-4.538,0.518
		c-1.195,0.131-2.392,0.236-3.588,0.348c-1.535,0.145-3.069,0.293-4.606,0.424c-1.057,0.088-2.113,0.154-3.17,0.229
		c-2.06,0.143-4.119,0.289-6.18,0.424c-0.717,0.047-1.435,0.039-2.154,0.098c-1.291,0.105-2.594,0.059-3.887,0.135
		c-2.502,0.146-5.006,0.137-7.506,0.23c-4.875,0.182-9.75,0.07-14.623,0.055c-1.364-0.002-2.738-0.002-4.105-0.08
		c-1.941-0.113-3.884-0.146-5.826-0.229c-1.363-0.057-2.727-0.145-4.092-0.207c-1.668-0.076-3.333-0.217-5-0.314
		c-0.326-0.02-0.322-0.209-0.322-0.438c0.002-0.867,0-1.734,0-2.602c1.951,0.143,3.902,0.291,5.854,0.424
		c0.717,0.051,1.439,0.068,2.154,0.086c1.188,0.033,2.374,0.119,3.562,0.154c3.078,0.092,6.16,0.131,9.238,0.234
		c3.412,0.111,6.822,0.094,10.23,0.041c1.675-0.025,3.354,0.008,5.027-0.08c2.066-0.104,4.136-0.158,6.204-0.227
		c1.454-0.049,2.909-0.135,4.362-0.217c1.738-0.096,3.477-0.213,5.216-0.318c1.862-0.109,3.723-0.27,5.581-0.43
		c1.947-0.166,3.895-0.336,5.838-0.543c2.103-0.225,4.199-0.494,6.298-0.744c1.851-0.219,3.705-0.412,5.551-0.668
		c2.359-0.326,4.715-0.689,7.068-1.059c2.726-0.428,5.453-0.85,8.17-1.332c2.489-0.443,4.966-0.959,7.445-1.449
		c1.337-0.264,2.671-0.541,4.007-0.812C138.604,125.146,138.604,126.194,138.604,127.243z"/>
	<path fill-rule="evenodd" clip-rule="evenodd" fill="#AF2634" d="M138.604,67.823c0,2.168,0,4.337,0,6.506
		c-0.161,0.216-0.411,0.287-0.645,0.377c-3.854,1.502-7.769,2.836-11.721,4.058c-3.937,1.215-7.919,2.254-11.919,3.232
		c-0.58,0.141-1.163,0.256-1.742,0.398c-0.222,0.055-0.468,0.139-0.626-0.137c-0.115-0.75-0.053-1.504-0.051-2.254
		c0.002-1.09-0.057-2.183,0.036-3.273c0.137-0.319,0.451-0.332,0.723-0.398c2.613-0.635,5.207-1.352,7.786-2.114
		c4.087-1.207,8.12-2.573,12.091-4.122c1.817-0.708,3.619-1.447,5.411-2.214C138.157,67.794,138.368,67.64,138.604,67.823z"/>
	<path fill-rule="evenodd" clip-rule="evenodd" fill="#A72332" d="M112.051,82.354c2.46-0.516,4.894-1.145,7.323-1.785
		c4.383-1.151,8.719-2.473,12.997-3.967c2.003-0.701,3.984-1.464,5.977-2.197c0.084-0.031,0.172-0.05,0.257-0.075
		c0,1.988,0,3.976,0,5.964c-0.375,0.264-0.821,0.371-1.244,0.516c-5.757,1.988-11.58,3.756-17.495,5.215
		c-2.332,0.575-4.669,1.137-7.026,1.6c-0.307,0.061-0.646,0.193-0.887-0.16c-0.126-1.358-0.032-2.717-0.05-4.077
		C111.898,83.042,111.791,82.667,112.051,82.354z"/>
	<path fill-rule="evenodd" clip-rule="evenodd" fill="#9A212F" d="M138.604,87.558c0,1.881,0,3.76,0,5.639
		c-0.188,0.25-0.48,0.311-0.755,0.393c-6.17,1.832-12.409,3.391-18.707,4.715c-2.124,0.445-4.248,0.875-6.384,1.25
		c-0.274,0.049-0.575,0.164-0.796-0.141c-0.131-0.51-0.067-1.033-0.061-1.549c0.012-1.164-0.07-2.328,0.045-3.488
		c0.183-0.314,0.519-0.297,0.809-0.355c4.478-0.912,8.938-1.891,13.362-3.039c3.861-1.002,7.705-2.076,11.502-3.303
		C137.935,87.577,138.251,87.378,138.604,87.558z"/>
	<path fill-rule="evenodd" clip-rule="evenodd" fill="#B72A36" d="M138.604,57.308c0,1.879,0.002,3.757,0.002,5.636
		c-1.401,0.669-2.812,1.313-4.232,1.936c-4.589,2.008-9.28,3.742-14.048,5.269c-2.511,0.805-5.047,1.53-7.597,2.203
		c-0.254,0.067-0.556,0.267-0.782-0.082c-0.09-1.437-0.07-2.875-0.013-4.311c0.104-0.287,0.376-0.312,0.612-0.38
		c4.966-1.426,9.843-3.11,14.622-5.07c3.676-1.508,7.271-3.188,10.775-5.061C138.149,57.338,138.354,57.207,138.604,57.308z"/>
	<path fill-rule="evenodd" clip-rule="evenodd" fill="#941E2D" d="M112.046,99.483c1.394-0.152,2.755-0.473,4.129-0.74
		c4.409-0.846,8.782-1.848,13.133-2.955c3.118-0.793,6.223-1.637,9.297-2.592c0,1.697,0,3.396,0,5.096
		c-0.454,0.33-1.005,0.391-1.522,0.533c-7.982,2.172-16.043,4.004-24.198,5.404c-0.299,0.055-0.628,0.234-0.919-0.051
		c-0.139-0.586-0.062-1.182-0.062-1.771c-0.001-0.918-0.049-1.834,0.031-2.75C111.956,99.589,111.993,99.53,112.046,99.483z"/>
	<path fill-rule="evenodd" clip-rule="evenodd" fill="#BC2A37" d="M138.604,57.308c-1.271,0.637-2.541,1.279-3.817,1.911
		c-4.005,1.983-8.113,3.723-12.311,5.256c-3.332,1.218-6.693,2.334-10.107,3.295c-0.104,0.029-0.211,0.036-0.317,0.053
		c-0.123-0.104-0.148-0.247-0.146-0.393c0.003-1.264-0.048-2.528,0.023-3.791c0.083-0.279,0.342-0.293,0.559-0.361
		c3.688-1.147,7.318-2.457,10.886-3.936c5.006-2.074,9.863-4.446,14.505-7.25c0.216-0.13,0.417-0.382,0.727-0.208
		C138.604,53.692,138.604,55.5,138.604,57.308z"/>
	<path fill-rule="evenodd" clip-rule="evenodd" fill="#BF2A38" d="M138.604,51.884c-0.747,0.281-1.376,0.772-2.061,1.165
		c-2.646,1.517-5.354,2.905-8.11,4.208c-2.51,1.187-5.064,2.258-7.647,3.27c-2.732,1.074-5.51,2.02-8.31,2.903
		c-0.135,0.042-0.284,0.038-0.425,0.056c-0.197-0.187-0.144-0.433-0.153-0.661c-0.028-0.756,0.051-1.513-0.049-2.267
		c-0.032-0.216-0.122-0.431-0.002-0.647c0.207-0.188-0.032-0.362-0.019-0.543c0.204,0.107,0.384-0.005,0.567-0.066
		c3.284-1.09,6.51-2.329,9.666-3.747c1.133-0.51,2.277-0.997,3.395-1.542c4.361-2.13,8.579-4.508,12.546-7.316
		c0.188-0.132,0.355-0.308,0.604-0.341C138.604,48.198,138.604,50.041,138.604,51.884z"/>
	<path fill-rule="evenodd" clip-rule="evenodd" fill="#B22735" d="M112.052,72.377c4.165-1.07,8.277-2.325,12.339-3.74
		c3.247-1.131,6.454-2.368,9.599-3.76c1.351-0.598,2.697-1.203,4.043-1.811c0.187-0.083,0.369-0.14,0.574-0.123
		c-0.002,1.626-0.002,3.253-0.002,4.879c-0.93,0.237-1.768,0.704-2.646,1.066c-3.881,1.598-7.811,3.065-11.807,4.346
		c-3.939,1.262-7.918,2.388-11.939,3.361c-0.051,0.014-0.108,0.008-0.161,0.01c-0.152-0.135-0.15-0.319-0.152-0.498
		c-0.008-1.078-0.008-2.155,0-3.231C111.901,72.697,111.899,72.513,112.052,72.377z"/>
	<path fill-rule="evenodd" clip-rule="evenodd" fill="#8D1C2C" d="M112.052,104.257c1.106-0.215,2.208-0.455,3.32-0.641
		c2.14-0.359,4.265-0.795,6.387-1.242c3.969-0.836,7.917-1.764,11.845-2.781c1.513-0.391,3.017-0.816,4.527-1.223
		c0.153-0.041,0.315-0.055,0.474-0.078c0,1.699,0,3.398,0,5.096c-0.165,0.223-0.419,0.268-0.664,0.33
		c-7.052,1.818-14.152,3.416-21.328,4.674c-0.681,0.119-0.717,0.156-0.719,0.828c-0.004,0.867,0.001,1.734-0.003,2.602
		c-0.001,0.232,0.022,0.473-0.147,0.67l-0.019,0.01c-0.332-0.111-0.26-0.406-0.259-0.635c0.011-1.873-0.068-3.748,0.051-5.617
		c0.109-0.391-0.096-0.527-0.445-0.541c-0.414-0.016-0.83-0.018-1.242-0.004c-0.828,0.033-1.423-0.311-1.789-1.053
		c-0.027-0.051-0.044-0.105-0.057-0.16C111.972,104.401,111.986,104.321,112.052,104.257z"/>
	<path fill-rule="evenodd" clip-rule="evenodd" fill="#690E20" d="M111.081,138.401c-8.527,0.002-17.054,0.006-25.58,0.01
		c-1.409,0-2.817,0-4.291,0c0.342-0.254,0.66-0.33,1.025-0.33c2.267,0,4.522-0.252,6.786-0.334c1.451-0.053,2.9-0.189,4.348-0.314
		c1.876-0.166,3.747-0.357,5.622-0.529c1.286-0.117,2.574-0.213,3.858-0.338c1.177-0.117,2.351-0.268,3.524-0.402
		c1.052-0.119,2.104-0.229,3.153-0.355c1.333-0.164,2.664-0.336,3.996-0.512c1.422-0.186,2.843-0.377,4.263-0.574
		c1.312-0.18,2.627-0.359,3.937-0.564c1.698-0.27,3.396-0.549,5.09-0.844c1.961-0.336,3.919-0.686,5.874-1.045
		c1.976-0.363,3.945-0.748,5.918-1.123c0,0.904,0,1.809,0,2.713c-0.152,0.172-0.362,0.227-0.578,0.268
		c-4.62,0.928-9.263,1.744-13.918,2.48c-3.657,0.58-7.322,1.088-10.991,1.58C112.439,138.276,111.748,138.233,111.081,138.401z"/>
	<path fill-rule="evenodd" clip-rule="evenodd" fill="#A22231" d="M112.049,87.558c0.929-0.006,1.807-0.297,2.697-0.492
		c4.127-0.901,8.223-1.936,12.278-3.116c3.665-1.066,7.309-2.209,10.898-3.52c0.217-0.078,0.438-0.17,0.682-0.137
		c0,1.408,0,2.818,0,4.227c-0.161,0.221-0.411,0.283-0.649,0.361c-4.132,1.354-8.299,2.588-12.506,3.69
		c-4.173,1.088-8.369,2.07-12.599,2.912c-0.296,0.059-0.634,0.246-0.895-0.105c-0.123-1.178-0.046-2.359-0.042-3.537
		C111.914,87.733,111.963,87.632,112.049,87.558z"/>
	<path fill-rule="evenodd" clip-rule="evenodd" fill="#87192A" d="M115.743,112.491c-0.002-1.211,0.015-2.422-0.017-3.631
		c-0.011-0.414,0.188-0.533,0.525-0.59c3.808-0.623,7.58-1.418,11.351-2.234c3.688-0.801,7.341-1.74,11.002-2.648
		c0,1.447,0,2.891,0,4.338c-4.421,1.123-8.859,2.17-13.338,3.041c-2.322,0.451-4.644,0.93-6.971,1.354
		C117.452,112.272,116.61,112.479,115.743,112.491z"/>
	<path fill-rule="evenodd" clip-rule="evenodd" fill="#9E2030" d="M112.049,91.46c1.475-0.205,2.921-0.561,4.373-0.877
		c3.299-0.713,6.575-1.51,9.836-2.379c2.483-0.662,4.955-1.359,7.408-2.129c1.646-0.514,3.293-1.033,4.938-1.555
		c0,1.014,0,2.026,0,3.038c-3.371,1.021-6.735,2.061-10.141,2.965c-3.176,0.846-6.36,1.645-9.57,2.344
		c-2.19,0.479-4.383,0.939-6.575,1.402c-0.087,0.021-0.18,0.008-0.27,0.012c-0.118-0.104-0.143-0.246-0.146-0.391
		c-0.013-0.68-0.013-1.359,0-2.039C111.906,91.706,111.931,91.565,112.049,91.46z"/>
	<path fill-rule="evenodd" clip-rule="evenodd" fill="#670E1F" d="M111.081,138.401c0.725-0.369,1.534-0.293,2.304-0.412
		c1.997-0.314,4.005-0.566,6.005-0.854c1.771-0.254,3.544-0.508,5.312-0.789c2.016-0.318,4.03-0.646,6.038-1.008
		c2.433-0.438,4.857-0.914,7.285-1.373c0.194-0.037,0.388-0.074,0.58-0.107c0,0.648,0,1.299,0,1.949
		c-0.154,0.174-0.363,0.225-0.578,0.268c-4.007,0.791-8.03,1.486-12.06,2.141c-0.372,0.062-0.757,0.045-1.117,0.186
		C120.26,138.401,115.67,138.401,111.081,138.401z"/>
	<path fill-rule="evenodd" clip-rule="evenodd" fill="#650D1E" d="M124.85,138.401c0.438-0.404,1.017-0.32,1.533-0.41
		c2.26-0.387,4.525-0.744,6.776-1.178c1.813-0.35,3.63-0.67,5.445-1.006c0.003,0.867,0.006,1.736,0.009,2.605
		c-0.425,0.004-0.851,0.006-1.275,0.01c-3.695-0.004-7.389-0.01-11.082-0.014C125.786,138.409,125.319,138.403,124.85,138.401z"/>
	<path fill-rule="evenodd" clip-rule="evenodd" fill="#4D151F" d="M32.47,134.276c-0.266-0.314-0.538-0.619-0.867-0.869
		c-0.008-0.035-0.012-0.072-0.014-0.105c0.008-0.465,0.014-0.932,0.022-1.395c0.142-0.113,0.308-0.076,0.468-0.078
		c1.279-0.006,2.561,0.088,3.838-0.076c0.266-0.035,0.543-0.045,0.773,0.152c0,2.164,0,4.328,0,6.492
		c-1.318-1.186-2.518-2.49-3.785-3.729C32.765,134.534,32.614,134.407,32.47,134.276z"/>
	<path fill-rule="evenodd" clip-rule="evenodd" fill="#7F1A1F" d="M31.61,69.342c-0.001-2.422-0.001-4.843-0.001-7.265
		c1.692-0.012,3.385,0.053,5.074-0.109c0.022,0.048,0.058,0.088,0.057,0.148c-0.01,2.37,0.034,4.741-0.022,7.111
		c-0.312,0.262-0.703,0.262-1.07,0.272c-1.162,0.037-2.325,0.018-3.488,0.01C31.962,69.508,31.763,69.498,31.61,69.342z"/>
	<path fill-rule="evenodd" clip-rule="evenodd" fill="#A72332" d="M36.685,69.234c0-2.422-0.001-4.844-0.001-7.266
		c0.004-0.362,0.009-0.725,0.013-1.088c0.034,0.001,0.068,0.003,0.102,0.005c0,1.337,0,2.673,0,4.01
		c0,1.626,0.002,3.253,0.002,4.879c0,2.059,0,4.12,0,6.179c0,1.988,0,3.976,0,5.964c0,1.59-0.002,3.182-0.002,4.772
		c-0.076,0.031-0.135,0.012-0.177-0.059c-0.116-0.217-0.103-0.454-0.103-0.684c0.004-1.131-0.018-2.262,0.011-3.391
		c-0.024-1.984-0.025-3.967,0-5.951c-0.034-2.253-0.011-4.508-0.013-6.761C36.517,69.627,36.526,69.408,36.685,69.234z"/>
	<path fill-rule="evenodd" clip-rule="evenodd" fill="#5B141F" d="M31.611,123.989c0-3.938,0-7.879,0-11.818
		c0.151-0.158,0.353-0.17,0.55-0.17c1.346-0.012,2.692-0.014,4.039,0c0.181,0.002,0.36,0.021,0.511,0.139
		c0.101,0.117,0.124,0.258,0.126,0.402c0.012,1.344,0.051,2.691-0.018,4.033c-0.027,0.553-0.064,1.104-0.076,1.656
		c-0.018,1.883,0.037,3.764-0.027,5.648c-0.396,0.271-0.863,0.248-1.303,0.266c-1.081,0.045-2.164,0.021-3.248,0.012
		C31.968,124.157,31.765,124.147,31.611,123.989z"/>
	<path fill-rule="evenodd" clip-rule="evenodd" fill="#691720" d="M31.61,98.942c0-2.746,0-5.492,0-8.238
		c0.203-0.197,0.463-0.168,0.713-0.174c1.327-0.033,2.656,0.057,3.984-0.055c0.145-0.012,0.287,0.002,0.402,0.111
		c0.074,0.916,0.031,1.834,0.029,2.748c-0.007,1.871,0.046,3.742-0.029,5.613c-0.189,0.18-0.43,0.166-0.661,0.166
		c-1.26,0.01-2.519,0.01-3.778,0C32.039,99.114,31.797,99.128,31.61,98.942z"/>
	<path fill-rule="evenodd" clip-rule="evenodd" fill="#701820" d="M36.685,90.595c-1.688,0.219-3.383,0.055-5.074,0.109
		c0-2.711,0-5.424,0-8.133c0.294-0.25,0.656-0.205,0.98-0.16c1.113,0.156,2.219-0.07,3.328-0.012
		c0.266,0.014,0.543-0.027,0.768,0.172c0.004,1.371,0.006,2.744,0.008,4.116C36.769,87.989,36.787,89.292,36.685,90.595z"/>
	<path fill-rule="evenodd" clip-rule="evenodd" fill="#521520" d="M31.611,123.989c1.692-0.012,3.388,0.055,5.077-0.107
		c0.09,0.865,0.086,1.732,0.004,2.6c-0.002,1.809-0.002,3.617-0.002,5.424c-1.409,0.141-2.822,0.098-4.234,0.111
		c-0.289,0.002-0.57-0.02-0.845-0.109C31.611,129.269,31.611,126.628,31.611,123.989z"/>
	<path fill-rule="evenodd" clip-rule="evenodd" fill="#60161F" d="M36.688,112.171c-1.691,0-3.385,0-5.076,0
		c0-2.637,0-5.275-0.001-7.914c0.169-0.17,0.389-0.174,0.603-0.174c1.307-0.008,2.612-0.008,3.92,0
		c0.197,0.004,0.396,0.012,0.566,0.133c0.228,0.301,0.129,0.654,0.14,0.982c0.016,0.447,0.004,0.895,0.006,1.34
		c-0.003,1.641,0.004,3.279-0.003,4.918C36.839,111.702,36.896,111.968,36.688,112.171z"/>
	<path fill-rule="evenodd" clip-rule="evenodd" fill="#771A1E" d="M36.685,69.234c0,2.458,0,4.915,0.001,7.372
		c-0.507,0.301-1.087,0.195-1.63,0.25c-0.856,0.086-1.725,0.045-2.588,0.014c-0.302-0.012-0.614-0.039-0.857-0.262
		c-0.001-2.423-0.001-4.844-0.001-7.266C33.302,69.309,34.996,69.426,36.685,69.234z"/>
	<path fill-rule="evenodd" clip-rule="evenodd" fill="#74191F" d="M31.61,76.608c1.691,0.243,3.384,0.042,5.075-0.002
		c0,1.988,0.001,3.977,0.001,5.965c-1.691-0.01-3.385,0.08-5.076,0C31.61,80.583,31.61,78.594,31.61,76.608z"/>
	<path fill-rule="evenodd" clip-rule="evenodd" fill="#641720" d="M36.688,104.255c-1.691,0-3.385,0.002-5.077,0.002
		c0-1.771,0-3.541,0-5.314c1.692,0,3.385,0,5.076,0c0.216,1.656,0.162,3.316,0.145,4.977
		C36.829,104.048,36.792,104.167,36.688,104.255z"/>
	<path fill-rule="evenodd" clip-rule="evenodd" fill="#F4914B" d="M63.78,113.142c0.008-0.07,0.014-0.143,0.021-0.211
		c0.203,0.168,0.429,0.223,0.695,0.223c3.008-0.01,6.014-0.01,9.02,0c0.299,0.002,0.523-0.07,0.676-0.328
		c0.092,0.07,0.124,0.17,0.132,0.279c-0.017,0.389-0.275,0.562-0.603,0.672c-0.209,0.07-0.425,0.082-0.643,0.082
		c-2.74,0.006-5.48,0.004-8.222,0c-0.235,0-0.475-0.002-0.689-0.107C63.922,113.628,63.678,113.491,63.78,113.142z"/>
	<path fill-rule="evenodd" clip-rule="evenodd" fill="#B63934" d="M74.222,113.038c-0.01-0.07-0.02-0.141-0.029-0.213
		c0-3.762,0.002-7.521,0.002-11.281c0-0.795,0-1.592,0.001-2.387c0-0.758,0-1.518,0-2.275c0-0.977,0-1.951,0.001-2.928
		c0.081-0.537-0.119-1.094,0.122-1.617c0.163,0.172,0.167,0.393,0.167,0.607c0.002,0.768,0.02,1.537-0.01,2.309
		c0.022,1.086,0.023,2.172,0,3.258c0.024,1.695,0.027,3.391,0.002,5.084c0.021,1.41,0.023,2.818-0.002,4.227
		c0.021,1.293,0.025,2.586,0,3.877c0.012,0.289,0.025,0.578-0.004,0.865C74.453,112.747,74.49,112.979,74.222,113.038z"/>
	<path fill-rule="evenodd" clip-rule="evenodd" fill="#8F1C2C" d="M36.688,104.255c0-1.771,0-3.539-0.001-5.312
		c0-2.783-0.001-5.564-0.002-8.348c0.004-1.303,0.006-2.605,0.01-3.908c0.035,0.002,0.069,0.004,0.104,0.004c0,0.07,0,0.145,0,0.217
		c0,1.627,0,3.252,0,4.879c0,1.52,0,3.037,0.002,4.553c0,1.229,0,2.459,0,3.688c0.157,0.174,0.171,0.387,0.17,0.605
		c-0.001,1.125,0.022,2.248-0.01,3.373c-0.029,0.824,0.112,1.654-0.092,2.471c-0.042,0.068-0.1,0.088-0.174,0.055
		C36.69,105.771,36.69,105.015,36.688,104.255z"/>
	<path fill-rule="evenodd" clip-rule="evenodd" fill="#8A1A2A" d="M74.222,113.038c0.192-0.422,0.042-0.869,0.094-1.301
		c0.336-0.266,0.74-0.264,1.137-0.273c2.688-0.061,5.367-0.252,8.049-0.414c4.974-0.303,9.93-0.787,14.881-1.34
		c0.986-0.111,1.973-0.227,2.958-0.355c0.233-0.031,0.464-0.072,0.698-0.012c0.298,0.098,0.372,0.373,0.47,0.621
		c0.423,1.076,1.042,2.012,1.92,2.773c0.161,0.141,0.437,0.281,0.155,0.559c-0.806,0.305-1.665,0.318-2.502,0.426
		c-3.352,0.42-6.709,0.785-10.073,1.082c-2.553,0.225-5.108,0.424-7.667,0.586c-2.827,0.178-5.654,0.34-8.486,0.439
		c-2.346,0.088-4.688,0.195-7.035,0.203c-2.366,0.01-4.73,0.17-7.096,0.104c-2.348-0.064-4.695-0.072-7.041-0.129
		c-2.74-0.068-5.483-0.156-8.221-0.32c-3.044-0.18-6.09-0.34-9.126-0.633c-0.196-0.02-0.401-0.01-0.558-0.166
		c-0.057-1.301-0.047-2.604-0.006-3.904c0.489-0.236,0.998-0.078,1.488-0.041c2.031,0.154,4.065,0.287,6.1,0.428
		c2.556,0.18,5.115,0.287,7.674,0.391c2.723,0.109,5.448,0.184,8.176,0.133c0.992-0.02,1.979,0.156,2.975,0.113
		c0.182-0.01,0.359,0.033,0.502,0.164c0.047,0.324-0.095,0.664,0.094,0.971c0.093,0.412,0.398,0.533,0.77,0.533
		c2.941,0.004,5.882,0.008,8.822-0.004C73.78,113.667,74.181,113.575,74.222,113.038z"/>
	<path fill-rule="evenodd" clip-rule="evenodd" fill="#981F2E" d="M36.8,104.038c0-1.338,0-2.674,0-4.012
		c1.553,0.139,3.107,0.275,4.66,0.414c0.537,0.049,1.076,0.062,1.613,0.109c1.468,0.127,2.945,0.137,4.414,0.242
		c1.598,0.117,3.199,0.141,4.795,0.238c1.119,0.068,2.237-0.004,3.349,0.088c2.507,0.211,5.015,0.053,7.521,0.09
		c0.433,0.006,0.556,0.131,0.546,0.555c-0.027,1.121-0.01,2.24-0.012,3.361c-0.211,0.186-0.471,0.158-0.721,0.162
		c-1.174,0.002-2.346-0.004-3.52,0c-0.74,0.004-1.477,0.008-2.217,0.08c-0.715,0.07-1.436,0.072-2.15-0.117
		c-0.546-0.145-1.113-0.096-1.67-0.014c-0.488,0.068-0.97,0.074-1.447-0.072c-0.068-0.021-0.141-0.051-0.211-0.045
		c-1.166,0.074-2.324-0.141-3.488-0.09c-0.292,0.012-0.576,0.029-0.857-0.055c-0.37-0.111-0.743-0.145-1.125-0.074
		c-0.271,0.051-0.538,0.023-0.802-0.053c-0.174-0.051-0.352-0.096-0.532-0.084c-1.026,0.053-2.035-0.135-3.053-0.186
		c-1.092-0.057-2.187-0.123-3.27-0.256C38.021,104.247,37.354,104.45,36.8,104.038z"/>
	<path fill-rule="evenodd" clip-rule="evenodd" fill="#8F1C2C" d="M63.687,112.171c-2.848-0.129-5.699-0.059-8.548-0.127
		c-1.995-0.047-3.992-0.139-5.987-0.215c-1.363-0.053-2.727-0.146-4.09-0.213c-2.08-0.1-4.159-0.238-6.23-0.445
		c-0.676-0.066-1.37,0.018-2.033-0.193c-0.102-1.299-0.055-2.602-0.023-3.9c0.523-0.266,1.066-0.064,1.59-0.027
		c1.835,0.141,3.67,0.27,5.506,0.406c2.393,0.18,4.791,0.246,7.188,0.402c1.078,0.068,2.166,0.098,3.244,0.104
		c2.854,0.014,5.703,0.207,8.558,0.135c0.284-0.008,0.583-0.041,0.827,0.172C63.687,109.569,63.687,110.87,63.687,112.171z"/>
	<path fill-rule="evenodd" clip-rule="evenodd" fill="#941E2D" d="M63.687,108.269c-0.396,0-0.795-0.01-1.192,0
		c-2.814,0.072-5.625-0.109-8.438-0.135c-1.814-0.016-3.633-0.105-5.445-0.207c-1.848-0.104-3.694-0.203-5.541-0.316
		c-1.861-0.117-3.721-0.281-5.58-0.432c-0.231-0.018-0.461-0.068-0.691-0.104c-0.08-0.182-0.082-0.361,0-0.543
		c0-0.83,0-1.662,0.002-2.494c0.718,0.037,1.461-0.027,2.148,0.139c0.688,0.164,1.381,0.115,2.059,0.178
		c0.667,0.061,1.351,0.299,2.04,0.127c0.018-0.006,0.038-0.01,0.054-0.004c0.824,0.293,1.709-0.027,2.533,0.246
		c0.195,0.066,0.382,0.098,0.58,0.027c0.05-0.018,0.106-0.055,0.153-0.045c1.071,0.211,2.17,0.006,3.24,0.219
		c0.019,0.004,0.035,0.018,0.052,0.018c1.23-0.096,2.451,0.176,3.678,0.129c0.701-0.027,1.389-0.121,2.084,0.086
		c0.579,0.17,1.195,0.129,1.773,0.057c1.353-0.172,2.703-0.051,4.054-0.086c0.812-0.023,1.626-0.006,2.438-0.004
		C63.687,106.171,63.687,107.22,63.687,108.269z"/>
	<path fill-rule="evenodd" clip-rule="evenodd" fill="#F89B53" d="M67.267,59.599c1.736,0.001,3.471,0.001,5.205,0.001
		c0.176,0.307-0.012,0.597-0.06,0.886c-0.36,2.192,0.131,4.212,1.203,6.12c0.292,0.519,0.628,1.007,1.001,1.47
		c0.146,0.18,0.322,0.35,0.266,0.617c-0.203,0.169-0.625,0.149-0.51,0.592c0.03,1.282-0.026,2.562-0.016,3.841
		c0.002,0.196,0.018,0.402-0.154,0.553c-0.715-0.134-1.16-0.695-1.68-1.111c-1.881-1.508-3.34-3.362-4.361-5.554
		c-0.965-2.073-1.313-4.239-1.017-6.509C67.185,60.201,67.157,59.893,67.267,59.599z"/>
	<path fill-rule="evenodd" clip-rule="evenodd" fill="#BE2937" d="M74.202,73.678c0.006-1.507,0.012-3.015,0.019-4.521
		c0.187-0.227,0.451-0.207,0.7-0.207c6.397-0.005,12.795-0.005,19.191-0.001c0.216,0,0.436-0.003,0.633,0.108
		c0.164,0.192-0.015,0.241-0.136,0.284c-0.225,0.081-0.463,0.06-0.697,0.058c-1.154-0.014-2.289,0.045-3.433,0.313
		c-1.703,0.402-3.459,0.54-5.195,0.759c-2.919,0.367-5.85,0.627-8.781,0.862c-0.484,0.039-0.972,0.056-1.457,0.098
		c-0.449,0.037-0.581,0.242-0.57,0.661c0.018,0.648,0.017,1.299,0,1.949c0.023,1.356,0.024,2.711,0,4.067
		c-0.002,1.345,0.064,2.692-0.034,4.038c-0.038,0.1-0.081,0.195-0.208,0.207c-0.011-0.182-0.022-0.361-0.033-0.541
		c0-1.23,0-2.459,0-3.688C74.201,76.642,74.201,75.16,74.202,73.678z"/>
	<path fill-rule="evenodd" clip-rule="evenodd" fill="#A52231" d="M74.317,95.257c0-0.973,0.001-1.947,0.001-2.92
		c5.001-0.004,10.001-0.01,15.002-0.012c0.92-0.004,1.842,0,2.762-0.006c0.194,0,0.4,0.057,0.571-0.094
		c0.165-0.227,0.36-0.43,0.539-0.643c0.209-0.756,0.021-1.529,0.104-2.291c0.186-0.203,0.436-0.234,0.689-0.266
		c2.184-0.275,4.363-0.588,6.537-0.938c0.292-0.047,0.597-0.188,0.891,0.012c0.007,0.252,0.015,0.504,0.022,0.754
		c0.029,0.045,0.077,0.084,0.081,0.139c0.08,1.211,0.136,2.426-0.032,3.637c-0.188,0.209-0.454,0.207-0.698,0.242
		c-4.27,0.635-8.552,1.17-12.848,1.592c-2.981,0.291-5.969,0.5-8.957,0.723c-1.33,0.102-2.666,0.107-3.997,0.225
		C74.751,95.433,74.512,95.429,74.317,95.257z"/>
	<path fill-rule="evenodd" clip-rule="evenodd" fill="#AF2634" d="M101.41,79.209c0.001,1.41,0.001,2.822,0.002,4.23
		c-0.111,0.234-0.338,0.248-0.549,0.285c-2.306,0.404-4.621,0.756-6.942,1.07c-0.208,0.029-0.428,0.102-0.623-0.057
		c-0.077-0.475,0.099-0.967-0.105-1.43c-0.081-0.074-0.102-0.172-0.107-0.273c0.012-0.309-0.181-0.441-0.441-0.531
		c-0.299-0.1-0.604-0.088-0.909-0.088c-3.691-0.002-7.382,0-11.074-0.004c-0.303,0-0.615,0.049-0.897-0.117
		c-0.174-0.484,0.197-0.494,0.487-0.523c0.771-0.08,1.544-0.15,2.315-0.219c4.298-0.371,8.574-0.916,12.838-1.561
		c1.749-0.265,3.491-0.566,5.233-0.872C100.899,79.074,101.173,78.999,101.41,79.209z"/>
	<path fill-rule="evenodd" clip-rule="evenodd" fill="#AA2432" d="M93.298,84.739c2.62-0.4,5.242-0.801,7.862-1.203
		c0.087-0.014,0.168-0.062,0.252-0.096c0,1.553,0,3.108,0.001,4.661c-2.695,0.471-5.407,0.82-8.117,1.191
		C93.296,87.774,93.298,86.254,93.298,84.739z"/>
	<path fill-rule="evenodd" clip-rule="evenodd" fill="#F7924D" d="M93.196,83.106c-0.002,0.068-0.003,0.137-0.004,0.203
		c-0.004,0.367-0.009,0.736-0.013,1.104c-1.67,0.045-3.331,0.26-5.007,0.225c-2.732-0.059-5.435-0.365-8.106-0.928
		c-0.773-0.162-1.546-0.328-2.294-0.586c-0.185-0.066-0.4-0.09-0.421-0.35c0.209-0.189,0.471-0.162,0.72-0.162
		c4.729-0.004,9.458-0.006,14.186,0.004C92.638,82.616,93.091,82.545,93.196,83.106z"/>
	<path fill-rule="evenodd" clip-rule="evenodd" fill="#F5924C" d="M93.192,91.583c-0.016,0.352-0.193,0.568-0.539,0.643
		c-5.953-0.002-11.908-0.002-17.861-0.012c-0.232,0-0.593,0.152-0.586-0.32c0.213-0.131,0.45-0.107,0.684-0.107
		c2.52,0,5.039,0,7.559,0c2.914,0,5.828,0.004,8.743-0.004C91.863,91.782,92.55,91.888,93.192,91.583z"/>
	<path fill-rule="evenodd" clip-rule="evenodd" fill="#7F1F22" d="M93.196,83.106c-0.233-0.42-0.642-0.342-1.011-0.344
		c-2.419-0.008-4.837-0.006-7.255-0.004c-2.525,0.004-5.053,0.01-7.579,0.016c-0.894-0.006-1.787-0.014-2.682-0.012
		c-0.287,0-0.513-0.037-0.437-0.41c0.029-0.033,0.058-0.066,0.088-0.1c0.186-0.18,0.423-0.182,0.656-0.182
		c1.367-0.006,2.732-0.006,4.1-0.002c0.233,0.002,0.471,0.004,0.66,0.176c4.133,0,8.266,0,12.398,0.002
		c0.465,0.002,0.913,0.041,1.112,0.568C93.29,82.924,93.298,83.024,93.196,83.106z"/>
	<path fill-rule="evenodd" clip-rule="evenodd" fill="#F79F56" d="M74.858,68.69c-0.627-0.917-1.324-1.784-1.789-2.808
		c-0.923-2.029-1.217-4.109-0.598-6.281c1.916,0,3.832,0,5.748,0c-0.075,0.55-0.278,1.069-0.348,1.629
		c-0.227,1.797,0.368,3.313,1.438,4.706c0.76,0.988,1.721,1.725,2.803,2.324c0.179,0.099,0.408,0.174,0.444,0.431
		c-0.202,0.202-0.466,0.174-0.714,0.175c-2.09,0.006-4.181,0.006-6.271,0C75.323,68.864,75.061,68.892,74.858,68.69z"/>
	<path fill-rule="evenodd" clip-rule="evenodd" fill="#BC2A37" d="M74.317,74.003c0-0.758,0.012-1.517-0.007-2.275
		c-0.009-0.328,0.106-0.416,0.433-0.445c2.055-0.183,4.113-0.302,6.166-0.51c1.767-0.178,3.531-0.366,5.293-0.58
		c1.636-0.198,3.292-0.332,4.882-0.769c1.043-0.287,2.069-0.106,3.099-0.192c0.211-0.018,0.437,0.069,0.627-0.089
		c0.262-0.448,0.526-0.895,0.335-1.447c-0.006-0.279-0.014-0.558-0.02-0.837c0.213,0.152,0.458,0.135,0.684,0.087
		c1.868-0.386,3.733-0.785,5.6-1.18c0,1.553,0,3.108,0,4.661c-0.164,0.228-0.422,0.26-0.668,0.314
		c-3.322,0.718-6.669,1.29-10.03,1.783c-3.448,0.505-6.908,0.915-10.381,1.229c-1.672,0.149-3.348,0.244-5.02,0.396
		C74.976,74.178,74.62,74.241,74.317,74.003z"/>
	<path fill-rule="evenodd" clip-rule="evenodd" fill="#F6944E" d="M95.145,67.695c0.223,0.74,0.135,1.122-0.335,1.447
		c-6.791-0.003-13.582-0.005-20.373-0.007c-0.071,0-0.145,0.014-0.216,0.022c-0.108-0.594,0.325-0.448,0.638-0.467
		c2.566,0,5.132,0,7.698,0c3.843,0,7.688,0,11.531,0C95.111,68.69,95.111,68.69,95.145,67.695z"/>
	<path fill-rule="evenodd" clip-rule="evenodd" fill="#AA2C30" d="M94.794,63.92c0.205,0.234,0.146,0.487,0.05,0.742
		C94.828,64.415,94.812,64.167,94.794,63.92z"/>
	<path fill-rule="evenodd" clip-rule="evenodd" fill="#AA2731" d="M94.688,62.944c0.188,0.203,0.158,0.418,0.037,0.64
		C94.714,63.371,94.7,63.158,94.688,62.944z"/>
	<path fill-rule="evenodd" clip-rule="evenodd" fill="#A82D31" d="M95.017,65.871c0.19,0.203,0.153,0.419,0.037,0.641
		C95.041,66.297,95.028,66.084,95.017,65.871z"/>
	<path fill-rule="evenodd" clip-rule="evenodd" fill="#A92C30" d="M94.905,64.896c0.196,0.201,0.155,0.417,0.04,0.639
		C94.933,65.322,94.919,65.108,94.905,64.896z"/>
	<path fill-rule="evenodd" clip-rule="evenodd" fill="#F89B53" d="M101.534,74.545c0-1.085,0-2.168,0-3.253
		c0.926-0.418,1.594-1.16,2.247-1.891c1.447-1.62,2.445-3.487,2.878-5.637c0.244-1.211,0.232-2.419,0.027-3.631
		c-0.029-0.176-0.04-0.356-0.059-0.533c1.084,0,2.168,0,3.253,0c0.4,0.447,0.316,1.022,0.345,1.54
		c0.197,3.568-1.03,6.641-3.294,9.356c-1.288,1.544-2.838,2.764-4.516,3.839C102.158,74.5,101.895,74.763,101.534,74.545z"/>
	<path fill-rule="evenodd" clip-rule="evenodd" fill="#F69751" d="M101.534,74.545c0.825-0.126,1.411-0.704,2.04-1.158
		c2.321-1.675,4.223-3.73,5.411-6.376c0.931-2.075,1.341-4.233,1.019-6.508c-0.042-0.3-0.012-0.611-0.123-0.902
		c0.46-0.002,0.921-0.014,1.381,0c0.235,0.006,0.451,0.091,0.586,0.31c0.036,0.181,0.072,0.361,0.108,0.543
		c0.07,0.191,0.036,0.392,0.036,0.589c0.002,3.23,0.001,6.46,0.001,9.69c0.016,0.169-0.054,0.306-0.158,0.44
		c-2.562,3.3-5.801,5.725-9.592,7.435c-0.22,0.098-0.456,0.25-0.709,0.059C101.534,77.292,101.534,75.919,101.534,74.545z"/>
	<path fill-rule="evenodd" clip-rule="evenodd" fill="#B22735" d="M79.737,82.245c-1.806,0.002-3.611,0.004-5.416,0.008
		c-0.001-1.377-0.003-2.752-0.004-4.129c0.643-0.298,1.346-0.213,2.016-0.252c2.431-0.143,4.854-0.362,7.275-0.603
		c4.005-0.398,7.995-0.922,11.964-1.584c1.656-0.276,3.312-0.547,4.958-0.876c0.295-0.06,0.603-0.171,0.88,0.064
		c0,1.446,0,2.89,0,4.337c-1.046,0.032-2.053,0.317-3.079,0.479c-1.805,0.283-3.606,0.588-5.418,0.826
		c-1.509,0.197-3.013,0.438-4.522,0.625c-1.156,0.143-2.319,0.229-3.479,0.348c-1.337,0.135-2.672,0.281-4.009,0.414
		c-0.251,0.025-0.505,0.018-0.759,0.018C79.915,81.918,79.755,81.991,79.737,82.245z"/>
	<path fill-rule="evenodd" clip-rule="evenodd" fill="#B72A36" d="M101.41,74.872c-0.975,0.036-1.906,0.324-2.861,0.473
		c-1.894,0.295-3.778,0.644-5.673,0.929c-2.071,0.312-4.147,0.592-6.226,0.854c-1.191,0.149-2.391,0.23-3.587,0.348
		c-1.407,0.135-2.815,0.279-4.225,0.417c-0.518,0.051-1.037,0.047-1.557,0.103c-0.982,0.104-1.977,0.094-2.965,0.129
		c0-1.372,0-2.746,0-4.12c1.938-0.069,3.867-0.214,5.795-0.419c1.266-0.134,2.536-0.207,3.802-0.345
		c1.548-0.168,3.096-0.356,4.638-0.569c1.614-0.222,3.224-0.473,4.832-0.73c2.424-0.385,4.839-0.822,7.239-1.337
		c0.262-0.056,0.523-0.118,0.785-0.177C101.408,71.908,101.41,73.389,101.41,74.872z"/>
	<path fill-rule="evenodd" clip-rule="evenodd" fill="#F7924D" d="M101.534,78.667c1-0.176,1.838-0.738,2.701-1.208
		c2.29-1.247,4.345-2.817,6.114-4.743c0.425-0.463,0.817-0.955,1.211-1.447c0.104-0.133,0.224-0.228,0.368-0.302
		c0.123,0.182,0.061,0.386,0.062,0.578c0.006,2.309,0.003,4.617,0.004,6.924c0.024,0.216-0.13,0.309-0.279,0.42
		c-2.792,2.045-5.841,3.604-9.094,4.775c-0.346,0.123-0.689,0.326-1.087,0.203C101.534,82.133,101.534,80.401,101.534,78.667z"/>
	<path fill-rule="evenodd" clip-rule="evenodd" fill="#F68C4A" d="M101.534,83.868c1.962-0.602,3.839-1.406,5.661-2.344
		c1.391-0.715,2.729-1.516,3.982-2.454c0.224-0.169,0.446-0.372,0.75-0.405c0.149,0.761,0.028,1.529,0.062,2.293
		c0.015,0.303,0.003,0.609,0.004,0.91c0.01,0.197-0.129,0.281-0.271,0.367c-2.963,1.795-6.093,3.217-9.414,4.209
		c-0.247,0.074-0.509,0.221-0.774,0.027C101.534,85.604,101.534,84.737,101.534,83.868z"/>
	<path fill-rule="evenodd" clip-rule="evenodd" fill="#F48745" d="M101.529,88.86c0.002-0.217,0.003-0.436,0.005-0.654
		c0.393-0.236,0.848-0.285,1.277-0.416c2.956-0.904,5.796-2.09,8.513-3.567c0.198-0.107,0.432-0.408,0.669-0.029
		c0,0.799,0,1.596,0,2.391c-0.007,0.102-0.066,0.164-0.152,0.203c-3.104,1.498-6.279,2.814-9.643,3.621
		c-0.239,0.059-0.526,0.223-0.718-0.111C101.505,89.817,101.422,89.337,101.529,88.86z"/>
	<path fill-rule="evenodd" clip-rule="evenodd" fill="#F68C49" d="M111.928,84.086c-0.528,0.266-1.062,0.525-1.587,0.801
		c-2.624,1.379-5.377,2.426-8.221,3.252c-0.197,0.057-0.389,0.064-0.586,0.066c0-0.578,0-1.156,0-1.734
		c1.601-0.348,3.118-0.946,4.629-1.559c1.766-0.715,3.456-1.582,5.079-2.584c0.21-0.129,0.455-0.201,0.686-0.301
		C112.037,82.713,112.037,83.401,111.928,84.086z"/>
	<path fill-rule="evenodd" clip-rule="evenodd" fill="#DE6439" d="M101.529,88.86c0,0.506,0.002,1.01,0.003,1.516
		c0.314,0.553,0.12,1.154,0.159,1.732c0.02,0.725,0.02,1.449,0,2.174c0.024,0.971,0.018,1.943,0.003,2.914
		c0.016,0.762,0.018,1.523-0.003,2.283c0.021,0.801,0.021,1.598,0.001,2.396c0.03,0.984,0.011,1.971,0.009,2.957
		c0,0.213,0.004,0.432-0.152,0.611c-0.372-0.092-0.29-0.41-0.293-0.65c-0.011-1.189-0.027-2.379,0.007-3.57
		c-0.026-1.732-0.026-3.467-0.001-5.201c-0.03-0.916-0.011-1.834-0.011-2.756c0-0.215,0.005-0.434,0.157-0.613
		c0.009-1.266,0.018-2.533,0.027-3.799C101.467,88.856,101.498,88.86,101.529,88.86z"/>
	<path fill-rule="evenodd" clip-rule="evenodd" fill="#751224" d="M36.692,126.481c-0.002-0.867-0.002-1.734-0.004-2.6
		c0.002-1.881,0.002-3.76,0.004-5.641c0.037-0.049,0.071-0.049,0.105,0c0,0.473,0,0.941,0,1.412c0,1.156,0,2.312,0,3.469
		c0,1.119,0,2.24,0,3.363C36.764,126.481,36.728,126.481,36.692,126.481z"/>
	<path fill-rule="evenodd" clip-rule="evenodd" fill="#F37138" d="M101.523,105.46c0.004-1.197,0.006-2.395,0.011-3.59
		c0.15-0.145,0.344-0.191,0.541-0.229c3.12-0.551,6.172-1.365,9.18-2.355c0.23-0.076,0.475-0.213,0.716-0.012
		c0.037,0.127,0.017,0.256,0.022,0.385c0,1.432-0.001,2.861,0.003,4.293c0,0.174-0.043,0.357,0.046,0.525l0.003-0.006
		c0.369,1.033,0.845,1.365,1.962,1.367c0.357,0,0.716-0.012,1.074,0.008c0.209,0.01,0.442-0.002,0.534,0.26
		c0.145,0.277,0.035,0.564,0.034,0.846c-0.005,1.748-0.004,3.496,0,5.244c0,0.102,0.048,0.203,0.075,0.305
		c-0.027,0.145,0.045,0.309-0.094,0.43c-0.65,0.451-1.404,0.656-2.155,0.838c-1.97,0.48-3.963,0.559-5.96,0.191
		c-2.432-0.451-4.184-1.768-5.104-4.107c-0.111-0.285-0.271-0.549-0.367-0.84c-0.102-0.322-0.136-0.67-0.347-0.951
		c-0.238-0.703-0.312-1.428-0.32-2.164C101.395,105.741,101.392,105.579,101.523,105.46z"/>
	<path fill-rule="evenodd" clip-rule="evenodd" fill="#851929" d="M36.8,114.882c1.896,0.141,3.793,0.283,5.689,0.422
		c0.682,0.049,1.366,0.064,2.047,0.094c1.113,0.049,2.23,0.109,3.345,0.156c1.979,0.088,3.957,0.129,5.933,0.225
		c1.245,0.061,2.487,0.02,3.729,0.082c2.578,0.127,5.16,0.164,7.737,0.086c2.163-0.062,4.328-0.029,6.489-0.105
		c1.924-0.064,3.848-0.152,5.771-0.211c1.993-0.061,3.986-0.178,5.975-0.324c1.987-0.148,3.974-0.293,5.962-0.436
		c1.931-0.139,3.858-0.336,5.784-0.537c1.782-0.188,3.559-0.418,5.337-0.633c1.228-0.146,2.456-0.297,3.683-0.449
		c0.14-0.018,0.274-0.072,0.412-0.109c0.214-0.064,0.383,0.049,0.553,0.145c1.131,0.641,2.36,0.91,3.641,1.016
		c0.217,0.018,0.481-0.057,0.594,0.238c-1.559,0.35-3.147,0.504-4.726,0.725c-1.331,0.188-2.668,0.326-4.002,0.484
		c-1.139,0.135-2.276,0.275-3.416,0.404c-0.802,0.09-1.604,0.168-2.408,0.246c-1.462,0.143-2.924,0.285-4.389,0.418
		c-0.965,0.088-1.931,0.164-2.897,0.23c-2.096,0.148-4.189,0.293-6.286,0.428c-0.681,0.047-1.368,0.076-2.045,0.088
		c-1.262,0.025-2.522,0.096-3.778,0.156c-3.82,0.186-7.641,0.205-11.463,0.199c-2.9-0.004-5.801,0.057-8.697-0.031
		c-1.15-0.035-2.305-0.012-3.455-0.086c-1.688-0.105-3.378-0.139-5.065-0.229c-1.793-0.094-3.587-0.193-5.378-0.316
		c-1.559-0.107-3.112-0.275-4.674-0.314C36.711,116.255,36.711,115.569,36.8,114.882z"/>
	<path fill-rule="evenodd" clip-rule="evenodd" fill="#F4934D" d="M109.479,114.54c-0.601-0.078-1.204-0.135-1.801-0.236
		c-1.072-0.182-2.064-0.582-2.986-1.162c-1.238-0.955-2.024-2.223-2.532-3.68c-0.153-0.107-0.218-0.248-0.166-0.432
		c0.036-0.08,0.083-0.143,0.187-0.113c0.826,2.883,3.058,4.709,5.979,5.002c1.993,0.199,3.943,0.098,5.876-0.443
		c0.545-0.15,1.017-0.506,1.596-0.545c0.021,0.334-0.194,0.447-0.466,0.566C113.352,114.302,111.433,114.507,109.479,114.54z"/>
	<path fill-rule="evenodd" clip-rule="evenodd" fill="#7F1627" d="M36.8,114.882c0,0.688,0,1.373,0,2.061
		c-0.002,0.434-0.002,0.867-0.002,1.299c-0.034,0-0.07,0-0.105,0c-0.002-2.023-0.002-4.045-0.005-6.07
		c0.003-1.879,0.003-3.76,0.007-5.641c0.035,0.002,0.069,0.002,0.104,0.002c0,0.182,0,0.361,0,0.543c0,1.301,0,2.602,0,3.902
		S36.8,113.579,36.8,114.882z"/>
	<path fill-rule="evenodd" clip-rule="evenodd" fill="#C3423A" d="M111.953,99.601c-0.01-0.111-0.019-0.223-0.028-0.334
		c-0.217-0.283-0.15-0.615-0.154-0.932c-0.005-0.52-0.018-1.037,0.01-1.557c-0.019-0.867-0.021-1.734,0.001-2.605
		c-0.022-1.045-0.024-2.09,0-3.135c-0.025-0.832-0.015-1.662-0.003-2.496c0.042-0.619-0.153-1.258,0.148-1.854
		c0-0.868,0.001-1.735,0.001-2.602c0-0.686,0-1.373,0-2.059c0-1.121,0-2.242,0-3.363c0-2.565,0.001-5.132,0.003-7.698
		c0.003-3.253,0.008-6.504,0.012-9.756c0.001-0.252,0.01-0.506,0.014-0.757c0.199,0.518,0.06,1.056,0.088,1.584
		c0.025,0.481,0.008,0.965,0.008,1.448c0,1.447,0,2.892,0,4.337c0,1.519,0,3.036,0,4.554c0,1.41,0,2.82,0,4.229
		c0,1.915-0.001,3.832-0.001,5.748c0,1.734,0,3.467-0.002,5.204c0,1.301,0,2.602,0,3.902c0,0.939,0,1.879,0,2.82
		c-0.001,1.734-0.001,3.469-0.003,5.203c-0.001,0.035,0,0.07,0.002,0.105C112.021,99.636,111.99,99.644,111.953,99.601z"/>
	<path fill-rule="evenodd" clip-rule="evenodd" fill="#9A212F" d="M111.953,99.601c0.032-0.004,0.062-0.008,0.095-0.012
		c0.001,1.557,0.003,3.111,0.004,4.668c-0.003,0.074-0.007,0.146-0.01,0.221c-0.128-0.135-0.097-0.301-0.097-0.461
		C111.946,102.546,111.95,101.073,111.953,99.601z"/>
	<path fill-rule="evenodd" clip-rule="evenodd" fill="#791A20" d="M115.615,106.106c-0.647-0.199-1.313-0.053-1.971-0.096
		c-0.955-0.061-1.515-0.584-1.6-1.537c0.46,0.857,1.167,1.213,2.138,1.09c0.354-0.043,0.723-0.031,1.079,0.002
		C115.562,105.595,115.856,105.692,115.615,106.106z"/>
	<path fill-rule="evenodd" clip-rule="evenodd" fill="#9A212F" d="M101.41,96.015c0,1.736,0.001,3.471,0.002,5.205
		c-0.17,0.229-0.423,0.254-0.676,0.289c-2.984,0.418-5.979,0.756-8.976,1.07c-2.781,0.293-5.566,0.535-8.354,0.73
		c-2.122,0.148-4.244,0.312-6.373,0.361c-0.684,0.016-1.363,0.141-2.052,0.102c-0.233-0.012-0.473,0.006-0.666-0.168
		c0-1.699,0.001-3.396,0.001-5.096c0.144-0.131,0.32-0.162,0.504-0.16c1.643,0.006,3.279-0.146,4.918-0.238
		c1.727-0.098,3.454-0.24,5.18-0.387c2.319-0.199,4.636-0.418,6.95-0.67c2.819-0.301,5.631-0.662,8.438-1.051
		C100.669,95.952,101.047,95.774,101.41,96.015z"/>
	<path fill-rule="evenodd" clip-rule="evenodd" fill="#941E2D" d="M74.316,103.604c1.927,0.039,3.845-0.158,5.767-0.232
		c2.024-0.076,4.048-0.232,6.064-0.432c2.085-0.203,4.173-0.387,6.256-0.609c1.745-0.189,3.489-0.395,5.234-0.58
		c1.264-0.133,2.516-0.352,3.774-0.531c0.007,1.242,0.011,2.484,0.021,3.725c0.002,0.174-0.052,0.363,0.09,0.516
		c-0.007,0.137-0.014,0.273-0.021,0.408c-0.534-0.197-1.068-0.059-1.601,0.006c-3.619,0.459-7.245,0.842-10.879,1.168
		c-2.625,0.232-5.251,0.445-7.88,0.605c-1.746,0.105-3.492,0.252-5.244,0.244c-0.29,0-0.576,0.041-0.861,0.078
		c-0.254,0.029-0.509,0.051-0.723-0.135C74.315,106.425,74.316,105.015,74.316,103.604z"/>
	<path fill-rule="evenodd" clip-rule="evenodd" fill="#901D2C" d="M74.315,107.835c1.846-0.16,3.7-0.121,5.543-0.314
		c0.679-0.07,1.363-0.049,2.047-0.105c2.165-0.186,4.336-0.287,6.503-0.461c1.859-0.148,3.716-0.332,5.568-0.537
		c1.994-0.223,3.982-0.5,5.976-0.734c0.32-0.039,0.644-0.053,0.961-0.121c0.27-0.057,0.497,0.008,0.591,0.307
		c0.066,0.736,0.105,1.475,0.328,2.186c0.14,0.311,0.172,0.648,0.239,0.977c0.029,0.143,0.06,0.287,0.089,0.432
		c-1.139,0.121-2.277,0.242-3.415,0.367c-1.139,0.125-2.275,0.266-3.413,0.389c-1.334,0.145-2.668,0.285-4.003,0.416
		c-0.928,0.09-1.857,0.162-2.785,0.236c-1.84,0.145-3.678,0.293-5.52,0.422c-0.644,0.045-1.292,0.08-1.934,0.096
		c-1.133,0.025-2.268,0.09-3.393,0.168c-1.127,0.08-2.266-0.053-3.383,0.182C74.315,110.437,74.315,109.136,74.315,107.835z"/>
	<path fill-rule="evenodd" clip-rule="evenodd" fill="#A02130" d="M101.41,96.015c-1.454,0.205-2.907,0.416-4.363,0.607
		c-1.028,0.137-2.062,0.246-3.094,0.369c-1.156,0.137-2.312,0.281-3.468,0.41c-0.838,0.092-1.678,0.164-2.518,0.238
		c-1.57,0.145-3.142,0.287-4.713,0.424c-0.535,0.047-1.074,0.055-1.612,0.098c-1.521,0.127-3.053,0.125-4.575,0.254
		c-0.918,0.078-1.832,0.084-2.75,0.094c0-1.084,0-2.168,0-3.252c2.119-0.109,4.238-0.201,6.355-0.336
		c1.808-0.115,3.616-0.242,5.417-0.439c1.924-0.207,3.852-0.393,5.775-0.609c1.619-0.186,3.238-0.391,4.857-0.58
		c1.388-0.162,2.765-0.41,4.147-0.615c0.177-0.025,0.358-0.018,0.538-0.023C101.41,93.774,101.41,94.894,101.41,96.015z"/>
	<path fill-rule="evenodd" clip-rule="evenodd" fill="#F48443" d="M111.927,86.688c0,0.617,0,1.232,0,1.85
		c-0.068,0.162-0.215,0.23-0.364,0.299c-3.037,1.389-6.158,2.531-9.412,3.295c-0.204,0.049-0.417,0.146-0.618-0.021
		c0-0.578,0-1.156,0-1.734c1.056-0.123,2.058-0.475,3.061-0.791c2.296-0.725,4.529-1.609,6.669-2.719
		C111.473,86.757,111.682,86.661,111.927,86.688z"/>
	<path fill-rule="evenodd" clip-rule="evenodd" fill="#F27E3F" d="M111.925,91.026c0,1.047,0,2.098,0,3.145
		c-0.417,0.383-0.968,0.479-1.472,0.658c-2.727,0.971-5.495,1.801-8.338,2.359c-0.191,0.039-0.385,0.117-0.581,0.018
		c0-0.975,0-1.949,0-2.926c0.138-0.135,0.319-0.154,0.494-0.197c3.174-0.758,6.28-1.725,9.287-3.002
		C111.507,91.001,111.708,90.878,111.925,91.026z"/>
	<path fill-rule="evenodd" clip-rule="evenodd" fill="#F2773B" d="M111.925,96.772c0,0.832,0,1.664,0,2.494
		c-1.205,0.363-2.406,0.74-3.617,1.08c-2.23,0.633-4.478,1.189-6.773,1.523c0-0.797,0-1.59,0-2.387
		c0.211-0.197,0.489-0.217,0.753-0.268c3.013-0.615,5.973-1.42,8.872-2.443C111.414,96.683,111.669,96.56,111.925,96.772z"/>
	<path fill-rule="evenodd" clip-rule="evenodd" fill="#F37A3C" d="M111.925,96.772c-0.3-0.035-0.554,0.098-0.828,0.191
		c-3.059,1.049-6.172,1.896-9.347,2.516c-0.069,0.012-0.145,0.004-0.216,0.004c0-0.758,0-1.518,0-2.277
		c1.307-0.32,2.615-0.629,3.92-0.965c2.076-0.533,4.105-1.221,6.108-1.986c0.115-0.043,0.241-0.057,0.362-0.084
		C111.925,95.038,111.925,95.905,111.925,96.772z"/>
	<path fill-rule="evenodd" clip-rule="evenodd" fill="#F48242" d="M111.925,91.026c-1.934,0.766-3.872,1.523-5.867,2.119
		c-1.354,0.406-2.728,0.75-4.095,1.111c-0.136,0.037-0.287,0.016-0.429,0.023c-0.002-0.723-0.002-1.447-0.002-2.17
		c2.4-0.527,4.748-1.23,7.024-2.16c1.128-0.461,2.247-0.943,3.371-1.412C111.927,89.366,111.927,90.196,111.925,91.026z"/>
	<path fill-rule="evenodd" clip-rule="evenodd" fill="#E77D42" d="M102.071,109.03c-0.17-0.305-0.213-0.637-0.239-0.977
		c0.279,0.223,0.18,0.598,0.349,0.863C102.145,108.956,102.107,108.993,102.071,109.03z"/>
</g>
</svg>
