<?xml version="1.0" encoding="utf-8"?>
<!-- Generator: Adobe Illustrator 16.0.0, SVG Export Plug-In . SVG Version: 6.00 Build 0)  -->
<!DOCTYPE svg PUBLIC "-//W3C//DTD SVG 1.1//EN" "http://www.w3.org/Graphics/SVG/1.1/DTD/svg11.dtd">
<svg version="1.1" id="Layer_1" xmlns="http://www.w3.org/2000/svg" xmlns:xlink="http://www.w3.org/1999/xlink" x="0px" y="0px"
	 width="170.079px" height="170.079px" viewBox="0 0 170.079 170.079" enable-background="new 0 0 170.079 170.079"
	 xml:space="preserve">
<g>
	<path fill-rule="evenodd" clip-rule="evenodd" fill="#5A1131" d="M138.742,125.762c0,1.439-0.002,2.879-0.002,4.319
		c-0.724,1.013-1.848,1.194-2.947,1.395c-11.873,2.155-23.811,3.747-35.85,4.711c-10.672,0.854-21.358,1.422-32.042,1.26
		c-9.723-0.147-19.465-0.442-29.161-1.397c-0.89-0.088-1.749-0.24-2.349-1.005c-0.746-1.411-0.494-2.933-0.496-4.427
		c0.103-2.044-0.421-4.138,0.475-6.121c0.82-0.524,0.961,0.17,1.211,0.673c0.207,0.72,0.167,1.458,0.175,2.192
		c-0.077,2.05,1.083,2.762,2.955,2.921c5.644,0.481,11.275,1.167,16.955,0.982c4.397-0.143,8.798,0.663,13.144,0.386
		c6.859-0.438,13.726-0.142,20.574-0.629c13.06-0.929,26.06-2.344,38.975-4.509c1.892-0.316,3.737-0.856,5.644-1.089
		C136.941,125.309,137.906,125.018,138.742,125.762z"/>
	<path fill-rule="evenodd" clip-rule="evenodd" fill="#5E1035" d="M138.742,125.762c-3.91,0.656-7.812,1.371-11.732,1.953
		c-5.646,0.839-11.293,1.69-16.963,2.341c-10.888,1.249-21.815,1.742-32.777,2.107c-8.384,0.278-16.713-0.521-25.079-0.247
		c-4.181,0.137-8.389-0.621-12.588-0.925c-2.53-0.183-2.771-1.805-2.532-3.792c1.254-1.022,2.745-0.791,4.144-0.64
		c11.523,1.252,23.083,1.487,34.66,1.341c19.685-0.249,39.175-2.37,58.502-6.068c1.437-0.274,2.936-1.029,4.366,0.089
		C138.742,123.201,138.742,124.481,138.742,125.762z"/>
	<path fill-rule="evenodd" clip-rule="evenodd" fill="#55102E" d="M36.595,134.879c2.329,1.065,4.885,0.574,7.293,0.794
		c3.383,0.309,6.808,0.801,10.231,0.63c4.712-0.235,9.386,0.391,14.081,0.504c7.419,0.18,14.845-0.223,22.222-0.643
		c10.348-0.59,20.717-1.396,30.985-3.122c5.78-0.972,11.6-1.711,17.333-2.961c0,1.76,0,3.52,0.001,5.279
		c-0.793,0.929-1.934,1.032-3.019,1.279c-5.61,1.284-11.331,1.627-17.049,1.998c-9.834,0.027-19.667,0.069-29.501,0.077
		c-16.712,0.014-33.425,0.011-50.137-0.018c-0.824-0.002-1.751,0.398-2.49-0.342C36.054,137.189,35.539,136.022,36.595,134.879z"/>
	<path fill-rule="evenodd" clip-rule="evenodd" fill="#6E1942" d="M138.742,105.123c0,1.439,0,2.879,0,4.319
		c-0.588,0.619-1.383,0.769-2.162,0.944c-12.177,2.762-24.471,4.781-36.902,6.02c-7.88,0.786-15.785,0.775-23.673,1.183
		c-7.847,0.404-15.638-0.371-23.46-0.297c-4.459,0.042-8.924-0.616-13.355-1.25c-0.786-0.113-1.596-0.205-2.249-0.746
		c-0.685-1.134-0.666-2.285-0.083-3.448c1.244-1.023,2.752-0.828,4.132-0.659c5.307,0.649,10.653,0.75,15.969,1.265
		c1.66,0.161,3.354,0.34,4.88-0.629c0.864-0.301,1.063,0.408,1.396,0.917c0.137,0.18,0.267,0.369,0.397,0.553
		c0.074,0.079,0.144,0.168,0.218,0.249c0.162,0.147,0.331,0.287,0.517,0.404c2.613,0.195,5.223,0.319,7.824-0.084
		c0.167-0.16,0.331-0.32,0.487-0.492c0.169-0.174,0.361-0.312,0.574-0.428c0.225-0.104,0.458-0.172,0.701-0.215
		c2.093-0.186,4.199-0.004,6.291-0.228c0.371-0.005,0.733,0.06,1.093,0.148c0.238,0.045,0.473,0.108,0.705,0.179
		c0.915,0.354,1.907,0.324,2.848,0.561c1.389,0.364,2.803,0.142,4.206,0.188c4.067-0.016,8.155,0.28,12.131-0.906
		c2.321-0.364,4.335-1.415,6.253-2.73c0.669-0.459,1.209-1.348,2.258-0.973c0.296,0.956,0.778,1.123,1.86,0.963
		c8.049-1.189,16.001-2.854,23.931-4.646C136.572,105.049,137.634,104.409,138.742,105.123z"/>
	<path fill-rule="evenodd" clip-rule="evenodd" fill="#641539" d="M138.742,114.242c0,1.119,0,2.239,0,3.358
		c-0.715,0.745-1.692,0.868-2.62,1.073c-12.114,2.677-24.372,4.377-36.727,5.442c-10.825,0.934-21.673,1.614-32.532,1.359
		c-8.932-0.21-17.875-0.55-26.776-1.473c-3.25-0.337-3.956-1.264-3.197-4.032c1.188-0.935,2.584-0.753,3.91-0.597
		c14.707,1.733,29.459,1.474,44.219,1.114c9.985-0.243,19.895-1.344,29.767-2.695c6.868-0.94,13.704-2.191,20.499-3.616
		C136.417,113.939,137.607,113.412,138.742,114.242z"/>
	<path fill-rule="evenodd" clip-rule="evenodd" fill="#69183D" d="M37.07,115.2c8.423,1.112,16.911,1.666,25.378,1.674
		c4.226,0.004,8.454,0.771,12.769-0.026c2.188-0.404,4.676-0.217,7.027-0.2c10.663,0.073,21.184-1.376,31.721-2.783
		c7.71-1.028,15.285-2.678,22.871-4.316c0.614-0.133,1.271-0.075,1.906-0.105c0,0.8,0,1.6-0.001,2.399
		c-0.896,1.221-2.306,1.377-3.612,1.671c-10.937,2.455-22.003,4.11-33.145,5.271c-13.135,1.367-26.316,1.749-39.505,1.428
		c-7.979-0.194-15.96-0.644-23.909-1.463c-0.562-0.058-1.106-0.176-1.571-0.531C36.328,117.195,36.24,116.187,37.07,115.2z"/>
	<path fill-rule="evenodd" clip-rule="evenodd" fill="#611339" d="M37.07,115.2c0,0.961,0.001,1.921,0.001,2.88
		c0.507,0.64,0.507,1.279,0,1.919c-0.544,2.505,0.925,3.263,3.008,3.338c6.601,0.239,13.17,0.939,19.786,1.094
		c4.854,0.113,9.725,0.569,14.573,0.322c9.602-0.488,19.211-0.721,28.795-1.77c11.374-1.245,22.683-2.733,33.834-5.321
		c0.534-0.124,1.115-0.046,1.675-0.062c0,0.801,0,1.601,0,2.4c-0.717,0.741-1.694,0.86-2.621,1.066
		c-12.257,2.729-24.686,4.265-37.173,5.468c-8.985,0.865-18.01,1.154-27.003,1.244c-10.594,0.105-21.21-0.511-31.79-1.365
		c-1.126-0.092-2.22-0.312-3.085-1.133c-0.01-0.395-0.092-0.752-0.475-0.963c-1.171-1.485-0.621-3.221-0.708-4.863
		c-0.109-4.219-0.037-8.438-0.037-12.657c0-0.796,0.025-1.596,0.401-2.331c0.342-0.549,0.697-0.408,1.057-0.02
		c0.583,1.07,0.425,2.234,0.427,3.379c-0.005,0.557,0.049,1.114,0.005,1.671c-0.017,0.84-0.056,1.675-0.67,2.344
		C37.07,112.961,37.07,114.08,37.07,115.2z"/>
	<path fill-rule="evenodd" clip-rule="evenodd" fill="#69143D" d="M37.071,119.999c0-0.64,0-1.279,0-1.919
		c7.373,0.475,14.743,1.25,22.121,1.344c8.448,0.106,16.913,0.562,25.366-0.319c3.552-0.37,7.146-0.178,10.731-0.472
		c7.599-0.622,15.156-1.517,22.685-2.66c6.98-1.06,13.938-2.287,20.767-4.131c0.001,0.801,0.001,1.601,0.001,2.4
		c-5.52,1.077-11.012,2.332-16.566,3.186c-6.963,1.07-13.94,2.052-20.977,2.664c-4.571,0.397-9.156,0.899-13.729,1.151
		c-2.809,0.154-5.66,0.267-8.502,0.234c-10.175-0.115-20.357,0.177-30.518-0.542C44.655,120.668,40.897,119.915,37.071,119.999z"/>
	<path fill-rule="evenodd" clip-rule="evenodd" fill="#AA356E" d="M133.612,36.387c1.738,0.217,3.658-0.445,5.13,1.062
		c-0.184,0.176-0.386,0.326-0.605,0.453c-1.069,0.198-1.9,0.807-2.599,1.59c-8.794,9.878-20.374,14.766-32.722,18.278
		c-7.768,2.21-15.682,3.509-23.755,3.889c-1.456,0.068-3.02,0.016-4.263,1.059c-0.156,0.589-0.194,1.209-0.481,1.761
		c-0.257,0.326-0.536,0.552-0.948,0.226c-0.85-1.604-0.288-3.353-0.523-5.019c0.011-0.262,0.097-0.499,0.25-0.71
		c2.114-1.336,4.343-1.45,6.845-1.294c3.027,0.188,6.087-0.589,9.13-0.976c7.315-0.928,14.354-2.828,21.206-5.56
		c6.814-2.717,12.978-6.426,18.431-11.328c0.54-0.486,1.078-0.979,1.272-1.698c0.311-1.149,1.089-1.71,2.204-1.911
		c0.241-0.071,0.486-0.097,0.736-0.084C133.167,36.169,133.397,36.257,133.612,36.387z"/>
	<path fill-rule="evenodd" clip-rule="evenodd" fill="#A6366A" d="M74.027,64.326c0-0.64,0-1.28,0-1.92
		c1.945-0.837,4.064-0.762,6.083-0.883c11.135-0.67,21.896-2.987,32.305-6.95c9.293-3.539,17.696-8.475,24.403-15.976
		c0.44-0.493,1.006-0.779,1.523-1.149c0.133,0,0.267,0,0.4,0.001c-0.001,1.604-0.001,3.209-0.001,4.814
		c-0.55,1.486-1.656,2.547-2.833,3.503c-5.746,4.666-12.057,8.336-18.97,11.042c-7.178,2.81-14.554,4.908-22.106,6.303
		c-5.962,1.101-11.979,2.021-18.088,1.861C75.799,64.946,74.802,65.088,74.027,64.326z"/>
	<path fill-rule="evenodd" clip-rule="evenodd" fill="#611035" d="M37.07,125.281c9.175,0.973,18.409,0.981,27.592,1.608
		c7.452,0.509,14.814-0.175,22.195-0.323c9.418-0.189,18.822-1.303,28.191-2.604c7.398-1.028,14.736-2.27,22.02-3.9
		c0.535-0.12,1.114-0.045,1.674-0.061c0,0.64,0,1.28,0,1.92c-5.157,0.845-10.321,1.642-15.467,2.546
		c-5.697,1.002-11.44,1.604-17.178,2.301c-15.365,1.867-30.787,2.117-46.22,1.814c-7.608-0.149-15.205-0.902-22.808-1.383
		C37.07,126.56,37.07,125.92,37.07,125.281z"/>
	<path fill-rule="evenodd" clip-rule="evenodd" fill="#A23269" d="M74.027,64.326c14.309,0.12,28.045-2.718,41.428-7.702
		c8.749-3.258,16.577-7.866,23.286-14.362c0,1.279,0,2.559,0.001,3.838c-2.111,3.297-5.533,5.016-8.717,6.893
		c-11.582,6.827-24.352,10.268-37.438,12.746c-1.477,0.28-3.066-0.198-4.44,0.69c-0.336,0.149-0.688,0.199-1.052,0.175
		c-1.218-0.206-2.438-0.462-3.646,0.064c-0.317,0.166-0.642,0.308-0.99,0.395c-0.367,0.071-0.732,0.063-1.098,0
		c-2.236-0.557-4.43,0.743-6.701,0.05c-0.077,1.291,0.142,2.478-0.041,3.661c-0.257,0.561-0.143,1.569-1.28,1.065
		c-0.562-2.369-1.035-4.735,0.285-7.028C73.758,64.648,73.893,64.487,74.027,64.326z"/>
	<path fill-rule="evenodd" clip-rule="evenodd" fill="#E17DAD" d="M96.59,31.28c11.995,0.001,23.991,0.002,35.987,0.003
		c0.694,0.826,0.42,1.819,0.47,2.754c0.076,1.404-0.672,2.038-2.001,2.118c-1.433,0.086-2.866,0.048-4.3,0.048
		c-9.158,0.002-18.317,0.016-27.477-0.006C95.403,36.189,94.712,34.891,96.59,31.28z"/>
	<path fill-rule="evenodd" clip-rule="evenodd" fill="#9A2E62" d="M138.741,55.218c-0.001,1.761-0.001,3.522-0.001,5.284
		c-0.425,1.079-1.451,1.408-2.359,1.876c-8.16,4.208-16.765,7.202-25.668,9.381c-1.21-0.006-2.041-0.756-2.889-1.477
		c-0.339-0.387-0.558-0.827-0.581-1.35c0.092-1.278,1.033-1.757,2.062-2.02c9.962-2.545,19.348-6.491,28.29-11.533
		C137.946,55.182,138.332,55.079,138.741,55.218z"/>
	<path fill-rule="evenodd" clip-rule="evenodd" fill="#96295E" d="M110.481,71.577c3.125-1.58,6.596-2.117,9.881-3.214
		c6.354-2.12,12.463-4.747,18.378-7.861c0,1.914,0,3.829,0.001,5.744c-1.376,1.295-3.178,1.811-4.841,2.539
		c-6.661,2.912-13.609,4.974-20.632,6.799c-1.585-0.578-2.174-2.026-2.915-3.343C110.303,72.002,110.351,71.781,110.481,71.577z"/>
	<path fill-rule="evenodd" clip-rule="evenodd" fill="#7A1E4A" d="M138.742,92.645c0,1.6,0,3.199-0.001,4.799
		c-0.544,0.771-1.375,1.03-2.225,1.278c-6.425,1.872-12.988,3.124-19.55,4.385c-0.958,0.184-1.91,0.243-2.662-0.575
		c-0.518-0.777-0.198-1.533,0.053-2.292c0.387-0.957,0.511-2.063,1.501-2.686c1.443-0.752,3.05-0.892,4.608-1.185
		c5.017-0.943,9.907-2.39,14.852-3.625C136.435,92.465,137.577,91.791,138.742,92.645z"/>
	<path fill-rule="evenodd" clip-rule="evenodd" fill="#A23266" d="M87.945,66.259c0.084-0.843,0.663-0.931,1.361-0.981
		c6.851-0.489,13.425-2.318,19.99-4.173c7.275-2.055,14.192-5.018,20.725-8.778c3.081-1.773,5.824-4.132,8.721-6.226
		c0,1.116,0,2.231,0,3.346c-2.389,3.213-6.047,4.723-9.37,6.492c-8.132,4.33-16.772,7.453-25.809,9.376
		c-0.861,0.184-1.629,0.246-1.761,1.308c-0.902,0.324-1.768,0.028-2.642-0.148c-0.911-0.081-1.824-0.052-2.736-0.048
		c-2.57,0.025-5.141-0.076-7.71,0.078C88.431,66.509,88.175,66.426,87.945,66.259z"/>
	<path fill-rule="evenodd" clip-rule="evenodd" fill="#9E3366" d="M101.864,66.246c-0.101-0.755-0.174-1.27,0.943-1.476
		c9.115-1.685,17.688-5.007,25.925-9.146c3.49-1.753,6.682-4.1,10.01-6.178c0,1.125,0,2.25,0,3.375
		c-0.553,1.278-1.776,1.794-2.848,2.458c-8.556,5.298-17.879,8.735-27.556,11.306c-1.159,0.308-2.33,0.563-3.35,1.24
		c-0.33,0.163-0.677,0.213-1.04,0.156c-0.753-0.285-1.464-0.653-2.12-1.126C101.697,66.644,101.702,66.44,101.864,66.246z"/>
	<path fill-rule="evenodd" clip-rule="evenodd" fill="#741D46" d="M114.411,102.245c1.3,1.047,2.637,0.158,3.87-0.071
		c6.885-1.28,13.725-2.787,20.46-4.73c0,1.28,0,2.56,0,3.839c-0.759,1.073-1.962,1.299-3.11,1.601
		c-6.622,1.741-13.346,2.994-20.087,4.158c-1.036,0.18-2.066,0.242-2.956-0.49c-0.883-1.376,0.285-2.327,0.71-3.436
		C113.566,102.695,113.869,102.316,114.411,102.245z"/>
	<path fill-rule="evenodd" clip-rule="evenodd" fill="#4E1D36" d="M36.604,104.153c-0.006,5.123-0.012,10.245-0.019,15.368
		c-1.731,1.008-3.463,1.075-5.194,0c-0.001-5.76-0.001-11.519-0.001-17.278c1.698-1.091,3.44-0.907,5.204-0.178
		C37.134,102.759,37.199,103.455,36.604,104.153z"/>
	<path fill-rule="evenodd" clip-rule="evenodd" fill="#F191B9" d="M38.03,31.277c6.08,0,12.159,0,18.239-0.001
		c1.033,1.151-0.029,2.222-0.186,3.492c2.078,0.221,4.137-0.07,6.155,0.183c0.648,0.081,2.172-0.236,1.343,1.426
		c-0.522,0.251-1.08,0.289-1.638,0.288c-8.124-0.016-16.249,0.116-24.364-0.061c-0.251-0.038-0.495-0.125-0.718-0.247
		c-0.804-0.809-0.047-1.146,0.52-1.229c1.661-0.244,1.694-0.96,0.844-2.161C37.885,32.487,37.496,31.907,38.03,31.277z"/>
	<path fill-rule="evenodd" clip-rule="evenodd" fill="#862152" d="M138.742,80.655c0,1.437,0,2.873,0,4.309
		c-0.446,0.601-1.061,0.92-1.766,1.135c-5.692,1.737-11.422,3.339-17.233,4.631c-0.893,0.199-1.855,0.571-2.737-0.123
		c-0.606-1.182-0.548-2.378-0.082-3.583c0.496-0.714,1.286-0.913,2.053-1.109c5.948-1.517,11.874-3.106,17.675-5.13
		C137.322,80.55,138.022,80.32,138.742,80.655z"/>
	<path fill-rule="evenodd" clip-rule="evenodd" fill="#E582B0" d="M96.59,31.28c-0.017,4.248-0.017,4.248,4.355,4.248
		c9.174,0,18.349,0,27.523,0c4.122-0.001,4.122-0.001,4.108-4.245c1.183-0.007,0.862,0.895,0.901,1.54
		c0.07,1.187,0.093,2.376,0.135,3.564c-0.193,0.009-0.387,0.019-0.58,0.029c-15.815,0.521-31.633,0.264-47.451,0.157
		c-0.738-0.145-1.427-0.408-2.015-0.894c-0.524-1.55-0.325-3.014,0.542-4.396C88.27,31.282,92.43,31.282,96.59,31.28z"/>
	<path fill-rule="evenodd" clip-rule="evenodd" fill="#572E41" d="M31.39,48.007c-0.027-5.21-0.055-10.42-0.083-15.63
		c-0.002-0.398,0.005-0.79,0.358-1.067c2.19,0.993,3.723,2.673,4.919,4.705l-0.021,0.013c0.202,0.226,0.367,0.477,0.498,0.751
		c0.217,3.575,0.541,7.154-0.209,10.714C35.158,49.004,33.332,49.118,31.39,48.007z"/>
	<path fill-rule="evenodd" clip-rule="evenodd" fill="#9E2E62" d="M104.718,67.75c0.171-1.316,1.349-1.278,2.188-1.445
		c7.616-1.514,14.673-4.674,21.778-7.595c3.559-1.462,6.718-3.896,10.058-5.89c0,0.799,0,1.598-0.001,2.396
		c-7.741,4.901-16.096,8.421-24.857,11.023c-1.517,0.451-3.038,0.892-4.568,1.294c-0.9,0.237-1.689,0.531-1.711,1.651
		c-1.177,0.569-1.971-0.221-2.825-0.796C104.631,68.189,104.61,67.976,104.718,67.75z"/>
	<path fill-rule="evenodd" clip-rule="evenodd" fill="#7E214E" d="M138.742,92.645c-7.266,1.674-14.421,3.81-21.768,5.14
		c-0.391,0.071-0.79,0.094-1.185,0.139c-0.438-0.376-0.489-0.877-0.459-1.405c0.142-0.771,0.332-1.522,0.878-2.128
		c0.214-0.155,0.45-0.266,0.705-0.337c6.336-0.96,12.49-2.682,18.638-4.438c1.03-0.294,2.044-1.048,3.19-0.33
		C138.742,90.404,138.742,91.524,138.742,92.645z"/>
	<path fill-rule="evenodd" clip-rule="evenodd" fill="#4D203A" d="M36.59,102.242c-1.733,0-3.467,0.001-5.199,0.001
		c0-4.319,0-8.64,0-12.959c1.785-1.103,3.578-1.009,5.377-0.032C37.461,93.591,37.799,97.927,36.59,102.242z"/>
	<path fill-rule="evenodd" clip-rule="evenodd" fill="#92255A" d="M138.742,68.166c0,0.959,0,1.919,0,2.878
		c-1.066,1.018-2.374,1.625-3.731,2.105c-5.88,2.079-11.768,4.137-17.818,5.68c-0.786,0.2-1.567,0.307-2.375,0.186
		c-0.256-0.039-0.478-0.149-0.669-0.322c-0.51-0.76-0.809-1.567-0.541-2.497c0.353-0.668,1.042-0.645,1.646-0.802
		c7.101-1.846,14.109-3.968,20.833-6.947C136.921,68.078,137.767,67.383,138.742,68.166z"/>
	<path fill-rule="evenodd" clip-rule="evenodd" fill="#8B2456" d="M116.741,94.562c-0.147,0.001-0.294,0.003-0.44,0.005
		c-0.964-0.97-0.702-2.209-0.749-3.38c0.122-2.442-0.149-4.891,0.095-7.331c0.104-1.252,0.943-1.734,2.042-1.996
		c6.218-1.485,12.282-3.479,18.331-5.527c0.884-0.299,1.814-0.749,2.723-0.007c0,0.804-0.001,1.608-0.001,2.413
		c-0.49,1.204-1.642,1.436-2.686,1.803c-5.286,1.861-10.718,3.221-16.13,4.647c-1.148,0.302-2.415,0.411-2.918,1.779
		c0.01,1.571-0.166,3.131,0.294,4.693C117.591,92.645,117.498,93.705,116.741,94.562z"/>
	<path fill-rule="evenodd" clip-rule="evenodd" fill="#57293F" d="M31.39,63.846c0-4,0-7.999,0-11.999
		c1.777-1.104,3.565-0.994,5.364-0.053c0.844,4.014,0.803,8.032,0.026,12.054C34.984,64.875,33.187,64.948,31.39,63.846z"/>
	<path fill-rule="evenodd" clip-rule="evenodd" fill="#711941" d="M138.742,105.123c-9.771,2.491-19.646,4.427-29.744,5.817
		c0.161-0.762,1.272-1.101,0.546-1.917c0.175-0.91,0.821-1.295,1.646-1.487c3.772,0.032,7.432-0.871,11.086-1.583
		c4.988-0.973,10.105-1.456,14.884-3.389c0.508-0.205,1.094-0.281,1.581,0.159C138.74,103.523,138.741,104.323,138.742,105.123z"/>
	<path fill-rule="evenodd" clip-rule="evenodd" fill="#8E2556" d="M138.742,76.325c-2.694,0.426-5.179,1.54-7.739,2.391
		c-4.456,1.48-8.951,2.808-13.533,3.823c-0.724,0.161-1.188,0.37-1.279,1.129c-0.286,0.031-0.508-0.073-0.668-0.312
		c-0.322-0.611-0.348-1.259-0.238-1.924c0.305-1.302,1.389-1.617,2.468-1.935c6.307-1.862,12.671-3.545,18.758-6.088
		c0.728-0.304,1.499-0.604,2.232,0.036C138.742,74.405,138.742,75.365,138.742,76.325z"/>
	<path fill-rule="evenodd" clip-rule="evenodd" fill="#491936" d="M31.392,119.521c1.731,0,3.463,0,5.195,0
		c0.003,1.6,0.006,3.198,0.009,4.797c-0.001,2.08-0.004,4.161-0.006,6.241c-1.733,1.009-3.466,1.078-5.199,0
		C31.391,126.881,31.391,123.201,31.392,119.521z"/>
	<path fill-rule="evenodd" clip-rule="evenodd" fill="#82214E" d="M116.741,94.562c0.006-2.714,0.013-5.428,0.02-8.142
		c0.425-0.116,0.59,0.027,0.462,0.463c0,1.28,0,2.56,0,3.84c0.985,0.797,2.068,0.588,3.178,0.346
		c5.198-1.134,10.339-2.484,15.412-4.094c0.948-0.301,1.929-0.889,2.93-0.091c0,0.801,0,1.601,0,2.4
		c-6.216,2.053-12.56,3.611-18.95,5.01C118.763,94.519,117.762,94.518,116.741,94.562z"/>
	<path fill-rule="evenodd" clip-rule="evenodd" fill="#8E255A" d="M138.742,73.445c-2.813,0.97-5.606,2.001-8.443,2.895
		c-4.213,1.328-8.453,2.569-12.689,3.822c-0.852,0.252-1.728,0.403-1.857,1.512c-1.392-0.632-1.424-1.699-0.94-2.933
		c7.544-1.883,14.999-4.04,22.114-7.23c0.589-0.264,1.158-0.514,1.816-0.466C138.742,71.845,138.742,72.645,138.742,73.445z"/>
	<path fill-rule="evenodd" clip-rule="evenodd" fill="#54253B" d="M31.39,85.924c0-3.04,0-6.079,0-9.119
		c1.701-1.093,3.447-0.891,5.214-0.181c0.349,0.337,0.505,0.766,0.582,1.231c-0.089,2.72,0.58,5.484-0.46,8.153
		C34.934,86.895,33.151,87.033,31.39,85.924z"/>
	<path fill-rule="evenodd" clip-rule="evenodd" fill="#932A5C" d="M138.742,68.166c-3.291,1.29-6.529,2.737-9.884,3.83
		c-4.98,1.622-10.043,2.993-15.069,4.471c-0.488,0.043-0.806-0.198-1.02-0.612c-0.029-0.232,0.068-0.394,0.276-0.494
		c2.845-1.51,6.027-1.996,9.059-2.917c5.086-1.547,9.991-3.515,14.808-5.73c0.59-0.271,1.166-0.52,1.829-0.468
		C138.742,66.886,138.742,67.526,138.742,68.166z"/>
	<path fill-rule="evenodd" clip-rule="evenodd" fill="#ED8FB9" d="M63.947,36.001c-2.039-1.041-4.215-0.24-6.316-0.458
		c-0.931-0.097-1.88-0.017-3.183-0.017c0.99-1.472,2.107-2.612,1.821-4.251c3.04,0.001,6.081,0.002,9.121,0.003
		c0.162,0.178,0.337,0.37,0.368,0.602c0.401,3.024,0.397,3.025,3.564,2.981c0.397-0.005,0.794-0.028,1.196-0.004
		c2.521,0.037,2.521,0.037,2.887,1.337C70.237,36.868,67.076,37.196,63.947,36.001z"/>
	<path fill-rule="evenodd" clip-rule="evenodd" fill="#52253E" d="M36.579,76.804c-1.729,0-3.46,0-5.189,0.001
		c0-2.72,0.001-5.439,0.001-8.159c1.772-1.104,3.559-0.986,5.356-0.063C37.491,71.338,37.726,74.085,36.579,76.804z"/>
	<path fill-rule="evenodd" clip-rule="evenodd" fill="#721C46" d="M138.74,102.724c-7.226,2.632-14.808,3.603-22.338,4.831
		c-1.844,0.301-3.62,1.126-5.529,0.407c-0.039-1.06,0.244-1.863,1.501-1.896c2.556,1.177,4.979-0.088,7.413-0.497
		c6.394-1.075,12.745-2.377,18.954-4.287C138.74,101.763,138.74,102.243,138.74,102.724z"/>
	<path fill-rule="evenodd" clip-rule="evenodd" fill="#EA87B4" d="M84.109,31.284c0.045,1.438,0.016,2.868-0.483,4.244
		c-2.948,1.294-6.02,0.79-8.998,0.354c-1.551-0.227-1.538-2.372-0.119-4.6C77.71,31.282,80.909,31.283,84.109,31.284z"/>
	<path fill-rule="evenodd" clip-rule="evenodd" fill="#832151" d="M138.742,86.884c-4.874,1.337-9.743,2.686-14.622,4.002
		c-1.599,0.432-3.215,0.802-4.832,1.155c-1.088,0.237-2.149,0.328-2.065-1.318c7.173-1.92,14.346-3.84,21.52-5.759
		C138.742,85.604,138.742,86.244,138.742,86.884z"/>
	<path fill-rule="evenodd" clip-rule="evenodd" fill="#8A2056" d="M117.223,86.883c-0.153-0.154-0.309-0.309-0.462-0.464
		c-0.151-1.206,0.601-1.266,1.557-1.522c6.87-1.838,13.874-3.254,20.424-6.159c0.001,0.639,0.001,1.278,0.001,1.917
		C131.732,83.295,124.551,85.341,117.223,86.883z"/>
	<path fill-rule="evenodd" clip-rule="evenodd" fill="#4F132A" d="M118.674,138.638c3.966-0.611,7.935-1.202,11.896-1.843
		c2.729-0.441,5.448-0.954,8.172-1.435c0.176,3.358,0.176,3.368-3.043,3.356C130.023,138.697,124.349,138.665,118.674,138.638z"/>
	<path fill-rule="evenodd" clip-rule="evenodd" fill="#4A1732" d="M31.391,130.56c1.732,0,3.466,0,5.199,0
		c0.002,1.439,0.003,2.879,0.005,4.319c-0.017,1.159-0.033,2.318-0.049,3.477c-1.475-1.334-2.928-2.694-4.43-3.996
		C30.849,133.262,31.396,131.87,31.391,130.56z"/>
	<path fill-rule="evenodd" clip-rule="evenodd" fill="#52293E" d="M36.567,68.645c-1.726,0-3.451,0-5.177,0.001
		c0-1.6,0-3.2-0.001-4.8c1.725,0.001,3.45,0.002,5.175,0.002C37.575,65.446,37.572,67.045,36.567,68.645z"/>
	<path fill-rule="evenodd" clip-rule="evenodd" fill="#EE8BB5" d="M70.188,35.527c-0.238,0-0.476,0.006-0.714,0
		c-1.497-0.044-3.4,0.452-4.382-0.283c-1.047-0.785,0.572-2.553,0.299-3.964c1.919,0,3.838,0.001,5.757,0.001
		C72.016,32.965,71.588,34.356,70.188,35.527z"/>
	<path fill-rule="evenodd" clip-rule="evenodd" fill="#EE8EB9" d="M36.584,36.014c-1.64-1.568-3.279-3.136-4.919-4.705
		c2.122-0.011,4.243-0.021,6.365-0.032c0.011,0.079-0.001,0.17,0.034,0.235c0.595,1.099,1.771,2.255,1.663,3.278
		C39.56,36.404,37.39,34.835,36.584,36.014z"/>
	<path fill-rule="evenodd" clip-rule="evenodd" fill="#562E3D" d="M36.553,51.846c-1.721,0-3.441,0-5.163,0.001
		c0-1.28,0-2.56,0-3.84c1.733-0.015,3.483,0.163,5.158-0.478C37.563,48.967,37.558,50.406,36.553,51.846z"/>
	<path fill-rule="evenodd" clip-rule="evenodd" fill="#EA8AB5" d="M70.188,35.527c0.534-1.367,0.98-2.754,0.96-4.247
		c1.12,0,2.241,0,3.361,0c-0.337,4.247-0.337,4.247,4.158,4.247c1.653,0,3.306,0,4.959,0c0.525,0.018,1.091-0.087,1.436,0.475
		c-0.526,0.598-1.254,0.706-1.96,0.647c-3.183-0.267-6.456,0.78-9.559-0.649C72.53,35.091,71.302,35.713,70.188,35.527z"/>
	<path fill-rule="evenodd" clip-rule="evenodd" fill="#52213A" d="M31.39,85.924c1.729,0,3.459,0.001,5.188,0.001
		c0.876,1.12,0.875,2.239,0.002,3.359c-1.729,0-3.459,0-5.188,0C31.391,88.164,31.391,87.044,31.39,85.924z"/>
	<path fill-rule="evenodd" clip-rule="evenodd" fill="#E17DAD" d="M112.374,106.066c-0.5,0.632-1,1.264-1.501,1.896
		c-0.443,0.354-0.887,0.708-1.329,1.062c-2.226,2.029-4.733,3.537-7.71,4.182c-3.157-0.045-6.222,1.129-9.396,0.777
		c-3.601-0.398-7.31,0.261-10.81-1.105c-0.767-1.041-0.654-2.145-0.237-3.269c0.703-0.926,1.715-1.062,2.777-1.087
		c8.271-0.197,16.265-1.741,23.899-4.982c1.251-0.53,2.524-0.992,3.812-1.419c0.984-0.326,1.75-0.174,1.894,1.054
		C113.307,104.139,112.841,105.103,112.374,106.066z"/>
	<path fill-rule="evenodd" clip-rule="evenodd" fill="#E17CAC" d="M63.52,113.678c-0.193-0.133-0.387-0.265-0.58-0.397
		c-0.918-4.038-0.847-8.099-0.295-12.171c0.153-0.301,0.396-0.413,0.727-0.338c1.162,1.193,0.683,2.709,0.805,4.105
		c-0.053,0.986,0.446,1.385,1.398,1.547c1.332,0.228,2.628,0.65,3.96,0.908c3.761,0.726,4.376,1.821,3.27,5.721
		c-0.345,0.626-0.95,0.826-1.583,0.828C68.652,113.89,66.074,114.216,63.52,113.678z"/>
	<path fill-rule="evenodd" clip-rule="evenodd" fill="#711941" d="M37.07,111.841c0-0.8-0.001-1.599-0.001-2.398
		c2.456-0.532,4.874-0.147,7.312,0.213c3.61,0.532,7.267,0.346,10.901,0.494c2.382,0.097,4.748,0.239,7.106,0.581
		c0.438,0.327,0.388,0.707,0.12,1.11c-1.213,2.456-3.568,1.635-5.238,1.324c-3.399-0.631-6.814-0.252-10.217-0.706
		C43.782,112.021,40.429,111.516,37.07,111.841z"/>
	<path fill-rule="evenodd" clip-rule="evenodd" fill="#E57DAF" d="M72.587,112.802c0-4.042-0.001-4.036-3.896-4.892
		c-1.23-0.271-2.438-0.687-3.682-0.846c-1.255-0.16-1.587-0.853-1.54-1.943c1.455-0.799,2.761,0.147,4.117,0.382
		c1.48,0.255,2.934,0.666,4.416,0.854c0.984-1.735,0.136-3.595,0.391-5.373c0.066-1.661-0.099-3.316-0.032-4.974
		c0.031-1.436-0.063-2.871,0-4.306c0.076-1.446,0.026-2.894,0.033-4.342c0.232-2.167-0.502-4.407,0.481-6.52
		c0.227-0.25,0.49-0.297,0.791-0.144c0.96,1.491,0.348,3.179,0.596,4.76c0.02,2.032-0.094,4.064-0.041,6.099
		c-0.008,1.148-0.011,2.298-0.004,3.447c-0.004,1.147-0.013,2.295,0.011,3.442c-0.025,1.45-0.011,2.9-0.005,4.351
		c-0.026,2.953,0.027,5.906-0.027,8.86c-0.025,0.634-0.26,1.169-0.745,1.586c-0.124,0.011-0.248,0.031-0.369,0.064
		C72.785,113.267,72.734,112.986,72.587,112.802z"/>
	<path fill-rule="evenodd" clip-rule="evenodd" fill="#711941" d="M73.45,113.244c0.042-0.47,0.083-0.94,0.125-1.411
		c0.539-1.242-0.042-2.585,0.344-3.84c1.15-0.171,1.508,1.24,2.652,1.259c1.624,0.027,3.022,0.036,3.21-2.115
		c0.045-0.506,0.185-1.688,1.301-0.752c0.456,2.171,0.406,4.312-0.337,6.417C78.362,113.751,75.883,113.107,73.45,113.244z"/>
	<path fill-rule="evenodd" clip-rule="evenodd" fill="#E786B2" d="M81.706,112.802c6.113,0.585,12.223,1.557,18.348,0.067
		c0.601-0.146,1.272-0.222,1.78,0.336c-4.232,1.427-8.593,1.171-12.948,0.968c-1.448-0.486-2.986,0.127-4.435-0.361
		c-0.973,0.097-1.915,0.05-2.741-0.564c-0.117-0.099-0.156-0.196-0.118-0.296C81.629,112.852,81.667,112.802,81.706,112.802z"/>
	<path fill-rule="evenodd" clip-rule="evenodd" fill="#862B56" d="M80.745,112.802c-0.003-2.237-0.005-4.474-0.008-6.71
		c-1.055-1.28-0.622-2.797-0.68-4.236c-0.079-1.58,0.062-3.159,0.018-4.74c-0.004-0.749,0.063-1.478,0.573-2.084
		c0.304-0.146,0.568-0.092,0.793,0.159c0.789,1.558,0.312,3.234,0.463,4.854c0.035,4.426,0.065,8.851-0.676,13.235
		C81.066,113.12,80.906,112.961,80.745,112.802z"/>
	<path fill-rule="evenodd" clip-rule="evenodd" fill="#892B58" d="M62.51,111.841c0-0.32,0-0.64,0-0.96
		c-1.05-1.224-0.514-2.707-0.669-4.075c-0.009-0.277-0.009-0.556-0.01-0.833c-0.03-1.372-0.023-2.744,0.006-4.116
		c-0.008-0.958-0.036-1.917,0.021-2.877c0.026-0.709,0.073-1.412,0.603-1.968c0.282-0.175,0.53-0.136,0.746,0.115
		c0.562,1.248,0.685,2.48-0.143,3.675c-0.041,4.159-0.083,8.319-0.124,12.479C62.43,112.91,62.533,112.356,62.51,111.841z"/>
	<path fill-rule="evenodd" clip-rule="evenodd" fill="#DD7AA9" d="M81.229,113.279c0.021-4.481,0.041-8.963,0.061-13.444
		c0.295-0.019,0.524,0.095,0.689,0.34c0.562,1.159,0.347,2.401,0.396,3.617c0.03,1.374,0.062,2.747-0.031,4.121
		c-0.018,0.59-0.257,1.088-0.636,1.527c0,1.12,0,2.241-0.001,3.361c0,0.148,0.001,0.297,0.004,0.445
		C81.549,113.258,81.389,113.269,81.229,113.279z"/>
	<path fill-rule="evenodd" clip-rule="evenodd" fill="#E987B3" d="M72.587,112.802c0.165,0.169,0.329,0.338,0.494,0.507
		c-0.004,0.132-0.02,0.262-0.046,0.392c-3.188,0.924-6.388,0.753-9.593,0.112l0.077-0.135c2.068-0.87,4.237-0.163,6.346-0.403
		C70.78,113.171,71.797,113.627,72.587,112.802z"/>
	<path fill-rule="evenodd" clip-rule="evenodd" fill="#812B54" d="M63.442,113.812c3.197-0.037,6.396-0.075,9.593-0.112
		c0.011,0.178,0.021,0.355,0.032,0.532c-3.2,0.392-6.399,0.384-9.6,0.006C63.463,114.097,63.455,113.954,63.442,113.812z"/>
	<path fill-rule="evenodd" clip-rule="evenodd" fill="#69143D" d="M63.468,114.238c3.2-0.002,6.399-0.004,9.6-0.006
		C69.868,115.043,66.668,115.031,63.468,114.238z"/>
	<path fill-rule="evenodd" clip-rule="evenodd" fill="#E17DAD" d="M84.451,113.812c1.481,0.079,3.014-0.458,4.435,0.361
		C87.396,114.204,85.893,114.389,84.451,113.812z"/>
	<path fill-rule="evenodd" clip-rule="evenodd" fill="#7A1E4A" d="M62.504,101.764c0.001,1.439,0.002,2.879,0.003,4.318
		c-2.716,1.452-5.652,0.803-8.446,0.633c-4.929-0.299-9.867-0.639-14.77-1.319c-0.797-0.11-1.59-0.18-2.222-0.753
		c-0.155-0.164-0.311-0.326-0.465-0.489c-0.005-0.637-0.01-1.274-0.015-1.911c-0.004-4.319-0.007-8.639-0.011-12.958
		c-0.001-1.12-0.001-2.239-0.001-3.359c0.012-2.723,0.024-5.446,0.037-8.17c0.258-0.07,0.474-0.005,0.65,0.196
		c0.214,0.312,0.316,0.663,0.364,1.033c0.075,0.74,0.065,1.483,0.077,2.225c0.028,0.632,0.016,1.263,0.015,1.895
		c0.024,0.776,0.02,1.551,0.007,2.327c0.016,0.788,0.021,1.575,0.001,2.363c0.023,0.531,0.01,1.062,0.003,1.594
		c0.027,1.207,0.026,2.414,0.002,3.621c0.009,0.543,0.031,1.086,0.002,1.629c0.031,0.82,0.021,1.641,0.022,2.461
		c0.016,1.632,1.047,2.208,2.468,2.353c6.193,0.628,12.376,1.388,18.604,1.604C60.09,101.098,61.414,100.835,62.504,101.764z"/>
	<path fill-rule="evenodd" clip-rule="evenodd" fill="#741D46" d="M37.069,104.643c5.366,0.465,10.728,1.018,16.103,1.362
		c3.101,0.199,6.223,0.062,9.335,0.077c0,0.16,0,0.32,0,0.48c-0.039,0.069-0.104,0.137-0.113,0.21
		c-0.484,3.937-0.482,3.922-4.605,3.604c-5.55-0.428-11.122-0.547-16.656-1.195c-1.424-0.167-2.88-0.197-4.063-1.18
		C37.068,106.882,37.068,105.762,37.069,104.643z"/>
	<path fill-rule="evenodd" clip-rule="evenodd" fill="#721C46" d="M37.068,108.001c6.945,0.623,13.89,1.248,20.836,1.862
		c0.635,0.057,1.281-0.007,1.912,0.067c1.591,0.188,2.46-0.325,2.224-2.084c-0.065-0.48,0.024-0.96,0.467-1.284
		c0.001,1.439,0.002,2.879,0.003,4.318c-3.281,0.602-6.551-0.219-9.838-0.074c-4.221,0.188-8.393-0.659-12.599-0.877
		c-1.024-0.053-2.07,0.097-3.004-0.487C37.069,108.962,37.068,108.481,37.068,108.001z"/>
	<path fill-rule="evenodd" clip-rule="evenodd" fill="#AB3A71" d="M132.584,36.521c-1.042,0.481-1.627,1.075-2.176,2.308
		c-0.704,1.584-2.573,2.706-4.06,3.876c-9.977,7.853-21.579,11.989-33.886,14.15c-2.882,0.506-5.911,0.975-8.936,1.142
		c-2.039,0.112-4.114,0.193-6.165,0.06c-1.567-0.103-2.677,1.486-4.287,0.987c-0.134,0.028-0.268,0.058-0.4,0.087
		c-2.981,0.206-5.967,0.041-8.948,0.097c-8.38-0.654-16.682-1.801-24.809-4.025c-0.62-0.17-1.203-0.418-1.607-0.961
		c-0.326-2.657,0.08-3.184,2.569-2.623c4.747,1.07,9.439,2.376,14.264,3.109c16.362,2.485,32.491,1.434,48.264-3.565
		c8.809-2.791,17.044-6.792,23.599-13.6c0.56-0.581,1.197-1.057,1.989-1.287C129.524,36.383,131.081,35.947,132.584,36.521z"/>
	<path fill-rule="evenodd" clip-rule="evenodd" fill="#A7366D" d="M138.342,37.447c-3.762,5.8-9.43,9.442-15.201,12.74
		c-7.456,4.26-15.515,7.188-23.939,9.017c-6.04,1.311-12.104,2.381-18.292,2.786c-2.292,0.15-4.576,0.451-6.882,0.415
		c1.247-1.804,3.306-1.277,4.91-1.354c11.387-0.548,22.297-3.043,32.988-6.956c8.849-3.238,16.605-7.948,22.983-14.894
		C135.834,38.195,136.742,37.143,138.342,37.447z"/>
	<path fill-rule="evenodd" clip-rule="evenodd" fill="#E17DAD" d="M132.584,36.521c-1.604-0.002-3.206-0.004-4.809-0.006
		c-2.135,1.181-4.454,0.583-6.699,0.698c-3.142-0.03-6.285,0.069-9.427,0.015c-1.031-0.156-2.067,0.033-3.101-0.031
		c-1.625-0.128-3.252,0.122-4.878-0.001c-3.621-0.114-7.24,0.154-10.861,0.026c-1.828-0.194-3.658,0.107-5.487-0.023
		c-11.083,0.074-22.166,0.098-33.247-0.006c-1.82,0.139-3.642-0.149-5.462,0.013c-3.749,0-7.502,0.136-11.244-0.248
		c-0.274-0.134-0.521-0.308-0.742-0.518c-0.027-0.137-0.048-0.275-0.064-0.414c9.128-0.008,18.256-0.017,27.385-0.025
		c3.198,0,6.397-0.001,9.597-0.002c3.839,0.001,7.678,0.001,11.518,0.002c15.072,0.001,30.146-0.004,45.219,0.019
		c0.92,0.001,1.925-0.335,2.754,0.395C132.884,36.452,132.734,36.487,132.584,36.521z"/>
	<path fill-rule="evenodd" clip-rule="evenodd" fill="#E391B6" d="M73.624,64.81c-0.005,2.393-0.01,4.785-0.015,7.178
		c0.407,0.523,0.365,1.033-0.044,1.534c-0.304,0.085-0.551,0.002-0.743-0.246c-0.633-1.196-0.333-2.502-0.447-3.761
		c0.177-3.13-0.305-6.274,0.189-9.4c0.094-0.281,0.255-0.52,0.476-0.717C74.123,61.106,73.232,63.028,73.624,64.81z"/>
	<path fill-rule="evenodd" clip-rule="evenodd" fill="#7F425E" d="M73.075,59.043c-0.012,0.118-0.023,0.237-0.035,0.355l0.042,0.195
		c-3.035,1.311-6.184,0.396-9.282,0.471c-0.298-0.08-0.559-0.225-0.785-0.431c-0.218-0.649,0.193-0.767,0.688-0.813
		c3.109,0.118,6.231-0.289,9.331,0.229L73.075,59.043z"/>
	<path fill-rule="evenodd" clip-rule="evenodd" fill="#F4A9C8" d="M87.945,66.259c0.155,0.053,0.31,0.05,0.462-0.008
		c2.587-0.536,5.205-0.094,7.803-0.238c0.836,0.006,1.673-0.013,2.51,0.014c0.526,0.157,1.051,0.314,1.325,0.859
		c-0.617,1.264-1.819,0.852-2.829,0.993c-2.206-0.233-4.271,0.146-6.199,1.303c-2.858,1.716-6.271,1.703-9.296,2.917
		c-0.429-0.351-0.54-0.841-0.604-1.353c-0.069-0.973,0.03-1.959-0.221-2.92c-0.055-0.383-0.013-0.749,0.174-1.093
		c0.21-0.22,0.423-0.222,0.637-0.007c0.322-0.022,0.644-0.044,0.966-0.066c1.167-0.647,2.48-0.257,3.702-0.524
		c0.262-0.112,0.485-0.06,0.67,0.157C87.346,66.281,87.646,66.271,87.945,66.259z"/>
	<path fill-rule="evenodd" clip-rule="evenodd" fill="#9C2F62" d="M73.465,73.441c0.048-0.484,0.096-0.969,0.145-1.453
		c0.505-0.368,0.399-0.914,0.418-1.424c0.245-0.193,0.492-0.458,0.798-0.465c2.206-0.053,4.307-0.412,6.062-1.893
		c0.612,1.194,0.245,2.464,0.298,3.701c-0.03,0.313-0.139,0.614-0.176,0.925c-0.42,3.477-0.416,3.516-3.978,3.7
		c-1.22,0.063-2.124,0.373-2.593,1.596c-0.158,0.415-0.463,0.866-1.067,0.497C72.648,76.883,72.583,75.154,73.465,73.441z"/>
	<path fill-rule="evenodd" clip-rule="evenodd" fill="#A03366" d="M80.736,68.17c-0.281,2.407-1.92,2.592-3.85,2.41
		c-0.945-0.089-1.906-0.016-2.859-0.016c-0.328-2.558-0.186-4.498,3.389-4.022c1.363,0.182,2.873-0.702,4.291,0.183l-0.131,0.065
		l-0.145-0.022C80.656,66.966,81.254,67.846,80.736,68.17z"/>
	<path fill-rule="evenodd" clip-rule="evenodd" fill="#842955" d="M87.045,66.293l-0.174,0.057l-0.175-0.056
		c-1.189,0.255-2.377,0.353-3.555-0.062C84.454,65.536,85.758,65.448,87.045,66.293z"/>
	<path fill-rule="evenodd" clip-rule="evenodd" fill="#793C59" d="M83.142,66.231c1.185,0.021,2.368,0.042,3.554,0.062
		c-1.303,0.537-2.67,0.373-4.022,0.366C82.829,66.517,82.985,66.375,83.142,66.231z"/>
	<path fill-rule="evenodd" clip-rule="evenodd" fill="#EE9EC1" d="M104.755,68.146c0.95,0.347,1.899,0.694,2.85,1.041
		c0.169,0.295,0.339,0.591,0.508,0.886c-0.06,1.456-1.438,1.935-2.194,2.854c-1.331,1.618-2.833,3.109-4.642,4.236
		c-1.712-0.419-3.457-0.766-4.799-2.052C99.128,72.66,101.36,69.712,104.755,68.146z"/>
	<path fill-rule="evenodd" clip-rule="evenodd" fill="#EE9ABE" d="M101.276,76.854c2.278-2.26,4.558-4.521,6.836-6.782
		c0.79,0.501,1.58,1.003,2.369,1.505c0.016,0.126,0.03,0.253,0.042,0.38c0.329,0.467,0.207,0.914-0.113,1.307
		c-1.958,2.409-3.994,4.736-6.866,6.124c-0.85-0.118-1.427-0.658-1.961-1.267C101.337,77.734,101.142,77.333,101.276,76.854z"/>
	<path fill-rule="evenodd" clip-rule="evenodd" fill="#EE95BD" d="M103.373,79.2c2.646-2.155,5.42-4.184,7.15-7.243
		c0.841,1.135,1.682,2.27,2.522,3.404c0.002,0.145,0.013,0.288,0.031,0.431c-1.653,2.258-3.923,3.875-5.982,5.705
		c-0.633,0.562-1.39,1.093-2.368,0.797C103.737,81.498,102.969,80.605,103.373,79.2z"/>
	<path fill-rule="evenodd" clip-rule="evenodd" fill="#E581B0" d="M81.707,108.001c0-1.439,0-2.879-0.001-4.319
		c2.857-1.238,5.903-0.672,8.864-0.877c0.769-0.054,1.158,0.737,1.438,1.414c0.321,0.578,0.854,0.746,1.476,0.739
		c1.52,0.081,3.021-0.005,4.482-0.459c2.596-0.433,4.222-2.089,5.412-4.294c0.329-0.563,0.478-1.279,1.235-1.485
		c2.156-0.36,4.126-1.194,5.963-2.36c0.809-0.513,1.577-1.092,2.438-1.519c2.048-1.014,2.523-0.728,2.762,1.64
		c0.005,0.48,0.008,0.961,0.013,1.442c-0.316,0.803-0.633,1.605-0.949,2.408c-8.966,4.884-18.604,7.465-28.737,8.231
		C84.661,108.672,83.076,108.915,81.707,108.001z"/>
	<path fill-rule="evenodd" clip-rule="evenodd" fill="#E57DAF" d="M81.707,108.001c10.815,0.071,21.05-2.333,30.714-7.186
		c0.748-0.376,1.468-1.062,2.42-0.484c-0.144,0.638-0.286,1.276-0.43,1.914c-0.212,0.31-0.425,0.619-0.638,0.929
		c-0.614-1.027-1.336-0.688-2.208-0.299c-5.294,2.365-10.776,4.217-16.495,5.178c-3.634,0.61-7.278,1.419-11.031,1.02
		c-0.755-0.08-1.554,0.235-2.332,0.368C81.707,108.961,81.707,108.48,81.707,108.001z"/>
	<path fill-rule="evenodd" clip-rule="evenodd" fill="#734158" d="M96.594,66.182c-2.729,0.023-5.457,0.046-8.187,0.069
		c2.671-1.079,5.456-0.237,8.177-0.481c0.154,0.088,0.208,0.178,0.159,0.271C96.693,66.135,96.645,66.182,96.594,66.182z"/>
	<path fill-rule="evenodd" clip-rule="evenodd" fill="#713351" d="M99.925,66.781c-0.361-0.149-0.722-0.298-1.083-0.447
		c0.085-0.311,0.406-0.348,0.606-0.526c0.763,0.379,1.574,0.492,2.416,0.439c0.007,0.156,0.007,0.313,0.001,0.47
		c-0.155,0.196-0.353,0.328-0.592,0.399C100.771,67.216,100.306,67.166,99.925,66.781z"/>
	<path fill-rule="evenodd" clip-rule="evenodd" fill="#6E304D" d="M99.448,65.807c-0.202,0.175-0.403,0.35-0.605,0.526
		c-0.75-0.05-1.5-0.101-2.249-0.151c-0.005-0.137-0.008-0.274-0.01-0.412C97.538,65.782,98.493,65.794,99.448,65.807z"/>
	<path fill-rule="evenodd" clip-rule="evenodd" fill="#F1A2C5" d="M104.755,68.146c-2.209,2.015-4.458,3.988-6.6,6.073
		c-0.523,0.509-1.021,0.661-1.653,0.707c-1.018,0.992-2.611,0.216-3.626,1.195c-1.054,1.507,0.131,3.438-0.941,4.933
		c-0.222,0.177-0.449,0.185-0.684,0.026c-0.426-2.392-1.823-2.712-4.013-2.235c-1.859,0.405-3.867,1.161-5.75-0.132
		c-0.555-1.023-0.521-2.066-0.12-3.123c0.571-0.867,1.493-0.81,2.354-0.843c5.643-0.219,10.548-2.197,14.62-6.134
		c0.967-0.934,2.091-1.411,3.397-1.534c0.819-0.3,1.406,0.232,2.046,0.574c0.311,0.033,0.621,0.066,0.932,0.098
		C104.736,67.882,104.748,68.014,104.755,68.146z"/>
	<path fill-rule="evenodd" clip-rule="evenodd" fill="#834361" d="M103.786,67.652c-0.646-0.131-1.292-0.262-1.938-0.394
		c-0.407,0.137-0.562-0.075-0.608-0.438c0.208-0.035,0.417-0.07,0.625-0.104C102.678,66.675,103.409,66.8,103.786,67.652z"/>
	<path fill-rule="evenodd" clip-rule="evenodd" fill="#852D57" d="M36.627,36.44c0.135,0.033,0.27,0.07,0.401,0.114
		c0.198,0.19,0.356,0.412,0.475,0.661c0.255,0.801,0.244,1.627,0.233,2.454c0.053,2.248-0.053,4.495,0.023,6.742
		c0.052,0.429-0.017,0.856-0.003,1.285c0.389,2.181-0.637,4.267-0.431,6.436c0.603,1.216,0.386,2.522,0.429,3.801
		c0.045,0.839,0.015,1.677-0.012,2.516c0.03,0.831,0.025,1.661,0.003,2.492c0.046,1.384-0.056,2.767-0.009,4.151
		c0.028,0.691,0.04,1.383,0.009,2.075c0.032,1.245,0.034,2.49,0,3.735c-0.065,1.526,0.256,3.085-0.384,4.562
		c-0.098,0.102-0.197,0.201-0.297,0.302c-0.15-0.001-0.301-0.004-0.45-0.011c-0.012-0.316-0.023-0.634-0.036-0.951
		c-0.004-2.72-0.008-5.439-0.012-8.159c-0.001-1.599-0.002-3.197-0.003-4.796c-0.004-4-0.008-8.001-0.012-12.002
		c-0.002-1.439-0.003-2.878-0.004-4.317C36.574,43.833,36.601,40.137,36.627,36.44z"/>
	<path fill-rule="evenodd" clip-rule="evenodd" fill="#E685B3" d="M115.777,96.48c-0.522-1.833-1.583-1.986-2.965-0.902
		c-2.162,1.696-4.639,2.742-7.184,3.699c-0.649,0.244-0.834,0.217-0.901-0.43c-0.378-0.37-0.418-0.832-0.36-1.32
		c0.211-0.766,0.23-1.58,0.578-2.312c0.122-0.184,0.294-0.295,0.508-0.335c2.691-2.055,5.801-3.453,8.556-5.424
		c1.725-1.233,1.821-1.13,2.009,1.119c0.021,0.24,0.068,0.461,0.254,0.631c0.01,1.12,0.019,2.24,0.029,3.36
		C116.126,95.205,115.952,95.842,115.777,96.48z"/>
	<path fill-rule="evenodd" clip-rule="evenodd" fill="#E98EB9" d="M114.812,78.741c0.313,0.978,0.627,1.955,0.94,2.932
		c0.02,0.595,0.038,1.19,0.058,1.786c0.604,1.209-0.156,1.933-0.953,2.628c-2.04,1.779-4.24,3.336-6.617,4.633
		c-1.962,1.071-2.472,0.785-2.655-1.457c-0.058-0.71-0.033-1.428-0.163-2.132c-0.028-0.241-0.007-0.481,0.053-0.716
		c0.592-1.315,1.879-1.825,2.968-2.576c2.201-1.517,4.073-3.413,5.979-5.268C114.555,78.62,114.685,78.677,114.812,78.741z"/>
	<path fill-rule="evenodd" clip-rule="evenodd" fill="#EA91B9" d="M114.421,78.571c-0.964,2.88-3.751,3.979-5.755,5.834
		c-0.86,0.796-1.956,1.339-2.945,1.997c-0.56-0.3-0.771-0.83-0.937-1.395c-0.132-0.665-0.235-1.336-0.353-2.006
		c-0.019-0.356,0.054-0.679,0.343-0.92c2.841-0.913,4.397-3.476,6.597-5.211c0.551-0.435,0.923-1.04,1.706-1.078
		c0.238,0.225,0.476,0.45,0.712,0.675C113.999,77.169,114.21,77.87,114.421,78.571z"/>
	<path fill-rule="evenodd" clip-rule="evenodd" fill="#E689B4" d="M105.743,86.881c0.965,1.172,0.072,2.628,0.673,4.049
		c3.459-1.551,6.407-3.817,9.171-6.343c0.228-0.208,0.155-0.744,0.223-1.128c0.13,0.065,0.257,0.135,0.382,0.208
		c0.026,2.513,0.053,5.026,0.08,7.539c-0.761-0.465-0.298-1.325-0.798-2.273c-2.801,2.85-6.797,3.768-9.552,6.611
		c-0.09-0.202-0.18-0.404-0.269-0.606C104.711,92.241,104.584,89.554,105.743,86.881z"/>
	<path fill-rule="evenodd" clip-rule="evenodd" fill="#E582B0" d="M72.587,107.041c-3.127-0.222-6.088-1.238-9.118-1.92
		c0-1.439-0.002-2.879-0.002-4.319c0.108-0.086,0.218-0.172,0.326-0.26c2.833-0.269,5.335,1.117,8.015,1.622
		c0.677,0.128,1.064,0.652,1.005,1.393C72.719,104.717,73.075,105.906,72.587,107.041z"/>
	<path fill-rule="evenodd" clip-rule="evenodd" fill="#E07FAD" d="M63.063,100.802c-0.051-1.277-0.102-2.555-0.153-3.832
		c-0.812-1.101-0.604-2.287-0.293-3.483c0.125-0.261,0.329-0.427,0.608-0.499c0.282,0.07,0.484,0.237,0.609,0.5
		c0.437,1.195,0.257,2.442,0.302,3.672c0.005,1.256,0.229,2.553-0.668,3.643h-0.002C63.332,100.802,63.198,100.802,63.063,100.802z"
		/>
	<path fill-rule="evenodd" clip-rule="evenodd" fill="#8E2557" d="M73.598,91.684c0.003-2.087,0.006-4.174,0.009-6.261
		c0.499-1.372-0.424-3.101,0.441-4.136c0.831-0.993,2.552-0.286,3.868-0.589c1.036-0.239,1.785-1.436,3.028-0.894
		c0.798,1.692,0.413,3.458,0.332,5.206c-0.268,0.869-0.356,1.787-0.687,2.64c-0.119,0.225-0.295,0.397-0.517,0.52
		c-0.885,0.382-1.837,0.366-2.755,0.288c-1.826-0.157-2.848,0.484-2.769,2.438c-0.056,0.244-0.157,0.467-0.299,0.673
		C74.064,91.786,73.847,91.824,73.598,91.684z"/>
	<path fill-rule="evenodd" clip-rule="evenodd" fill="#EA8EB8" d="M73.049,91.669c0.002,1.441,0.004,2.882,0.005,4.323
		c-3.518,0.122-6.812-0.504-9.586-2.869l-0.001,0.001c-0.991-1.399-0.72-2.909-0.39-4.423c0.683-1.032,1.557-0.42,2.319-0.199
		c2.338,0.676,4.587,1.626,6.924,2.314C72.672,91.007,72.841,91.355,73.049,91.669z"/>
	<path fill-rule="evenodd" clip-rule="evenodd" fill="#96295E" d="M80.736,79.689c-1.101,1.667-2.889,2.021-4.582,1.842
		c-1.879-0.199-2.398,0.363-2.147,2.105c0.088,0.604,0.162,1.29-0.4,1.786c-0.051-1.594-0.101-3.187-0.151-4.78
		c-0.486-0.681-0.474-1.322,0.152-1.915c0.186-2.375,1.355-3.393,3.789-2.898c2.222,0.452,3.239-0.458,2.903-2.785
		c-0.046-0.317,0.28-0.688,0.435-1.034C81.887,74.57,81.351,77.129,80.736,79.689z"/>
	<path fill-rule="evenodd" clip-rule="evenodd" fill="#E685B2" d="M63.469,100.802c0-1.28,0-2.56,0-3.84
		c0.771-0.663,1.631-0.499,2.489-0.252c1.224,0.353,2.439,0.812,3.694,0.959c2.211,0.258,3.439,1.292,3.401,3.602
		c-0.021,1.908-0.044,3.815-0.074,5.723c-0.001,0.043-0.105,0.113-0.166,0.118c-0.073,0.006-0.151-0.044-0.227-0.07
		c0-3.986-0.015-3.927-3.869-4.907C66.969,101.689,65.283,100.997,63.469,100.802z"/>
	<path fill-rule="evenodd" clip-rule="evenodd" fill="#EE9ABF" d="M73.077,80.645c-0.009,2.239-0.018,4.478-0.026,6.717
		c-0.112,0.047-0.225,0.094-0.336,0.142c-0.226-0.108-0.39-0.277-0.493-0.505c-0.117-1.73-0.898-2.699-2.664-3.341
		c-2.317-0.843-4.784-1.641-6.451-3.712c-0.369-1.133-0.403-2.262,0.028-3.387c1.176-1.178,2.194-0.191,3.137,0.339
		c1.98,1.114,3.939,2.249,6.137,2.898c0.229,0.115,0.414,0.279,0.558,0.491C73.004,80.404,73.041,80.524,73.077,80.645z"/>
	<path fill-rule="evenodd" clip-rule="evenodd" fill="#E689B4" d="M73.054,101.271c-0.263-2.191-1.867-2.656-3.683-2.928
		c-2.002-0.299-3.818-1.415-5.902-1.381c0-1.279,0-2.56-0.001-3.839c3.056,1.423,6.375,1.967,9.587,2.869
		C73.054,97.752,73.054,99.511,73.054,101.271z"/>
	<path fill-rule="evenodd" clip-rule="evenodd" fill="#832250" d="M80.754,95.031c-0.005,0.646-0.01,1.293-0.016,1.939
		c-0.476,2.414-0.914,2.792-3.919,2.958c-1.181,0.065-2.316-0.026-2.213,1.66c-0.044,0.37-0.156,0.716-0.366,1.026
		c-0.188,0.218-0.406,0.253-0.654,0.109c0.002-1.447,0.003-2.894,0.005-4.34c0.469-1.059,0.019-2.195,0.277-3.272
		c0.136-0.222,0.323-0.381,0.562-0.482c0.749-0.274,1.534-0.273,2.309-0.24c1.503,0.063,2.821-0.047,3.105-1.961
		c0.069-0.471,0.361-1.129,1.125-0.601C81.55,92.941,81.537,94.014,80.754,95.031z"/>
	<path fill-rule="evenodd" clip-rule="evenodd" fill="#79204A" d="M73.586,102.725c0.147-0.002,0.294-0.003,0.441-0.003
		c1.049,1.76,1.08,3.521,0,5.28c-0.198,1.271,0.454,2.644-0.452,3.831C73.579,108.797,73.582,105.761,73.586,102.725z"/>
	<path fill-rule="evenodd" clip-rule="evenodd" fill="#E685B2" d="M73.607,78.728c-0.05,0.638-0.102,1.276-0.152,1.915
		c-0.126,0-0.252,0.001-0.378,0.002l-0.027-0.006c-1.035-2.092-0.694-4.286-0.481-6.471c0.102-0.287,0.271-0.526,0.504-0.721
		c0.131-0.001,0.262-0.002,0.393-0.005C73.512,75.204,73.561,76.966,73.607,78.728z"/>
	<path fill-rule="evenodd" clip-rule="evenodd" fill="#EE97BD" d="M72.587,87.363c0.155,0,0.31-0.001,0.464-0.002
		c0,1.437-0.001,2.872-0.001,4.308c-0.154-0.155-0.309-0.311-0.463-0.466C71.701,89.923,71.611,88.644,72.587,87.363z"/>
	<path fill-rule="evenodd" clip-rule="evenodd" fill="#872153" d="M74.027,95.043c-0.175,1.11,0.408,2.319-0.437,3.342
		c0.003-1.113,0.005-2.228,0.008-3.341C73.74,94.889,73.884,94.888,74.027,95.043z"/>
	<path fill-rule="evenodd" clip-rule="evenodd" fill="#8A2356" d="M74.027,95.043c-0.144,0-0.286,0-0.43,0.001c0-1.12,0-2.24,0-3.36
		c0.143-0.001,0.285-0.001,0.429-0.001C74.914,92.802,74.844,93.922,74.027,95.043z"/>
	<path fill-rule="evenodd" clip-rule="evenodd" fill="#7A1E4A" d="M74.027,108.002c0-1.76,0-3.521,0-5.28c0-0.32,0-0.64,0-0.959
		c2.237-1.128,4.475-1.135,6.711,0.003c0,1.441,0,2.884-0.001,4.326c-0.135,0.19-0.323,0.362-0.396,0.573
		c-0.345,1.013,0.535,2.568-0.643,3.033c-1.175,0.464-2.652,0.123-3.988,0.228C74.224,110.042,74.787,108.464,74.027,108.002z"/>
	<path fill-rule="evenodd" clip-rule="evenodd" fill="#7E214D" d="M80.738,101.766c-2.237-0.001-4.475-0.002-6.711-0.003
		c-0.354-2.008,0.258-2.804,2.475-2.461c1.814,0.282,3.583-0.183,4.236-2.332C80.738,98.568,80.738,100.167,80.738,101.766z"/>
	<path fill-rule="evenodd" clip-rule="evenodd" fill="#9F396A" d="M80.754,95.031c-0.002-1.115-0.005-2.232-0.008-3.349
		c-0.935-1.172-0.737-2.44-0.321-3.727c0.261-0.816-0.158-1.72,0.316-2.51c-0.001-1.919-0.003-3.838-0.005-5.758
		c0-2.559-0.001-5.118-0.002-7.677c0.001-1.281,0.001-2.561,0.002-3.841c0.041-0.561-0.091-1.208,0.694-1.401
		c-0.05,0.312-0.101,0.624-0.151,0.935c0.361,1.009,0.1,2.053,0.18,3.079c0.58,3.727-0.308,7.51,0.447,11.229
		c-0.014,2.269-0.01,4.538,0,6.806c-0.29,2.076,0.659,4.303-0.754,6.243C81.02,95.051,80.887,95.042,80.754,95.031z"/>
	<path fill-rule="evenodd" clip-rule="evenodd" fill="#E585B2" d="M81.152,95.061c0.052-2.088,0.104-4.176,0.154-6.263
		c0.271-0.124,0.489-0.062,0.657,0.185c0.135,0.225,0.225,0.467,0.277,0.723c0.153,1.03,0.104,2.068,0.124,3.105
		c0.034,1.321,0.035,2.643,0.002,3.964c-0.025,0.94,0.074,1.897-0.378,2.779c-0.094,0.098-0.189,0.194-0.285,0.291
		c-0.139-0.002-0.276-0.005-0.415-0.01C81.244,98.243,81.198,96.652,81.152,95.061z"/>
	<path fill-rule="evenodd" clip-rule="evenodd" fill="#7E214E" d="M62.504,101.764c-7.455,0.266-14.811-0.978-22.214-1.497
		c-1.912-0.135-3.917-0.486-3.217-3.306c0.918-0.762,1.963-0.45,2.981-0.35c6.651,0.655,13.276,1.642,19.987,1.554
		c0.883-0.011,1.758,0.08,2.462,0.718C62.504,99.844,62.504,100.804,62.504,101.764z"/>
	<path fill-rule="evenodd" clip-rule="evenodd" fill="#82214E" d="M62.504,98.883c-8.545,0.262-16.981-0.916-25.431-1.922
		c0.001-0.8,0.001-1.6,0.001-2.398c2.393-0.883,4.738,0.07,7.059,0.339c5.393,0.621,10.819,0.758,16.21,1.354
		c0.636,0.07,1.276,0.082,1.854,0.403c0.106,0.1,0.211,0.2,0.315,0.301C62.51,97.601,62.507,98.242,62.504,98.883z"/>
	<path fill-rule="evenodd" clip-rule="evenodd" fill="#932F5F" d="M63.063,93.116c-0.051,1.284-0.102,2.569-0.153,3.854
		c-0.133-0.005-0.265-0.008-0.397-0.011l-0.005,0.003c-0.954-1.098-0.559-2.444-0.684-3.695c-0.06-0.843,0.072-1.687-0.004-2.53
		c0.079-0.984-0.096-2.021,0.576-2.887c0.287-0.16,0.54-0.115,0.758,0.131C63.21,89.693,63.368,91.409,63.063,93.116z"/>
	<path fill-rule="evenodd" clip-rule="evenodd" fill="#E585B2" d="M91.771,105.12c-0.505-1.719-1.424-2.03-3.261-1.649
		c-2.188,0.454-4.529,0.174-6.805,0.211c-0.001-1.279-0.001-2.559-0.002-3.837l0.003-0.004c3.069-1.219,6.271-0.782,9.44-0.751
		c0.938,0.686,0.735,1.836,1.126,2.746C92.388,102.973,92.709,104.144,91.771,105.12z"/>
	<path fill-rule="evenodd" clip-rule="evenodd" fill="#862152" d="M62.504,90.727c0,0.799,0.001,1.599,0.002,2.398
		c-0.094,1.765-0.857,2.734-2.793,2.644c-7.156-0.334-14.291-0.887-21.372-2.014c-0.481-0.077-0.896-0.318-1.266-0.634
		c0-1.28-0.001-2.56-0.001-3.84c0.691-0.599,1.491-0.395,2.272-0.301c6.215,0.743,12.437,1.396,18.68,1.858
		C59.544,90.951,61.011,90.676,62.504,90.727z"/>
	<path fill-rule="evenodd" clip-rule="evenodd" fill="#92255A" d="M37.072,81.123c0-0.799,0-1.599,0-2.398
		c1.4-1.146,2.92-0.434,4.371-0.218c6.784,1.007,13.577,1.89,20.45,1.945c0.249,0.002,0.454,0.135,0.671,0.238
		c0.714,0.975,0.69,1.959,0.044,2.953c-1.539,0.954-3.263,0.682-4.89,0.549c-6.024-0.488-12.043-1.077-18.014-2.054
		C38.762,81.984,37.815,81.811,37.072,81.123z"/>
	<path fill-rule="evenodd" clip-rule="evenodd" fill="#8E2556" d="M37.073,85.442c0-0.8,0-1.599-0.001-2.399
		c0.917-0.771,1.96-0.466,2.964-0.312c5.409,0.83,10.855,1.331,16.294,1.912c2.068,0.221,4.106-0.015,6.151-0.258
		c0.813,0.888,0.727,1.866,0.296,2.882c-0.312,0.309-0.574,0.673-0.962,0.903c-2.459,0.683-4.91-0.071-7.35-0.17
		c-5.171-0.209-10.319-0.883-15.431-1.752C38.32,86.128,37.629,85.949,37.073,85.442z"/>
	<path fill-rule="evenodd" clip-rule="evenodd" fill="#8B2456" d="M37.073,85.442c4.859,0.525,9.715,1.087,14.579,1.563
		c3.453,0.338,6.916,0.562,10.376,0.837c0.803,2.067-0.42,2.514-2.089,2.628c-3.515,0.239-6.997-0.249-10.479-0.545
		c-3.404-0.288-6.809-0.68-10.183-1.27c-0.787-0.139-1.581-0.241-2.204-0.813C37.073,87.043,37.073,86.242,37.073,85.442z"/>
	<path fill-rule="evenodd" clip-rule="evenodd" fill="#8F2559" d="M62.505,84.484c-1.983,1.872-4.415,0.996-6.587,0.826
		c-5.122-0.401-10.215-1.165-15.319-1.789c-1.178-0.144-2.351-0.317-3.526-0.477c0-0.64,0-1.28,0-1.92
		c4.259,0.227,8.423,1.187,12.676,1.554c4.25,0.368,8.479,0.934,12.758,0.847C62.761,83.844,62.761,84.164,62.505,84.484z"/>
	<path fill-rule="evenodd" clip-rule="evenodd" fill="#832151" d="M37.075,93.121c6.231,0.611,12.46,1.252,18.696,1.816
		c1.664,0.15,3.354,0.005,5.025,0.117c1.505,0.101,0.955-1.458,1.709-1.93c0.001,1.278,0.001,2.559,0.002,3.837
		c-8.516-0.401-17.023-0.882-25.434-2.399C37.074,94.082,37.074,93.602,37.075,93.121z"/>
	<path fill-rule="evenodd" clip-rule="evenodd" fill="#8A2056" d="M37.073,87.843c5.482,0.575,10.971,1.104,16.445,1.748
		c2.46,0.289,4.911,0.109,7.364,0.147c1.37,0.021,1.088-1.065,1.146-1.896c0.158-0.159,0.317-0.319,0.476-0.479
		c0.123,0.104,0.166,0.209,0.127,0.315c-0.039,0.107-0.078,0.16-0.118,0.16c-0.003,0.963-0.006,1.925-0.009,2.887
		c-1.557,1.842-3.535,0.75-5.305,0.665c-5.564-0.267-11.104-0.861-16.624-1.628c-1.167-0.162-2.334-0.321-3.501-0.482
		C37.074,88.802,37.073,88.322,37.073,87.843z"/>
	<path fill-rule="evenodd" clip-rule="evenodd" fill="#932A5C" d="M62.503,80.643c-1.739,0.896-3.635,0.598-5.407,0.425
		c-5.898-0.575-11.817-1.039-17.641-2.246c-0.768-0.159-1.587-0.072-2.383-0.098c-0.002-0.32-0.005-0.64-0.007-0.959l0.013-0.005
		c0.598-1.107,1.657-1.245,2.695-1.077c7.395,1.199,14.855,1.823,22.302,2.577c0.425,0.2,0.684,0.505,0.63,1.005
		C62.638,80.392,62.57,80.518,62.503,80.643z"/>
	<path fill-rule="evenodd" clip-rule="evenodd" fill="#AE3A72" d="M37.074,54.246c-0.002-2.24-0.003-4.479-0.005-6.719
		c1.049-0.863,2.138-0.39,3.177-0.031c6.899,2.383,14.003,3.875,21.253,4.509c14.404,1.259,28.462-0.32,42.096-5.373
		c5.542-2.054,10.504-4.976,14.945-8.823c0.758-0.656,1.655-0.915,2.518-1.302c2.239,0.002,4.479,0.004,6.718,0.006
		c-3.686,4.517-8.401,7.637-13.491,10.379c-8.636,4.654-17.931,7.137-27.513,8.574c-7.94,1.191-15.926,1.473-23.997,0.85
		c-7.808-0.603-15.402-2.047-22.914-4.06c-2.166-0.58-2.521,0.187-2.311,1.989C37.391,54.417,37.232,54.409,37.074,54.246z"/>
	<path fill-rule="evenodd" clip-rule="evenodd" fill="#AA356E" d="M37.074,54.246c0.158,0,0.316,0,0.476,0
		c3.959,0.92,7.888,2.358,11.886,2.586c2.881,0.165,5.544,1.45,8.603,1.02c1.548-0.218,3.536,0.855,5.432,0.715
		c0.157,0.106,0.208,0.211,0.153,0.313c-0.054,0.102-0.108,0.152-0.162,0.152c-0.149,0.19-0.298,0.38-0.447,0.571
		c0.941,1.082,0.609,2.401,0.629,3.633c0.035,2.288,0.056,4.579-0.02,6.868c-0.029,0.439-0.121,0.862-0.364,1.238
		c-0.184,0.25-0.43,0.344-0.734,0.283c-0.461-0.389-0.565-0.928-0.627-1.485c-0.053-0.659-0.043-1.321-0.035-1.982
		c-0.024-0.647-0.014-1.295-0.007-1.943c-0.032-0.642-0.014-1.285-0.007-1.926c0.386-2.105-0.493-2.646-2.591-2.719
		c-6.003-0.21-11.882-1.454-17.724-2.795c-1.48-0.34-2.948-0.621-4.46-0.691C37.074,56.804,37.074,55.524,37.074,54.246z"/>
	<path fill-rule="evenodd" clip-rule="evenodd" fill="#852F57" d="M63.461,59.032c-0.002-0.155,0.001-0.311,0.009-0.466
		c2.452,0,4.904-0.021,7.354,0.015c0.752,0.011,1.605-0.296,2.211,0.468C69.843,59.043,66.651,59.038,63.461,59.032z"/>
	<path fill-rule="evenodd" clip-rule="evenodd" fill="#B23D76" d="M121.058,36.507c-2.643,2.278-5.262,4.538-8.3,6.354
		c-9.479,5.669-19.865,8.159-30.677,9.551c-3.318,0.427-6.658,0.537-9.952,0.726c-5.117,0.293-10.285-0.358-15.401-1.052
		c-6.158-0.835-12.146-2.344-18.003-4.403c-0.508-0.178-1.102-0.111-1.655-0.157c0-0.32,0-0.64,0.001-0.96
		c0.519-0.979,0.194-2.03,0.232-3.045c0.085-2.263,0.488-2.588,2.566-1.629c4.963,2.292,10.168,3.839,15.534,4.698
		c15.297,2.45,30.353,1.851,44.85-4.229c2.864-1.201,5.628-2.661,8.196-4.437c0.933-0.645,1.975-1.011,3.009-1.417
		C114.657,36.507,117.857,36.507,121.058,36.507z"/>
	<path fill-rule="evenodd" clip-rule="evenodd" fill="#B7417A" d="M37.061,39.365c0.001-0.799,0.003-1.598,0.004-2.397
		c2.245-0.51,4.34-0.268,6.444,0.802c7.836,3.983,16.255,5.478,24.975,5.733c10.711,0.314,20.987-1.431,30.645-6.206
		c1.521-0.752,3.148-0.265,4.649-0.793c1.6,0,3.199,0.001,4.799,0.002c-1.445,2.623-4.161,3.637-6.599,4.77
		c-9.092,4.227-18.706,6.25-28.751,6.477c-11.25,0.254-22.131-1.266-32.468-5.899C39.387,41.24,37.871,40.822,37.061,39.365z"/>
	<path fill-rule="evenodd" clip-rule="evenodd" fill="#BA427C" d="M103.777,36.505c-6.32,1.682-11.978,5.204-18.537,6.334
		c-7.493,1.292-14.938,1.695-22.506,0.93c-6.792-0.687-13.333-2.167-19.383-5.346c-2.036-1.069-4.006-1.763-6.286-1.456
		c-0.013-0.138-0.024-0.276-0.036-0.414c3.859-0.006,7.719-0.012,11.579-0.019c3.161,0.463,6.133,1.676,9.253,2.309
		c10.439,2.116,20.765,1.832,30.958-1.392c1.286-0.407,2.597-0.684,3.916-0.939C96.416,36.511,100.097,36.508,103.777,36.505z"/>
	<path fill-rule="evenodd" clip-rule="evenodd" fill="#B63E79" d="M37.061,39.365c7.841,3.878,16.01,6.451,24.804,7.275
		c13.662,1.28,26.843-0.104,39.451-5.751c2.601-1.165,4.852-2.903,7.261-4.382c0.961,0,1.921,0,2.882,0
		c-7.857,6.222-16.989,9.327-26.722,11.033c-6.723,1.178-13.516,1.275-20.256,0.86c-8.75-0.539-17.346-2.185-25.289-6.204
		c-1.194-0.604-1.549-0.304-1.658,0.924c-0.103,1.152,0.461,2.406-0.463,3.447C37.066,44.167,37.063,41.766,37.061,39.365z"/>
	<path fill-rule="evenodd" clip-rule="evenodd" fill="#BE467E" d="M92.735,36.513c-14.706,6.064-29.415,5.908-44.127,0.022
		c1.759-0.002,3.518-0.005,5.277-0.008c3.932,0.009,7.659,1.32,11.524,1.812c4.594,0.585,9.1,0.227,13.613-0.393
		c2.822-0.388,5.555-1.347,8.433-1.437C89.217,36.511,90.976,36.512,92.735,36.513z"/>
	<path fill-rule="evenodd" clip-rule="evenodd" fill="#C14984" d="M87.456,36.511c-8.97,3.006-18.134,3.8-27.356,1.686
		c-2.047-0.469-4.165-1.028-6.214-1.669C65.076,36.522,76.267,36.517,87.456,36.511z"/>
	<path fill-rule="evenodd" clip-rule="evenodd" fill="#F1A9C9" d="M73.072,73.446c-0.008,0.156-0.014,0.312-0.019,0.468
		c-0.163,0.066-0.41,0.079-0.429-0.02c-0.582-3.176-3.524-4.438-5.344-6.607c-0.254-0.303-0.609-0.542-0.782-0.889
		c-0.706-1.415-1.795-2.381-3.263-2.942c0.039-1.13-0.091-2.262,0.082-3.388c3.933-0.807,4.308-0.653,6.253,2.561
		c0.207,0.342,0.395,0.718,0.696,0.968c1.888,1.561,2.805,3.559,2.787,5.999C73.061,70.879,73.066,72.163,73.072,73.446z"/>
	<path fill-rule="evenodd" clip-rule="evenodd" fill="#F6AAC8" d="M73.055,69.596c0.033-3.049-3.154-4.248-3.94-6.643
		c-1.036-3.155-3.139-3.172-5.64-2.95c-0.145-0.087-0.192-0.174-0.145-0.261c0.048-0.087,0.097-0.131,0.146-0.131
		c3.201-0.209,6.403-0.213,9.606-0.018C73.073,62.928,73.063,66.262,73.055,69.596z"/>
	<path fill-rule="evenodd" clip-rule="evenodd" fill="#EEA0C2" d="M63.476,59.612c-0.002,0.131-0.002,0.261-0.001,0.392
		c-0.002,1.28-0.004,2.56-0.006,3.839c1.184,2.091,0.799,4.261,0.325,6.436c-0.163,0.304-0.407,0.396-0.731,0.276
		c-0.017-3.651-0.033-7.302-0.049-10.952C63.168,59.572,63.322,59.575,63.476,59.612z"/>
	<path fill-rule="evenodd" clip-rule="evenodd" fill="#F1A5C5" d="M101.24,66.821c0.202,0.146,0.405,0.292,0.608,0.437
		c-2.657,0.718-4.102,3.127-6.286,4.51c-4.238,2.683-8.866,3.828-13.856,3.597c-0.393-0.593-0.221-1.231-0.154-1.861
		c0.362-0.502,0.913-0.595,1.467-0.637c4.771-0.364,9.116-1.816,12.819-4.953c0.355-0.302,0.853-0.41,1.228-0.708
		c0.952-0.144,2.001,0.357,2.859-0.424C100.363,66.794,100.802,66.808,101.24,66.821z"/>
	<path fill-rule="evenodd" clip-rule="evenodd" fill="#F1A9C9" d="M97.065,67.205c-4.03,4.763-9.435,6.141-15.359,6.239
		c-0.325-0.479-0.323-0.959-0.001-1.44c0.768-0.825,1.606-1.369,2.824-1.487c2.848-0.277,5.494-1.285,7.916-2.798
		C93.935,66.789,95.531,67.403,97.065,67.205z"/>
	<path fill-rule="evenodd" clip-rule="evenodd" fill="#EB99BD" d="M81.705,72.004c0,0.48,0.001,0.96,0.001,1.44
		c0,0.64,0,1.28,0,1.92c0.001,1.119,0.001,2.239,0.001,3.358c0.758,0.948,0.736,1.967,0.275,3.026
		c-0.161,0.241-0.389,0.351-0.679,0.328c-0.007-3.84-0.013-7.681-0.02-11.521c0.146-0.203,0.286-0.209,0.42,0.013
		C81.704,71.047,81.705,71.526,81.705,72.004z"/>
	<path fill-rule="evenodd" clip-rule="evenodd" fill="#F1A9C9" d="M81.704,70.569c-0.141-0.003-0.28-0.007-0.42-0.013
		c-0.002-0.951-0.003-1.901-0.005-2.853C82.063,68.563,81.563,69.614,81.704,70.569z"/>
	<path fill-rule="evenodd" clip-rule="evenodd" fill="#95295E" d="M92.236,75.356c1.366-0.7,2.847-0.266,4.266-0.432
		c1.592,0.643,3.183,1.285,4.774,1.929c0.171,0.311,0.342,0.622,0.513,0.933c-0.162,0.562-0.455,1.113-1.027,1.228
		c-2.718,0.54-5.424,1.252-8.239,0.901c-0.261-0.033-0.366-0.273-0.469-0.488C92.105,78.069,91.828,76.697,92.236,75.356z"/>
	<path fill-rule="evenodd" clip-rule="evenodd" fill="#91255A" d="M92.342,79.688c2.452-0.322,4.899-0.706,7.361-0.934
		c0.872-0.081,1.421-0.587,2.086-0.968c0.528,0.471,1.056,0.942,1.583,1.414c0.468,0.961,0.935,1.921,1.402,2.882
		c0.002,0.317,0.004,0.635,0.006,0.953c-4.132,1.375-8.31,2.353-12.705,1.466C91.155,82.841,91.863,81.271,92.342,79.688z"/>
	<path fill-rule="evenodd" clip-rule="evenodd" fill="#7A1E4A" d="M103.804,100.363c-1.026,2.418-2.752,4.027-5.353,4.624
		c-2.076-0.25-4.204,0.707-6.25-0.269c-0.328-1.126-0.128-2.273-0.14-3.412c0.461-0.907,1.319-1.09,2.204-1.146
		c2.612-0.168,5.194-0.592,7.79-0.889C102.747,99.193,104.215,98.441,103.804,100.363z"/>
	<path fill-rule="evenodd" clip-rule="evenodd" fill="#7E214E" d="M103.804,100.363c-0.092-0.209-0.208-0.606-0.271-0.598
		c-3.742,0.484-7.48,1.003-11.219,1.519c-0.786-0.902-0.589-1.909-0.312-2.926c0.48-0.734,1.225-1.019,2.039-1.053
		c3.181-0.136,6.332-0.53,9.483-0.951c0.813-0.108,1.738-0.149,1.264,1.192c-0.02,0.434-0.04,0.867-0.061,1.302
		C104.42,99.354,104.112,99.858,103.804,100.363z"/>
	<path fill-rule="evenodd" clip-rule="evenodd" fill="#D57CA4" d="M92.316,98.39c-0.001,0.966-0.002,1.93-0.003,2.895
		c-0.001,1.121-0.002,2.243-0.004,3.364c0.254,0.394,1.121,0.097,1.013,0.898c-0.574,0.068-1.152,0.147-1.551-0.427
		c-0.004-1.128-0.009-2.256-0.014-3.384c-0.332-2.227-0.777-4.442-0.688-6.712c0.163-3.469-0.085-6.939,0.023-10.409
		c0.136-1.182-0.261-2.466,0.669-3.496c0.271-1.912-0.464-3.907,0.476-5.764c0.034,1.444,0.068,2.888,0.104,4.332
		c-0.001,1.599-0.004,3.198-0.006,4.797c0.588,0.722,0.61,1.582,0.604,2.45c0.089,1.274-0.021,2.551,0.031,3.826
		c0.076,1.712-0.094,3.424-0.018,5.137C93.036,96.805,92.735,97.613,92.316,98.39z"/>
	<path fill-rule="evenodd" clip-rule="evenodd" fill="#641E40" d="M93.322,105.547c-0.297-0.345-0.984-0.25-1.013-0.898
		c2.044,0.164,4.129-0.39,6.142,0.339C96.789,105.607,95.048,105.508,93.322,105.547z"/>
	<path fill-rule="evenodd" clip-rule="evenodd" fill="#EE9EC1" d="M81.705,82.084c0.001-1.121,0.002-2.241,0.002-3.362
		c2.473,0.15,4.943-0.156,7.271-0.837c2.015-0.59,2.596-0.169,2.337,1.808c-0.061,0.469-0.009,0.953-0.009,1.43
		c-0.087,0.104-0.173,0.209-0.258,0.314c-2.916,1.294-5.921,1.723-9.053,0.933C81.898,82.276,81.802,82.18,81.705,82.084z"/>
	<path fill-rule="evenodd" clip-rule="evenodd" fill="#EE9EC1" d="M91.762,81.12c0.002,1.12,0.003,2.239,0.004,3.359
		c-0.29,0.147-0.527,0.086-0.714-0.181c-0.518-1.106-0.526-2.171,0.254-3.174v-0.001C91.458,81.123,91.609,81.122,91.762,81.12z"/>
	<path fill-rule="evenodd" clip-rule="evenodd" fill="#96295E" d="M62.507,79.684c-7.385-0.075-14.679-1.019-21.94-2.282
		c-1.187-0.207-2.38-0.283-3.488,0.359c0-1.6,0-3.2,0-4.8c0.726-0.642,1.596-0.681,2.477-0.529
		c7.213,1.245,14.482,1.996,21.773,2.574c0.474,0.038,0.955,0.079,1.346,0.407C63.096,76.855,63.284,78.289,62.507,79.684z"/>
	<path fill-rule="evenodd" clip-rule="evenodd" fill="#9A2E62" d="M62.502,75.367c-2.753,0.501-5.484,0.013-8.201-0.286
		c-5.749-0.632-11.482-1.405-17.223-2.121c0-1.279,0-2.558,0-3.837c0.957-0.822,2.079-0.716,3.183-0.504
		c6.812,1.309,13.677,2.189,20.59,2.715c0.652,0.049,1.246,0.245,1.782,0.623C63.305,73.122,63.389,74.263,62.502,75.367z"/>
	<path fill-rule="evenodd" clip-rule="evenodd" fill="#A6366A" d="M37.074,58.083c0.612-0.692,1.176-0.939,2.244-0.641
		c6.804,1.897,13.725,3.327,20.803,3.452c2.902,0.052,2.363,1.763,2.383,3.433c-0.788,0.695-1.74,0.707-2.701,0.617
		c-6.881-0.648-13.7-1.668-20.419-3.318c-0.863-0.212-1.678-0.479-2.309-1.142C37.075,59.685,37.074,58.884,37.074,58.083z"/>
	<path fill-rule="evenodd" clip-rule="evenodd" fill="#A23269" d="M37.075,60.485c5.553,1.131,11.079,2.42,16.717,3.076
		c2.895,0.336,5.808,0.516,8.713,0.767c-0.001,0.639-0.001,1.278-0.001,1.918c-1.259,1.002-2.743,0.777-4.141,0.614
		c-6.334-0.738-12.67-1.491-18.883-3.001c-0.852-0.207-1.728-0.342-2.405-0.974C37.075,62.085,37.075,61.285,37.075,60.485z"/>
	<path fill-rule="evenodd" clip-rule="evenodd" fill="#A23266" d="M37.075,62.885c4.142,0.206,8.065,1.658,12.181,2.088
		c4.414,0.462,8.776,1.419,13.249,1.273c-0.001,0.64-0.001,1.279-0.001,1.919c-0.871,0.771-1.92,0.682-2.957,0.581
		c-6.277-0.613-12.531-1.412-18.714-2.675c-1.276-0.261-2.378-0.367-3.044,1.024c-0.208,0.226-0.445,0.261-0.711,0.108
		C37.077,65.764,37.076,64.324,37.075,62.885z"/>
	<path fill-rule="evenodd" clip-rule="evenodd" fill="#9E2E62" d="M37.078,67.203c0.157,0.001,0.314,0.002,0.472,0.002
		c0.762-0.652,1.637-0.515,2.507-0.348c6.665,1.285,13.346,2.434,20.153,2.628c0.799,0.023,1.588,0.178,2.294,0.603
		c0.002,0.479,0.004,0.957,0.006,1.436c0.122,0.108,0.161,0.216,0.119,0.323c-0.042,0.106-0.084,0.159-0.125,0.159
		c-7.387-0.079-14.643-1.297-21.879-2.611c-1.197-0.217-2.364-0.201-3.547-0.271C37.078,68.483,37.078,67.843,37.078,67.203z"/>
	<path fill-rule="evenodd" clip-rule="evenodd" fill="#8A2356" d="M92.324,90.711c0.004-1.275,0.008-2.551,0.012-3.825
		c1.682-1.313,3.74-1.094,5.663-1.307c2.399-0.266,4.748-1.239,7.223-0.615c0.167,0.479,0.333,0.958,0.499,1.438
		c0.008,0.16,0.015,0.319,0.022,0.479c-0.029,2.687-0.06,5.372-0.09,8.057c-0.121,0.077-0.246,0.148-0.375,0.212
		c-0.744-0.608-0.677-1.47-0.721-2.295c-0.055-3.284-0.047-3.212-3.332-2.866C98.267,90.3,95.354,91.27,92.324,90.711z"/>
	<path fill-rule="evenodd" clip-rule="evenodd" fill="#83214F" d="M105.22,92.646c0.019,0.834,0.038,1.668,0.058,2.503
		c-0.025,0.827,0.076,1.681-0.489,2.397c-0.078-0.215-0.179-0.625-0.231-0.619c-4.083,0.467-8.161,0.966-12.24,1.462
		c0-0.802,0-1.604-0.001-2.406c-0.041-2.072,1.124-2.623,3.004-2.628c2.381-0.007,4.732-0.488,7.093-0.801
		C103.349,92.432,104.298,92.188,105.22,92.646z"/>
	<path fill-rule="evenodd" clip-rule="evenodd" fill="#8E2556" d="M105.222,84.964c-4.225,1.116-8.574,1.391-12.887,1.921
		c0-0.8,0-1.601-0.001-2.4c4.149-0.484,8.298-0.967,12.446-1.451C105.291,83.595,105.24,84.283,105.222,84.964z"/>
	<path fill-rule="evenodd" clip-rule="evenodd" fill="#E488B3" d="M63.063,93.116c-0.051-1.756-0.102-3.512-0.152-5.268
		c-0.309-1.211-0.125-2.437-0.11-3.659c0.163-0.274,0.396-0.363,0.701-0.267c0.209,0.201,0.357,0.438,0.451,0.712
		c0.207,1.277,0.465,2.562-0.484,3.688c0,1.6-0.002,3.2-0.002,4.801C63.332,93.123,63.198,93.12,63.063,93.116z"/>
	<path fill-rule="evenodd" clip-rule="evenodd" fill="#872153" d="M80.74,87.844c0.002,1.28,0.004,2.56,0.006,3.839
		c-1.228,3.36-1.228,3.36-5.288,3.36c-0.478,0-0.954,0-1.431,0c-0.001-1.121-0.001-2.24-0.001-3.36c0-0.16,0.001-0.32,0.001-0.479
		c0.562-0.527,1.283-0.753,1.992-0.644c2.251,0.348,3.609-0.593,4.247-2.716v-0.001C80.425,87.625,80.582,87.625,80.74,87.844z"/>
	<path fill-rule="evenodd" clip-rule="evenodd" fill="#8A2356" d="M80.267,87.844c-0.004,3.358-0.004,3.358-3.427,3.359
		c-0.938,0-1.875,0-2.812,0c0.003-3.359,0.003-3.359,3.426-3.36C78.391,87.843,79.328,87.843,80.267,87.844z"/>
	<path fill-rule="evenodd" clip-rule="evenodd" fill="#8A2356" d="M80.74,87.844c-0.158,0-0.316-0.001-0.474-0.001
		c0.116-0.807-0.32-1.724,0.475-2.396C80.741,86.246,80.74,87.045,80.74,87.844z"/>
	<path fill-rule="evenodd" clip-rule="evenodd" fill="#EA91B9" d="M63.469,88.323c0-1.28,0-2.561,0-3.841
		c0.54-0.481,1.176-0.476,1.767-0.21c2.426,1.09,4.985,1.863,7.352,3.091l0,0c0,1.28,0,2.56,0,3.84
		C69.328,90.939,66.476,89.387,63.469,88.323z"/>
	<path fill-rule="evenodd" clip-rule="evenodd" fill="#F1A2C5" d="M63.468,70.565c0.001-2.241,0.001-4.481,0.001-6.723
		c0.994-0.807,1.854-1.197,2.414,0.477c0.605,1.811,2.111,2.966,3.465,4.149c1.734,1.517,3.612,2.848,3.706,5.445
		c-0.001,2.241-0.002,4.482-0.004,6.724c-0.154-0.158-0.309-0.316-0.463-0.475c-0.401-2.761-2.417-3.993-4.648-5.171
		c-1.75-0.925-3.272-2.245-4.541-3.809C63.269,70.96,63.284,70.753,63.468,70.565z"/>
	<path fill-rule="evenodd" clip-rule="evenodd" fill="#EE9EC1" d="M63.469,71.044c2.727,1.826,5.204,4.012,8.167,5.497
		c1.613,0.809,0.731,2.386,0.951,3.623c-2.314,0.1-4.028-1.344-5.897-2.348c-1.049-0.563-2.007-1.292-3.221-1.492
		C62.674,74.563,62.81,72.804,63.469,71.044z"/>
	<path fill-rule="evenodd" clip-rule="evenodd" fill="#EE97BD" d="M72.587,87.363c-2.556,0.059-4.626-1.371-6.87-2.257
		c-0.733-0.29-1.416-0.71-2.248-0.624c0-0.159-0.001-0.319-0.001-0.478c-0.672-1.281-0.747-2.561,0.001-3.841
		c2.751,1.159,5.272,2.778,8.229,3.568C73.341,84.172,72.343,86.111,72.587,87.363z"/>
	<path fill-rule="evenodd" clip-rule="evenodd" fill="#E892B9" d="M63.469,80.163c0,1.28,0,2.561-0.001,3.841
		c-0.134-0.002-0.269-0.005-0.402-0.008c-0.66-1.109-0.156-2.321-0.31-3.475c0.092-2.998-0.189-6.002,0.147-8.996
		c0.053-0.323,0.106-0.647,0.158-0.971c0.136,0.006,0.271,0.009,0.406,0.011c-0.001,0.16,0,0.319,0.001,0.479c0,1.76,0,3.52,0,5.28
		C63.469,77.603,63.469,78.883,63.469,80.163z"/>
	<path fill-rule="evenodd" clip-rule="evenodd" fill="#E892B8" d="M81.304,82.077c0.134,0.004,0.268,0.006,0.401,0.007l0.001,0
		c0.845,0.996,0.69,2.194,0.687,3.363c-0.027,1.16,0.23,2.381-0.688,3.358c-0.133-0.001-0.266-0.004-0.397-0.008
		C81.306,86.558,81.305,84.317,81.304,82.077z"/>
	<path fill-rule="evenodd" clip-rule="evenodd" fill="#EA8EB8" d="M91.759,95.019c0,2.239,0,4.479,0,6.718
		c-0.771-0.673-0.335-1.576-0.453-2.374c-0.525-2.36-2.126-2.439-4.104-2.087c-1.827,0.327-3.729,0.886-5.495-0.314
		c0-1.439,0-2.879-0.001-4.318c3.067-1.126,6.256-1.234,9.469-1.124C92.027,92.575,91.132,93.924,91.759,95.019z"/>
	<path fill-rule="evenodd" clip-rule="evenodd" fill="#EE97BD" d="M91.759,95.019c-0.88-1.013-0.271-2.229-0.453-3.336
		c-0.941-1.013-0.591-2.232-0.551-3.176c-2.924,0.911-5.935,1.303-9.048,0.774c-0.001-0.158-0.002-0.317-0.003-0.476
		c0.001-1.121,0.002-2.242,0.003-3.362c3.14-0.92,6.313-1.492,9.599-0.96c0.153,0,0.308-0.001,0.461-0.004
		C91.764,87.992,91.762,91.506,91.759,95.019z"/>
	<path fill-rule="evenodd" clip-rule="evenodd" fill="#EA91B9" d="M81.707,89.281c2.896-0.76,5.909-0.552,8.835-1.061
		c0.733-0.128,0.744,0.38,0.754,0.858c0.018,0.867,0.008,1.735,0.01,2.604c-3.159,0.73-6.364,0.999-9.6,0.96
		C81.707,91.522,81.707,90.401,81.707,89.281z"/>
	<path fill-rule="evenodd" clip-rule="evenodd" fill="#E689B4" d="M81.707,96.961c2.239,0.184,4.452-0.104,6.64-0.498
		c2.45-0.441,3.433,0.442,2.959,2.899c-3.177,0.616-6.392,0.476-9.599,0.479C81.707,98.881,81.707,97.921,81.707,96.961z"/>
	<path fill-rule="evenodd" clip-rule="evenodd" fill="#9B3364" d="M62.918,80.65c0.049,1.115,0.098,2.23,0.147,3.346
		c-0.052,1.284-0.103,2.568-0.154,3.852c-0.134-0.003-0.266-0.006-0.398-0.008c-0.003-0.159-0.005-0.317-0.008-0.477
		c0-0.96,0-1.92,0-2.88c0-0.32,0-0.64,0.001-0.96c-0.001-0.96-0.002-1.92-0.003-2.881h0.011
		C62.652,80.42,62.787,80.433,62.918,80.65z"/>
	<path fill-rule="evenodd" clip-rule="evenodd" fill="#A3386B" d="M62.918,80.65c-0.136-0.004-0.27-0.007-0.404-0.007
		c-0.002-0.319-0.005-0.64-0.007-0.959c-0.002-1.438-0.003-2.878-0.005-4.316c0.001-1.121,0.002-2.242,0.003-3.362
		c0.002-0.161,0.003-0.321,0.005-0.482c0.132,0,0.263,0.001,0.395,0.002C62.908,74.567,62.913,77.609,62.918,80.65z"/>
	<path fill-rule="evenodd" clip-rule="evenodd" fill="#9E3366" d="M62.504,70.088c-2.577,0.22-5.136-0.016-7.702-0.239
		c-5.81-0.507-11.5-1.771-17.252-2.644c-0.225-1.994,0.283-2.549,2.515-2.056c5.681,1.258,11.425,2.247,17.265,2.582
		c1.721,0.098,3.425,0.558,5.176,0.435C62.504,68.806,62.504,69.447,62.504,70.088z"/>
	<path fill-rule="evenodd" clip-rule="evenodd" fill="#862152" d="M105.22,92.646c-3.198,0.925-6.499,1.268-9.794,1.374
		c-1.601,0.052-2.682,0.332-3.11,1.963c0.003-1.758,0.005-3.515,0.009-5.272c3.861-1.062,7.903-0.973,11.799-1.841
		c0.801-0.179,1.092,0.438,1.092,1.172C105.215,90.91,105.218,91.778,105.22,92.646z"/>
	<path fill-rule="evenodd" clip-rule="evenodd" fill="#EE9ABF" d="M91.306,84.483c-3.162,0.696-6.352,1.111-9.599,0.96
		c0-1.12,0-2.24-0.001-3.359c3.256,0.241,6.435-0.296,9.6-0.96C91.306,82.244,91.306,83.364,91.306,84.483z"/>
</g>
</svg>
