<svg width="168" height="132" viewBox="0 0 168 132" fill="none" xmlns="http://www.w3.org/2000/svg">
<g clip-path="url(#clip0_40_79)">
<path d="M138.314 15.6642C136.904 14.4942 134.604 12.7942 130.934 11.7642C126.814 10.6042 123.804 10.3342 119.634 10.8242C117.604 11.0642 115.574 11.3942 113.534 11.5942C108.654 12.0542 104.374 10.7542 100.774 7.29418C100.284 6.82418 99.1144 6.25418 98.4944 6.74418C97.7944 7.29418 98.1744 8.63418 98.4944 9.37418C98.8544 10.2042 99.7144 10.8642 100.464 11.4542C101.484 12.2442 102.574 12.9542 103.704 13.5942C105.044 14.3542 105.684 15.3242 105.674 16.9642C105.624 27.3842 105.674 37.8142 105.674 48.2342C105.674 48.7042 105.604 49.1842 105.534 49.9542C103.334 49.0442 101.284 48.2642 99.3044 47.3242C98.9144 47.1442 98.6844 46.3542 98.6244 45.8242C98.4444 44.1042 98.4344 42.3742 98.2544 40.6642C97.5144 33.5642 95.7844 26.7742 92.1744 20.5242C87.5744 12.5642 80.6944 7.34418 72.3944 3.76418C71.3844 3.28418 64.1244 -0.13582 53.9244 0.00418001C45.0044 0.13418 37.3344 2.99418 31.4244 9.87418C27.2144 14.7742 25.0844 20.4042 26.1944 26.9142C27.3344 33.5942 32.9944 38.7442 39.2744 38.7842C45.2644 38.8242 49.7144 35.8442 53.0844 31.0742C53.5244 30.4542 53.9944 29.8442 54.4544 29.2342L54.9744 29.4342C55.0144 30.0142 54.9544 30.3542 54.6244 31.0942C53.7744 33.0242 52.8844 34.3842 51.5444 34.9542C47.8344 36.5442 48.5544 39.5242 48.5344 42.3742C48.5344 43.0742 48.5544 43.7842 48.5444 44.4742C48.5244 46.0942 48.1044 46.7942 46.5944 47.3842C37.9644 50.7642 30.6644 55.9542 25.2144 63.5642C18.9344 72.3242 18.3444 84.6642 26.6844 93.2642C32.5044 99.2742 39.7544 101.864 47.9244 102.134C58.5144 102.484 67.9544 99.0742 76.5444 93.0342C76.9644 92.7442 77.6544 92.5542 78.1344 92.6742C86.4244 94.7242 94.8644 95.0742 103.344 95.0442C105.744 95.0442 105.884 95.1042 105.584 97.4442C105.524 97.8942 105.044 98.3842 104.634 98.6742C104.074 99.0642 103.394 99.4042 102.814 99.6242C101.744 100.034 101.114 100.914 101.444 101.754C101.824 102.704 103.444 102.344 104.134 102.274C105.464 102.144 106.764 101.714 108.094 101.564C111.484 101.194 114.564 102.254 117.614 103.624C119.664 104.554 121.844 105.194 123.994 105.904C125.134 106.274 126.334 106.064 126.684 104.844C127.104 103.404 125.764 103.124 124.754 102.764C124.604 102.714 119.954 100.764 117.834 99.7342C115.984 98.8342 115.414 97.1942 115.754 95.2742C115.834 94.8342 116.414 94.2442 116.844 94.1542C120.534 93.4042 124.304 92.9742 127.934 92.0342C132.764 90.7842 137.114 88.5742 140.074 84.2642C144.454 77.8842 140.784 67.5942 133.404 65.6142C129.774 64.6442 126.214 66.3542 124.744 69.7842C123.334 73.0842 124.634 76.8842 127.814 78.7342C129.824 79.9042 132.624 79.8942 133.834 78.4642C134.284 77.9342 134.754 76.6942 134.234 76.0542C133.784 75.5042 132.714 76.1742 131.994 76.2842C131.164 76.4142 130.254 76.2042 129.614 75.8442C127.624 74.7242 127.034 72.3042 128.094 70.5542C129.244 68.6642 131.884 68.1742 133.954 69.4542C139.384 72.8342 140.184 80.1642 135.404 84.3842C129.864 89.2842 122.934 90.2342 115.804 90.9242V57.3742C129.074 60.3942 139.164 58.0542 145.634 44.4442C149.504 36.3042 145.364 21.5242 138.304 15.6642H138.314ZM44.4844 14.5342C43.5444 14.9242 42.5444 15.3042 41.7844 15.9442C41.3144 16.3342 40.8844 17.3842 41.0944 17.8242C41.3144 18.2842 42.3744 18.6742 42.9644 18.5642C44.2744 18.3142 45.5344 17.7742 46.7744 17.2542C48.0544 16.7142 48.5444 17.0242 48.5244 18.4342C48.4844 22.2642 48.5644 26.1042 48.4644 29.9342C48.4444 30.6942 48.0144 31.6342 47.4544 32.1642C44.4544 35.0042 40.8244 36.1342 36.8644 34.8842C32.6944 33.5642 30.3344 30.2942 29.6244 26.0942C28.6944 20.6242 30.5544 15.8242 34.2344 11.8342C40.8344 4.67418 49.1744 2.40418 58.6444 3.60418C59.2144 3.67418 59.7844 3.78418 60.4944 3.90418C63.5844 4.44418 66.5644 5.49418 68.7644 6.67418C76.3944 10.7542 81.1244 17.2842 83.5744 25.3342C85.1944 30.6642 87.0644 42.4842 87.0644 43.2142C77.4144 40.8542 68.0344 41.4342 58.5544 43.6542C58.5144 43.0442 58.4444 42.5842 58.4544 42.1142C58.4844 31.9642 58.5244 21.8142 58.5744 11.6642C58.5844 9.40418 57.9044 8.96418 55.8344 9.83418C52.0644 11.4342 48.2744 12.9642 44.4944 14.5442L44.4844 14.5342ZM48.7844 84.0342C49.1044 87.0642 48.3844 87.4142 45.6444 87.9642C42.6344 88.5642 39.6444 88.4642 36.8844 86.8442C34.6344 85.5242 33.6344 83.6642 34.1344 81.6842C34.5744 79.9442 36.3244 78.8042 38.7844 78.5542C42.2144 78.2142 45.1444 79.6142 47.9044 81.3242C48.5244 81.7042 48.6844 83.0642 48.7844 84.0242V84.0342ZM65.5244 95.2342C57.3944 98.8442 48.9544 100.044 40.3044 97.4942C32.1044 95.0742 26.1344 90.0842 24.2944 81.3742C23.1944 76.1742 24.3244 71.1842 27.2144 66.6742C32.1444 58.9642 39.3944 54.1642 47.5944 50.5842C47.7744 50.5042 48.0044 50.5042 48.3844 50.4442V77.1642C46.3844 76.5442 44.4344 75.7642 42.4044 75.3442C39.1344 74.6642 35.8844 74.8742 33.2144 77.1342C28.9144 80.7742 29.9244 86.9042 35.2544 89.8942C40.1344 92.6342 45.2644 92.2142 50.3144 90.6242C53.4244 89.6442 56.3544 88.0742 59.3744 86.7942C59.7944 86.6142 60.3544 86.3142 60.6944 86.4542C64.4744 88.0142 68.2144 89.6542 72.5744 91.5342C69.9744 92.9142 67.8244 94.2342 65.5444 95.2442L65.5244 95.2342ZM104.474 91.6842C96.8544 91.8242 89.2944 91.4142 81.7944 89.9542C81.5844 89.9142 81.3944 89.7942 81.2644 89.7342C83.3544 87.4042 85.5344 85.1342 87.5344 82.7142C93.5144 75.4942 96.8544 67.1442 97.9644 57.8742C97.9944 57.6042 98.0044 57.3342 98.0344 57.0642C98.5544 51.9942 98.9344 52.8242 94.3344 50.9542C92.1444 50.0642 89.8844 49.3542 87.3244 48.4442C87.2444 49.4842 87.1444 50.3042 87.1144 51.1242C86.7044 61.3442 85.1244 71.3242 80.5844 80.6042C79.4044 83.0142 77.8344 85.2342 76.3344 87.4742C76.0244 87.9442 75.0744 88.4642 74.6544 88.3042C70.9744 86.9242 67.3544 85.3942 63.7144 83.8942C63.5444 83.8242 63.2944 83.6642 63.2044 83.3542C67.8044 78.1242 68.6544 71.5142 70.0944 65.1142C71.1544 60.3942 73.1144 56.2142 77.4844 53.6242C79.1644 52.6242 80.9144 52.1342 82.8644 53.0642C83.2844 53.2642 84.1644 53.1342 84.4844 52.7342C84.9644 52.1242 84.9844 50.9142 84.1344 50.4842C82.7144 49.7442 81.5044 49.1442 79.4344 49.4842C73.3944 50.4642 69.9344 54.8142 68.0344 60.2942C66.8444 63.7342 66.2644 67.3842 65.3844 70.9342C64.4244 74.7942 63.0744 78.4742 60.1444 81.3442C59.7344 81.7442 59.2644 82.2242 58.4544 82.7642C58.4244 81.7642 58.4344 81.1542 58.4344 80.5442C58.4344 70.0142 58.4744 59.4842 58.4344 48.9542C58.4344 47.5442 58.8844 46.9542 60.2244 46.6542C71.6144 44.0942 82.7944 44.4142 93.7144 48.8542C97.3144 50.3142 100.904 51.7942 104.444 53.3842C105.004 53.6342 105.624 54.5042 105.634 55.0942C105.704 66.7542 105.694 78.4242 105.704 90.0842C105.704 90.9342 105.724 91.6742 104.494 91.7042L104.474 91.6842ZM137.874 38.8642C136.874 48.5142 129.864 57.1542 116.984 53.7842C116.464 53.6442 115.734 52.8442 115.734 52.3542C115.664 40.3142 115.674 28.2642 115.734 16.2242C115.734 15.6942 116.394 14.8042 116.874 14.6942C121.514 13.6542 126.074 13.7242 130.354 16.1242C135.394 18.9442 136.824 24.5542 137.444 27.9542C138.064 31.3542 138.234 35.2942 137.854 38.8742L137.874 38.8642Z" fill="white"/>
<path d="M0 114.479H5.38C6.39 114.479 7.4 114.649 8.41 114.979C9.42 115.319 10.34 115.819 11.16 116.499C11.98 117.179 12.64 118.029 13.14 119.039C13.64 120.059 13.9 121.229 13.9 122.579C13.9 123.929 13.65 125.119 13.14 126.129C12.64 127.139 11.98 127.979 11.16 128.659C10.34 129.339 9.43 129.849 8.41 130.179C7.39 130.509 6.38 130.679 5.38 130.679H0V114.469V114.479ZM1.65 129.219H4.92C6.14 129.219 7.21 129.029 8.11 128.649C9.02 128.269 9.77 127.769 10.36 127.149C10.96 126.529 11.4 125.829 11.7 125.029C12 124.239 12.15 123.419 12.15 122.579C12.15 121.739 12 120.919 11.7 120.129C11.4 119.339 10.96 118.629 10.36 118.009C9.77 117.389 9.01 116.889 8.11 116.509C7.2 116.129 6.14 115.939 4.92 115.939H1.65V129.219Z" fill="white"/>
<path d="M18.27 130.689H16.46L23.46 114.479H25.06L32.02 130.689H30.19L28.4 126.429H20.02L18.26 130.689H18.27ZM20.65 124.919H27.79L24.22 116.309L20.65 124.919Z" fill="white"/>
<path d="M47.4998 128.279H47.5498V114.479H49.1998V130.689H47.1398L37.7098 116.749H37.6598V130.689H36.0098V114.479H38.0698L47.4998 128.279Z" fill="white"/>
<path d="M56.7398 130.689H55.0898V114.479H56.7398V130.689Z" fill="white"/>
<path d="M64.3004 129.219H72.9704V130.679H62.6504V114.469H72.7004V115.929H64.3004V121.489H72.1504V122.949H64.3004V129.199V129.219Z" fill="white"/>
<path d="M79.4498 129.219H86.9998V130.679H77.7998V114.469H79.4498V129.209V129.219Z" fill="white"/>
<path d="M90.9604 130.689H89.1504L96.1504 114.479H97.7504L104.71 130.689H102.88L101.09 126.429H92.7104L90.9504 130.689H90.9604ZM93.3404 124.919H100.48L96.9104 116.309L93.3404 124.919Z" fill="white"/>
<path d="M115.62 114.479H120.2C121.02 114.479 121.77 114.569 122.44 114.739C123.11 114.919 123.69 115.179 124.17 115.539C124.65 115.899 125.02 116.349 125.28 116.889C125.54 117.429 125.67 118.069 125.67 118.799C125.67 119.529 125.54 120.169 125.27 120.709C125 121.249 124.63 121.699 124.15 122.059C123.67 122.419 123.09 122.689 122.41 122.869C121.73 123.049 120.98 123.139 120.16 123.139H117.28V130.669H115.63V114.459L115.62 114.479ZM117.27 121.759H120.06C121.36 121.759 122.34 121.509 123.01 120.999C123.68 120.499 124.02 119.759 124.02 118.799C124.02 117.839 123.67 117.059 122.98 116.589C122.29 116.119 121.31 115.889 120.06 115.889H117.27V121.749V121.759Z" fill="white"/>
<path d="M146.52 122.579C146.52 123.819 146.31 124.949 145.88 125.989C145.45 127.029 144.86 127.919 144.11 128.679C143.35 129.439 142.46 130.029 141.43 130.449C140.4 130.879 139.28 131.089 138.08 131.089C136.88 131.089 135.76 130.879 134.73 130.449C133.7 130.019 132.81 129.429 132.05 128.679C131.3 127.919 130.7 127.029 130.28 125.989C129.85 124.949 129.64 123.819 129.64 122.579C129.64 121.339 129.85 120.209 130.28 119.169C130.71 118.129 131.3 117.239 132.05 116.479C132.81 115.719 133.7 115.129 134.73 114.709C135.76 114.289 136.88 114.069 138.08 114.069C139.28 114.069 140.4 114.279 141.43 114.709C142.46 115.139 143.35 115.729 144.11 116.479C144.86 117.239 145.46 118.129 145.88 119.169C146.31 120.209 146.52 121.339 146.52 122.579ZM144.78 122.589C144.78 121.649 144.63 120.749 144.32 119.889C144.01 119.039 143.57 118.289 142.99 117.639C142.41 116.989 141.7 116.479 140.87 116.099C140.04 115.719 139.1 115.529 138.07 115.529C137.04 115.529 136.1 115.719 135.27 116.099C134.44 116.479 133.73 116.999 133.15 117.639C132.57 118.279 132.13 119.039 131.82 119.889C131.51 120.739 131.36 121.639 131.36 122.589C131.36 123.539 131.51 124.429 131.82 125.289C132.12 126.139 132.57 126.889 133.15 127.529C133.73 128.169 134.44 128.679 135.27 129.059C136.1 129.439 137.04 129.629 138.07 129.629C139.1 129.629 140.04 129.439 140.87 129.059C141.7 128.679 142.41 128.169 142.99 127.529C143.57 126.889 144.01 126.139 144.32 125.289C144.62 124.439 144.78 123.539 144.78 122.589Z" fill="white"/>
<path d="M167.58 122.579C167.58 123.819 167.37 124.949 166.94 125.989C166.51 127.029 165.92 127.919 165.17 128.679C164.41 129.439 163.52 130.029 162.49 130.449C161.46 130.879 160.34 131.089 159.14 131.089C157.94 131.089 156.82 130.879 155.79 130.449C154.76 130.019 153.87 129.429 153.11 128.679C152.36 127.919 151.76 127.029 151.34 125.989C150.91 124.949 150.7 123.819 150.7 122.579C150.7 121.339 150.91 120.209 151.34 119.169C151.77 118.129 152.36 117.239 153.11 116.479C153.87 115.719 154.76 115.129 155.79 114.709C156.82 114.289 157.94 114.069 159.14 114.069C160.34 114.069 161.46 114.279 162.49 114.709C163.52 115.139 164.41 115.729 165.17 116.479C165.92 117.239 166.52 118.129 166.94 119.169C167.37 120.209 167.58 121.339 167.58 122.579ZM165.84 122.589C165.84 121.649 165.69 120.749 165.38 119.889C165.07 119.039 164.63 118.289 164.05 117.639C163.47 116.989 162.76 116.479 161.93 116.099C161.1 115.719 160.16 115.529 159.13 115.529C158.1 115.529 157.16 115.719 156.33 116.099C155.5 116.479 154.79 116.999 154.21 117.639C153.63 118.279 153.19 119.039 152.88 119.889C152.57 120.739 152.42 121.639 152.42 122.589C152.42 123.539 152.57 124.429 152.88 125.289C153.18 126.139 153.63 126.889 154.21 127.529C154.79 128.169 155.5 128.679 156.33 129.059C157.16 129.439 158.1 129.629 159.13 129.629C160.16 129.629 161.1 129.439 161.93 129.059C162.76 128.679 163.47 128.169 164.05 127.529C164.63 126.889 165.07 126.139 165.38 125.289C165.68 124.439 165.84 123.539 165.84 122.589Z" fill="white"/>
</g>
<defs>
<clipPath id="clip0_40_79">
<rect width="167.58" height="131.089" fill="white"/>
</clipPath>
</defs>
</svg>
