<?xml version="1.0" encoding="utf-8"?>
<!-- Generator: Adobe Illustrator 16.0.0, SVG Export Plug-In . SVG Version: 6.00 Build 0)  -->
<!DOCTYPE svg PUBLIC "-//W3C//DTD SVG 1.1//EN" "http://www.w3.org/Graphics/SVG/1.1/DTD/svg11.dtd">
<svg version="1.1" id="Layer_1" xmlns="http://www.w3.org/2000/svg" xmlns:xlink="http://www.w3.org/1999/xlink" x="0px" y="0px"
	 width="170.079px" height="170.079px" viewBox="0 0 170.079 170.079" enable-background="new 0 0 170.079 170.079"
	 xml:space="preserve">
<g>
	<path fill-rule="evenodd" clip-rule="evenodd" fill="#1A447C" d="M138.707,111.013c0,1.117,0,2.232,0,3.35
		c-0.559,0.77-1.373,1.035-2.263,1.199c-9.591,1.766-19.249,2.988-28.96,3.889c-7.871,0.73-15.754,1.322-23.647,1.512
		c-5.099,0.123-10.222-0.248-15.326-0.078c-10.079,0.336-20.083-0.709-30.111-1.359c-0.478-0.031-0.958-0.055-1.405-0.266
		c-0.66-0.797-0.612-1.664-0.266-2.564c0.645-1.096,1.648-1.428,2.854-1.32c8.02,0.723,16.063,1.135,24.102,1.475
		c6.846,0.289,13.704,0.277,20.568-0.145c6.188-0.379,12.389-0.582,18.472-1.104c-0.522-0.365-2.237-0.285-0.682-1.688
		c0.378-0.133,0.79-0.254,1.167-0.168c3.754,0.863,7.387,0.188,11.002-0.805c0.306-0.084,0.631-0.004,0.937,0.076
		c0.54,0.455,1.018,0.801,1.882,0.73c5.953-0.492,11.802-1.664,17.691-2.576C136.043,110.966,137.355,110.483,138.707,111.013z"/>
	<path fill-rule="evenodd" clip-rule="evenodd" fill="#1B4279" d="M37.036,119.161c2.992-0.846,6.009-0.059,8.951,0.176
		c3.879,0.309,7.778,0.521,11.651,0.693c7.146,0.316,14.324-0.102,21.477,0.141c8.279,0.283,16.499-0.488,24.715-1.088
		c11.232-0.818,22.395-2.41,33.502-4.318c0.468-0.08,0.917-0.266,1.375-0.402c0,1.119,0,2.238,0,3.359
		c-0.601,0.627-1.415,0.689-2.199,0.826c-9.297,1.604-18.65,2.789-28.037,3.707c-16.248,1.592-32.545,1.787-48.841,1.391
		c-6.852-0.166-13.729-0.42-20.547-1.342c-0.714-0.096-1.438-0.127-2.055-0.568C36.36,120.876,36.303,120.017,37.036,119.161z"/>
	<path fill-rule="evenodd" clip-rule="evenodd" fill="#1C3A6A" d="M138.707,127.321c0,0.959,0,1.92,0,2.879
		c-0.562,0.77-1.369,1.037-2.27,1.178c-8.289,1.295-16.637,2.088-24.98,2.938c-6.357,0.648-12.742,0.791-19.106,1.297
		c-1.907,0.15-3.821-0.043-5.741,0.059c-3.904,0.209-7.836,0.434-11.718,0.396c-7.731-0.078-15.475-0.262-23.205-0.688
		c-3.903-0.217-7.818-0.232-11.716-0.598c-1.026-0.098-2.091,0.047-3.004-0.609c-0.627-0.85-0.607-1.729-0.118-2.629
		c1.203-1.23,2.755-1.17,4.265-1.037c6.831,0.6,13.674,0.881,20.53,0.951c3.665,0.039,7.306,0.516,10.987,0.459
		c9.808-0.146,19.614-0.537,29.394-1.105c9.754-0.568,19.495-1.639,29.19-3.039C133.646,127.421,136.154,126.409,138.707,127.321z"
		/>
	<path fill-rule="evenodd" clip-rule="evenodd" fill="#1A5FA9" d="M138.706,37.088c0.001,2.404,0.001,4.808,0.001,7.212
		c-0.67,1.722-2.066,2.8-3.441,3.901c-7.752,6.204-16.701,9.944-26.134,12.672c-7.466,2.16-15.124,3.318-22.812,4.301
		c-0.65,0.042-1.131-0.221-1.434-0.799c-0.192-0.865-0.828-1.117-1.618-1.154c-0.96-0.625-2.534-0.579-2.503-2.287
		c0.204-0.133,0.427-0.213,0.667-0.251c4.898,0.241,9.682-0.715,14.43-1.638c7.842-1.525,15.502-3.654,22.739-7.229
		c6.885-3.4,12.743-7.843,16.782-14.475C136.475,37.052,137.551,36.546,138.706,37.088z"/>
	<path fill-rule="evenodd" clip-rule="evenodd" fill="#1C3867" d="M37.038,134.038c5.635,0.174,11.271,0.311,16.881,0.943
		c1.485,0.166,2.954-0.15,4.469-0.062c4.522,0.266,9.062,0.312,13.589,0.451c5.616,0.172,11.271-0.836,16.88-0.609
		c3.433,0.139,6.805-0.217,10.18-0.342c8.148-0.301,16.268-1.17,24.377-2.139c4.168-0.498,8.326-1.072,12.494-1.559
		c0.957-0.113,1.871-0.322,2.799-0.521c0,0.645-0.001,1.289-0.001,1.932c-0.444,0.932-1.296,1.053-2.196,1.184
		c-8.674,1.26-17.382,2.143-26.111,2.961c-18.016,1.688-36.06,1.463-54.102,1.324c-5.976-0.047-11.959-0.6-17.945-0.811
		C36.575,136.728,36.312,136.106,37.038,134.038z"/>
	<path fill-rule="evenodd" clip-rule="evenodd" fill="#1C3766" d="M37.038,134.038c-0.26,1.703,0.21,2.049,2.119,2.037
		c4.907-0.031,9.817,0.479,14.727,0.766c0.795,0.047,1.593,0.074,2.39,0.076c11.015,0.004,22.039,0.283,33.041-0.086
		c8.944-0.301,17.894-0.826,26.821-1.73c7.095-0.719,14.146-1.729,21.227-2.523c0.459-0.051,0.896-0.293,1.345-0.445
		c0,0.477,0.001,0.953,0.001,1.428c-1.059,1.357-2.661,1.381-4.131,1.557c-13.527,1.615-27.047,3.354-40.713,3.24
		c-0.885-0.008-1.749,0.092-2.582,0.402c-17.902,0.027-35.804,0.055-53.706,0.078c-0.389,0.002-0.806,0.059-1.052-0.365
		c-0.988-1.756-0.722-3.682-0.724-5.561c-0.003-2.445-0.089-4.891,0.051-7.334c-0.043-2.674-0.079-5.35,0.019-8.023
		c0.02-0.875-0.042-1.766,0.454-2.555c0.204-0.248,0.459-0.32,0.763-0.215c0.54,0.672,0.356,1.328-0.051,1.977c0,0.801,0,1.6,0,2.4
		c0,0.799,0,1.6,0,2.4c0.46,0.498,0.607,1.107,0.617,1.764c0.021,0.617,0.011,1.238,0,1.855c0.006,0.363,0.001,0.727-0.003,1.09
		c0.012,0.24,0.008,0.48,0.002,0.721c-0.002,0.602-0.011,1.205,0.003,1.807c0.013,0.494,0.005,0.986-0.03,1.48
		c-0.03,0.525-0.239,0.973-0.588,1.359C37.038,132.438,37.038,133.237,37.038,134.038z"/>
	<path fill-rule="evenodd" clip-rule="evenodd" fill="#1B4074" d="M37.038,125.399c0-0.639,0-1.279-0.001-1.92
		c1.913-1.264,4.033-0.766,6.056-0.586c13.375,1.191,26.785,1.691,40.189,1.197c17.714-0.656,35.376-2.119,52.878-5.1
		c0.85-0.145,1.734-0.42,2.547,0.17c0,0.641,0,1.281,0,1.92c-2.125,1.961-4.924,1.619-7.446,2.033
		c-6.046,0.99-12.144,1.664-18.237,2.303c-4.035,0.422-8.09,0.916-12.13,1.025c-5.5,0.152-10.979,0.656-16.492,0.668
		c-4.372,0.008-8.75,0.545-13.139,0.398c-8.76-0.291-17.528-0.531-26.269-1.107C42.373,126.228,39.546,126.774,37.038,125.399z"/>
	<path fill-rule="evenodd" clip-rule="evenodd" fill="#1B4176" d="M138.707,119.161c-4.943,1.189-9.988,1.77-15.02,2.375
		c-7.398,0.887-14.811,1.652-22.227,2.371c-2.447,0.238-4.916,0.291-7.373,0.461c-10.511,0.725-21.054,0.752-31.58,0.496
		c-8.497-0.205-16.981-0.904-25.471-1.385c0-0.639,0-1.279,0-1.918c7.206,0.479,14.405,1.158,21.619,1.385
		c7.659,0.24,15.334,0.16,22.999,0.027c9.766-0.168,19.502-0.814,29.23-1.805c8.52-0.867,16.998-1.934,25.43-3.408
		c0.775-0.135,1.594-0.031,2.393-0.039C138.707,118.2,138.707,118.681,138.707,119.161z"/>
	<path fill-rule="evenodd" clip-rule="evenodd" fill="#1A5DA7" d="M85.979,64.961c2.377-1.303,5.071-1.006,7.611-1.429
		c8.958-1.491,17.74-3.496,26.156-7.046c7.053-2.975,13.461-6.848,18.961-12.187c0,1.916,0,3.831,0,5.747
		c-3.494,3.372-7.695,5.67-12.036,7.681c-10.96,5.076-22.597,7.712-34.511,9.27c-1.344,0.175-2.66,0.534-4.021,0.581
		C86.764,67.25,86.014,66.4,85.979,64.961z"/>
	<path fill-rule="evenodd" clip-rule="evenodd" fill="#1359A4" d="M138.707,54.847c0,1.439,0,2.879,0,4.319
		c-1.984,1.974-4.588,2.876-7.07,3.914c-12.479,5.209-25.545,8.107-38.932,9.688c-0.559,0.066-1.11,0.135-1.631,0.354
		c-0.291,0.24-0.578,0.486-0.967,0.556c-1.395-1.177-1.445-2.861-1.687-4.475c0.127-0.457,0.213-0.918,0.862-0.936
		c12.425-0.32,24.254-3.396,35.797-7.776c3.889-1.476,7.71-3.093,11.221-5.368C137.026,54.652,137.814,54.127,138.707,54.847z"/>
	<path fill-rule="evenodd" clip-rule="evenodd" fill="#1C3D71" d="M37.038,128.759c0-0.641,0-1.279,0-1.918
		c1.02-0.891,2.301-0.836,3.43-0.605c4.26,0.869,8.585,0.389,12.876,0.768c9.86,0.873,19.798,1.053,29.667,0.479
		c8.654-0.504,17.325-0.777,25.979-1.596c9.127-0.863,18.207-1.877,27.24-3.402c0.881-0.148,1.76-0.178,2.477,0.518
		c0,0.48,0,0.961,0,1.439c-1.123,1.449-2.844,1.367-4.375,1.564c-7.898,1.018-15.786,2.141-23.719,2.871
		c-4.284,0.396-8.58,0.73-12.871,0.975c-12.847,0.727-25.721,0.912-38.573,0.447C51.792,130.032,44.354,130.114,37.038,128.759z"/>
	<path fill-rule="evenodd" clip-rule="evenodd" fill="#155BA6" d="M138.707,54.847c-1.92,0.027-3.047,1.607-4.591,2.377
		c-9.685,4.83-19.874,8.117-30.495,10.073c-4.206,0.774-8.48,1.195-12.659,2.079c-0.86,0.182-1.381-1.082-2.087-0.145
		c-1.231-0.134-1.389-0.843-0.988-1.849c3.316-1.484,6.955-1.264,10.428-1.929c14.014-2.68,27.689-6.15,39.264-15.133
		c0.279-0.217,0.748-0.188,1.129-0.274C138.707,51.647,138.707,53.247,138.707,54.847z"/>
	<path fill-rule="evenodd" clip-rule="evenodd" fill="#1C3D6E" d="M37.038,131.638c0-0.479,0-0.959,0-1.438
		c0.786-1.018,1.851-1.061,3.022-0.979c13.935,0.994,27.89,1.574,41.855,1.186c12.985-0.363,25.957-1.088,38.863-2.709
		c5.297-0.666,10.59-1.354,15.879-2.072c0.701-0.096,1.428-0.328,2.049,0.254c0,0.48,0,0.961,0,1.441
		c-9.562,1.457-19.146,2.643-28.797,3.451c-9.207,0.773-18.414,1.047-27.628,1.471c-4.862,0.225-9.729,0.5-14.566,0.285
		c-8.03-0.355-16.063-0.602-24.092-0.955C41.411,131.476,39.232,130.847,37.038,131.638z"/>
	<path fill-rule="evenodd" clip-rule="evenodd" fill="#09549E" d="M138.707,66.376c0,2.716,0,5.432,0,8.147
		c-0.523,0.75-1.271,1.162-2.121,1.432c-4.226,1.338-8.502,2.497-12.779,3.651c-0.773,0.208-1.552,0.356-2.292-0.12
		c-0.165-0.209-0.243-0.448-0.233-0.714c-0.041-0.985,0.055-1.976-0.001-2.528c0.05,0.227-0.042,0.893-0.021,1.556
		c0.012,0.394,0.001,0.789,0.011,1.186c0.377,1.356,0.721,2.708-0.032,4.051c-0.208,0.227-0.456,0.286-0.745,0.18
		c-0.98-1.337-0.516-2.888-0.622-4.353c-0.103-1.395,0.257-2.861-0.691-4.112c-0.517-0.434-0.97-0.896-0.694-1.659
		c2.188-1.391,4.735-1.821,7.149-2.574c3.272-1.02,6.552-1.979,9.647-3.495C136.321,66.515,137.445,65.943,138.707,66.376z"/>
	<path fill-rule="evenodd" clip-rule="evenodd" fill="#1C3D6E" d="M138.707,125.88c-7.602,1.145-15.212,2.186-22.867,2.959
		c-6.088,0.617-12.186,0.941-18.279,1.404c-10.021,0.758-20.049,1.098-30.087,0.885c-8.581-0.182-17.167-0.418-25.711-1.377
		c-1.586-0.178-3.187-0.098-4.724,0.449c0-0.48,0-0.961,0-1.441c2.91-0.586,5.842-0.051,8.714,0.15
		c2.286,0.16,4.578,0.189,6.859,0.361c10.771,0.803,21.56,0.584,32.329,0.365c9.126-0.188,18.249-0.785,27.356-1.721
		c8.133-0.836,16.227-1.91,24.322-3c0.705-0.096,1.393-0.312,2.088-0.475C138.707,124.921,138.707,125.401,138.707,125.88z"/>
	<path fill-rule="evenodd" clip-rule="evenodd" fill="#0C5198" d="M138.707,79.804c0,1.28,0,2.56,0,3.839
		c-0.922,1.004-2.205,1.236-3.428,1.542c-5.4,1.354-10.797,2.725-16.283,3.695c-1.344,0.236-2.627,0.609-3.862,1.172
		c-0.632,0.174-1.234,0.027-1.833-0.166c-1.576-0.994-3.422-1.457-4.979-2.496c-0.263-0.248-0.434-0.533-0.356-0.914
		c1.662-1.161,3.54-1.731,5.527-2c1.754-0.237,3.42-0.675,4.682-2.046c0.631-0.041,1.188,0.178,1.721,0.485
		c0.66,0.701,1.4,0.445,2.206,0.288c4.687-0.912,9.272-2.222,13.894-3.399C136.891,79.576,137.803,79.05,138.707,79.804z"/>
	<path fill-rule="evenodd" clip-rule="evenodd" fill="#1D60AA" d="M138.706,37.088c-1.093,0.16-2.187,0.319-3.278,0.479
		c-1.518,0.781-2.602,1.958-3.609,3.351c-3.043,4.209-7.1,7.271-11.621,9.764c-9.14,5.038-19.05,7.605-29.279,9.12
		c-3.224,0.477-6.451,1.005-9.727,1.037c-1.024,0.004-2.149,0.224-2.508-1.183c0.898-1.393,2.316-1.508,3.787-1.612
		c9.87-0.697,19.501-2.563,28.686-6.308c5.957-2.43,11.539-5.531,15.973-10.364c0.817-0.891,1.652-1.766,2.068-2.912
		c0.496-1.363,1.473-2.03,2.844-2.246c0.533-0.096,1.033-0.02,1.484,0.299C135.229,36.907,137.096,35.845,138.706,37.088z"/>
	<path fill-rule="evenodd" clip-rule="evenodd" fill="#1B3F72" d="M37.038,125.399c9,0.045,17.998,0.611,26.958,1.152
		c9.361,0.568,18.63-0.307,27.94-0.293c6.65,0.01,13.324-0.662,19.947-1.402c5.742-0.641,11.502-1.199,17.215-2.164
		c3.199-0.541,6.443-0.84,9.609-1.611c0,0.324,0,0.648,0,0.973c-1.98,1.283-4.336,1.283-6.511,1.576
		c-5.665,0.762-11.318,1.709-17.026,2.1c-6.502,0.447-12.977,1.164-19.502,1.436c-8.99,0.375-17.976,1.08-26.974,0.824
		c-9.059-0.258-18.125-0.541-27.159-1.373c-1.498-0.139-3.022,0.24-4.498-0.256C37.038,126.04,37.038,125.72,37.038,125.399z"/>
	<path fill-rule="evenodd" clip-rule="evenodd" fill="#53C7F2" d="M41.833,31.406c6.56,0,13.119,0,19.679,0
		c0.176,0.174,0.298,0.391,0.28,0.63c-0.225,3.025-0.228,3.025,2.959,2.967c0.939,0.043,1.934-0.121,2.64,0.742
		c0.018,0.327-0.117,0.564-0.406,0.718c-0.365,0.181-0.751,0.29-1.153,0.291c-9.495,0.025-18.99,0.189-28.479-0.079
		c-0.264-0.065-0.507-0.187-0.722-0.354c-0.178-1.394,0.987-1.275,1.683-1.242c2.24,0.107,3.989-0.094,3.165-3.08
		C41.427,31.812,41.672,31.583,41.833,31.406z"/>
	<path fill-rule="evenodd" clip-rule="evenodd" fill="#0C5095" d="M114.789,89.832c1.827-1.916,4.396-1.486,6.639-2.051
		c5.742-1.447,11.518-2.768,17.279-4.138c0,1.44,0,2.88,0,4.32c-0.288,0.279-0.601,0.539-0.988,0.645
		c-6.201,1.693-12.432,3.25-18.831,4.02c-0.855-0.066-1.536-0.553-2.259-0.941C115.891,91.193,114.969,90.879,114.789,89.832z"/>
	<path fill-rule="evenodd" clip-rule="evenodd" fill="#0C529A" d="M138.707,79.804c-5.445,1.209-10.748,3-16.26,3.961
		c-1.117,0.194-1.982,0.046-2.86-0.542c0.319-0.31,0.651-0.352,1.001-0.049c0.147-0.006,0.295-0.012,0.441-0.017
		c0.659-1.216-0.158-2.616,0.479-3.834c3.801-0.517,7.398-1.828,11.07-2.842c2.064-0.571,4.087-1.3,6.129-1.958
		C138.707,76.284,138.707,78.044,138.707,79.804z"/>
	<path fill-rule="evenodd" clip-rule="evenodd" fill="#1C3664" d="M91.281,138.759c0.6-0.578,1.316-0.902,2.148-0.871
		c5.959,0.23,11.875-0.447,17.783-1.008c9.189-0.875,18.43-1.389,27.494-3.32c0,0.801,0,1.6,0,2.4
		c-1.17,0.998-2.643,0.92-4.034,1.168c-4.989,0.889-10.072,0.881-15.074,1.631C110.16,138.759,100.721,138.759,91.281,138.759z"/>
	<path fill-rule="evenodd" clip-rule="evenodd" fill="#1058A2" d="M90.318,72.611c2.957-0.907,6.055-0.91,9.078-1.407
		c9.117-1.501,18.074-3.567,26.795-6.674c4.293-1.53,8.326-3.62,12.516-5.364c0,0.479,0,0.959,0,1.439
		c-0.963,1.259-2.351,1.879-3.742,2.498c-6.149,2.735-12.525,4.793-19.018,6.55c-2.674,0.724-5.216,1.965-8.074,1.868
		c-1.19,0.361-2.51,0.259-3.603,0.992c-1.385,1.04-2.733,2.15-4.589,2.223c-2.133-0.803-4.27,0.042-6.402,0.036
		C91.625,74.768,90.441,74.527,90.318,72.611z"/>
	<path fill-rule="evenodd" clip-rule="evenodd" fill="#0B56A0" d="M138.707,66.376c-5.975,2.8-12.348,4.479-18.566,6.594
		c-0.512,0.174-1.102,0.124-1.654,0.178c-0.771,0.596-1.547,0.165-2.321,0.017c-0.417-0.135-0.817-0.298-1.01-0.738
		c-0.136-0.139,0.571-0.54-0.218-0.542c-0.602-0.001-1.035-0.377-0.432-1.041c2.012-1.226,4.327-1.549,6.533-2.174
		c5.36-1.518,10.582-3.392,15.631-5.751c0.639-0.299,1.279-0.677,2.037-0.383C138.707,63.816,138.707,65.096,138.707,66.376z"/>
	<path fill-rule="evenodd" clip-rule="evenodd" fill="#164886" d="M138.707,99.483c0,1.6,0,3.199,0,4.799
		c-0.518,0.553-1.197,0.789-1.908,0.926c-4.156,0.793-8.305,1.623-12.495,2.217c-0.792,0.111-1.597,0.229-2.28-0.371
		c-0.195-0.197-0.326-0.432-0.398-0.699c-0.135-0.699,0.113-1.326,0.37-1.951c0.743-1.557-0.218-3.408,0.839-4.912
		c0.156-0.064,0.409-0.119,0.438-0.045c1.049,2.746,3.18,1.93,5.148,1.557c2.592-0.49,5.176-1.016,7.759-1.545
		C137.012,99.286,137.872,98.856,138.707,99.483z"/>
	<path fill-rule="evenodd" clip-rule="evenodd" fill="#0F4E91" d="M118.621,92.299c6.076-1.334,12.213-2.398,18.213-4.07
		c0.603-0.168,1.248-0.18,1.873-0.266c0,1.279,0,2.561,0,3.84c-0.444,0.604-1.051,0.961-1.771,1.113
		c-5.036,1.062-10,2.499-15.164,2.884c-1.27,0.064-1.629-1.125-2.406-1.744C118.975,93.531,118.344,93.105,118.621,92.299z"/>
	<path fill-rule="evenodd" clip-rule="evenodd" fill="#184783" d="M121.975,106.679c3.277,0.51,6.342-0.75,9.505-1.174
		c2.42-0.326,4.819-0.809,7.228-1.223c0,1.279,0,2.561,0,3.84c-0.609,0.709-1.438,0.943-2.313,1.102
		c-4.532,0.818-9.062,1.645-13.628,2.264c-1.195,0.162-2.406,0.305-3.197-0.941c-0.173-0.365-0.192-0.736-0.012-1.105
		C120.441,108.593,120.361,106.892,121.975,106.679z"/>
	<path fill-rule="evenodd" clip-rule="evenodd" fill="#0F4C8D" d="M121.513,95.628c1.155-1.098,2.692-0.533,4.032-0.879
		c4.35-1.127,8.77-1.985,13.162-2.946c0,1.439,0,2.88,0,4.319c-4.822,2-9.951,2.584-15.062,3.242
		c-0.232,0.031-0.467,0.021-0.682,0.131c-0.254,1.748,0.506,3.584-0.465,5.268c-0.579-0.473-0.618-1.141-0.662-1.807
		c-0.027-0.637-0.028-1.273-0.043-1.91c-0.104-1.592-0.533-3.146-0.548-4.748C121.244,96.038,121.334,95.815,121.513,95.628z"/>
	<path fill-rule="evenodd" clip-rule="evenodd" fill="#1A457F" d="M119.541,110.026c1.967,2.166,4.268,0.506,6.288,0.307
		c4.323-0.428,8.589-1.439,12.878-2.211c0,0.963,0,1.926,0,2.891c-4.34,1.193-8.826,1.584-13.242,2.355
		c-2.789,0.486-5.592,0.967-8.449,1.029c-0.92,0.02-1.441-0.266-1.81-1.023c-0.108-0.201-0.086-0.391,0.046-0.572
		c0.273-0.186,0.584-0.242,0.906-0.266c0.77-0.023,1.092-0.553,1.328-1.18C118.021,110.685,118.453,109.847,119.541,110.026z"/>
	<path fill-rule="evenodd" clip-rule="evenodd" fill="#1B3F72" d="M37.038,126.36c9.163-0.01,18.32,0.621,27.442,1.158
		c9.045,0.535,17.994-0.338,26.986-0.305c6.812,0.023,13.648-0.65,20.432-1.4c5.743-0.635,11.5-1.229,17.22-2.152
		c3.198-0.516,6.433-0.814,9.589-1.607c0,0.314,0,0.631,0,0.947c-3.762,0.541-7.517,1.139-11.287,1.607
		c-5.107,0.635-10.219,1.27-15.345,1.729c-6.478,0.578-12.966,1.094-19.46,1.434c-8.437,0.439-16.884,0.729-25.334,0.496
		c-8.814-0.244-17.619-0.705-26.412-1.395c-1.27-0.1-2.554-0.025-3.832-0.031C37.037,126.681,37.037,126.521,37.038,126.36z"/>
	<path fill-rule="evenodd" clip-rule="evenodd" fill="#0F2648" d="M36.548,125.403c-0.008,4.355-0.017,8.711-0.025,13.068
		c-1.564-1.424-3.117-2.859-4.699-4.264c-0.546-0.484-0.56-1.08-0.551-1.717c0.031-2.363,0.056-4.727,0.083-7.088
		C33.087,124.325,34.818,124.39,36.548,125.403z"/>
	<path fill-rule="evenodd" clip-rule="evenodd" fill="#124B8A" d="M122.963,99.495c0.031-0.439,0.185-0.586,0.702-0.668
		c4.415-0.701,8.845-1.34,13.155-2.596c0.589-0.172,1.256-0.078,1.887-0.109c0,1.121,0,2.242,0,3.361
		c-4.453,0.932-8.904,1.867-13.357,2.795c-1.227,0.256-2.044-0.021-1.928-1.51C123.459,100.29,123.405,99.815,122.963,99.495z"/>
	<path fill-rule="evenodd" clip-rule="evenodd" fill="#164987" d="M31.356,43.327c0.044-3.97-0.494-7.955,0.287-11.907
		c2.189,0.992,3.688,2.706,4.915,4.704l-0.02,0.016c0.19,0.22,0.348,0.459,0.477,0.72c0.236,2.136,0.503,4.274-0.206,6.381
		C35.012,44.501,33.199,44.908,31.356,43.327z"/>
	<path fill-rule="evenodd" clip-rule="evenodd" fill="#0F57A2" d="M138.707,62.536c-7.697,4.112-16.037,6.4-24.399,8.628
		c-0.788,0.783-1.803,0.607-2.765,0.658c-0.961-0.018-1.924,0.027-2.883-0.083c-0.422-0.074-0.801-0.228-1.07-0.58
		c6.746-1.32,13.219-3.582,19.738-5.693c3.945-1.278,7.634-3.127,11.379-4.86C138.707,61.249,138.707,61.893,138.707,62.536z"/>
	<path fill-rule="evenodd" clip-rule="evenodd" fill="#2CADE3" d="M133.525,36.514c-0.489,0.037-0.978,0.075-1.467,0.112
		c-3.131,0.898-6.339,0.784-9.543,0.716c-2.871-0.031-5.742,0.07-8.611,0c-3.264-0.209-6.529,0.134-9.794-0.028
		c-0.594-0.061-1.185-0.137-1.685-0.508c-0.233-0.238-0.268-0.502-0.104-0.794c0.604-0.521,1.359-0.498,2.086-0.584
		c1.883-0.048,3.767,0.125,5.65-0.025c2.355-0.01,4.709,0.132,7.064,0.012c1.894-0.064,3.787,0.129,5.68,0.014
		c2.643-0.27,5.238,0.873,7.738,0.419c-1.205-0.104-2.824,0.641-3.844-0.414c-1.078-1.119-0.604-2.691,0.105-4.027
		c0.316-0.026,0.633-0.077,0.949-0.073c1.744,0.026,3.885-0.545,5.128,0.263C134.275,32.504,133.106,34.846,133.525,36.514z"/>
	<path fill-rule="evenodd" clip-rule="evenodd" fill="#122A4D" d="M36.548,125.403c-1.73,0-3.461,0-5.192,0c0-2.721,0-5.441,0-8.16
		c1.729-1.076,3.459-1.014,5.188,0C36.546,119.964,36.547,122.683,36.548,125.403z"/>
	<path fill-rule="evenodd" clip-rule="evenodd" fill="#45BCEB" d="M104.227,36.125c-0.639,0.002-1.277,0.004-1.915,0.007
		c-2.153,1.205-4.448,0.556-6.698,0.511c-1.139-0.409-2.328-0.3-3.504-0.328c-3.445-0.081-4.324-1.646-2.756-4.907
		c3.039,0,6.08,0,9.119,0c0.146,3.031,1.814,4.097,4.696,3.743C103.643,35.092,104.313,35.324,104.227,36.125z"/>
	<path fill-rule="evenodd" clip-rule="evenodd" fill="#4CC0ED" d="M73.516,31.406c2.879,0,5.758,0,8.637,0.001
		c0.154,0.177,0.386,0.359,0.387,0.573c0.01,2.39,1.279,3.245,3.548,3.127c0.519-0.027,1.551,0.012,1.166,1.167
		c-2.09,0.957-4.264,0.437-6.413,0.379c-1.538-0.532-3.136-0.242-4.704-0.359c-1.276-0.096-2.993,0.556-3.627-0.944
		C71.953,34.035,72.503,32.555,73.516,31.406z"/>
	<path fill-rule="evenodd" clip-rule="evenodd" fill="#3EB8E9" d="M104.227,36.125c-1.201-0.955-2.604-0.432-3.897-0.438
		c-1.771-0.007-2.882-0.231-1.979-2.394c0.229-0.55,0.092-1.253,0.123-1.886c2.88,0,5.76,0,8.639,0
		c0.682,1.742,0.788,3.833,2.876,4.717C108.066,36.125,106.146,36.125,104.227,36.125z"/>
	<path fill-rule="evenodd" clip-rule="evenodd" fill="#51C5F1" d="M73.516,31.406c0.384,1.425-1.476,3.122-0.128,4.075
		c0.95,0.672,2.747,0.095,4.159,0.185c1.059,0.068,2.216-0.424,3.162,0.453c-2.726,1.354-5.597,0.478-8.406,0.552
		c-1.592-0.75-3.529,0.177-5.029-1.025c-0.96,0-1.92,0-2.879,0c-0.147-1.52,0.179-2.931,0.961-4.24
		C68.075,31.407,70.795,31.407,73.516,31.406z"/>
	<path fill-rule="evenodd" clip-rule="evenodd" fill="#1C3A69" d="M31.356,85.564c0-2.4,0-4.8,0-7.199
		c1.761-1.106,3.543-0.97,5.338-0.087c0.831,2.437,0.796,4.879,0.031,7.325C34.929,86.564,33.138,86.67,31.356,85.564z"/>
	<path fill-rule="evenodd" clip-rule="evenodd" fill="#1A3763" d="M31.356,85.564c1.731,0,3.464-0.001,5.196-0.001
		c0.231,0.202,0.396,0.449,0.496,0.74c0.122,2.219,0.628,4.463-0.418,6.609c-1.781,0.78-3.546,0.962-5.274-0.148
		C31.356,90.363,31.356,87.963,31.356,85.564z"/>
	<path fill-rule="evenodd" clip-rule="evenodd" fill="#51C4F1" d="M36.558,36.125c-1.638-1.568-3.276-3.136-4.914-4.704
		c3.396-0.005,6.793-0.009,10.189-0.014c0.054,0.542,0.019,1.112,0.175,1.622c0.805,2.616,0.82,2.553-1.837,2.645
		C38.967,35.715,37.66,35.192,36.558,36.125z"/>
	<path fill-rule="evenodd" clip-rule="evenodd" fill="#2DB1E5" d="M126.803,31.408c0.22,4.009,0.22,4.009,4.207,4.719
		c-1.337,0-2.674,0-4.011,0c-1.353,0-2.704-0.002-4.056-0.003c-0.268-0.191-0.569-0.231-0.892-0.245
		c-3.294-0.142-3.94-1.321-2.46-4.471C121.995,31.408,124.398,31.408,126.803,31.408z"/>
	<path fill-rule="evenodd" clip-rule="evenodd" fill="#17325A" d="M31.356,105.724c0-2.24,0-4.48,0-6.721
		c1.76-1.105,3.54-0.965,5.334-0.09c0.84,2.279,0.804,4.564,0.032,6.854C34.926,106.72,33.136,106.829,31.356,105.724z"/>
	<path fill-rule="evenodd" clip-rule="evenodd" fill="#48BFEE" d="M87.431,36.121c-0.779-0.813-1.807-0.536-2.682-0.436
		c-2.094,0.24-2.937-0.535-2.61-2.627c0.084-0.538,0.014-1.1,0.014-1.651c2.4,0,4.801,0,7.201,0c0,0.079-0.001,0.158-0.001,0.236
		c-0.005,3.965-0.005,3.955,4.019,4.014c0.757,0.011,1.599-0.257,2.217,0.464c-2.566,1.217-5.201,0.715-7.832,0.312
		C87.647,36.33,87.539,36.225,87.431,36.121z"/>
	<path fill-rule="evenodd" clip-rule="evenodd" fill="#1A4581" d="M31.356,43.327c1.731,0.683,3.464,0.089,5.196,0
		c0.846,0.819,0.592,1.891,0.668,2.888c-0.064,1.159,0.172,2.361-0.477,3.44c-1.708,1.333-3.502,1.5-5.388,0.391
		C31.356,47.807,31.356,45.567,31.356,43.327z"/>
	<path fill-rule="evenodd" clip-rule="evenodd" fill="#32B3E7" d="M119.592,31.408c-0.002,0.471,0.044,0.947-0.012,1.412
		c-0.231,1.947,0.194,3.255,2.576,2.881c0.234-0.037,0.523,0.273,0.787,0.423c-1.92,0-3.84,0-5.76,0
		c-0.814-0.464-1.703-0.216-2.555-0.231c-2.638-0.045-3.34-0.889-2.8-3.462c0.083-0.398,0.276-0.736,0.562-1.022
		C114.791,31.408,117.191,31.408,119.592,31.408z"/>
	<path fill-rule="evenodd" clip-rule="evenodd" fill="#1A3561" d="M119.599,138.759c1.334-1.441,3.173-0.812,4.759-1.051
		c4.764-0.715,9.563-1.184,14.35-1.748c0.471,2.141-0.055,3.057-2.567,2.947C130.635,138.665,125.113,138.786,119.599,138.759z"/>
	<path fill-rule="evenodd" clip-rule="evenodd" fill="#18355E" d="M36.542,99.005c-1.729,0-3.458,0-5.186-0.002
		c0-2.078,0-4.158,0-6.239c1.728,0,3.456,0.002,5.184,0.002C37.578,94.847,37.575,96.925,36.542,99.005z"/>
	<path fill-rule="evenodd" clip-rule="evenodd" fill="#172F56" d="M31.356,105.724c1.729,0,3.459,0,5.189,0
		c1.106,1.912,0.875,3.861,0.163,5.824c-1.795,0.918-3.581,1.041-5.352-0.066C31.356,109.562,31.356,107.644,31.356,105.724z"/>
	<path fill-rule="evenodd" clip-rule="evenodd" fill="#142D52" d="M31.356,111.481c1.731,0,3.462,0.002,5.193,0.002
		c0.883,1.111,0.819,2.229,0.017,3.35c-0.007,0.805-0.015,1.607-0.022,2.41c-1.729,0-3.459,0-5.188,0
		C31.356,115.323,31.356,113.403,31.356,111.481z"/>
	<path fill-rule="evenodd" clip-rule="evenodd" fill="#1A4072" d="M31.355,69.245c0-1.76,0-3.52,0-5.279
		c1.752-1.105,3.529-0.956,5.322-0.105c0.818,1.81,0.789,3.625,0.034,5.446C34.916,70.231,33.128,70.351,31.355,69.245z"/>
	<path fill-rule="evenodd" clip-rule="evenodd" fill="#1B427A" d="M31.355,59.166c0-1.6,0-3.199,0-4.799
		c1.724-0.912,3.509-1.116,5.372-0.474c0.769,1.696,0.638,3.414,0.12,5.142C34.65,60.59,33.521,60.617,31.355,59.166z"/>
	<path fill-rule="evenodd" clip-rule="evenodd" fill="#3BB7E8" d="M112.392,31.408c-0.001,0.236-0.002,0.472-0.003,0.708
		c-0.002,3.373-0.002,3.376,3.294,3.529c0.549,0.026,1.114-0.036,1.501,0.479c-2.398,0-4.797,0.001-7.196,0.001
		c-0.758-0.282-2.751-2.967-2.812-3.788c-0.022-0.31-0.043-0.619-0.064-0.929C108.871,31.407,110.631,31.408,112.392,31.408z"/>
	<path fill-rule="evenodd" clip-rule="evenodd" fill="#1A3D6C" d="M36.549,78.364c-1.731,0.001-3.462,0.001-5.193,0.001
		c0-1.6,0-3.2,0-4.8c1.752-1.105,3.53-0.956,5.322-0.105C37.421,75.114,37.576,76.755,36.549,78.364z"/>
	<path fill-rule="evenodd" clip-rule="evenodd" fill="#1B4176" d="M31.355,59.166c1.729,0.528,3.458,0.441,5.187,0.001
		c0.991,1.6,0.99,3.2,0.001,4.8c-1.729,0-3.458,0-5.188-0.001C31.356,62.366,31.356,60.765,31.355,59.166z"/>
	<path fill-rule="evenodd" clip-rule="evenodd" fill="#1B447D" d="M36.542,53.888c-1.686,0.623-3.443,0.466-5.186,0.479
		c0-1.44,0-2.88,0-4.32c1.742-0.012,3.5,0.144,5.186-0.478C37.514,51.008,37.514,52.448,36.542,53.888z"/>
	<path fill-rule="evenodd" clip-rule="evenodd" fill="#1B3E6F" d="M36.547,73.564c-1.73,0-3.461,0-5.192,0c0-1.44,0-2.88,0-4.32
		c1.73,0,3.46,0,5.19,0.001C37.512,70.685,37.51,72.125,36.547,73.564z"/>
	<path fill-rule="evenodd" clip-rule="evenodd" fill="#51C7F2" d="M65.354,31.407c0.147,1.519-0.116,2.945-0.961,4.24
		c-4.163,0.001-4.163,0.001-2.881-4.241C62.793,31.407,64.074,31.407,65.354,31.407z"/>
	<path fill-rule="evenodd" clip-rule="evenodd" fill="#19457E" d="M37.036,116.761c-0.001-0.639-0.002-1.275-0.003-1.914
		c-0.189-0.232-0.187-0.461,0.004-0.689c0.752-0.883,1.716-1,2.821-0.92c3.816,0.275,7.588,0.996,11.431,1.057
		c1.368,0.021,2.704,0.08,4.036-0.271c0.274-0.031,0.544-0.02,0.815,0.025c3.069,0.332,6.154-0.047,9.224,0.219
		c4.933,0.699,9.904,0.477,14.831,0.223c3.831-0.197,7.656-0.266,11.485-0.391c2.045-0.064,4.188,0.08,5.953-1.328
		c1.221-0.549,2.285,0.152,3.405,0.426c0.597,0.201,1.304,0.271,1.357,1.127c-0.207,0.107-0.84,0.166-0.463,0.412
		c0.931,0.611,2.102,0.6,3.237,0.863c-1.93,1.109-4.188,0.949-6.216,1.07c-10.41,0.621-20.829,1.42-31.268,1.025
		c-9.519-0.361-19.05-0.637-28.52-1.791C38.186,115.784,37.742,116.478,37.036,116.761z"/>
	<path fill-rule="evenodd" clip-rule="evenodd" fill="#3AB1E1" d="M102.396,114.323c-0.501-0.174-1.001-0.346-1.502-0.52
		c0.003-0.756,0.599-0.793,1.118-0.926c0.275-0.033,0.55-0.029,0.824,0.002c3.139,0.484,6.266,0.496,9.39-0.15
		c1.051-0.217,2.148-0.709,3.13,0.223c-0.039,0.145-0.088,0.287-0.149,0.424C111.012,114.72,106.752,115.175,102.396,114.323z"/>
	<path fill-rule="evenodd" clip-rule="evenodd" fill="#56CAF4" d="M87.887,67.383c0.169,0.702,0.456,1.341,0.988,1.849
		c0.468,1.468,0.936,2.936,1.404,4.404c1.107,1.535,0.634,3.245,0.555,4.913c-0.453,1.142-0.25,2.388-0.543,3.554
		c-0.086,0.25-0.229,0.466-0.422,0.646c-3-1.014-6.07-1.702-9.254-1.491c-1.168,0.077-1.31-0.583-1.466-1.396
		c-0.129-1.208,0.114-2.44-0.249-3.63c-0.204-0.776-0.273-1.584-0.547-2.344c-0.231-0.958-0.666-1.807-1.378-2.502
		c-1.141-1.46-2.798-2.08-4.441-2.722c-1.869-0.517-3.797-0.009-5.672-0.341c-0.396-0.07-0.843-0.199-0.967-0.587
		c-0.152-0.473,0.263-0.754,0.651-0.804c3.941-0.507,4.381-3.768,5.283-6.671c0.131-0.383,0.379-0.671,0.717-0.887
		c0.479-0.247,0.996-0.321,1.526-0.336c2.374,0.069,4.5,0.899,6.493,2.133c1.017,0.591,2.033,1.183,3.05,1.773
		c0.811-0.113,1.091,0.47,1.377,1.047c0.33,0.323,0.659,0.647,0.988,0.971C86.615,65.769,87.251,66.576,87.887,67.383z"/>
	<path fill-rule="evenodd" clip-rule="evenodd" fill="#1D60AA" d="M81.191,60.605c5.235-0.802,10.516-1.378,15.694-2.454
		c10.332-2.147,20.322-5.264,28.826-11.894c2.52-1.965,4.836-4.146,6.439-6.958c0.744-1.306,1.709-2.052,3.277-1.733
		c-1.701,4.305-4.849,7.395-8.518,10.009c-7.978,5.683-16.953,8.998-26.443,11.116c-5.038,1.124-10.084,2.066-15.245,2.482
		c-1.385,0.111-2.685,0.558-4.023-0.089c-0.161-0.104-0.216-0.209-0.165-0.317S81.138,60.605,81.191,60.605z"/>
	<path fill-rule="evenodd" clip-rule="evenodd" fill="#1C5A9D" d="M81.191,60.605c0.001,0.16,0.004,0.32,0.008,0.479
		c-0.211,0.028-0.422,0.056-0.634,0.084c-2.183-0.552-4.302-1.369-6.566-1.581c-0.144-0.258-0.098-0.476,0.136-0.656
		c0.219-0.14,0.455-0.233,0.708-0.287c1.429-0.114,2.839-0.152,3.947,1C79.459,60.293,80.346,60.399,81.191,60.605z"/>
	<path fill-rule="evenodd" clip-rule="evenodd" fill="#18589C" d="M84.991,63.99c-0.459-0.349-0.918-0.698-1.377-1.047
		C84.818,62.311,85.012,63.01,84.991,63.99z"/>
	<path fill-rule="evenodd" clip-rule="evenodd" fill="#1B4278" d="M37.04,114.36c-0.002,0.162-0.005,0.324-0.007,0.486
		c-0.156-0.004-0.311-0.008-0.466-0.014c-0.006-1.117-0.011-2.234-0.017-3.35c-0.001-1.92-0.002-3.84-0.004-5.76
		c-0.001-2.238-0.002-4.479-0.003-6.719c-0.001-2.08-0.001-4.158-0.002-6.239c0.009-2.244,0.017-4.488,0.026-6.734
		c0.266-0.146,0.496-0.103,0.69,0.132c0.232,0.34,0.335,0.723,0.381,1.125c0.111,1.068,0.019,2.141,0.09,3.211
		c0.042,1.234-0.05,2.469,0.01,3.706c0.048,1.119-0.042,2.238-0.003,3.359c0.041,1.27,0.004,2.539-0.017,3.811
		c0.09,1.27-0.033,2.539,0.018,3.809c0.053,1.125-0.033,2.25-0.008,3.373c0.057,1.127-0.027,2.252-0.006,3.379
		C37.746,112.815,37.649,113.661,37.04,114.36z"/>
	<path fill-rule="evenodd" clip-rule="evenodd" fill="#0F56A0" d="M90.291,78.852c-0.004-1.739-0.008-3.478-0.012-5.216
		c0.014-0.341,0.025-0.683,0.039-1.025c1.68,2.99,4.33,1.19,6.523,1.165c1.166-0.014,2.162-0.151,3.065,0.667
		c-0.111,0.25-0.278,0.456-0.499,0.618c-1.691,1.577-3.74,2.264-6.008,2.413c-1.045,0.068-2.04,0.035-2.498-1.173
		c-0.135-0.272-0.415,0.204-0.181-0.014c0.079-0.073,0.147-0.033,0.204,0.122c0.917,2.501,0.723,3.829-0.712,4.844
		C90.035,80.444,89.935,79.64,90.291,78.852z"/>
	<path fill-rule="evenodd" clip-rule="evenodd" fill="#51C5F1" d="M116.205,72.667c0.762,0.16,1.521,0.32,2.282,0.481
		c0.14,0.564,0.474,0.913,1.075,0.963c-0.27,1.46-1.707,2.207-2.158,3.582c-0.328,1.002-1.268,1.729-0.812,3.066
		c0.328,0.968-0.768,0.919-1.43,1.058c-2.428-0.487-4.951-0.052-7.353-0.771c-0.688-0.707-0.046-0.977,0.453-1.149
		c1.007-0.348,2.023-0.32,2.96,0.217C109.888,78.211,113.381,72.956,116.205,72.667z"/>
	<path fill-rule="evenodd" clip-rule="evenodd" fill="#4DC2F0" d="M115.611,81.312c1.705-0.585-1.242-0.692-0.117-1.654
		c1.611-1.378,1.693-4.024,3.738-5.223c0.129-0.075,0.221-0.215,0.33-0.324c1.201,0.274,1.057,1.242,1.057,2.105
		c0.004,2.32-0.02,4.639-0.031,6.959c-0.334,0.016-0.667,0.032-1.001,0.049c-0.45-0.198-0.901-0.396-1.351-0.595
		C117.287,82.337,116.011,82.699,115.611,81.312z"/>
	<path fill-rule="evenodd" clip-rule="evenodd" fill="#0C5198" d="M121.508,79.324c-0.212,1.271,0.481,2.656-0.479,3.834
		c0.008-1.438,0.017-2.875,0.024-4.312c0.15-0.214,0.302-0.226,0.454-0.003C121.508,79.003,121.508,79.164,121.508,79.324z"/>
	<path fill-rule="evenodd" clip-rule="evenodd" fill="#0C529A" d="M121.508,78.843c-0.151,0-0.303,0.001-0.454,0.003
		c0-1.09,0-2.181,0-3.271c0.151-0.005,0.303-0.01,0.454-0.015C121.508,76.655,121.508,77.749,121.508,78.843z"/>
	<path fill-rule="evenodd" clip-rule="evenodd" fill="#47BFEF" d="M114.789,89.832c0.652,0.479,1.304,0.955,1.955,1.434
		c0.213,0.986-0.648,1.148-1.201,1.5c-1.754,1.12-3.578,2.144-5.58,2.72c-1.434,0.414-2.539,1.143-3.332,2.383
		c-1.533,0.182-2.638-0.861-3.932-1.367c-0.717-0.447-1.516-0.83-1.537-1.854c0.357-1.382,1.547-1.728,2.676-2.128
		c2.334-0.826,4.74-1.506,6.779-2.973c0.941-0.676,1.809-0.16,2.714-0.09C113.816,89.582,114.303,89.707,114.789,89.832z"/>
	<path fill-rule="evenodd" clip-rule="evenodd" fill="#0C529B" d="M115.611,81.312c0.875,0.439,1.75,0.878,2.624,1.317
		c-0.146,1.125-0.825,1.699-1.907,1.875c-2.796,0.452-5.537,1.13-8.225,2.018c-1.842,0.154-2.672-1.01-3.264-2.492
		c-0.082-1.924,0.586-3.22,2.745-3.253C110.289,80.517,112.959,80.791,115.611,81.312z"/>
	<path fill-rule="evenodd" clip-rule="evenodd" fill="#4CC1EF" d="M113.331,89.457c-4.096,1.629-8.34,2.916-12.112,5.286
		c-1.285,0.514-1.769-0.695-2.585-1.195c-0.447-0.401-0.901-0.798-0.844-1.485c0.136-0.906,0.517-1.73,1.401-2.033
		c2.669-0.916,5.368-1.744,7.932-2.951c0.429-0.201,0.926,0.105,1.395,0.016C110.17,87.783,111.939,88.236,113.331,89.457z"/>
	<path fill-rule="evenodd" clip-rule="evenodd" fill="#50C4F0" d="M108.518,87.094c-2.889,1.254-5.701,2.73-8.842,3.275
		c-1.168,0.203-1.031,1.285-1.561,1.906c-1.369-0.227-1.852-1.316-2.342-2.4c-0.09-0.35-0.09-0.699-0.017-1.049
		c0.269-1.201,1.021-1.99,2.181-2.309c2.461-0.675,4.767-1.808,7.254-2.396c0.712,1.113,1.672,1.926,2.911,2.4
		C108.241,86.711,108.379,86.902,108.518,87.094z"/>
	<path fill-rule="evenodd" clip-rule="evenodd" fill="#2062AC" d="M78.79,59.646c-1.442-0.127-2.832-0.712-4.313-0.484
		c-4.203,0.254-8.41,0.195-12.615,0.195c-6.439-1.351-12.999-2.203-19.279-4.232c-1.895-0.613-3.895-0.613-5.727-1.375
		c-0.1-1.654-0.062-3.308-0.021-4.961c0.935-1.161,2.048-0.614,3.045-0.213c7.249,2.915,14.787,4.628,22.545,5.323
		c15.469,1.385,30.622,0.18,45.076-6.021c5.126-2.199,9.673-5.26,13.12-9.75c0.502-0.655,1.135-1.111,1.842-1.496
		c3.198-0.002,6.397-0.004,9.597-0.007c-1.224,0.438-1.836,1.333-2.512,2.468c-2.681,4.506-6.858,7.462-11.343,9.944
		c-9.82,5.437-20.475,8.009-31.56,9.273C84.041,58.608,81.201,58.05,78.79,59.646z"/>
	<path fill-rule="evenodd" clip-rule="evenodd" fill="#3EB8E9" d="M72.068,36.121c2.88,0,5.76-0.001,8.641-0.001
		c2.241,0,4.481,0.001,6.722,0.001c0,0,0.002,0.01,0.002,0.01c0.136,0.343,0.043,0.605-0.276,0.79
		c-0.883,0.478-1.853,0.446-2.809,0.45c-15.022,0.061-30.044-0.033-45.066-0.092c-0.639-0.003-1.28,0.005-1.9-0.197
		c-0.289-0.138-0.544-0.322-0.767-0.552c-0.037-0.127-0.062-0.257-0.075-0.39c10.245-0.006,20.489-0.013,30.734-0.019
		C68.871,35.751,70.469,35.752,72.068,36.121z"/>
	<path fill-rule="evenodd" clip-rule="evenodd" fill="#51C7F2" d="M72.068,36.121c-1.599,0-3.197,0-4.795,0c0-0.158,0-0.316,0-0.474
		C68.865,35.863,70.549,35.155,72.068,36.121z"/>
	<path fill-rule="evenodd" clip-rule="evenodd" fill="#46BBEB" d="M106.521,97.612c-0.272-1.125,0.15-1.67,1.299-2
		c3.218-0.924,6.224-2.337,8.925-4.347c0.626,0.344,1.252,0.689,1.877,1.033c0.348,0.438,0.693,0.875,1.039,1.313
		c0.221,1.125-0.764,1.281-1.397,1.629c-1.47,0.807-2.929,1.688-4.524,2.189c-1.383,0.434-2.25,1.418-3.213,2.346
		c-1.547,0.166-2.694-0.699-3.87-1.496C106.488,98.083,106.444,97.86,106.521,97.612z"/>
	<path fill-rule="evenodd" clip-rule="evenodd" fill="#53CAF4" d="M99.495,74.548c0.144-0.01,0.281-0.044,0.412-0.105
		c1.483-0.741,2.966-1.482,4.448-2.223c0.705-0.555,1.579-0.397,2.376-0.564c1.94-0.014,3.882-0.014,5.821,0
		c0.393,0.011,0.786,0.033,1.135,0.249c0.324,1.45-0.875,1.19-1.572,1.275c-1.113,0.134-1.957,0.521-2.52,1.534
		c-2.244,4.044-5.842,6.446-10.025,8.062c-1.639,0.633-3.09,1.251-3.062,3.377c0.006,0.533-0.324,1.101-1.103,0.886
		c-1.313-1.151-0.921-2.629-0.787-4.06C95.254,79.599,96.186,76.385,99.495,74.548z"/>
	<path fill-rule="evenodd" clip-rule="evenodd" fill="#125395" d="M106.549,72.094c-0.73,0.042-1.463,0.083-2.193,0.125
		c0.841-1.075,2.043-1.049,3.234-1.061c0.32,0.002,0.641,0.003,0.961,0.005c0.162,0.201,0.152,0.399-0.005,0.597
		C107.908,72.037,107.163,71.672,106.549,72.094z"/>
	<path fill-rule="evenodd" clip-rule="evenodd" fill="#51C7F2" d="M95.582,87.004c0.059-0.055,0.172-0.115,0.167-0.164
		c-0.292-3.201,1.897-4.125,4.363-5.021c4.104-1.49,7.333-4.111,9.314-8.091c0.413-0.829,1.022-1.113,1.911-1.141
		c0.84-0.027,1.777,0.328,2.49-0.448c0.467-0.395,0.927-0.347,1.383,0.016c0.332,0.17,0.663,0.341,0.994,0.511
		c-2.524,1.029-5.486,6.148-4.336,7.495c-1.384,0.513-2.982-0.477-4.284,0.615c-1.29,0.763-2.53,1.562-2.394,3.346
		c-1.58,1.5-3.668,1.856-5.639,2.425c-1.484,0.43-2.832,0.936-3.58,2.404C94.84,88.504,95.084,87.779,95.582,87.004z"/>
	<path fill-rule="evenodd" clip-rule="evenodd" fill="#105294" d="M115.211,72.155c-0.461-0.005-0.922-0.011-1.383-0.016
		c-0.274-0.021-0.549-0.043-0.823-0.064c-0.497-0.3-1.098-0.098-1.61-0.329c-0.145-0.203-0.126-0.397,0.032-0.583
		c0.96,0,1.921,0,2.881,0c0.277,0.462,0.745,0.453,1.198,0.506c0.102,0.012,0.188,0.144,0.28,0.221
		C115.595,71.979,115.403,72.067,115.211,72.155z"/>
	<path fill-rule="evenodd" clip-rule="evenodd" fill="#2EB0E5" d="M122.479,102.843c0.007,0.641,0.013,1.281,0.019,1.92
		c-0.197,0.473-0.395,0.943-0.592,1.416c-7.25,2.922-14.721,5.016-22.498,5.947c-0.48,0.057-0.934,0.182-1.363,0.404
		c-1.165,0.455-1.99-0.152-2.781-0.881c-0.369-0.426-0.599-0.918-0.711-1.469c-0.222-2.26-0.061-4.535-0.361-6.805
		c-0.227-1.719,0.432-2.145,2.035-1.719c0.229,1.777-0.026,3.559,0.025,5.338c0.055,0.877-0.055,1.736-0.265,2.537
		c0.868-0.793,2.027-0.828,3.098-0.975c6.985-0.955,13.749-2.697,20.251-5.445C120.322,102.694,121.355,102.001,122.479,102.843z"/>
	<path fill-rule="evenodd" clip-rule="evenodd" fill="#28AEE3" d="M97.91,112.521c0.748-1.889,2.932-1.619,4.01-1.66
		c5.318-0.207,10.178-1.9,15.096-3.584c1.569-0.537,3.044-1.725,4.892-1.098c0.022,0.166,0.045,0.332,0.067,0.5
		c-0.827,0.771-0.859,2.102-1.906,2.719c-0.98-0.473-1.859-0.002-2.756,0.299c-4.898,1.641-9.934,2.727-14.996,3.697
		c-0.162,0-0.324,0.002-0.486,0.002c-1.251-0.061-2.387-0.646-3.619-0.791C98.111,112.577,98.011,112.548,97.91,112.521z"/>
	<path fill-rule="evenodd" clip-rule="evenodd" fill="#3FB8EA" d="M110.375,99.526c0.214-1.395,1.238-1.932,2.417-2.379
		c2.421-0.914,4.796-1.936,6.868-3.535c0.618,0.672,1.235,1.344,1.853,2.016c-0.003,0.17-0.007,0.342-0.011,0.512
		c0.548,1.346-0.617,1.596-1.367,2.023c-2.477,1.418-5.209,2.348-7.598,3.941C111.16,101.796,110.514,100.874,110.375,99.526z"/>
	<path fill-rule="evenodd" clip-rule="evenodd" fill="#24ACE3" d="M102.316,113.394c2.336-1.729,5.256-1.492,7.867-2.311
		c2.633-0.824,5.356-1.348,7.942-2.369c0.64-0.254,1.934-1.297,1.942,0.686c-0.176,0.209-0.352,0.418-0.527,0.627
		c-0.606,0.551-1.213,1.102-1.818,1.654c-0.352,0.592-0.876,0.971-1.507,1.217c-0.288,0.018-0.575,0.037-0.861,0.055
		c-3.109,0.299-6.136,1.279-9.329,0.969C104.774,113.8,103.526,113.765,102.316,113.394z"/>
	<path fill-rule="evenodd" clip-rule="evenodd" fill="#31B2E5" d="M122.479,102.843c-2.641,0.336-4.949,1.672-7.382,2.582
		c-5.838,2.184-11.92,3.135-18.008,4.15c-2.58,0.43-1.091-1.557-1.492-2.418c0.191-0.164,0.399-0.305,0.623-0.422
		c2.777-0.555,5.621-0.822,8.275-1.92c0.355-0.055,0.713-0.043,1.066,0.016c1.181,0.316,2.37,0.414,3.568,0.1
		c0.396-0.133,0.775-0.303,1.114-0.555c0.681-0.514,1.249-1.205,2.149-1.373c2.544-0.658,4.896-1.818,7.316-2.795
		c1.172-0.473,2.137-0.602,2.785,0.723C122.49,101.569,122.484,102.206,122.479,102.843z"/>
	<path fill-rule="evenodd" clip-rule="evenodd" fill="#39B6E8" d="M122.496,100.931c-0.799-0.693-1.532-0.615-2.557-0.246
		c-2.512,0.904-4.74,2.723-7.617,2.512c-0.35-0.447-0.326-0.883,0.04-1.307c1.728-2.305,4.712-2.395,6.881-3.916
		c0.794-0.555,2.079-0.521,2.259-1.834C122.34,97.632,122.02,99.364,122.496,100.931z"/>
	<path fill-rule="evenodd" clip-rule="evenodd" fill="#1A447C" d="M116.216,112.897c0.442-0.48,0.651-1.248,1.506-1.219
		C118.086,113.157,117.203,113.091,116.216,112.897z"/>
	<path fill-rule="evenodd" clip-rule="evenodd" fill="#2062AC" d="M36.614,36.53c0.141,0.026,0.28,0.059,0.417,0.099
		c0.183,0.212,0.334,0.445,0.458,0.697c0.407,1.502,0.153,3.038,0.235,4.557c-0.057,1.39,0.216,2.814-0.434,4.142
		c-0.191,0.269-0.432,0.325-0.723,0.171c-0.005-0.956-0.01-1.912-0.015-2.868C36.573,41.061,36.593,38.795,36.614,36.53z"/>
	<path fill-rule="evenodd" clip-rule="evenodd" fill="#1B5795" d="M111.427,71.164c0.002,0.147,0.003,0.293,0.005,0.44
		c-0.961,0.431-1.924,0.431-2.885,0c0.001-0.146,0.002-0.293,0.004-0.439C109.51,71.164,110.469,71.164,111.427,71.164z"/>
	<path fill-rule="evenodd" clip-rule="evenodd" fill="#2365AD" d="M37.031,46.213c0.003-1.443,0.005-2.887,0.008-4.33
		c0.849-1.475,2.042-1.391,3.269-0.62c11.406,7.177,24.127,8.638,37.133,8.02c9.963-0.473,19.685-2.445,28.213-8.185
		c0.597-0.401,1.424-0.695,1.697-1.298c1.307-2.882,3.807-3.149,6.466-3.168c2.882,0,5.763,0,8.646-0.001
		c-5.381,8.391-13.82,12.091-22.855,14.821c-7.566,2.286-15.316,3.177-23.228,3.475c-12.779,0.481-25.133-1.125-37.025-5.9
		c-0.771-0.309-1.517-0.448-2.321-0.421C36.678,47.809,36.675,47.012,37.031,46.213z"/>
	<path fill-rule="evenodd" clip-rule="evenodd" fill="#2667AF" d="M113.817,36.633c-3.414-0.383-4.625,2.637-6.788,4.265
		c-5.566,4.189-12.023,6.349-18.805,7.728c-6.748,1.372-13.58,1.867-20.388,1.341c-9.777-0.755-19.421-2.383-27.749-8.18
		c-1.171-0.815-2.051-0.484-3.048,0.096c0-1.599,0.001-3.198,0.001-4.798c4.912-0.511,9.826-0.114,14.814-0.209
		c-0.105,1.623-1.811,0.958-2.254,1.951c0.351,0.917,1.296,1.083,2.044,1.433c8.559,4,17.61,4.903,26.89,4.073
		c5.51-0.493,10.884-1.651,15.919-4.069c1.166-0.56,2.293-1.136,2.682-2.536c0.303-1.087,1.227-1.022,2.119-1.139
		c1.504-0.197,2.984,0.556,4.479,0.048C107.096,36.637,110.457,36.635,113.817,36.633z"/>
	<path fill-rule="evenodd" clip-rule="evenodd" fill="#2669B1" d="M103.734,36.639c-0.807,0.785-1.82,0.317-2.736,0.448
		c-1.373,0.197-3.027-0.819-3.521,1.908c-0.287,1.579-2.878,2.088-4.561,2.716c-9.729,3.631-19.71,4.458-29.97,2.702
		c-4.678-0.801-9.103-2.16-13.268-4.391c-0.649-0.348-1.883-0.417-1.691-1.349c0.179-0.872,1.299-1.029,2.193-1.101
		c0.378-0.03,0.758-0.042,1.138-0.488c-4.759,0-9.518,0-14.277,0c-0.003-0.152-0.006-0.305-0.01-0.457
		c15.685-0.01,31.371-0.019,47.056-0.033c1.114-0.001,2.228-0.041,3.342-0.063c4.959-0.26,9.919-0.259,14.878,0
		C102.783,36.567,103.26,36.604,103.734,36.639z"/>
	<path fill-rule="evenodd" clip-rule="evenodd" fill="#32B3E7" d="M102.307,36.532c-4.959,0-9.919,0.001-14.878,0.001
		c0.002-0.135,0.003-0.268,0.004-0.402c2.719-0.003,5.437-0.006,8.155-0.01c2.241,0.003,4.482,0.006,6.724,0.01
		C102.311,36.265,102.309,36.398,102.307,36.532z"/>
	<path fill-rule="evenodd" clip-rule="evenodd" fill="#135194" d="M37.031,46.213c0.001,0.798,0.001,1.596,0.002,2.394
		c0.001,1.76,0.002,3.519,0.002,5.279c0.809,0.819,0.66,1.864,0.682,2.87c0.059,1.413,0.01,2.826,0.005,4.239
		c0.071,0.979-0.034,1.958,0.002,2.937c0.048,0.976-0.009,1.952-0.013,2.928c0.071,1.256-0.004,2.513,0.013,3.77
		c0.069,0.982-0.044,1.965,0.006,2.948c0.077,0.995-0.071,1.991,0.022,2.986c0.042,2.179-0.02,4.356-0.013,6.535
		c-0.004,1.041,0.118,2.111-0.71,2.952c-0.155-0.003-0.31-0.009-0.464-0.019c-0.001-0.156-0.005-0.312-0.013-0.469
		c-0.001-2.399-0.002-4.799-0.003-7.199c0-1.6-0.001-3.199-0.002-4.799c0-1.439-0.001-2.879-0.002-4.319
		c0-1.76-0.001-3.52-0.001-5.279c0-1.6,0-3.2-0.001-4.8c0-1.76-0.001-3.52-0.001-5.279c0-1.439,0-2.879,0-4.319
		c0.008-1.125,0.017-2.25,0.025-3.374C36.722,46.202,36.876,46.208,37.031,46.213z"/>
	<path fill-rule="evenodd" clip-rule="evenodd" fill="#1A4581" d="M95.612,111.468c0.767,0.35,1.532,0.701,2.299,1.053
		c-0.001,0,0.019-0.016,0.019-0.016c0.195,0.064,0.269,0.146,0.224,0.248c-0.05,0.109-0.101,0.166-0.158,0.166
		c-0.13,0.543,0.784,1.65-0.757,1.436c-1.383-0.193-2.668,0.492-4.01,0.467c-8.53-0.16-17.036,0.846-25.57,0.514
		c-0.812-0.033-1.59-0.082-2.306-0.494c-2.331-0.539-4.698-0.094-7.042-0.252c-0.852-0.057-1.735,0.217-2.554-0.225
		c-0.161,0-0.322-0.002-0.482-0.002c-0.139-0.291-0.08-0.531,0.173-0.727c0.237-0.154,0.495-0.258,0.77-0.318
		c2.882-0.248,5.776,0.051,8.66-0.189c0.26-0.105,0.515-0.215,0.762-0.35c1.073-1.045,2.434-1.068,3.794-1.074
		c3.578-0.016,7.159-0.111,10.731,0.021c4.226,0.16,8.402-0.539,12.615-0.523C93.734,111.206,94.688,111.161,95.612,111.468z"/>
	<path fill-rule="evenodd" clip-rule="evenodd" fill="#1A4581" d="M55.315,113.784c-0.014,0.193-0.027,0.385-0.041,0.578
		c-2.966,1.6-6.028,0.27-9.032,0.217c-3.065-0.053-6.104-1.217-9.203-0.219c0-0.801,0-1.602,0-2.402
		c0.807-1.371,2.163-1.23,3.411-1.115c4.126,0.379,8.251,0.76,12.394,0.926c0.966,0.039,1.933,0.156,2.46,1.162
		C55.428,113.214,55.432,113.499,55.315,113.784z"/>
	<path fill-rule="evenodd" clip-rule="evenodd" fill="#1A447C" d="M55.756,114.364c3.192,0.295,6.444-0.609,9.596,0.477
		C62.161,114.544,58.909,115.45,55.756,114.364z"/>
	<path fill-rule="evenodd" clip-rule="evenodd" fill="#2EB0E5" d="M97.995,112.919c-0.04-0.135-0.062-0.273-0.064-0.414
		c1.497-0.566,2.636,0.432,3.899,0.891c-0.312,0.137-0.625,0.273-0.937,0.408C99.928,113.509,98.961,113.214,97.995,112.919z"/>
	<path fill-rule="evenodd" clip-rule="evenodd" fill="#0D539C" d="M79.323,75.933c0.707,1.199,0.186,2.527,0.395,3.779
		c-0.223,1.554,0.028,3.219-1.073,4.568c-0.714,1.097-1.469,2.149-2.861,2.46c-3.226,1.227-6.487,2.059-9.93,0.893
		c-0.188-0.227-0.287-0.488-0.302-0.781c0.431-2.822-0.483-5.739,0.604-8.513c1.929-0.77,3.91-0.061,5.868-0.176
		C74.659,78.006,77.517,78.75,79.323,75.933z"/>
	<path fill-rule="evenodd" clip-rule="evenodd" fill="#54C8F3" d="M72.072,60.126c0.988,1.486-0.176,2.45-0.8,3.604
		c-1.098,2.032-1.682,4.614-5.11,3.67c2.372,0.868,4.729-0.247,6.871,0.872c-1.04,0.989-2.355,0.641-3.577,0.72
		c-0.933,0.061-1.887-0.087-2.768,0.335c-0.965,0.69-0.583,1.722-0.673,2.629c-0.178,1.785,0.43,3.644-0.507,5.357
		c-1.411,0.179-1.225-0.99-1.242-1.695c-0.051-2.155-0.25-4.257-0.889-6.338c-0.351-1.144-0.161-2.398,0.298-3.515
		c0.806-1.963,1.577-3.94,2.359-5.916C68.074,59.357,70.108,58.992,72.072,60.126z"/>
	<path fill-rule="evenodd" clip-rule="evenodd" fill="#0C519A" d="M95.582,87.004c0.044,0.666-0.229,1.396,0.391,1.947
		c0.059,0.303,0.117,0.607,0.177,0.91c-2.431,1.881-5.294,1.084-7.99,1.238c-0.621,0.037-1.046-0.65-1.312-1.254
		c-0.368-1.361,0.794-2.291,0.985-3.496c0.68-1.208,1.093-2.559,1.913-3.697c0.025-0.158,0.051-0.315,0.076-0.473
		c0.217-0.252,0.367-0.594,0.782-0.576c1.216,0.985,2.426,2.314,3.696,0.055c0.158-0.282,0.49-0.561,0.736-0.367
		c0.51,0.4,0.333,0.964,0.107,1.479C95.328,84.179,94.9,85.648,95.582,87.004z"/>
	<path fill-rule="evenodd" clip-rule="evenodd" fill="#54C8F3" d="M89.746,82.653c0.254,1.539-0.852,2.599-1.365,3.867
		c-2.855-0.109-5.677-0.482-8.445-1.183c-0.692-0.175-1.691-0.099-1.665-1.275c0.482-1.45,0.965-2.899,1.447-4.35
		c0.097,0.364,0.017,1.146,0.283,1.037c2.801-1.141,5.377,0.896,8.095,0.491C89.232,81.071,89.238,82.135,89.746,82.653z"/>
	<path fill-rule="evenodd" clip-rule="evenodd" fill="#1058A3" d="M77.423,71.122c0.808,0.618,1.238,1.446,1.36,2.445
		c-0.046,1.207-0.404,2.294-1.761,2.44c-3.158,0.338-6.329,0.396-9.486-0.068c-0.555-0.082-1.032-0.4-1.404-0.84
		c-0.345-0.58-0.234-1.23-0.299-1.857c-0.18-1.734,0.52-2.499,2.313-2.367C71.233,71.102,74.341,70.623,77.423,71.122z"/>
	<path fill-rule="evenodd" clip-rule="evenodd" fill="#0E55A0" d="M66.315,75.005c3.508,0.944,7.083,0.301,10.625,0.457
		c1.316,0.058,1.159-1.331,1.843-1.895c0.49,0.718,0.577,1.528,0.54,2.366c-0.353,3-2.366,3.163-4.775,2.937
		c-2.735-0.256-5.529,0.355-8.233-0.505C65.58,77.245,65.632,76.125,66.315,75.005z"/>
	<path fill-rule="evenodd" clip-rule="evenodd" fill="#145AA5" d="M66.315,75.005c0,1.12,0,2.239,0,3.359
		c-0.254,2.876,0.529,5.803-0.425,8.645c-1.459-2.521-0.832-5.304-0.61-7.886c0.266-3.09,0.222-6.163,0.325-9.243
		c0.018-0.539-0.154-1.123,0.295-1.586c2.378-0.007,4.755-0.015,7.133-0.022c1.63,0.693,3.42,1.14,4.391,2.849
		c-2.837,1.099-5.809,0.575-8.675,0.421c-2.252-0.121-2.742,0.576-2.442,2.514C66.354,74.366,66.314,74.689,66.315,75.005z"/>
	<path fill-rule="evenodd" clip-rule="evenodd" fill="#2165A4" d="M73.991,59.166c0,0.141,0.003,0.282,0.008,0.423
		c-0.486,0.031-0.971,0.062-1.457,0.092c-2.319,0.538-4.704-0.135-7.025,0.381c-1.063,0.348-2.092,0.369-3.047-0.316
		c-0.158-0.317-0.089-0.573,0.208-0.769C66.448,59.014,70.226,58.671,73.991,59.166z"/>
	<path fill-rule="evenodd" clip-rule="evenodd" fill="#5BCBF4" d="M65.37,59.695c2.391-0.005,4.781-0.01,7.171-0.015
		c-0.156,0.149-0.313,0.297-0.469,0.445c-2.08,0-4.16-0.001-6.239-0.001C65.425,60.255,65.292,60.089,65.37,59.695z"/>
	<path fill-rule="evenodd" clip-rule="evenodd" fill="#54C8F3" d="M90.289,81.714c-0.155,0.156-0.311,0.311-0.467,0.466
		c0.192-1.104-0.419-2.322,0.469-3.329c0.014,0.795,0.027,1.589,0.041,2.384c0.134,0.12,0.172,0.23,0.115,0.333
		C90.393,81.666,90.34,81.714,90.289,81.714z"/>
	<path fill-rule="evenodd" clip-rule="evenodd" fill="#1A5A9F" d="M73.991,59.166c-3.839,0-7.678,0-11.517,0
		c-0.285,0.281-0.604,0.29-0.947,0.124c-0.119-0.132-0.16-0.265-0.125-0.4c0.036-0.136,0.073-0.204,0.111-0.204
		c3.576,0,7.151-0.015,10.727,0.009c0.763,0.005,1.612-0.255,2.236,0.468C74.314,59.164,74.153,59.165,73.991,59.166z"/>
	<path fill-rule="evenodd" clip-rule="evenodd" fill="#0C529B" d="M37.029,86.05c0.004-0.963,0.007-1.927,0.011-2.891
		c0.313-1.19,1.168-1.707,2.308-1.596c5.134,0.503,10.274,0.958,15.366,1.837c0.374,0.285,0.546,0.684,0.64,1.127
		c0.103,1.013,0.2,2.028-0.341,2.967c-1.012,0.971-2.249,0.998-3.555,0.922c-4.827-0.285-9.589-1.221-14.423-1.414
		C37.031,86.686,37.03,86.367,37.029,86.05z"/>
	<path fill-rule="evenodd" clip-rule="evenodd" fill="#0F4C8E" d="M37.038,101.401c0-1.279,0-2.559-0.001-3.84
		c0.721-1.27,1.977-1.25,3.148-1.164c4.345,0.316,8.661,0.988,13.033,0.996c2.299,0.004,2.098,1.961,2.525,3.406
		c0.175,1.145,0.38,2.291-0.276,3.365c-5.281-2.516-11.064-1.635-16.6-2.432C38.251,101.644,37.585,101.87,37.038,101.401z"/>
	<path fill-rule="evenodd" clip-rule="evenodd" fill="#0C5198" d="M37.033,87.004c1.533-1.141,3.286-0.648,4.83-0.328
		c3.431,0.717,6.943,0.547,10.373,1.203c0.798,0.154,1.703-0.248,2.559-0.396c0.584,0.439,0.771,1.096,0.969,1.75
		c0.137,1.484,0.472,2.982-0.317,4.399c-5.245-2.964-11.233-1.78-16.793-2.991c-0.53-0.115-1.111,0.014-1.619-0.277
		C37.034,89.244,37.033,88.123,37.033,87.004z"/>
	<path fill-rule="evenodd" clip-rule="evenodd" fill="#124B8A" d="M37.038,101.401c2.738-1.096,5.519-0.084,8.19,0.174
		c2.489,0.24,5.038,0.326,7.531,0.588c1.79,0.186,2.037,0.963,2.467,2.121c1.005,1.158,0.822,2.404,0.273,3.676
		c-0.122,0.113-0.346,0.258-0.376,0.219c-1.645-2.219-4.166-2.102-6.45-2.166c-3.893-0.109-7.735-0.85-11.633-0.773
		C37.039,103.96,37.039,102.681,37.038,101.401z"/>
	<path fill-rule="evenodd" clip-rule="evenodd" fill="#0C5095" d="M37.034,90.363c1.382-0.822,2.747-0.252,4.168-0.07
		c3.54,0.449,7.1,0.783,10.662,0.994c1.75,0.105,3.113,0.404,3.346,2.437c0.941,1,0.814,2.09,0.275,3.215
		c-0.063,0.043-0.183,0.131-0.187,0.125c-1.874-2.279-4.517-1.486-6.905-1.766c-3.779-0.441-7.552-0.928-11.357-1.096
		C37.035,92.922,37.035,91.643,37.034,90.363z"/>
	<path fill-rule="evenodd" clip-rule="evenodd" fill="#144A88" d="M37.039,105.239c1.843-1.695,4.045-0.588,5.864-0.309
		c2.994,0.459,6,0.18,8.996,0.646c1.905,0.297,2.959,0.707,3.335,2.547c0.833,0.869,0.767,1.807,0.216,2.781
		c-5.182-2.061-10.739-1.227-16.081-2.062c-0.767-0.119-1.584,0.16-2.33-0.244C37.04,107.479,37.04,106.36,37.039,105.239z"/>
	<path fill-rule="evenodd" clip-rule="evenodd" fill="#0F4E91" d="M37.036,94.202c0.729-0.4,1.315-0.751,2.347-0.654
		c4.083,0.377,8.128,1.381,12.25,1.098c1.982-0.137,3.347,0.211,3.582,2.439c0.994,1.277,0.986,2.557,0.008,3.84
		c-0.134-2.914-2.001-3.057-4.317-2.922c-3.084,0.178-6.132-0.453-9.191-0.824c-1.552-0.188-3.176-0.42-4.678,0.383
		C37.037,96.442,37.036,95.323,37.036,94.202z"/>
	<path fill-rule="evenodd" clip-rule="evenodd" fill="#174784" d="M37.04,108.599c3.384-1.314,6.742,0.174,10.113,0.207
		c1.617,0.016,3.356,0.471,4.948,0.199c1.891-0.322,2.839,0.148,3.135,2c0.74,0.799,0.739,1.598,0,2.398
		c-0.447-0.297-0.647-0.947-1.305-0.938c-5.132,0.08-10.203-0.795-15.317-0.955c-0.52-0.018-1.049,0.291-1.573,0.447
		C37.04,110.839,37.04,109.72,37.04,108.599z"/>
	<path fill-rule="evenodd" clip-rule="evenodd" fill="#0C559F" d="M90.289,81.714c0.015-0.159,0.028-0.319,0.043-0.479
		c0.992-1.621,0.129-3.437,0.547-5.11c1.385,1.026,5.106,0.815,6.625-0.414c0.609-0.493,1.057-1.237,1.991-1.164
		c-2.508,2.182-3.604,5.11-4.352,8.224c-0.019-0.232-0.017-0.47-0.062-0.698c-0.035-0.181-0.088-0.54-0.363-0.225
		C92.491,84.391,91.863,84.378,90.289,81.714z"/>
	<path fill-rule="evenodd" clip-rule="evenodd" fill="#0B4D8F" d="M106.521,97.612c0.062,0.129,0.116,0.262,0.159,0.398
		c1.022,1.18,0.677,2.113-0.717,2.406c-3.178,0.668-6.401,1.049-9.668,0.873c-4.477,1.381-9.122,0.51-13.661,1.041
		c-4.693,0.547-9.399,0.221-14.099,0.232c-0.887,0.002-1.75-0.197-2.373-0.936c-0.667-1.293-0.679-2.6-0.08-3.918
		c0.203-0.238,0.462-0.344,0.774-0.318c1.452,0.742,2.99,0.936,4.622,0.928c9.344-0.051,18.654-0.707,27.965-1.393
		c1.219-0.09,2.258-0.648,3.414-0.844C104.078,96.593,105.299,97.103,106.521,97.612z"/>
	<path fill-rule="evenodd" clip-rule="evenodd" fill="#0F4E91" d="M102.857,96.083c-0.277,1.014-0.861,1.385-1.986,1.529
		c-3.946,0.506-7.934,0.611-11.879,0.791c-6.283,0.287-12.57,0.928-18.88,0.613c-1.323-0.066-2.559-0.172-3.319-1.453
		c1.536-1.229,3.322-0.326,4.967-0.594c0.096-0.186,0.215-0.346,0.359-0.492c0.942-0.615,2.143-0.051,3.079-0.689
		c1.336,0.15,2.307-0.789,3.468-1.156c1.095-0.346,2.112-1.043,3.354-0.736c1.188,0.52,2.44,0.594,3.712,0.586
		c4.417-0.025,8.78-0.619,13.145-1.2c0.781,0.489,1.562,0.976,2.344,1.462C101.766,95.19,102.311,95.638,102.857,96.083z"/>
	<path fill-rule="evenodd" clip-rule="evenodd" fill="#0B5095" d="M98.877,93.281c-1.051,0.96-2.438,1.323-3.707,1.325
		c-3.713,0.006-7.368,0.832-11.094,0.596c-1.03-0.064-1.814-0.334-2.5-1.041c-0.075-0.624,0.412-0.929,0.741-1.327
		c1.114-0.939,2.494-1.559,3.369-2.789c0.389-0.316,0.615-0.98,1.321-0.631c0.706,1.045,1.408,1.449,2.89,1.113
		c2.014-0.457,4.192-0.129,6.252-0.666c0.656,0.805,1.311,1.609,1.966,2.414C98.369,92.611,98.623,92.945,98.877,93.281z"/>
	<path fill-rule="evenodd" clip-rule="evenodd" fill="#1E61AB" d="M61.514,58.685c-0.001,0.16-0.003,0.318-0.004,0.478
		c-1.163,0.939-2.434,0.674-3.711,0.331c-0.223-0.06-0.445-0.104-0.676-0.066c0.21,0.03,0.427,0.034,0.617,0.18
		c0.054,0.96-0.782,0.927-1.329,1.218c-0.658,0.244-0.611,1.28-1.463,1.307c-1.116-1.119-2.482-1.592-4.034-1.851
		c-4.718-0.787-9.398-1.763-13.876-3.515c0-0.96,0-1.92-0.001-2.88c1.298-0.885,2.64-0.417,3.883,0.026
		c5.229,1.867,10.686,2.74,16.106,3.754C58.54,57.951,59.825,59.223,61.514,58.685z"/>
	<path fill-rule="evenodd" clip-rule="evenodd" fill="#114B8B" d="M96.551,100.923c2.993-0.322,5.983-0.691,8.982-0.945
		c1.459-0.125,1.492-0.889,1.146-1.967c1.232,0.506,2.464,1.012,3.695,1.516c0.662,0.789,1.325,1.576,1.988,2.363
		c-0.014,0.436-0.027,0.871-0.041,1.307c-0.615,0.525-0.992,1.332-1.852,1.566c-2.654,0.539-5.334-0.422-7.988,0.145
		c-2.503-0.004-4.327-1.412-6.09-2.951C96.309,101.591,96.248,101.229,96.551,100.923z"/>
	<path fill-rule="evenodd" clip-rule="evenodd" fill="#51C7F2" d="M108.547,71.604c0.961,0,1.924,0,2.885,0
		c0.523,0.157,1.047,0.314,1.572,0.471c-2.15,0.007-4.303,0.013-6.454,0.02C107.131,71.589,107.885,71.783,108.547,71.604z"/>
	<path fill-rule="evenodd" clip-rule="evenodd" fill="#114B8C" d="M96.551,100.923c0,0.303,0,0.605,0,0.908
		c-0.141,0.148-0.289,0.148-0.443,0.021c-1.641-0.672-1.609,0.59-1.364,1.42c0.712,2.408,0.265,4.83,0.351,7.242
		c-1.267-0.191-0.957-1.252-1.137-2.045c0.043-1.941-1.226-2.059-2.712-2.037c-6.981,0.102-13.948,0.783-20.937,0.49
		c-1.494-0.062-3.057,0.115-4.226-1.154c-0.543-1.488-0.789-2.961,0.232-4.365c0.787,0.475,1.658,0.451,2.539,0.49
		c7.798,0.346,15.566-0.719,23.357-0.465C93.707,101.476,94.984,99.995,96.551,100.923z"/>
	<path fill-rule="evenodd" clip-rule="evenodd" fill="#174784" d="M94.631,108.603c0.067,0.658-0.221,1.402,0.463,1.912
		c0.172,0.318,0.346,0.635,0.518,0.953c-0.715,0.414-1.494,0.451-2.303,0.51c-8.204,0.607-16.421,0.475-24.635,0.436
		c-1.299-0.006-2.292,0.242-2.923,1.428c-0.47-0.588-0.47-1.254-0.339-1.945c0.43-0.98-0.021-2.289,1.114-3.008
		c7.254,0.273,14.509-0.281,21.756-0.002C90.429,108.968,92.48,107.749,94.631,108.603z"/>
	<path fill-rule="evenodd" clip-rule="evenodd" fill="#3EB6E8" d="M96.107,101.853c0.148,0.021,0.297,0.014,0.443-0.021
		c1.922,0.949,3.843,1.9,5.764,2.85c0.383-0.215,0.729-0.176,1.038,0.143c-0.868,1.342-2.325,1.361-3.665,1.596
		c-1.215,0.213-2.512,0-3.617,0.742c-0.157,0-0.314,0-0.473-0.004C95.852,105.397,95.018,103.532,96.107,101.853z"/>
	<path fill-rule="evenodd" clip-rule="evenodd" fill="#144A89" d="M103.238,104.839c-0.309-0.053-0.615-0.105-0.924-0.158
		c0.164-0.254,0.386-0.75,0.48-0.727c2.525,0.617,5.199-0.195,7.676,0.809c-0.326,0.174-0.652,0.346-0.978,0.518
		c-1.276,0.301-2.55,0.346-3.821-0.031c-0.279-0.025-0.558-0.051-0.836-0.076C104.33,104.929,103.688,105.343,103.238,104.839z"/>
	<path fill-rule="evenodd" clip-rule="evenodd" fill="#36B1E4" d="M103.238,104.839c0.574-0.09,1.127-0.08,1.596,0.334
		c-2.75,1.414-5.73,1.816-8.764,1.988c0.154-1.164,1.062-0.982,1.809-0.945C99.816,106.312,101.557,105.706,103.238,104.839z"/>
	<path fill-rule="evenodd" clip-rule="evenodd" fill="#36B1E4" d="M105.672,105.249c1.273,0.012,2.547,0.021,3.821,0.031
		C108.214,105.956,106.939,105.989,105.672,105.249z"/>
	<path fill-rule="evenodd" clip-rule="evenodd" fill="#09549E" d="M54.794,83.643c-4.667,0.134-9.232-0.787-13.834-1.327
		c-1.376-0.162-2.857-0.559-3.92,0.843c0-2.239,0-4.479,0-6.719c0.911-1.498,2.312-1.089,3.617-0.879
		c4.604,0.739,9.207,1.46,13.883,1.568c0.281,0.109,0.487,0.298,0.624,0.567C55.483,79.707,55.93,81.724,54.794,83.643z"/>
	<path fill-rule="evenodd" clip-rule="evenodd" fill="#1C5EA9" d="M37.037,56.766c2.66-0.424,4.906,1.184,7.429,1.522
		c2.741,0.368,5.413,1.237,8.152,1.627c1.455,0.208,2.23,0.812,2.596,2.133c0.946,0.962,0.786,2.038,0.329,3.145
		c-1.643,0.438-2.753-0.991-4.316-1.188c-4.789-0.602-9.55-1.505-14.188-2.921C37.038,59.644,37.037,58.205,37.037,56.766z"/>
	<path fill-rule="evenodd" clip-rule="evenodd" fill="#1359A4" d="M37.039,70.682c0-1.28,0-2.56,0-3.838
		c0.797-0.987,1.851-1.111,3.009-0.905c4.442,0.789,8.862,1.717,13.354,2.19c1.606,0.169,2.007,1.323,2.351,2.584
		c0.159,1.26,0.422,2.531-0.307,3.718c-5.4-2.9-11.479-2.448-17.259-3.48C37.798,70.88,37.398,70.878,37.039,70.682z"/>
	<path fill-rule="evenodd" clip-rule="evenodd" fill="#0F57A2" d="M37.039,70.682c2.016-1.198,4.045-0.148,6.01,0.105
		c3.422,0.441,6.79,1.427,10.266,1.3c2.019-0.073,1.093,1.773,1.895,2.439c0.863,0.819,0.75,1.748,0.307,2.714
		c-0.194,0.26-0.436,0.315-0.723,0.163c-0.723-1.154-1.701-1.652-3.123-1.794c-4.901-0.489-9.769-1.266-14.632-2.049
		C37.039,72.602,37.039,71.642,37.039,70.682z"/>
	<path fill-rule="evenodd" clip-rule="evenodd" fill="#0E55A0" d="M37.039,73.561c0.948-0.558,1.971-0.592,3.005-0.366
		c4.327,0.947,8.704,1.598,13.124,1.767c1.981,0.075,1.579,1.306,1.625,2.441c-3.905,0.981-7.658-0.483-11.489-0.702
		c-2.087-0.119-4.127-1.422-6.266-0.261C37.039,75.481,37.039,74.521,37.039,73.561z"/>
	<path fill-rule="evenodd" clip-rule="evenodd" fill="#1A5DA7" d="M37.038,61.084c1.864-0.827,3.544,0.332,5.255,0.637
		c3.401,0.607,6.757,1.467,10.213,1.793c1.238,0.117,2.221,0.665,2.705,1.893c0.858,0.827,0.767,1.754,0.291,2.721
		C49.568,65.77,43.1,65.77,37.039,63.963C37.039,63.003,37.038,62.043,37.038,61.084z"/>
	<path fill-rule="evenodd" clip-rule="evenodd" fill="#185BA6" d="M37.039,63.963c0.576-0.267,1.106-0.486,1.815-0.312
		c4.844,1.188,9.743,2.133,14.699,2.664c1.48,0.158,0.985,1.435,1.657,1.971c0.77,0.801,0.77,1.601-0.001,2.401
		c-0.639-3.138-3.432-1.786-5.19-2.28c-3.087-0.868-6.378-0.987-9.524-1.688c-1.246-0.277-2.313-0.179-3.455,0.125
		C37.039,65.883,37.039,64.923,37.039,63.963z"/>
	<path fill-rule="evenodd" clip-rule="evenodd" fill="#23ABE1" d="M65.879,111.952c-0.042,0.629-0.085,1.26-0.128,1.889
		c-0.144,0.004-0.287-0.006-0.428-0.031c-3.146-0.428-6.312,0.008-9.461-0.24c-0.692-1.26-0.177-2.625-0.343-3.928
		c0.204-1.51,1.22-1.357,2.314-1.168c2.369,0.41,4.461,1.617,6.756,2.303c0.397-0.592,0.04-1.23,0.135-1.832
		c0.009-0.771-0.033-1.545,0.232-2.291c0.113-0.264,0.298-0.457,0.554-0.584c0.309,0.006,0.53,0.146,0.669,0.422
		C66.69,108.345,65.906,110.128,65.879,111.952z"/>
	<path fill-rule="evenodd" clip-rule="evenodd" fill="#329ED5" d="M55.763,109.075c0.003,1.447,0.007,2.896,0.01,4.344
		c0.153,0.082,0.204,0.164,0.155,0.248c-0.049,0.086-0.099,0.129-0.149,0.129l-0.233,0.014c0,0-0.231-0.023-0.231-0.025
		c-0.003-0.133-0.029-0.26-0.08-0.381c0-0.801,0-1.6,0-2.398c0-0.961,0-1.922,0-2.881c-0.003-1.279-0.005-2.561-0.009-3.84
		c0-1.119-0.001-2.24-0.002-3.359c-0.003-1.281-0.005-2.561-0.008-3.84c-0.001-1.121-0.003-2.24-0.004-3.361
		c-0.001-1.608-0.002-3.216-0.004-4.823c-0.134-0.289-0.051-0.488,0.25-0.596c0.285,0.018,0.492,0.154,0.623,0.406
		c0.399,0.877,0.269,1.818,0.345,2.736c0.032,0.934-0.053,1.869,0.02,2.804c0.029,0.955-0.028,1.91-0.014,2.865
		c0.066,1.242-0.004,2.486,0.007,3.729c0.059,0.967-0.028,1.934-0.002,2.902c0.056,0.832-0.03,1.664-0.01,2.498
		C56.505,107.259,56.335,108.214,55.763,109.075z"/>
	<path fill-rule="evenodd" clip-rule="evenodd" fill="#46BCEA" d="M55.779,113.796c-0.005-0.125-0.007-0.252-0.006-0.377
		c3.18,0.213,6.399-0.531,9.55,0.391C62.141,113.804,58.96,113.8,55.779,113.796z"/>
	<path fill-rule="evenodd" clip-rule="evenodd" fill="#4CC1EF" d="M82.485,93.234c-0.303,0.309-0.605,0.618-0.908,0.927
		c-2.217,0.551-4.088,2.236-6.545,1.992c-0.837,0.637-1.63,0.041-2.454,0.127c0.004-1.244,1.102-0.91,1.511-1.426
		c-0.02-0.146-0.117-0.246-0.295-0.295c-5.507-1.481-10.604-3.817-15.156-7.284c-0.781-0.596-1.52-1.269-2.309,0.041
		c-0.278,0.461-0.671,0.227-0.917-0.178c-0.257-1.548-0.109-3.102-0.099-4.652c0.423-1.475,0.143-3.014,0.396-4.499
		c0.21-1.226,1.127-1.892,1.943-0.823c2.138,2.801,4.742,5.123,7.174,7.622c0.263,0.271,0.122,0.73,0.383,1.014
		c-0.368-1.131-0.604-2.278-0.524-3.479c0.214-1.642-0.532-3.414,0.665-4.921c0.001-2.305-0.02-4.611,0.016-6.916
		c0.011-0.753-0.293-1.62,0.534-2.189c-0.003,6.238-0.006,12.476-0.01,18.714c0.007,0.158,0.014,0.316,0.021,0.475
		c2.129,0.559,4.306,0.055,6.449,0.285c0.52,0.836-0.064,0.912-0.657,0.9c-1.575-0.031-3.155,0.105-4.125-0.006
		c4.313-0.883,8.495,2.072,13.158,2.596C81.854,91.385,82.297,92.225,82.485,93.234z"/>
	<path fill-rule="evenodd" clip-rule="evenodd" fill="#51C6F3" d="M87.007,89.414c-0.35,0.311-0.7,0.621-1.049,0.93
		c-2.884-0.541-5.829-0.74-8.668-1.521c-0.916-0.252-1.87-0.496-2.418-1.406c-0.116-0.842,0.634-0.982,1.099-1.354
		c1.225-0.139,1.429-1.453,2.3-2c2.243,1.001,4.636,1.373,7.05,1.461c1.17,0.042,2.165,0.271,3.06,0.996
		C88.382,87.703,87.381,88.41,87.007,89.414z"/>
	<path fill-rule="evenodd" clip-rule="evenodd" fill="#145292" d="M75.971,86.062c-0.329,0.34-0.657,0.68-0.985,1.022
		c-0.597,0.887-1.389,1.242-2.44,0.898c-2.211-0.18-4.495,0.613-6.636-0.498C69.358,87.678,72.744,87.432,75.971,86.062z"/>
	<path fill-rule="evenodd" clip-rule="evenodd" fill="#52C5F2" d="M65.35,77.4c0,1.76,0,3.52,0,5.28
		c-2.184-2.735-4.5-5.428-5.678-8.762c-1.224-3.462-1.119-7.014,0.218-10.488c0.754-1.96,0.669-2.063-1.512-2.178
		c-0.868-0.045-1.758,0.05-2.548-0.446c-0.233-0.202-0.254-0.423-0.065-0.665c0.669-0.155,1.416,0.046,2.014-0.437
		c1.549-0.519,3.118-0.34,4.687-0.128c0.968,0.04,1.937,0.079,2.905,0.118c0.154,0.144,0.309,0.287,0.463,0.43
		c0.548,0.974,0.53,1.808-0.109,2.851c-1.553,2.533-2.679,5.126-1.026,8.213c0.533,0.996,0.112,2.487,0.186,3.749
		C64.933,75.771,64.571,76.7,65.35,77.4z"/>
	<path fill-rule="evenodd" clip-rule="evenodd" fill="#1B5A9A" d="M62.465,59.577c-1.563,0.042-3.125,0.085-4.688,0.128
		c-0.644-0.198-1.389,0.183-2.282-0.542c2.204,0,4.109,0,6.014,0c0.321,0.001,0.643,0.002,0.965,0.003
		C62.473,59.303,62.47,59.439,62.465,59.577z"/>
	<path fill-rule="evenodd" clip-rule="evenodd" fill="#0E55A0" d="M54.794,77.404c0.139,0,0.278,0.001,0.417,0.002
		c1.296,2.266,0.061,4.628,0.263,6.935c-0.13,0.339-0.356,0.426-0.68,0.263c0-0.32,0-0.64,0-0.96
		C54.794,81.563,54.794,79.483,54.794,77.404z"/>
	<path fill-rule="evenodd" clip-rule="evenodd" fill="#09549E" d="M54.794,84.603c0.141,0,0.281,0.001,0.421,0.002
		c0.498,1.262,0.396,2.543,0.119,3.83c-0.042,0.154-0.084,0.311-0.127,0.465c-0.503-0.367-0.395-0.91-0.414-1.418
		C54.794,86.523,54.794,85.563,54.794,84.603z"/>
	<path fill-rule="evenodd" clip-rule="evenodd" fill="#125494" d="M65.879,111.952c-0.043-1.916-0.087-3.834-0.131-5.75
		c-1.069-2.836-0.553-5.734-0.351-8.621c0.122-0.277,0.32-0.48,0.591-0.613c0.361,0.059,0.47,0.256,0.327,0.594
		c0,1.281,0,2.561,0,3.842c0,1.439,0,2.879,0,4.318c0.808,1.121,0.894,2.24-0.001,3.359
		C66.167,110.038,66.667,111.093,65.879,111.952z"/>
	<path fill-rule="evenodd" clip-rule="evenodd" fill="#17498B" d="M66.315,97.562c0-0.152,0.002-0.303,0.007-0.455
		c1.907-1.072,3.82-1.021,5.738-0.029c-1.67,1.092-3.524,0.195-5.267,0.486C66.634,97.563,66.474,97.562,66.315,97.562z"/>
	<path fill-rule="evenodd" clip-rule="evenodd" fill="#47BEEC" d="M55.769,87.48c0.801-0.521,0.17-1.55,0.941-2.335
		c1.012,0.752,2.04,1.554,3.108,2.3c4.051,2.83,8.451,4.924,13.206,6.292c0.913,0.264,2.494,0.086,2.448,1.275
		c-0.043,1.109-1.653,0.334-2.513,0.818c0.693,0.523,1.419,0.174,2.072,0.322c-0.737,1.555-2.066-0.145-2.962,0.541
		c-0.117-0.02-0.235-0.037-0.352-0.055c-1.415-0.129-2.841,0.082-4.252-0.143c-2.821-2.061-6.265-3.036-9.055-5.132
		c-0.966-0.725-1.768-0.098-2.645-0.049c-0.009-0.957-0.017-1.912-0.025-2.867C55.462,88.117,55.484,87.795,55.769,87.48z"/>
	<path fill-rule="evenodd" clip-rule="evenodd" fill="#2274B1" d="M72.061,97.077c-1.913,0.01-3.826,0.02-5.738,0.029l-0.214-0.004
		l-0.214,0.014c-0.055-0.127-0.111-0.252-0.166-0.379c0.143-0.25,0.352-0.414,0.629-0.492c1.89,0.297,3.812-0.068,5.701,0.266
		l0.011,0.184C72.071,96.821,72.068,96.95,72.061,97.077z"/>
	<path fill-rule="evenodd" clip-rule="evenodd" fill="#4FC3F0" d="M72.545,87.982c0.813-0.301,1.626-0.6,2.44-0.898
		c1.896,1.297,4.067,1.676,6.291,1.832c1.678,0.115,3.291,0.395,4.682,1.428c-0.757,1.445-2.198,2.068-3.473,2.891
		c-0.694-0.904-1.481-1.326-2.732-1.545c-2.61-0.457-5.269-0.91-7.647-2.365c-1.735-1.061-3.886-0.039-5.995-0.602
		C68.342,87.936,70.572,89.104,72.545,87.982z"/>
	<path fill-rule="evenodd" clip-rule="evenodd" fill="#39A6DB" d="M55.769,87.48c-0.01,0.322-0.02,0.645-0.03,0.969
		c-0.135-0.004-0.27-0.01-0.404-0.014c-0.04-1.277-0.079-2.553-0.119-3.83c-0.001-2.4-0.003-4.8-0.004-7.2
		c0-0.96,0-1.919-0.001-2.879c0-1.28-0.001-2.559-0.001-3.839c0-0.8,0.001-1.6,0.001-2.401c0-0.959,0.001-1.919,0.001-2.879
		c0-1.12,0.001-2.239,0.002-3.359c0.184-0.636-0.232-1.444,0.551-1.906c-0.008,0.154-0.009,0.308-0.003,0.462
		c0.571,0.627,0.711,1.403,0.735,2.207c0.199,6.478,0.007,12.941-0.731,19.384C55.767,83.956,55.768,85.718,55.769,87.48z"/>
	<path fill-rule="evenodd" clip-rule="evenodd" fill="#144A88" d="M66.312,109.081c0-1.119,0.001-2.238,0.001-3.359
		c5.837,0.941,11.717,0.656,17.55,0.223c3.333-0.246,6.658-0.191,9.972-0.211c1.684-0.012,0.361,1.92,0.795,2.869
		c-2.446,0.762-4.938,1.098-7.508,0.969c-6.01-0.297-12.021,0.432-18.034,0.004C68.138,109.507,67.173,109.618,66.312,109.081z"/>
	<path fill-rule="evenodd" clip-rule="evenodd" fill="#32B1E5" d="M55.764,103.796c0.001-0.961,0.001-1.922,0.002-2.883
		c0.368-0.711,0.995-1.117,1.737-0.895c2.618,0.783,5.257,1.541,7.567,3.082c0.257,0.172,0.34,0.518,0.47,0.803
		c-0.01,0.771,0.252,1.564-0.188,2.299c0,0.16,0,0.32-0.001,0.479c-1.664,0.322-3.002-0.699-4.47-1.141
		C59.159,105.022,57.476,104.362,55.764,103.796z"/>
	<path fill-rule="evenodd" clip-rule="evenodd" fill="#28AEE3" d="M55.763,109.075c0.001-0.961,0.001-1.922,0.002-2.881
		c0.217-0.346,0.492-0.734,0.921-0.627c3.048,0.77,6.148,1.426,8.664,3.512c0,0.783,0,1.566,0,2.438
		c-2.828-0.455-5.125-2.086-7.815-2.553C56.872,108.851,56.34,108.747,55.763,109.075z"/>
	<path fill-rule="evenodd" clip-rule="evenodd" fill="#2EB0E5" d="M65.35,109.079c-2.438-0.898-4.87-1.816-7.32-2.68
		c-0.717-0.254-1.463-0.674-2.265-0.205c0-0.799,0-1.6-0.001-2.398c0.584-0.342,1.138-0.369,1.804-0.102
		c2.579,1.033,5.187,1.998,7.783,2.986C65.351,107.481,65.351,108.28,65.35,109.079z"/>
	<path fill-rule="evenodd" clip-rule="evenodd" fill="#35ABDE" d="M65.353,106.202c-0.001-0.801-0.001-1.602-0.002-2.402
		c-0.466-0.725-0.688-1.52-0.677-2.379c0.068-0.973-0.044-1.947,0.008-2.922c0.225-0.732-0.131-1.838,1.189-1.873
		c0.008,0.162,0.015,0.326,0.023,0.488c-0.048,3.029-0.097,6.059-0.146,9.088C65.616,106.202,65.484,106.202,65.353,106.202z"/>
	<path fill-rule="evenodd" clip-rule="evenodd" fill="#43BBEB" d="M65.871,96.626c-0.768,0.469-0.436,1.238-0.52,1.895
		c-2.192-0.857-4.229-2.027-6.279-3.164c-1.044-0.58-2.068-1.162-3.308-1.158c0-0.962,0-1.923,0-2.882
		c0.633-1.254,1.287-1.744,2.657-0.643c1.926,1.549,4.227,2.523,6.476,3.544c0.946,0.43,1.909,0.863,2.375,1.904
		c-0.378,0.455-1.072,0.002-1.438,0.496L65.871,96.626z"/>
	<path fill-rule="evenodd" clip-rule="evenodd" fill="#41B9EA" d="M55.764,94.198c0.412-0.143,0.572-0.933,1.144-0.576
		c2.761,1.727,6.065,2.518,8.443,4.898c0,0.961,0,1.92,0,2.879c-3.188-1.457-6.432-2.789-9.586-4.32
		C55.764,96.118,55.764,95.157,55.764,94.198z"/>
	<path fill-rule="evenodd" clip-rule="evenodd" fill="#3BB7E8" d="M55.764,97.079c2.3-0.342,3.881,1.434,5.865,2.051
		c1.35,0.42,2.911,0.822,3.721,2.27c0,0.801,0,1.6,0,2.4c-2.325-1.531-5.104-2.004-7.559-3.24c-0.686-0.346-1.385,0.027-2.025,0.354
		C55.766,99.636,55.765,98.356,55.764,97.079z"/>
	<path fill-rule="evenodd" clip-rule="evenodd" fill="#50C3F1" d="M55.766,82.194c-0.001-7.197-0.003-14.394-0.004-21.59
		c1.749,0.045,4.099-0.59,5.104,0.297c1.458,1.286-0.89,2.938-1.089,4.597c-0.509,4.219-0.418,8.279,2.374,11.815
		c1.302,1.649,2.767,3.2,3.199,5.367c0,1.106,0,2.212,0,3.319c-0.165,0.141-0.329,0.282-0.494,0.422
		c-1.646-1.858-3.287-3.72-4.94-5.57c-0.474-0.531-0.999-1.017-1.476-1.546c-0.614-0.681-0.727-2.35-1.63-2.063
		c-1.244,0.396-0.364,1.938-0.562,2.962C56.118,80.878,56.431,81.65,55.766,82.194z"/>
	<path fill-rule="evenodd" clip-rule="evenodd" fill="#4EC6F2" d="M65.834,96.618c0.334-0.582,0.908-0.479,1.438-0.496
		c1.591,0.176,3.244-0.398,4.786,0.389C69.983,96.548,67.908,96.583,65.834,96.618z"/>
</g>
</svg>
