<?xml version="1.0" encoding="utf-8"?>
<!-- Generator: Adobe Illustrator 26.3.1, SVG Export Plug-In . SVG Version: 6.00 Build 0)  -->
<svg version="1.1" id="Capa_1" xmlns="http://www.w3.org/2000/svg" xmlns:xlink="http://www.w3.org/1999/xlink" x="0px" y="0px"
	 viewBox="0 0 123.48 122.66" style="enable-background:new 0 0 123.48 122.66;" xml:space="preserve">
<style type="text/css">
	.st0{fill:#020203;}
</style>
<g id="_x32_9_x2C__Tools_x2C__Graphic_x2C__Edit_Tools">
	<g>
		<g>
			<path class="st0" d="M-50.09,59.06V31.4c0-3.13-2.52-5.65-5.65-5.65h-37.24c-3.13,0-5.65,2.52-5.65,5.65v27.66
				c-3.23,9.19-3.13,8.78-3.13,8.88c0,0,0,0,0,0.1c0,0,0,0,0,0.1l0,0c0,0,0,0,0,0.1v0.1c1.72,2.93,4.74,4.74,8.18,4.74h38.36
				c3.33,0,6.46-1.82,8.18-4.74l0,0l0,0c0,0,0,0,0-0.1l0,0c0,0,0-0.1,0-0.2C-46.96,67.84-46.86,68.34-50.09,59.06z M-97.43,56.03
				h46.03v2.52h-46.03V56.03z M-92.99,26.96h37.24c2.42,0,4.44,2.02,4.44,4.44v23.32h-46.13V31.4
				C-97.43,28.98-95.41,26.96-92.99,26.96z M-97.63,59.77h46.43l2.73,7.57c-6.66,0-44.31,0-51.88,0L-97.63,59.77z M-69.67,71.78
				h-8.88v-3.13h8.88V71.78z M-100.05,68.65h20.29v3.13h-13.83C-96.12,71.78-98.54,70.57-100.05,68.65z M-55.24,71.78h-13.22v-3.13
				h19.68C-50.29,70.57-52.71,71.78-55.24,71.78z"/>
			<path class="st0" d="M-91.77,61.68h-1.31c-0.3,0-0.61,0.3-0.61,0.61c0,0.3,0.3,0.61,0.61,0.61h1.31c0.3,0,0.61-0.3,0.61-0.61
				C-91.17,61.99-91.37,61.68-91.77,61.68z"/>
			<path class="st0" d="M-86.73,61.68h-1.31c-0.3,0-0.61,0.3-0.61,0.61c0,0.3,0.3,0.61,0.61,0.61h1.31c0.3,0,0.61-0.3,0.61-0.61
				C-86.12,61.99-86.32,61.68-86.73,61.68z"/>
			<path class="st0" d="M-82.89,63h1.31c0.3,0,0.61-0.3,0.61-0.61c0-0.3-0.3-0.61-0.61-0.61h-1.31c-0.3,0-0.61,0.3-0.61,0.61
				C-83.6,62.69-83.3,63-82.89,63z"/>
			<path class="st0" d="M-77.85,63h1.31c0.3,0,0.61-0.3,0.61-0.61c0-0.3-0.3-0.61-0.61-0.61h-1.31c-0.3,0-0.61,0.3-0.61,0.61
				C-78.55,62.69-78.25,63-77.85,63z"/>
			<path class="st0" d="M-72.8,63h1.31c0.3,0,0.61-0.3,0.61-0.61c0-0.3-0.3-0.61-0.61-0.61h-1.31c-0.3,0-0.61,0.3-0.61,0.61
				C-73.51,62.69-73.2,63-72.8,63z"/>
			<path class="st0" d="M-67.75,63h1.31c0.3,0,0.61-0.3,0.61-0.61c0-0.3-0.3-0.61-0.61-0.61h-1.31c-0.3,0-0.61,0.3-0.61,0.61
				C-68.46,62.69-68.16,63-67.75,63z"/>
			<path class="st0" d="M-62.71,63h1.31c0.3,0,0.61-0.3,0.61-0.61c0-0.3-0.3-0.61-0.61-0.61h-1.31c-0.3,0-0.61,0.3-0.61,0.61
				C-63.41,62.69-63.11,63-62.71,63z"/>
			<path class="st0" d="M-57.66,63h1.31c0.3,0,0.61-0.3,0.61-0.61c0-0.3-0.3-0.61-0.61-0.61h-1.31c-0.3,0-0.61,0.3-0.61,0.61
				C-58.37,62.69-58.06,63-57.66,63z"/>
			<path class="st0" d="M-91.77,64.21h-1.31c-0.3,0-0.61,0.3-0.61,0.61c0,0.3,0.3,0.61,0.61,0.61h1.31c0.3,0,0.61-0.3,0.61-0.61
				C-91.17,64.51-91.37,64.21-91.77,64.21z"/>
			<path class="st0" d="M-86.73,64.21h-1.31c-0.3,0-0.61,0.3-0.61,0.61c0,0.3,0.3,0.61,0.61,0.61h1.31c0.3,0,0.61-0.3,0.61-0.61
				C-86.12,64.51-86.32,64.21-86.73,64.21z"/>
			<path class="st0" d="M-70.98,64.81c0-0.3-0.3-0.61-0.61-0.61h-11.3c-0.3,0-0.61,0.3-0.61,0.61c0,0.3,0.3,0.61,0.61,0.61h11.41
				C-71.18,65.52-70.98,65.22-70.98,64.81z"/>
			<path class="st0" d="M-67.75,65.52h1.31c0.3,0,0.61-0.3,0.61-0.61c0-0.3-0.3-0.61-0.61-0.61h-1.31c-0.3,0-0.61,0.3-0.61,0.61
				C-68.46,65.22-68.16,65.52-67.75,65.52z"/>
			<path class="st0" d="M-62.71,65.52h1.31c0.3,0,0.61-0.3,0.61-0.61c0-0.3-0.3-0.61-0.61-0.61h-1.31c-0.3,0-0.61,0.3-0.61,0.61
				C-63.41,65.22-63.11,65.52-62.71,65.52z"/>
			<path class="st0" d="M-57.66,65.52h1.31c0.3,0,0.61-0.3,0.61-0.61c0-0.3-0.3-0.61-0.61-0.61h-1.31c-0.3,0-0.61,0.3-0.61,0.61
				C-58.37,65.22-58.06,65.52-57.66,65.52z"/>
			<path class="st0" d="M-50.09,21.31c1.72,0,3.13-1.41,3.13-3.13s-1.41-3.13-3.13-3.13c-1.72,0-3.13,1.41-3.13,3.13
				S-51.91,21.31-50.09,21.31z M-50.09,16.26c1.01,0,1.92,0.81,1.92,1.92c0,1.11-0.81,1.92-1.92,1.92c-1.11,0-1.92-0.81-1.92-1.92
				C-52.01,17.07-51.2,16.26-50.09,16.26z"/>
			<path class="st0" d="M-97.43,23.83c2.42,0,4.44-2.02,4.44-4.44s-2.02-4.44-4.44-4.44c-2.42,0-4.44,2.02-4.44,4.44
				S-99.85,23.83-97.43,23.83z M-97.43,16.26c1.72,0,3.13,1.41,3.13,3.13c0,1.72-1.41,3.13-3.13,3.13c-1.72,0-3.13-1.41-3.13-3.13
				C-100.56,17.68-99.14,16.26-97.43,16.26z"/>
			<path class="st0" d="M-58.06,19.49c0.5,0,0.91,0.41,0.91,0.91c0,0.5-0.41,0.91-0.91,0.91c-0.5,0-0.91-0.41-0.91-0.91
				C-58.97,19.9-58.56,19.49-58.06,19.49z"/>
			<circle class="st0" cx="-72.5" cy="17.88" r="0.91"/>
			<path class="st0" d="M-84.51,20.7c0.5,0,0.91,0.41,0.91,0.91c0,0.5-0.41,0.91-0.91,0.91c-0.5,0-0.91-0.41-0.91-0.91
				C-85.42,21.11-85.01,20.7-84.51,20.7z"/>
			<path class="st0" d="M-46.66,42.81c0.5,0,0.91,0.41,0.91,0.91c0,0.5-0.41,0.91-0.91,0.91c-0.5,0-0.91-0.41-0.91-0.91
				C-47.57,43.21-47.16,42.81-46.66,42.81z"/>
			<path class="st0" d="M-102.17,34.63c0.5,0,0.91,0.41,0.91,0.91c0,0.5-0.41,0.91-0.91,0.91c-0.5,0-0.91-0.41-0.91-0.91
				C-103.08,35.04-102.67,34.63-102.17,34.63z"/>
			<path class="st0" d="M-85.62,50.98h23.82c1.61,0,2.83-1.31,2.83-2.83c0-1.51-1.31-2.83-2.83-2.83h-1.51l0.3-2.83
				c0.71-0.71,1.21-1.72,1.11-2.83c0-1.92-2.52-5.55-3.63-7.27c-0.2-0.2-0.4-0.3-0.71-0.3c-0.3,0.1-0.4,0.3-0.4,0.61
				c0,1.21-0.91,2.62-1.82,3.94c-0.81,1.21-1.51,2.22-1.51,3.13c0,1.11,0.5,2.12,1.21,2.83l0.4,2.73h-2.83V32.71
				c0-0.3-0.3-0.61-0.61-0.61h-4.44c-0.3,0-0.61,0.3-0.61,0.61v12.62h-1.51v-6.36c0-0.1,0-0.2,0-0.2l-2.72-6.36
				c-0.1-0.2-0.3-0.4-0.61-0.4c-0.3,0-0.5,0.2-0.61,0.4c-2.83,6.66-2.62,6.36-2.72,6.46v0.1v6.26h-0.71c-1.61,0-2.83,1.31-2.83,2.83
				C-88.55,49.57-87.23,50.98-85.62,50.98z M-67.45,37.26c0.61-0.91,1.31-1.92,1.72-2.93c1.11,1.72,2.52,4.14,2.52,5.35l0,0
				c0,1.51-1.21,2.83-2.73,2.83c-1.61,0-2.83-1.21-2.83-2.73C-68.66,39.17-68.05,38.16-67.45,37.26z M-67.35,43.41
				c0.91,0.4,2.02,0.3,2.93,0l-0.2,1.92h-2.42L-67.35,43.41z M-75.63,33.32h3.13v1.92h-1.31c-0.3,0-0.61,0.3-0.61,0.61
				c0,0.3,0.3,0.61,0.61,0.61h1.31v2.52h-1.31c-0.3,0-0.61,0.3-0.61,0.61c0,0.3,0.3,0.61,0.61,0.61h1.31v2.52h-1.31
				c-0.3,0-0.61,0.3-0.61,0.61s0.3,0.61,0.61,0.61h1.31v1.31h-3.13V33.32z M-79.66,39.58v5.65h-1.41v-5.65H-79.66z M-81.68,34.33
				l1.72,4.04h-3.43L-81.68,34.33z M-83.7,39.58h1.41v5.65h-1.41V39.58z M-85.62,46.54c7.07,0,16.75,0,23.82,0
				c0.91,0,1.61,0.71,1.61,1.61c0,0.91-0.71,1.61-1.61,1.61h-23.82c-0.91,0-1.62-0.71-1.62-1.61
				C-87.23,47.25-86.53,46.54-85.62,46.54z"/>
			<path class="st0" d="M-61.9,39.58L-61.9,39.58L-61.9,39.58z"/>
		</g>
	</g>
</g>
<g id="_x33_0_x2C__Page_x2C__Html_x2C__Coding_x2C__Document">
	<g>
		<g>
			<polygon class="st0" points="-58.76,137.69 -60.58,137.69 -60.58,136.08 -61.59,136.08 -61.59,140.42 -60.58,140.42 
				-60.58,138.6 -58.76,138.6 -58.76,140.42 -57.75,140.42 -57.75,136.08 -58.76,136.08 			"/>
			<polygon class="st0" points="-56.85,136.89 -55.53,136.89 -55.53,140.42 -54.52,140.42 -54.52,136.89 -53.21,136.89 
				-53.21,136.08 -56.85,136.08 			"/>
			<polygon class="st0" points="-49.98,138.3 -51.19,136.08 -52.2,136.08 -52.2,140.42 -51.19,140.42 -51.19,137.79 -50.29,139.71 
				-49.78,139.71 -48.77,137.79 -48.77,140.42 -47.76,140.42 -47.76,136.08 -48.87,136.08 			"/>
			<polygon class="st0" points="-45.54,136.08 -46.55,136.08 -46.55,140.42 -43.42,140.42 -43.42,139.51 -45.54,139.51 			"/>
			<path class="st0" d="M-29.59,106.2c-2.12-2.12-6.56-6.76-7.47-7.57c-0.1-0.1-0.3-0.2-0.4-0.2h-30.48c-0.3,0-0.61,0.3-0.61,0.61
				v5.65h-3.84c-0.3,0-0.61,0.3-0.61,0.61v49.76c0,0.3,0.3,0.61,0.61,0.61h34.82c0.3,0,0.61-0.3,0.61-0.61v-3.63h6.86
				c0.3,0,0.61-0.3,0.61-0.61c0-46.23,0-44.21,0-44.31C-29.49,106.5-29.49,106.3-29.59,106.2z M-31.61,106.1h-5.25v-5.45
				C-35.15,102.37-33.33,104.28-31.61,106.1z M-67.24,134.46h29.67v7.57h-29.67V134.46z M-38.17,154.55h-33.51V106.1h3.13
				c0,1.31,0,43.5,0,44.81c0,0.3,0.3,0.61,0.61,0.61h29.78V154.55z M-67.24,150.21v-6.96h30.28c0.3,0,0.61-0.3,0.61-0.61v-8.88
				c0-0.3-0.3-0.61-0.61-0.61h-30.28V99.74h29.17v6.96c0,0.3,0.3,0.61,0.61,0.61h6.86v42.9H-67.24z"/>
			<path class="st0" d="M-77.74,138.91c-1.61,0-2.83,1.31-2.83,2.83c0,1.51,1.31,2.83,2.83,2.83c1.51,0,2.83-1.31,2.83-2.83
				C-74.91,140.22-76.13,138.91-77.74,138.91z M-77.74,143.24c-0.91,0-1.61-0.71-1.61-1.62c0-0.91,0.71-1.61,1.61-1.61
				c0.91,0,1.62,0.71,1.62,1.61C-76.13,142.54-76.83,143.24-77.74,143.24z"/>
			<path class="st0" d="M-24.75,98.53c-1.92,0-3.43,1.51-3.43,3.43c0,1.92,1.51,3.43,3.43,3.43c1.92,0,3.43-1.51,3.43-3.43
				C-21.32,100.04-22.83,98.53-24.75,98.53z M-24.75,104.18c-1.21,0-2.22-1.01-2.22-2.22c0-1.21,1.01-2.22,2.22-2.22
				c1.21,0,2.22,1.01,2.22,2.22C-22.53,103.17-23.54,104.18-24.75,104.18z"/>
			<path class="st0" d="M-24.04,106.71c0.5,0,0.91,0.41,0.91,0.91c0,0.5-0.41,0.91-0.91,0.91c-0.5,0-0.91-0.41-0.91-0.91
				C-24.95,107.11-24.54,106.71-24.04,106.71z"/>
			<path class="st0" d="M-26.57,129.42c0.5,0,0.91,0.41,0.91,0.91c0,0.5-0.41,0.91-0.91,0.91c-0.5,0-0.91-0.41-0.91-0.91
				C-27.47,129.82-27.07,129.42-26.57,129.42z"/>
			<path class="st0" d="M-30.4,154.04c0.5,0,0.91,0.41,0.91,0.91c0,0.5-0.41,0.91-0.91,0.91c-0.5,0-0.91-0.41-0.91-0.91
				C-31.31,154.45-30.9,154.04-30.4,154.04z"/>
			<path class="st0" d="M-71.99,99.14c0.5,0,0.91,0.41,0.91,0.91c0,0.5-0.41,0.91-0.91,0.91c-0.5,0-0.91-0.41-0.91-0.91
				C-72.9,99.54-72.49,99.14-71.99,99.14z"/>
			<path class="st0" d="M-77.74,114.28c0.5,0,0.91,0.41,0.91,0.91c0,0.5-0.41,0.91-0.91,0.91c-0.5,0-0.91-0.41-0.91-0.91
				C-78.65,114.68-78.24,114.28-77.74,114.28z"/>
			<path class="st0" d="M-75.22,133.25c0.5,0,0.91,0.41,0.91,0.91c0,0.5-0.41,0.91-0.91,0.91c-0.5,0-0.91-0.41-0.91-0.91
				C-76.13,133.66-75.72,133.25-75.22,133.25z"/>
			<path class="st0" d="M-60.38,112.36h-1.92c-0.3,0-0.61,0.3-0.61,0.61c0,0.3,0.3,0.61,0.61,0.61h1.92c0.3,0,0.61-0.3,0.61-0.61
				C-59.67,112.66-59.98,112.36-60.38,112.36z"/>
			<path class="st0" d="M-60.38,115.49h-1.92c-0.3,0-0.61,0.3-0.61,0.61c0,0.3,0.3,0.61,0.61,0.61h1.92c0.3,0,0.61-0.3,0.61-0.61
				C-59.67,115.79-59.98,115.49-60.38,115.49z"/>
			<path class="st0" d="M-60.38,118.72h-1.92c-0.3,0-0.61,0.3-0.61,0.61c0,0.3,0.3,0.61,0.61,0.61h1.92c0.3,0,0.61-0.3,0.61-0.61
				C-59.67,118.92-59.98,118.72-60.38,118.72z"/>
			<path class="st0" d="M-60.38,121.85h-1.92c-0.3,0-0.61,0.3-0.61,0.61c0,0.3,0.3,0.61,0.61,0.61h1.92c0.3,0,0.61-0.3,0.61-0.61
				C-59.67,122.15-59.98,121.85-60.38,121.85z"/>
			<path class="st0" d="M-60.38,124.98h-1.92c-0.3,0-0.61,0.3-0.61,0.61c0,0.3,0.3,0.61,0.61,0.61h1.92c0.3,0,0.61-0.3,0.61-0.61
				C-59.67,125.28-59.98,124.98-60.38,124.98z"/>
			<path class="st0" d="M-60.38,128.1h-1.92c-0.3,0-0.61,0.3-0.61,0.61c0,0.3,0.3,0.61,0.61,0.61h1.92c0.3,0,0.61-0.3,0.61-0.61
				C-59.77,128.41-59.98,128.1-60.38,128.1z"/>
			<path class="st0" d="M-58.46,112.96c0,0.3,0.3,0.61,0.61,0.61h1.92c0.3,0,0.61-0.3,0.61-0.61c0-0.3-0.3-0.61-0.61-0.61h-1.92
				C-58.16,112.36-58.46,112.66-58.46,112.96z"/>
			<path class="st0" d="M-48.97,113.67c0.3,0,0.61-0.3,0.61-0.61c0-0.3-0.3-0.61-0.61-0.61h-4.44c-0.3,0-0.61,0.3-0.61,0.61
				c0,0.3,0.3,0.61,0.61,0.61H-48.97z"/>
			<path class="st0" d="M-57.86,116.8h2.52c0.3,0,0.61-0.3,0.61-0.61c0-0.3-0.3-0.61-0.61-0.61h-2.52c-0.3,0-0.61,0.3-0.61,0.61
				C-58.46,116.5-58.16,116.8-57.86,116.8z"/>
			<path class="st0" d="M-52.81,115.49c-0.3,0-0.61,0.3-0.61,0.61c0,0.3,0.3,0.61,0.61,0.61h5.65c0.3,0,0.61-0.3,0.61-0.61
				c0-0.3-0.3-0.61-0.61-0.61H-52.81z"/>
			<path class="st0" d="M-57.86,119.93h3.13c0.3,0,0.61-0.3,0.61-0.61c0-0.3-0.3-0.61-0.61-0.61h-3.13c-0.3,0-0.61,0.3-0.61,0.61
				C-58.46,119.63-58.16,119.93-57.86,119.93z"/>
			<path class="st0" d="M-43.32,118.72h-8.88c-0.3,0-0.61,0.3-0.61,0.61c0,0.3,0.3,0.61,0.61,0.61h8.88c0.3,0,0.61-0.3,0.61-0.61
				C-42.72,118.92-43.02,118.72-43.32,118.72z"/>
			<path class="st0" d="M-51.5,122.45c0-0.3-0.3-0.61-0.61-0.61h-5.65c-0.3,0-0.61,0.3-0.61,0.61c0,0.3,0.3,0.61,0.61,0.61h5.65
				C-51.8,123.06-51.5,122.86-51.5,122.45z"/>
			<path class="st0" d="M-48.37,123.06c0.3,0,0.61-0.3,0.61-0.61c0-0.3-0.3-0.61-0.61-0.61h-1.31c-0.3,0-0.61,0.3-0.61,0.61
				c0,0.3,0.3,0.61,0.61,0.61H-48.37z"/>
			<path class="st0" d="M-43.93,121.85h-1.92c-0.3,0-0.61,0.3-0.61,0.61c0,0.3,0.3,0.61,0.61,0.61h1.92c0.3,0,0.61-0.3,0.61-0.61
				C-43.32,122.15-43.62,121.85-43.93,121.85z"/>
			<path class="st0" d="M-57.86,124.98c-0.3,0-0.61,0.3-0.61,0.61c0,0.3,0.3,0.61,0.61,0.61h1.92c0.3,0,0.61-0.3,0.61-0.61
				c0-0.3-0.3-0.61-0.61-0.61H-57.86z"/>
			<path class="st0" d="M-48.97,126.29c0.3,0,0.61-0.3,0.61-0.61c0-0.3-0.3-0.61-0.61-0.61h-4.44c-0.3,0-0.61,0.3-0.61,0.61
				c0,0.3,0.3,0.61,0.61,0.61H-48.97z"/>
			<path class="st0" d="M-43.93,124.98h-2.52c-0.3,0-0.61,0.3-0.61,0.61c0,0.3,0.3,0.61,0.61,0.61h2.52c0.3,0,0.61-0.3,0.61-0.61
				C-43.32,125.28-43.62,124.98-43.93,124.98z"/>
			<path class="st0" d="M-55.33,128.1h-2.52c-0.3,0-0.61,0.3-0.61,0.61c0,0.3,0.3,0.61,0.61,0.61h2.52c0.3,0,0.61-0.3,0.61-0.61
				C-54.73,128.41-54.93,128.1-55.33,128.1z"/>
			<path class="st0" d="M-47.06,128.1h-5.65c-0.3,0-0.61,0.3-0.61,0.61c0,0.3,0.3,0.61,0.61,0.61h5.65c0.3,0,0.61-0.3,0.61-0.61
				C-46.45,128.41-46.75,128.1-47.06,128.1z"/>
			<path class="st0" d="M-57.96,109.63c0.2-0.3,0.2-0.71-0.1-0.91l-2.52-2.02l2.52-2.02c0.3-0.2,0.3-0.61,0.1-0.91
				c-0.2-0.3-0.61-0.3-0.91-0.1l-3.13,2.52c-0.3,0.3-0.3,0.71,0,1.01l3.13,2.52C-58.56,109.94-58.16,109.84-57.96,109.63z"/>
			<path class="st0" d="M-51.4,109.63c0.2,0.3,0.61,0.3,0.91,0.1l3.13-2.52c0.3-0.3,0.3-0.71,0-1.01l-3.13-2.52
				c-0.3-0.2-0.71-0.2-0.91,0.1c-0.2,0.3-0.2,0.71,0.1,0.91l2.52,2.02l-2.52,2.02C-51.6,108.93-51.6,109.33-51.4,109.63z"/>
			<path class="st0" d="M-55.94,109.23c0.2,0,0.4-0.1,0.5-0.3l2.52-4.44c0.2-0.3,0.1-0.71-0.2-0.91c-0.3-0.2-0.71-0.1-0.91,0.2
				l-2.42,4.54C-56.75,108.73-56.44,109.23-55.94,109.23z"/>
		</g>
	</g>
</g>
<g>
	<g>
		<g>
			<path class="st0" d="M71.47,88.85L71.47,88.85H53.2c-0.19,0-0.37-0.09-0.48-0.24c-0.11-0.15-0.15-0.35-0.09-0.53l3.43-11.42
				c0.08-0.25,0.31-0.42,0.57-0.42h11.42c0.26,0,0.49,0.17,0.57,0.42l3.41,11.37c0.03,0.07,0.04,0.14,0.04,0.22
				C72.07,88.58,71.8,88.85,71.47,88.85z M54,87.66h16.67L67.6,77.43H57.07L54,87.66z"/>
		</g>
		<g>
			<path class="st0" d="M77.18,88.85H47.49c-0.33,0-0.6-0.27-0.6-0.6c0-0.33,0.27-0.6,0.6-0.6h29.69c0.33,0,0.6,0.27,0.6,0.6
				C77.78,88.58,77.51,88.85,77.18,88.85z"/>
		</g>
		<g>
			<path class="st0" d="M45.21,69.44h-7.99c-0.33,0-0.6-0.27-0.6-0.6s0.27-0.6,0.6-0.6h7.99c0.33,0,0.6,0.27,0.6,0.6
				C45.8,69.17,45.54,69.44,45.21,69.44z"/>
		</g>
		<g>
			<path class="st0" d="M88.6,69.44H50.29c-0.33,0-0.6-0.27-0.6-0.6s0.27-0.6,0.6-0.6H88.6c0.33,0,0.6,0.27,0.6,0.6
				C89.2,69.17,88.93,69.44,88.6,69.44z"/>
		</g>
		<g>
			<path class="st0" d="M83.62,68.61c-0.33,0-0.6-0.27-0.6-0.6v-24.4h-6.58c-0.33,0-0.6-0.27-0.6-0.6s0.27-0.6,0.6-0.6h7.18
				c0.33,0,0.6,0.27,0.6,0.6v25C84.22,68.35,83.95,68.61,83.62,68.61z"/>
		</g>
		<g>
			<path class="st0" d="M41.95,68.61c-0.33,0-0.6-0.27-0.6-0.6v-25c0-0.33,0.27-0.6,0.6-0.6h7.14c0.33,0,0.6,0.27,0.6,0.6
				s-0.27,0.6-0.6,0.6h-6.55v24.4C42.55,68.35,42.28,68.61,41.95,68.61z"/>
		</g>
		<g>
			<path class="st0" d="M47.91,85.28H37.19c-0.33,0-0.6-0.27-0.6-0.6c0-0.33,0.27-0.6,0.6-0.6h10.71c0.33,0,0.6,0.27,0.6,0.6
				C48.5,85.01,48.23,85.28,47.91,85.28z"/>
		</g>
		<g>
			<path class="st0" d="M41.95,81.71h-4.76c-0.33,0-0.6-0.27-0.6-0.6c0-0.33,0.27-0.6,0.6-0.6h4.76c0.33,0,0.6,0.27,0.6,0.6
				C42.55,81.44,42.28,81.71,41.95,81.71z"/>
		</g>
		<g>
			<path class="st0" d="M88.38,85.28H77.67c-0.33,0-0.6-0.27-0.6-0.6c0-0.33,0.27-0.6,0.6-0.6h10.71c0.33,0,0.6,0.27,0.6,0.6
				C88.98,85.01,88.71,85.28,88.38,85.28z"/>
		</g>
		<g>
			<path class="st0" d="M88.38,81.71h-3.57c-0.33,0-0.6-0.27-0.6-0.6c0-0.33,0.27-0.6,0.6-0.6h3.57c0.33,0,0.6,0.27,0.6,0.6
				C88.98,81.44,88.71,81.71,88.38,81.71z"/>
		</g>
		<g>
			<path class="st0" d="M85.78,77.43H40.03c-1.88,0-3.41-1.53-3.41-3.41V40.83c0-1.88,1.53-3.41,3.41-3.41h9.06
				c0.33,0,0.6,0.27,0.6,0.6v25.84h26.16c0.02-7.42,0.06-24.8,0.01-25.75c-0.02-0.11,0-0.22,0.04-0.32
				c0.09-0.22,0.31-0.37,0.55-0.37h9.34c1.88,0,3.41,1.53,3.41,3.41v33.19C89.2,75.9,87.67,77.43,85.78,77.43z M40.03,38.61
				c-1.23,0-2.22,1-2.22,2.22v33.19c0,1.23,1,2.22,2.22,2.22h45.75c1.22,0,2.22-1,2.22-2.22V40.83c0-1.23-1-2.22-2.22-2.22h-8.73
				c0,0.16,0,0.34,0,0.56c0.01,0.69,0.01,1.7,0.01,3.01c0,2.2,0,5.25,0,9.08c-0.01,6.52-0.03,13.12-0.03,13.19
				c0,0.33-0.27,0.59-0.6,0.59H49.1c-0.33,0-0.6-0.27-0.6-0.6V38.61H40.03z"/>
		</g>
		<g>
			<path class="st0" d="M76.44,65.04H49.1c-0.33,0-0.6-0.27-0.6-0.6V33.49c0-0.33,0.27-0.6,0.6-0.6h27.35c0.33,0,0.6,0.27,0.6,0.6
				v30.95C77.04,64.77,76.77,65.04,76.44,65.04z M49.69,63.85h26.15V34.09H49.69V63.85z"/>
		</g>
		<g>
			<path class="st0" d="M76.48,41.23H49.1c-0.33,0-0.6-0.27-0.6-0.6c0-0.33,0.27-0.6,0.6-0.6h27.38c0.33,0,0.6,0.27,0.6,0.6
				C77.07,40.96,76.81,41.23,76.48,41.23z"/>
		</g>
		<g>
			<path class="st0" d="M76.48,37.66h-13.1c-0.33,0-0.6-0.27-0.6-0.6c0-0.33,0.27-0.6,0.6-0.6h13.1c0.33,0,0.6,0.27,0.6,0.6
				C77.07,37.39,76.81,37.66,76.48,37.66z"/>
		</g>
		<g>
			<g>
				<path class="st0" d="M69.21,52.19L69.21,52.19c-0.16,0-0.31-0.06-0.42-0.18l-0.03-0.03c-1.88-1.9-3.83-3.85-3.83-5.93
					c0-1.35,1.1-2.45,2.44-2.45c0.88,0,1.44,0.36,1.84,0.86c0.41-0.5,0.97-0.86,1.85-0.86c1.35,0,2.44,1.1,2.44,2.45
					c0,2.09-1.97,4.06-3.87,5.96C69.51,52.13,69.36,52.19,69.21,52.19z M67.37,44.8c-0.69,0-1.26,0.56-1.26,1.25
					c0,1.46,1.51,3.1,3.1,4.7c1.59-1.6,3.1-3.23,3.1-4.7c0-0.69-0.56-1.25-1.26-1.25c-0.54,0-0.86,0.15-1.32,1.06
					c-0.1,0.2-0.31,0.33-0.53,0.33h0c-0.23,0-0.43-0.13-0.53-0.33C68.23,44.96,67.9,44.8,67.37,44.8z"/>
			</g>
		</g>
		<g>
			<path class="st0" d="M62.19,53.14h-9.52c-0.33,0-0.6-0.27-0.6-0.6v-8.33c0-0.33,0.27-0.6,0.6-0.6h9.52c0.33,0,0.6,0.27,0.6,0.6
				v8.33C62.79,52.87,62.52,53.14,62.19,53.14z M53.26,51.95h8.33V44.8h-8.33V51.95L53.26,51.95z"/>
		</g>
		<g>
			<path class="st0" d="M71.72,57.9H53.86c-0.33,0-0.6-0.27-0.6-0.6c0-0.33,0.27-0.6,0.6-0.6h17.86c0.33,0,0.6,0.27,0.6,0.6
				C72.31,57.63,72.04,57.9,71.72,57.9z"/>
		</g>
		<g>
			<path class="st0" d="M71.72,61.47H53.86c-0.33,0-0.6-0.27-0.6-0.6c0-0.33,0.27-0.6,0.6-0.6h17.86c0.33,0,0.6,0.27,0.6,0.6
				C72.31,61.2,72.04,61.47,71.72,61.47z"/>
		</g>
		
			<ellipse transform="matrix(0.1605 -0.987 0.987 0.1605 -19.1513 122.2318)" class="st0" cx="62.28" cy="72.37" rx="1.25" ry="1.25"/>
		<rect x="52.67" y="35.87" class="st0" width="2.38" height="2.38"/>
		<rect x="56.24" y="35.87" class="st0" width="2.38" height="2.38"/>
	</g>
</g>
</svg>
