<?xml version="1.0" encoding="utf-8"?>
<!-- Generator: Adobe Illustrator 26.3.1, SVG Export Plug-In . SVG Version: 6.00 Build 0)  -->
<svg version="1.1" id="Capa_1" xmlns="http://www.w3.org/2000/svg" xmlns:xlink="http://www.w3.org/1999/xlink" x="0px" y="0px"
	 viewBox="0 0 123.48 122.66" style="enable-background:new 0 0 123.48 122.66;" xml:space="preserve">
<style type="text/css">
	.st0{fill:#020203;}
</style>
<g id="_x32_9_x2C__Tools_x2C__Graphic_x2C__Edit_Tools">
	<g>
		<g>
			<path class="st0" d="M-50.09,59.06V31.4c0-3.13-2.52-5.65-5.65-5.65h-37.24c-3.13,0-5.65,2.52-5.65,5.65v27.66
				c-3.23,9.19-3.13,8.78-3.13,8.88c0,0,0,0,0,0.1c0,0,0,0,0,0.1l0,0c0,0,0,0,0,0.1v0.1c1.72,2.93,4.74,4.74,8.18,4.74h38.36
				c3.33,0,6.46-1.82,8.18-4.74l0,0l0,0c0,0,0,0,0-0.1l0,0c0,0,0-0.1,0-0.2C-46.96,67.84-46.86,68.34-50.09,59.06z M-97.43,56.03
				h46.03v2.52h-46.03V56.03z M-92.99,26.96h37.24c2.42,0,4.44,2.02,4.44,4.44v23.32h-46.13V31.4
				C-97.43,28.98-95.41,26.96-92.99,26.96z M-97.63,59.77h46.43l2.73,7.57c-6.66,0-44.31,0-51.88,0L-97.63,59.77z M-69.67,71.78
				h-8.88v-3.13h8.88V71.78z M-100.05,68.65h20.29v3.13h-13.83C-96.12,71.78-98.54,70.57-100.05,68.65z M-55.24,71.78h-13.22v-3.13
				h19.68C-50.29,70.57-52.71,71.78-55.24,71.78z"/>
			<path class="st0" d="M-91.77,61.68h-1.31c-0.3,0-0.61,0.3-0.61,0.61c0,0.3,0.3,0.61,0.61,0.61h1.31c0.3,0,0.61-0.3,0.61-0.61
				C-91.17,61.99-91.37,61.68-91.77,61.68z"/>
			<path class="st0" d="M-86.73,61.68h-1.31c-0.3,0-0.61,0.3-0.61,0.61c0,0.3,0.3,0.61,0.61,0.61h1.31c0.3,0,0.61-0.3,0.61-0.61
				C-86.12,61.99-86.32,61.68-86.73,61.68z"/>
			<path class="st0" d="M-82.89,63h1.31c0.3,0,0.61-0.3,0.61-0.61c0-0.3-0.3-0.61-0.61-0.61h-1.31c-0.3,0-0.61,0.3-0.61,0.61
				C-83.6,62.69-83.3,63-82.89,63z"/>
			<path class="st0" d="M-77.85,63h1.31c0.3,0,0.61-0.3,0.61-0.61c0-0.3-0.3-0.61-0.61-0.61h-1.31c-0.3,0-0.61,0.3-0.61,0.61
				C-78.55,62.69-78.25,63-77.85,63z"/>
			<path class="st0" d="M-72.8,63h1.31c0.3,0,0.61-0.3,0.61-0.61c0-0.3-0.3-0.61-0.61-0.61h-1.31c-0.3,0-0.61,0.3-0.61,0.61
				C-73.51,62.69-73.2,63-72.8,63z"/>
			<path class="st0" d="M-67.75,63h1.31c0.3,0,0.61-0.3,0.61-0.61c0-0.3-0.3-0.61-0.61-0.61h-1.31c-0.3,0-0.61,0.3-0.61,0.61
				C-68.46,62.69-68.16,63-67.75,63z"/>
			<path class="st0" d="M-62.71,63h1.31c0.3,0,0.61-0.3,0.61-0.61c0-0.3-0.3-0.61-0.61-0.61h-1.31c-0.3,0-0.61,0.3-0.61,0.61
				C-63.41,62.69-63.11,63-62.71,63z"/>
			<path class="st0" d="M-57.66,63h1.31c0.3,0,0.61-0.3,0.61-0.61c0-0.3-0.3-0.61-0.61-0.61h-1.31c-0.3,0-0.61,0.3-0.61,0.61
				C-58.37,62.69-58.06,63-57.66,63z"/>
			<path class="st0" d="M-91.77,64.21h-1.31c-0.3,0-0.61,0.3-0.61,0.61c0,0.3,0.3,0.61,0.61,0.61h1.31c0.3,0,0.61-0.3,0.61-0.61
				C-91.17,64.51-91.37,64.21-91.77,64.21z"/>
			<path class="st0" d="M-86.73,64.21h-1.31c-0.3,0-0.61,0.3-0.61,0.61c0,0.3,0.3,0.61,0.61,0.61h1.31c0.3,0,0.61-0.3,0.61-0.61
				C-86.12,64.51-86.32,64.21-86.73,64.21z"/>
			<path class="st0" d="M-70.98,64.81c0-0.3-0.3-0.61-0.61-0.61h-11.3c-0.3,0-0.61,0.3-0.61,0.61c0,0.3,0.3,0.61,0.61,0.61h11.41
				C-71.18,65.52-70.98,65.22-70.98,64.81z"/>
			<path class="st0" d="M-67.75,65.52h1.31c0.3,0,0.61-0.3,0.61-0.61c0-0.3-0.3-0.61-0.61-0.61h-1.31c-0.3,0-0.61,0.3-0.61,0.61
				C-68.46,65.22-68.16,65.52-67.75,65.52z"/>
			<path class="st0" d="M-62.71,65.52h1.31c0.3,0,0.61-0.3,0.61-0.61c0-0.3-0.3-0.61-0.61-0.61h-1.31c-0.3,0-0.61,0.3-0.61,0.61
				C-63.41,65.22-63.11,65.52-62.71,65.52z"/>
			<path class="st0" d="M-57.66,65.52h1.31c0.3,0,0.61-0.3,0.61-0.61c0-0.3-0.3-0.61-0.61-0.61h-1.31c-0.3,0-0.61,0.3-0.61,0.61
				C-58.37,65.22-58.06,65.52-57.66,65.52z"/>
			<path class="st0" d="M-50.09,21.31c1.72,0,3.13-1.41,3.13-3.13s-1.41-3.13-3.13-3.13c-1.72,0-3.13,1.41-3.13,3.13
				S-51.91,21.31-50.09,21.31z M-50.09,16.26c1.01,0,1.92,0.81,1.92,1.92c0,1.11-0.81,1.92-1.92,1.92c-1.11,0-1.92-0.81-1.92-1.92
				C-52.01,17.07-51.2,16.26-50.09,16.26z"/>
			<path class="st0" d="M-97.43,23.83c2.42,0,4.44-2.02,4.44-4.44s-2.02-4.44-4.44-4.44c-2.42,0-4.44,2.02-4.44,4.44
				S-99.85,23.83-97.43,23.83z M-97.43,16.26c1.72,0,3.13,1.41,3.13,3.13c0,1.72-1.41,3.13-3.13,3.13c-1.72,0-3.13-1.41-3.13-3.13
				C-100.56,17.68-99.14,16.26-97.43,16.26z"/>
			<path class="st0" d="M-58.06,19.49c0.5,0,0.91,0.41,0.91,0.91c0,0.5-0.41,0.91-0.91,0.91c-0.5,0-0.91-0.41-0.91-0.91
				C-58.97,19.9-58.56,19.49-58.06,19.49z"/>
			<circle class="st0" cx="-72.5" cy="17.88" r="0.91"/>
			<path class="st0" d="M-84.51,20.7c0.5,0,0.91,0.41,0.91,0.91c0,0.5-0.41,0.91-0.91,0.91c-0.5,0-0.91-0.41-0.91-0.91
				C-85.42,21.11-85.01,20.7-84.51,20.7z"/>
			<path class="st0" d="M-46.66,42.81c0.5,0,0.91,0.41,0.91,0.91c0,0.5-0.41,0.91-0.91,0.91c-0.5,0-0.91-0.41-0.91-0.91
				C-47.57,43.21-47.16,42.81-46.66,42.81z"/>
			<path class="st0" d="M-102.17,34.63c0.5,0,0.91,0.41,0.91,0.91c0,0.5-0.41,0.91-0.91,0.91c-0.5,0-0.91-0.41-0.91-0.91
				C-103.08,35.04-102.67,34.63-102.17,34.63z"/>
			<path class="st0" d="M-85.62,50.98h23.82c1.61,0,2.83-1.31,2.83-2.83c0-1.51-1.31-2.83-2.83-2.83h-1.51l0.3-2.83
				c0.71-0.71,1.21-1.72,1.11-2.83c0-1.92-2.52-5.55-3.63-7.27c-0.2-0.2-0.4-0.3-0.71-0.3c-0.3,0.1-0.4,0.3-0.4,0.61
				c0,1.21-0.91,2.62-1.82,3.94c-0.81,1.21-1.51,2.22-1.51,3.13c0,1.11,0.5,2.12,1.21,2.83l0.4,2.73h-2.83V32.71
				c0-0.3-0.3-0.61-0.61-0.61h-4.44c-0.3,0-0.61,0.3-0.61,0.61v12.62h-1.51v-6.36c0-0.1,0-0.2,0-0.2l-2.72-6.36
				c-0.1-0.2-0.3-0.4-0.61-0.4c-0.3,0-0.5,0.2-0.61,0.4c-2.83,6.66-2.62,6.36-2.72,6.46v0.1v6.26h-0.71c-1.61,0-2.83,1.31-2.83,2.83
				C-88.55,49.57-87.23,50.98-85.62,50.98z M-67.45,37.26c0.61-0.91,1.31-1.92,1.72-2.93c1.11,1.72,2.52,4.14,2.52,5.35l0,0
				c0,1.51-1.21,2.83-2.73,2.83c-1.61,0-2.83-1.21-2.83-2.73C-68.66,39.17-68.05,38.16-67.45,37.26z M-67.35,43.41
				c0.91,0.4,2.02,0.3,2.93,0l-0.2,1.92h-2.42L-67.35,43.41z M-75.63,33.32h3.13v1.92h-1.31c-0.3,0-0.61,0.3-0.61,0.61
				c0,0.3,0.3,0.61,0.61,0.61h1.31v2.52h-1.31c-0.3,0-0.61,0.3-0.61,0.61c0,0.3,0.3,0.61,0.61,0.61h1.31v2.52h-1.31
				c-0.3,0-0.61,0.3-0.61,0.61s0.3,0.61,0.61,0.61h1.31v1.31h-3.13V33.32z M-79.66,39.58v5.65h-1.41v-5.65H-79.66z M-81.68,34.33
				l1.72,4.04h-3.43L-81.68,34.33z M-83.7,39.58h1.41v5.65h-1.41V39.58z M-85.62,46.54c7.07,0,16.75,0,23.82,0
				c0.91,0,1.61,0.71,1.61,1.61c0,0.91-0.71,1.61-1.61,1.61h-23.82c-0.91,0-1.62-0.71-1.62-1.61
				C-87.23,47.25-86.53,46.54-85.62,46.54z"/>
			<path class="st0" d="M-61.9,39.58L-61.9,39.58L-61.9,39.58z"/>
		</g>
	</g>
</g>
<g id="_x33_0_x2C__Page_x2C__Html_x2C__Coding_x2C__Document">
	<g>
		<g>
			<polygon class="st0" points="53.96,72.1 52.14,72.1 52.14,70.49 51.13,70.49 51.13,74.83 52.14,74.83 52.14,73.01 53.96,73.01 
				53.96,74.83 54.96,74.83 54.96,70.49 53.96,70.49 			"/>
			<polygon class="st0" points="55.87,71.3 57.18,71.3 57.18,74.83 58.19,74.83 58.19,71.3 59.51,71.3 59.51,70.49 55.87,70.49 			
				"/>
			<polygon class="st0" points="62.74,72.71 61.52,70.49 60.52,70.49 60.52,74.83 61.52,74.83 61.52,72.21 62.43,74.12 62.94,74.12 
				63.95,72.21 63.95,74.83 64.96,74.83 64.96,70.49 63.85,70.49 			"/>
			<polygon class="st0" points="67.18,70.49 66.17,70.49 66.17,74.83 69.3,74.83 69.3,73.92 67.18,73.92 			"/>
			<path class="st0" d="M83.12,40.61c-2.12-2.12-6.56-6.76-7.47-7.57c-0.1-0.1-0.3-0.2-0.4-0.2H44.77c-0.3,0-0.61,0.3-0.61,0.61
				v5.65h-3.84c-0.3,0-0.61,0.3-0.61,0.61v49.76c0,0.3,0.3,0.61,0.61,0.61h34.82c0.3,0,0.61-0.3,0.61-0.61v-3.63h6.86
				c0.3,0,0.61-0.3,0.61-0.61c0-46.23,0-44.21,0-44.31C83.23,40.92,83.23,40.71,83.12,40.61z M81.11,40.51h-5.25v-5.45
				C77.57,36.78,79.39,38.7,81.11,40.51z M45.48,68.87h29.67v7.57H45.48V68.87z M74.55,88.96H41.04V40.51h3.13
				c0,1.31,0,43.5,0,44.81c0,0.3,0.3,0.61,0.61,0.61h29.78V88.96z M45.48,84.62v-6.96h30.28c0.3,0,0.61-0.3,0.61-0.61v-8.88
				c0-0.3-0.3-0.61-0.61-0.61H45.48V34.15h29.17v6.96c0,0.3,0.3,0.61,0.61,0.61h6.86v42.9H45.48z"/>
			<path class="st0" d="M34.98,73.32c-1.61,0-2.83,1.31-2.83,2.83c0,1.51,1.31,2.83,2.83,2.83c1.51,0,2.83-1.31,2.83-2.83
				C37.81,74.63,36.59,73.32,34.98,73.32z M34.98,77.66c-0.91,0-1.61-0.71-1.61-1.62c0-0.91,0.71-1.61,1.61-1.61
				c0.91,0,1.62,0.71,1.62,1.61C36.59,76.95,35.89,77.66,34.98,77.66z"/>
			<path class="st0" d="M87.97,32.94c-1.92,0-3.43,1.51-3.43,3.43c0,1.92,1.51,3.43,3.43,3.43c1.92,0,3.43-1.51,3.43-3.43
				C91.4,34.46,89.89,32.94,87.97,32.94z M87.97,38.59c-1.21,0-2.22-1.01-2.22-2.22c0-1.21,1.01-2.22,2.22-2.22
				c1.21,0,2.22,1.01,2.22,2.22C90.19,37.58,89.18,38.59,87.97,38.59z"/>
			<path class="st0" d="M88.68,41.12c0.5,0,0.91,0.41,0.91,0.91c0,0.5-0.41,0.91-0.91,0.91c-0.5,0-0.91-0.41-0.91-0.91
				C87.77,41.52,88.17,41.12,88.68,41.12z"/>
			<path class="st0" d="M86.15,63.83c0.5,0,0.91,0.41,0.91,0.91c0,0.5-0.41,0.91-0.91,0.91c-0.5,0-0.91-0.41-0.91-0.91
				C85.24,64.24,85.65,63.83,86.15,63.83z"/>
			<path class="st0" d="M82.32,88.46c0.5,0,0.91,0.41,0.91,0.91c0,0.5-0.41,0.91-0.91,0.91c-0.5,0-0.91-0.41-0.91-0.91
				C81.41,88.86,81.82,88.46,82.32,88.46z"/>
			<path class="st0" d="M40.73,33.55c0.5,0,0.91,0.41,0.91,0.91c0,0.5-0.41,0.91-0.91,0.91c-0.5,0-0.91-0.41-0.91-0.91
				C39.82,33.95,40.23,33.55,40.73,33.55z"/>
			<path class="st0" d="M34.98,48.69c0.5,0,0.91,0.41,0.91,0.91c0,0.5-0.41,0.91-0.91,0.91c-0.5,0-0.91-0.41-0.91-0.91
				C34.07,49.09,34.48,48.69,34.98,48.69z"/>
			<path class="st0" d="M37.5,67.66c0.5,0,0.91,0.41,0.91,0.91c0,0.5-0.41,0.91-0.91,0.91c-0.5,0-0.91-0.41-0.91-0.91
				C36.59,68.07,37,67.66,37.5,67.66z"/>
			<path class="st0" d="M52.34,46.77h-1.92c-0.3,0-0.61,0.3-0.61,0.61c0,0.3,0.3,0.61,0.61,0.61h1.92c0.3,0,0.61-0.3,0.61-0.61
				C53.05,47.07,52.74,46.77,52.34,46.77z"/>
			<path class="st0" d="M52.34,49.9h-1.92c-0.3,0-0.61,0.3-0.61,0.61c0,0.3,0.3,0.61,0.61,0.61h1.92c0.3,0,0.61-0.3,0.61-0.61
				C53.05,50.2,52.74,49.9,52.34,49.9z"/>
			<path class="st0" d="M52.34,53.13h-1.92c-0.3,0-0.61,0.3-0.61,0.61c0,0.3,0.3,0.61,0.61,0.61h1.92c0.3,0,0.61-0.3,0.61-0.61
				C53.05,53.33,52.74,53.13,52.34,53.13z"/>
			<path class="st0" d="M52.34,56.26h-1.92c-0.3,0-0.61,0.3-0.61,0.61c0,0.3,0.3,0.61,0.61,0.61h1.92c0.3,0,0.61-0.3,0.61-0.61
				C53.05,56.56,52.74,56.26,52.34,56.26z"/>
			<path class="st0" d="M52.34,59.39h-1.92c-0.3,0-0.61,0.3-0.61,0.61c0,0.3,0.3,0.61,0.61,0.61h1.92c0.3,0,0.61-0.3,0.61-0.61
				C53.05,59.69,52.74,59.39,52.34,59.39z"/>
			<path class="st0" d="M52.34,62.52h-1.92c-0.3,0-0.61,0.3-0.61,0.61c0,0.3,0.3,0.61,0.61,0.61h1.92c0.3,0,0.61-0.3,0.61-0.61
				C52.95,62.82,52.74,62.52,52.34,62.52z"/>
			<path class="st0" d="M54.26,47.38c0,0.3,0.3,0.61,0.61,0.61h1.92c0.3,0,0.61-0.3,0.61-0.61c0-0.3-0.3-0.61-0.61-0.61h-1.92
				C54.56,46.77,54.26,47.07,54.26,47.38z"/>
			<path class="st0" d="M63.75,48.08c0.3,0,0.61-0.3,0.61-0.61c0-0.3-0.3-0.61-0.61-0.61H59.3c-0.3,0-0.61,0.3-0.61,0.61
				c0,0.3,0.3,0.61,0.61,0.61H63.75z"/>
			<path class="st0" d="M54.86,51.21h2.52c0.3,0,0.61-0.3,0.61-0.61c0-0.3-0.3-0.61-0.61-0.61h-2.52c-0.3,0-0.61,0.3-0.61,0.61
				C54.26,50.91,54.56,51.21,54.86,51.21z"/>
			<path class="st0" d="M59.91,49.9c-0.3,0-0.61,0.3-0.61,0.61c0,0.3,0.3,0.61,0.61,0.61h5.65c0.3,0,0.61-0.3,0.61-0.61
				c0-0.3-0.3-0.61-0.61-0.61H59.91z"/>
			<path class="st0" d="M54.86,54.34h3.13c0.3,0,0.61-0.3,0.61-0.61c0-0.3-0.3-0.61-0.61-0.61h-3.13c-0.3,0-0.61,0.3-0.61,0.61
				C54.26,54.04,54.56,54.34,54.86,54.34z"/>
			<path class="st0" d="M69.4,53.13h-8.88c-0.3,0-0.61,0.3-0.61,0.61c0,0.3,0.3,0.61,0.61,0.61h8.88c0.3,0,0.61-0.3,0.61-0.61
				C70,53.33,69.7,53.13,69.4,53.13z"/>
			<path class="st0" d="M61.22,56.86c0-0.3-0.3-0.61-0.61-0.61h-5.65c-0.3,0-0.61,0.3-0.61,0.61c0,0.3,0.3,0.61,0.61,0.61h5.65
				C60.92,57.47,61.22,57.27,61.22,56.86z"/>
			<path class="st0" d="M64.35,57.47c0.3,0,0.61-0.3,0.61-0.61c0-0.3-0.3-0.61-0.61-0.61h-1.31c-0.3,0-0.61,0.3-0.61,0.61
				c0,0.3,0.3,0.61,0.61,0.61H64.35z"/>
			<path class="st0" d="M68.79,56.26h-1.92c-0.3,0-0.61,0.3-0.61,0.61c0,0.3,0.3,0.61,0.61,0.61h1.92c0.3,0,0.61-0.3,0.61-0.61
				C69.4,56.56,69.1,56.26,68.79,56.26z"/>
			<path class="st0" d="M54.86,59.39c-0.3,0-0.61,0.3-0.61,0.61c0,0.3,0.3,0.61,0.61,0.61h1.92c0.3,0,0.61-0.3,0.61-0.61
				c0-0.3-0.3-0.61-0.61-0.61H54.86z"/>
			<path class="st0" d="M63.75,60.7c0.3,0,0.61-0.3,0.61-0.61s-0.3-0.61-0.61-0.61H59.3c-0.3,0-0.61,0.3-0.61,0.61
				S59,60.7,59.3,60.7H63.75z"/>
			<path class="st0" d="M68.79,59.39h-2.52c-0.3,0-0.61,0.3-0.61,0.61c0,0.3,0.3,0.61,0.61,0.61h2.52c0.3,0,0.61-0.3,0.61-0.61
				C69.4,59.69,69.1,59.39,68.79,59.39z"/>
			<path class="st0" d="M57.39,62.52h-2.52c-0.3,0-0.61,0.3-0.61,0.61c0,0.3,0.3,0.61,0.61,0.61h2.52c0.3,0,0.61-0.3,0.61-0.61
				C57.99,62.82,57.79,62.52,57.39,62.52z"/>
			<path class="st0" d="M65.66,62.52h-5.65c-0.3,0-0.61,0.3-0.61,0.61c0,0.3,0.3,0.61,0.61,0.61h5.65c0.3,0,0.61-0.3,0.61-0.61
				C66.27,62.82,65.97,62.52,65.66,62.52z"/>
			<path class="st0" d="M54.76,44.04c0.2-0.3,0.2-0.71-0.1-0.91l-2.52-2.02l2.52-2.02c0.3-0.2,0.3-0.61,0.1-0.91
				c-0.2-0.3-0.61-0.3-0.91-0.1l-3.13,2.52c-0.3,0.3-0.3,0.71,0,1.01l3.13,2.52C54.16,44.35,54.56,44.25,54.76,44.04z"/>
			<path class="st0" d="M61.32,44.04c0.2,0.3,0.61,0.3,0.91,0.1l3.13-2.52c0.3-0.3,0.3-0.71,0-1.01l-3.13-2.52
				c-0.3-0.2-0.71-0.2-0.91,0.1c-0.2,0.3-0.2,0.71,0.1,0.91l2.52,2.02l-2.52,2.02C61.12,43.34,61.12,43.74,61.32,44.04z"/>
			<path class="st0" d="M56.78,43.64c0.2,0,0.4-0.1,0.5-0.3l2.52-4.44c0.2-0.3,0.1-0.71-0.2-0.91c-0.3-0.2-0.71-0.1-0.91,0.2
				l-2.42,4.54C55.97,43.14,56.28,43.64,56.78,43.64z"/>
		</g>
	</g>
</g>
</svg>
